<svg width="15" height="14" viewBox="0 0 15 14" fill="none" xmlns="http://www.w3.org/2000/svg">
<path fill-rule="evenodd" clip-rule="evenodd" d="M9.79735 12.8213C9.44129 12.9093 9.06564 12.7908 8.82685 12.5152L4.93951 8.02933V1.15005H11.6137C12.0756 1.15005 12.4733 1.47249 12.5639 1.92051L13.494 6.5207C13.6139 7.11375 13.1553 7.66703 12.5439 7.66703H9.00897C8.79457 7.66703 8.59757 7.78375 8.49641 7.97073C8.39524 8.15771 8.40633 8.38458 8.52526 8.56103L10.4056 11.3507C10.4056 11.3508 10.4056 11.3508 10.4056 11.3508C10.7772 11.9022 10.4844 12.6514 9.83433 12.8121L9.79753 12.8213C9.79752 12.8213 9.79751 12.8213 9.7975 12.8213C9.79745 12.8213 9.7974 12.8213 9.79735 12.8213ZM3.77681 1.15005V7.66702L1.83897 7.66703V1.15005H3.77681ZM4.09078 8.81707L7.94406 13.2636C8.46951 13.87 9.29616 14.1307 10.0795 13.937L10.1163 13.9279C11.5464 13.5742 12.1906 11.926 11.373 10.7129L11.373 10.7128L10.0952 8.81709H12.5439C13.889 8.81709 14.8979 7.59987 14.6342 6.29518L13.704 1.69496C13.5047 0.709404 12.6299 0 11.6137 0H1.25762C0.936549 0 0.67627 0.257447 0.67627 0.575026V8.24206C0.67627 8.39457 0.737519 8.54083 0.846544 8.64866C0.95557 8.7565 1.10344 8.81709 1.25762 8.81709L4.09078 8.81707Z" fill="black"/>
</svg>
