<svg width="15" height="14" viewBox="0 0 15 14" fill="none" xmlns="http://www.w3.org/2000/svg">
<path fill-rule="evenodd" clip-rule="evenodd" d="M7.94406 0.736351L4.93951 4.23314L4.93951 5.97067V12.8499V14H11.6137C12.6299 14 13.5047 13.2906 13.704 12.305L14.6342 7.70482C14.8979 6.40013 13.889 5.18291 12.5439 5.18291H10.0952L11.373 3.28714C12.1906 2.07399 11.5464 0.425776 10.1163 0.0721382L10.0795 0.0630186C9.29616 -0.130663 8.46951 0.129993 7.94406 0.736351ZM1.25762 5.18291L3.77681 5.18293L3.77681 6.33298V12.8499V14H1.25762C0.936549 14 0.67627 13.7426 0.67627 13.425V5.75794C0.67627 5.60543 0.737519 5.45917 0.846544 5.35134C0.95557 5.2435 1.10344 5.18291 1.25762 5.18291Z" fill="#4C956C"/>
</svg>
