<svg width="389" height="33" viewBox="0 0 389 33" fill="none" xmlns="http://www.w3.org/2000/svg">
<path d="M7.43937 9.37582C4.90907 11.9061 3.26207 14.9353 2.6991 17.844C2.13813 20.7424 2.63832 23.6961 4.68261 25.7404C6.7269 27.7847 9.68064 28.2849 12.579 27.7239C15.4877 27.161 18.5169 25.514 21.0472 22.9837C23.5775 20.4534 25.2245 17.4241 25.7875 14.5154C26.3485 11.6171 25.8483 8.66334 23.804 6.61905C21.7597 4.57477 18.8059 4.07457 15.9076 4.63555C12.9989 5.19852 9.96967 6.84552 7.43937 9.37582Z" fill="#644D3A" stroke="black" stroke-width="3"/>
<path d="M105.108 5.97524C101.28 4.94942 97.469 5.04932 94.3806 6.11551C91.3021 7.17827 88.7824 9.27546 87.9668 12.3194C87.1512 15.3632 88.2847 18.4393 90.4194 20.8989C92.5609 23.3664 95.8113 25.3584 99.6398 26.3843C103.468 27.4101 107.279 27.3102 110.368 26.244C113.446 25.1813 115.966 23.0841 116.781 20.0402C117.597 16.9963 116.463 13.9202 114.329 11.4606C112.187 8.99307 108.937 7.00107 105.108 5.97524Z" fill="#8B6B54" stroke="black" stroke-width="3"/>
<path d="M180.966 20.9865C182.754 24.0823 185.251 26.4549 187.912 27.7503C190.564 29.041 193.544 29.3222 196.046 27.8779C198.547 26.4336 199.794 23.7123 200.002 20.7703C200.211 17.8179 199.405 14.4689 197.617 11.373C195.83 8.27716 193.333 5.90458 190.671 4.6092C188.019 3.31844 185.04 3.03726 182.538 4.48158C180.036 5.9259 178.79 8.64718 178.582 11.5891C178.373 14.5416 179.179 17.8906 180.966 20.9865Z" fill="#644D3A" stroke="black" stroke-width="3"/>
<path d="M273.068 6.15603C269.278 8.34414 266.387 11.3943 264.814 14.6255C263.246 17.8473 262.928 21.4142 264.643 24.3848C266.358 27.3554 269.606 28.864 273.18 29.1168C276.765 29.3704 280.852 28.3916 284.642 26.2035C288.432 24.0153 291.323 20.9652 292.896 17.734C294.464 14.5122 294.782 10.9453 293.067 7.9747C291.351 5.0041 288.104 3.4955 284.53 3.24269C280.945 2.98913 276.858 3.96792 273.068 6.15603Z" fill="#8B6B54" stroke="black" stroke-width="3"/>
<path d="M374.582 5.40219C370.519 4.31361 366.479 4.42084 363.209 5.54961C359.95 6.67495 357.297 8.88997 356.439 12.0921C355.581 15.2942 356.771 18.539 359.031 21.1434C361.298 23.7558 364.743 25.8688 368.806 26.9573C372.869 28.0459 376.909 27.9387 380.179 26.8099C383.438 25.6846 386.091 23.4696 386.949 20.2674C387.807 17.0653 386.617 13.8205 384.357 11.2161C382.09 8.60373 378.644 6.49077 374.582 5.40219Z" fill="#644D3A" stroke="black" stroke-width="3"/>
</svg>
