<svg width="26" height="27" viewBox="0 0 26 27" fill="none" xmlns="http://www.w3.org/2000/svg">
<path d="M22.9343 18.3627C21.1331 20.1659 18.7345 21.2484 16.1903 21.4062C13.6462 21.5641 11.1321 20.7864 9.12172 19.2197L2.20438 26.135C1.95906 26.3718 1.63049 26.5029 1.28944 26.5C0.948389 26.497 0.622147 26.3602 0.38098 26.1191C0.139811 25.878 0.00301361 25.5519 4.95911e-05 25.2109C-0.00291443 24.87 0.128193 24.5415 0.365133 24.2963L7.28247 17.381C5.64575 15.2811 4.87194 12.6361 5.11885 9.9855C5.36575 7.33488 6.61478 4.87824 8.6112 3.1166C10.6076 1.35496 13.2011 0.42102 15.8626 0.505238C18.5241 0.589457 21.0533 1.6855 22.9343 3.56983C23.9062 4.54096 24.6772 5.69403 25.2032 6.96313C25.7293 8.23224 26 9.59253 26 10.9663C26 12.34 25.7293 13.7003 25.2032 14.9694C24.6772 16.2385 23.9062 17.3916 22.9343 18.3627ZM21.095 5.41114C19.8092 4.12566 18.1172 3.32567 16.3075 3.14746C14.4978 2.96926 12.6822 3.42386 11.1702 4.43382C9.65813 5.44377 8.54314 6.9466 8.01518 8.68624C7.48721 10.4259 7.57894 12.2947 8.27472 13.9743C8.97051 15.654 10.2273 17.0404 11.831 17.8976C13.4347 18.7547 15.286 19.0294 17.0696 18.6749C18.8532 18.3205 20.4587 17.3587 21.6125 15.9536C22.7663 14.5484 23.3971 12.7868 23.3974 10.9689C23.4009 9.93583 23.1992 8.91237 22.804 7.95787C22.4088 7.00336 21.8279 6.13683 21.095 5.40854V5.41114ZM21.6362 10.965C21.6362 10.6201 21.4991 10.2893 21.2552 10.0455C21.0112 9.80162 20.6804 9.66461 20.3354 9.66461C19.9904 9.66461 19.6596 9.80162 19.4156 10.0455C19.1717 10.2893 19.0347 10.6201 19.0347 10.965C19.0336 11.892 18.6648 12.7808 18.0091 13.4364C17.3534 14.0919 16.4643 14.4606 15.537 14.4616C15.192 14.4616 14.8612 14.5986 14.6172 14.8425C14.3733 15.0864 14.2362 15.4171 14.2362 15.762C14.2362 16.1069 14.3733 16.4376 14.6172 16.6815C14.8612 16.9254 15.192 17.0624 15.537 17.0624C17.1534 17.0586 18.7026 16.415 19.8456 15.2723C20.9886 14.1296 21.6324 12.5809 21.6362 10.965Z" fill="white"/>
</svg>
