<svg width="412" height="37" viewBox="0 0 412 37" fill="none" xmlns="http://www.w3.org/2000/svg">
<g clip-path="url(#clip0_358_10611)">
<path d="M0 -1.5C-0.828427 -1.5 -1.5 -0.828427 -1.5 0V34C-1.5 34.552 -1.19684 35.0594 -0.710757 35.3209C-0.224674 35.5825 0.365783 35.5559 0.826433 35.2518L26.5764 18.2518C41.6935 8.27161 61.3065 8.2716 76.4236 18.2518C92.5432 28.8939 113.457 28.8939 129.576 18.2518C144.693 8.2716 164.307 8.2716 179.424 18.2518C195.543 28.8939 216.457 28.8939 232.576 18.2518C247.693 8.2716 267.306 8.2716 282.424 18.2518C298.543 28.8939 319.457 28.8939 335.576 18.2518C350.694 8.2716 370.306 8.2716 385.424 18.2518L411.174 35.2518C411.634 35.5559 412.225 35.5825 412.711 35.3209C413.197 35.0594 413.5 34.552 413.5 34V0C413.5 -0.828427 412.828 -1.5 412 -1.5H0Z" fill="#DDE5B6" stroke="black" stroke-width="3" stroke-linejoin="round"/>
</g>
<defs>
<clipPath id="clip0_358_10611">
<rect width="412" height="37" fill="white"/>
</clipPath>
</defs>
</svg>
