<svg width="1440" height="142" viewBox="0 0 1440 142" fill="none" xmlns="http://www.w3.org/2000/svg">
<g clip-path="url(#clip0_215_13510)">
<path d="M0.728464 40.6888C0.263868 40.4307 -0.302625 40.4377 -0.760692 40.7072C-1.21876 40.9767 -1.5 41.4685 -1.5 42V142C-1.5 142.828 -0.828427 143.5 0 143.5H1440C1440.83 143.5 1441.5 142.828 1441.5 142V42C1441.5 41.4685 1441.22 40.9767 1440.76 40.7072C1440.3 40.4377 1439.74 40.4307 1439.27 40.6888L1380.04 73.5979C1360.8 84.2841 1337.96 86.4065 1317.09 79.4482L1289.91 70.3889C1270.62 63.9583 1249.62 64.972 1231.04 73.2309L1197.74 88.0277C1179.85 95.9825 1159.62 96.9589 1141.04 90.7651L1109.91 80.3889C1090.62 73.9583 1069.62 74.972 1051.04 83.2309L1017.74 98.0277C999.846 105.983 979.62 106.959 961.039 100.765L929.91 90.3889C910.618 83.9583 889.62 84.972 871.037 93.2309L837.744 108.028C819.846 115.983 799.62 116.959 781.039 110.765L745.773 99.0097C729.043 93.4333 710.957 93.4333 694.227 99.0097L658.961 110.765C640.38 116.959 620.154 115.983 602.256 108.028L568.963 93.2309C550.38 84.972 529.382 83.9583 510.09 90.3889L478.961 100.765C460.38 106.959 440.154 105.983 422.256 98.0277L388.963 83.2309C370.38 74.972 349.382 73.9583 330.09 80.3889L298.961 90.7651C280.38 96.9589 260.154 95.9825 242.256 88.0277L208.963 73.2309C190.38 64.972 169.382 63.9583 150.09 70.3888L122.912 79.4482C102.037 86.4065 79.2 84.2841 59.965 73.598L0.728464 40.6888Z" fill="#F7B779" stroke="black" stroke-width="3" stroke-linejoin="round"/>
<path d="M36.5829 77.3605C33.481 74.2585 29.7473 72.2177 26.1241 71.5164C22.5181 70.8185 18.7294 71.422 16.0757 74.0756C13.4221 76.7293 12.8186 80.518 13.5165 84.124C14.2178 87.7472 16.2586 91.4809 19.3606 94.5829C22.4625 97.6848 26.1962 99.7256 29.8194 100.427C33.4254 101.125 37.2141 100.521 39.8678 97.8677C42.5214 95.2141 43.1249 91.4253 42.427 87.8193C41.7257 84.1961 39.6849 80.4624 36.5829 77.3605Z" fill="#644D3A" stroke="black" stroke-width="5"/>
<path d="M541.82 104.209C537.582 105.344 533.948 107.557 531.529 110.344C529.122 113.118 527.75 116.701 528.721 120.326C529.693 123.951 532.672 126.368 536.144 127.566C539.632 128.771 543.886 128.87 548.124 127.735C552.361 126.599 555.995 124.386 558.414 121.599C560.822 118.825 562.193 115.242 561.222 111.617C560.251 107.993 557.271 105.575 553.799 104.377C550.311 103.173 546.057 103.073 541.82 104.209Z" fill="#8B6B54" stroke="black" stroke-width="5"/>
<path d="M211.251 96.5092C207.452 98.7026 204.515 101.781 202.899 105.099C201.292 108.402 200.894 112.217 202.771 115.467C204.647 118.718 208.151 120.281 211.814 120.54C215.496 120.801 219.63 119.796 223.429 117.602C227.229 115.409 230.166 112.331 231.781 109.012C233.389 105.71 233.786 101.894 231.91 98.6439C230.034 95.3939 226.53 93.8304 222.866 93.5712C219.185 93.3108 215.051 94.3158 211.251 96.5092Z" fill="#8B6B54" stroke="black" stroke-width="5"/>
<path d="M142 96.5C135.776 96.5 130.029 98.1773 125.764 101.02C121.517 103.852 118.5 108.038 118.5 113C118.5 117.962 121.517 122.148 125.764 124.98C130.029 127.823 135.776 129.5 142 129.5C148.224 129.5 153.971 127.823 158.236 124.98C162.483 122.148 165.5 117.962 165.5 113C165.5 108.038 162.483 103.852 158.236 101.02C153.971 98.1773 148.224 96.5 142 96.5Z" fill="#644D3A" stroke="black" stroke-width="5"/>
<path d="M370.81 122.98C375.347 120.36 378.847 116.71 380.775 112.811C382.694 108.93 383.165 104.51 381.012 100.782C378.86 97.0531 374.797 95.2513 370.477 94.9727C366.136 94.6927 361.225 95.8987 356.687 98.5182C352.15 101.138 348.65 104.788 346.722 108.687C344.803 112.568 344.332 116.987 346.485 120.716C348.638 124.445 352.701 126.247 357.021 126.525C361.362 126.805 366.273 125.599 370.81 122.98Z" fill="#644D3A" stroke="black" stroke-width="5"/>
<path d="M1403.42 77.3605C1406.52 74.2585 1410.25 72.2177 1413.88 71.5165C1417.48 70.8185 1421.27 71.422 1423.92 74.0757C1426.58 76.7293 1427.18 80.518 1426.48 84.124C1425.78 87.7473 1423.74 91.4809 1420.64 94.5829C1417.54 97.6849 1413.8 99.7257 1410.18 100.427C1406.57 101.125 1402.79 100.521 1400.13 97.8678C1397.48 95.2141 1396.88 91.4254 1397.57 87.8194C1398.27 84.1962 1400.32 80.4625 1403.42 77.3605Z" fill="#644D3A" stroke="black" stroke-width="5"/>
<path d="M898.18 104.209C902.418 105.344 906.052 107.557 908.471 110.344C910.878 113.118 912.25 116.701 911.279 120.326C910.307 123.951 907.328 126.368 903.856 127.567C900.368 128.771 896.114 128.87 891.876 127.735C887.639 126.599 884.005 124.386 881.586 121.599C879.178 118.825 877.807 115.242 878.778 111.618C879.749 107.993 882.729 105.576 886.201 104.377C889.689 103.173 893.943 103.073 898.18 104.209Z" fill="#8B6B54" stroke="black" stroke-width="5"/>
<path d="M1228.75 96.5093C1232.55 98.7027 1235.49 101.781 1237.1 105.099C1238.71 108.402 1239.11 112.218 1237.23 115.468C1235.35 118.718 1231.85 120.281 1228.19 120.54C1224.5 120.801 1220.37 119.796 1216.57 117.602C1212.77 115.409 1209.83 112.331 1208.22 109.012C1206.61 105.71 1206.21 101.894 1208.09 98.644C1209.97 95.394 1213.47 93.8304 1217.13 93.5713C1220.81 93.3109 1224.95 94.3158 1228.75 96.5093Z" fill="#8B6B54" stroke="black" stroke-width="5"/>
<path d="M1298 96.5001C1304.22 96.5001 1309.97 98.1773 1314.24 101.02C1318.48 103.852 1321.5 108.038 1321.5 113C1321.5 117.962 1318.48 122.148 1314.24 124.98C1309.97 127.823 1304.22 129.5 1298 129.5C1291.78 129.5 1286.03 127.823 1281.76 124.98C1277.52 122.148 1274.5 117.962 1274.5 113C1274.5 108.038 1277.52 103.852 1281.76 101.02C1286.03 98.1773 1291.78 96.5001 1298 96.5001Z" fill="#644D3A" stroke="black" stroke-width="5"/>
<path d="M1069.19 122.98C1064.65 120.36 1061.15 116.71 1059.22 112.811C1057.31 108.93 1056.83 104.511 1058.99 100.782C1061.14 97.0532 1065.2 95.2514 1069.52 94.9727C1073.86 94.6928 1078.78 95.8987 1083.31 98.5183C1087.85 101.138 1091.35 104.788 1093.28 108.687C1095.2 112.568 1095.67 116.987 1093.51 120.716C1091.36 124.445 1087.3 126.247 1082.98 126.525C1078.64 126.805 1073.73 125.599 1069.19 122.98Z" fill="#644D3A" stroke="black" stroke-width="5"/>
<g filter="url(#filter0_i_215_13510)">
<path d="M713.039 3.87813C717.007 1.46062 721.993 1.46062 725.961 3.87813L729.009 5.73452C729.047 5.75776 729.065 5.80313 729.054 5.84643C727.501 11.9901 733.25 17.4763 739.314 15.6388L740.148 15.3862C740.211 15.3671 740.273 15.4174 740.268 15.4831C739.806 21.3602 746.004 25.4398 751.22 22.6912L751.836 22.3663C751.889 22.3382 751.955 22.3644 751.975 22.4215L754.74 30.5046C755.063 31.4501 755.489 32.3577 756.009 33.2111L757.122 35.0386C759.539 39.007 759.539 43.993 757.122 47.9614C755.884 49.9929 755.256 52.3371 755.312 54.7152C755.422 59.3607 752.929 63.6787 748.851 65.9066C746.763 67.0472 745.047 68.7633 743.907 70.8508C741.679 74.9286 737.361 77.4216 732.715 77.3122C730.337 77.2562 727.993 77.8843 725.961 79.1219C721.993 81.5394 717.007 81.5394 713.039 79.1219C711.007 77.8843 708.663 77.2562 706.285 77.3122C701.639 77.4216 697.321 74.9286 695.093 70.8508C693.953 68.7633 692.237 67.0472 690.149 65.9066C686.071 63.6787 683.578 59.3607 683.688 54.7152C683.744 52.3371 683.116 49.9929 681.878 47.9614C679.461 43.993 679.461 39.007 681.878 35.0386C683.116 33.0071 683.744 30.6629 683.688 28.2848C683.578 23.6393 686.071 19.3213 690.149 17.0933C692.237 15.9528 693.953 14.2367 695.093 12.1492C697.321 8.07137 701.639 5.57839 706.285 5.68781C708.663 5.74383 711.007 5.1157 713.039 3.87813Z" fill="#F7B779"/>
<path fill-rule="evenodd" clip-rule="evenodd" d="M750.257 20.8644L750.873 20.5395C752.048 19.9202 753.499 20.4964 753.929 21.7532L756.694 29.8362C756.969 30.64 757.33 31.4114 757.772 32.1368L758.885 33.9643C761.705 38.5925 761.705 44.4075 758.885 49.0357C757.854 50.7294 757.33 52.6839 757.377 54.6666C757.504 60.0845 754.597 65.1204 749.841 67.7188C748.1 68.6697 746.67 70.1005 745.719 71.8409C743.12 76.5967 738.084 79.5042 732.667 79.3766C730.684 79.3299 728.729 79.8536 727.036 80.8854C722.407 83.7049 716.593 83.7049 711.964 80.8854C710.271 79.8536 708.316 79.3299 706.333 79.3766C700.916 79.5042 695.88 76.5967 693.281 71.8409C692.33 70.1005 690.9 68.6697 689.159 67.7188C684.403 65.1204 681.496 60.0845 681.623 54.6666C681.67 52.6839 681.146 50.7294 680.115 49.0357C677.295 44.4075 677.295 38.5925 680.115 33.9643C681.146 32.2706 681.67 30.3161 681.623 28.3334C681.496 22.9155 684.403 17.8796 689.159 15.2812C690.9 14.3303 692.33 12.8995 693.281 11.1591C695.88 6.40326 700.916 3.49577 706.333 3.62339C708.316 3.67009 710.271 3.1464 711.964 2.11459C716.593 -0.704864 722.407 -0.704865 727.036 2.11459L730.083 3.97099C730.895 4.46542 731.289 5.43104 731.056 6.3525C729.897 10.9387 734.188 15.0343 738.715 13.6625L739.549 13.4099C741.004 12.9692 742.446 14.1297 742.327 15.6449C741.992 19.9006 746.48 22.8546 750.257 20.8644ZM740.37 17.4767C741.179 21.8302 745.754 24.6209 750.055 23.1892C750.056 23.1889 750.057 23.1886 750.058 23.1883C750.448 23.0581 750.837 22.8931 751.22 22.6912L751.836 22.3663C751.889 22.3382 751.955 22.3644 751.975 22.4215L754.74 30.5046C755.063 31.4501 755.489 32.3577 756.009 33.2111L757.122 35.0386C759.539 39.007 759.539 43.993 757.122 47.9614C755.884 49.9929 755.256 52.3371 755.312 54.7152C755.422 59.3607 752.929 63.6787 748.851 65.9066C746.763 67.0472 745.047 68.7633 743.907 70.8508C741.679 74.9286 737.361 77.4216 732.715 77.3122C730.337 77.2562 727.993 77.8843 725.961 79.1219C721.993 81.5394 717.007 81.5394 713.039 79.1219C711.007 77.8843 708.663 77.2562 706.285 77.3122C701.639 77.4216 697.321 74.9286 695.093 70.8508C693.953 68.7633 692.237 67.0472 690.149 65.9066C686.071 63.6787 683.578 59.3607 683.688 54.7152C683.744 52.3371 683.116 49.9929 681.878 47.9614C679.461 43.993 679.461 39.007 681.878 35.0386C683.116 33.0071 683.744 30.6629 683.688 28.2848C683.578 23.6393 686.071 19.3213 690.149 17.0933C692.237 15.9528 693.953 14.2367 695.093 12.1492C697.321 8.07137 701.639 5.57839 706.285 5.68781C708.663 5.74383 711.007 5.1157 713.039 3.87813C717.007 1.46062 721.993 1.46062 725.961 3.87813L729.009 5.73452C729.047 5.75776 729.065 5.80313 729.054 5.84643C727.599 11.6055 732.559 16.7869 738.181 15.8994C738.202 15.896 738.224 15.8925 738.246 15.8889C738.6 15.8301 738.957 15.7472 739.314 15.6388L740.148 15.3862C740.211 15.3671 740.273 15.4174 740.268 15.4831C740.262 15.5664 740.257 15.6493 740.253 15.7319C740.225 16.3219 740.264 16.8928 740.363 17.4392C740.365 17.4517 740.367 17.4642 740.37 17.4767Z" fill="black"/>
</g>
<path d="M738.343 5.70673C738.343 6.22945 737.919 6.65319 737.397 6.65319C736.874 6.65319 736.45 6.22945 736.45 5.70673C736.45 5.18402 736.874 4.76027 737.397 4.76027C737.919 4.76027 738.343 5.18402 738.343 5.70673Z" fill="#F7B779"/>
<path d="M749.701 5.10444C749.701 5.95979 749.007 6.65319 748.152 6.65319C747.297 6.65319 746.603 5.95979 746.603 5.10444C746.603 4.24909 747.297 3.55569 748.152 3.55569C749.007 3.55569 749.701 4.24909 749.701 5.10444Z" fill="#F7B779"/>
<path d="M747.636 18.1828C747.636 18.658 747.25 19.0432 746.775 19.0432C746.3 19.0432 745.915 18.658 745.915 18.1828C745.915 17.7076 746.3 17.3223 746.775 17.3223C747.25 17.3223 747.636 17.7076 747.636 18.1828Z" fill="#F7B779"/>
<path fill-rule="evenodd" clip-rule="evenodd" d="M739.376 5.70673C739.376 6.79968 738.49 7.68569 737.397 7.68569C736.304 7.68569 735.418 6.79968 735.418 5.70673C735.418 4.61378 736.304 3.72778 737.397 3.72778C738.49 3.72778 739.376 4.61378 739.376 5.70673ZM750.733 5.10444C750.733 6.53002 749.577 7.68569 748.152 7.68569C746.726 7.68569 745.571 6.53002 745.571 5.10444C745.571 3.67886 746.726 2.52319 748.152 2.52319C749.577 2.52319 750.733 3.67886 750.733 5.10444ZM748.668 18.1828C748.668 19.2282 747.821 20.0757 746.775 20.0757C745.73 20.0757 744.882 19.2282 744.882 18.1828C744.882 17.1373 745.73 16.2898 746.775 16.2898C747.821 16.2898 748.668 17.1373 748.668 18.1828ZM749.701 5.10444C749.701 5.95979 749.007 6.65319 748.152 6.65319C747.297 6.65319 746.603 5.95979 746.603 5.10444C746.603 4.24909 747.297 3.55569 748.152 3.55569C749.007 3.55569 749.701 4.24909 749.701 5.10444ZM738.343 5.70673C738.343 6.22945 737.919 6.65319 737.397 6.65319C736.874 6.65319 736.45 6.22945 736.45 5.70673C736.45 5.18402 736.874 4.76027 737.397 4.76027C737.919 4.76027 738.343 5.18402 738.343 5.70673ZM746.775 19.0432C747.25 19.0432 747.636 18.658 747.636 18.1828C747.636 17.7076 747.25 17.3223 746.775 17.3223C746.3 17.3223 745.915 17.7076 745.915 18.1828C745.915 18.658 746.3 19.0432 746.775 19.0432Z" fill="black"/>
<path d="M696.235 31.7247C696.554 32.9181 695.288 34.2943 693.406 34.7986C691.524 35.3028 689.739 34.7442 689.42 33.5508C689.1 32.3574 690.366 30.9811 692.248 30.4769C694.13 29.9726 695.915 30.5313 696.235 31.7247Z" fill="#644D3A"/>
<path d="M712.227 15.8292C711.87 17.1604 709.906 17.7908 707.841 17.2373C705.775 16.6839 704.39 15.1561 704.747 13.825C705.103 12.4939 707.067 11.8635 709.133 12.4169C711.198 12.9704 712.583 14.4981 712.227 15.8292Z" fill="#644D3A"/>
<path d="M753.486 43.565C753.486 44.753 751.984 45.716 750.131 45.716C748.278 45.716 746.775 44.753 746.775 43.565C746.775 42.377 748.278 41.414 750.131 41.414C751.984 41.414 753.486 42.377 753.486 43.565Z" fill="#644D3A"/>
<path d="M736.395 66.4062C735.063 66.0495 734.433 64.0859 734.987 62.0204C735.54 59.9549 737.068 58.5696 738.399 58.9263C739.73 59.283 740.36 61.2465 739.807 63.312C739.253 65.3775 737.726 66.7628 736.395 66.4062Z" fill="#8B6B54"/>
<path d="M719.586 68.0868C719.586 69.7025 717.583 71.0123 715.112 71.0123C712.641 71.0123 710.638 69.7025 710.638 68.0868C710.638 66.4712 712.641 65.1614 715.112 65.1614C717.583 65.1614 719.586 66.4712 719.586 68.0868Z" fill="#644D3A"/>
<path d="M699.065 59.9965C697.872 60.6855 696.038 59.7428 694.968 57.8909C693.899 56.039 694 53.9792 695.193 53.2902C696.387 52.6012 698.221 53.5438 699.29 55.3957C700.359 57.2476 700.259 59.3074 699.065 59.9965Z" fill="#8B6B54"/>
<path d="M733.697 20.9361C733.697 21.9815 732.387 22.829 730.772 22.829C729.156 22.829 727.846 21.9815 727.846 20.9361C727.846 19.8907 729.156 19.0432 730.772 19.0432C732.387 19.0432 733.697 19.8907 733.697 20.9361Z" fill="#8B6B54"/>
<path fill-rule="evenodd" clip-rule="evenodd" d="M697.166 34.9183C696.35 35.8045 695.201 36.4555 693.941 36.7932C692.68 37.1309 691.36 37.1418 690.21 36.782C689.09 36.4312 687.832 35.6038 687.425 34.0852C687.018 32.5667 687.694 31.2212 688.489 30.3571C689.304 29.4709 690.453 28.82 691.714 28.4822C692.974 28.1445 694.295 28.1337 695.444 28.4935C696.565 28.8442 697.822 29.6717 698.229 31.1902C698.636 32.7088 697.961 34.0542 697.166 34.9183ZM711.306 19.2061C710.081 19.5993 708.665 19.5959 707.306 19.2319C705.948 18.868 704.72 18.1626 703.856 17.2099C703.009 16.2761 702.331 14.8625 702.752 13.2906C703.173 11.7186 704.467 10.8334 705.668 10.4481C706.892 10.055 708.309 10.0584 709.667 10.4223C711.025 10.7863 712.254 11.4916 713.118 12.4444C713.964 13.3781 714.643 14.7917 714.221 16.3637C713.8 17.9357 712.506 18.8208 711.306 19.2061ZM753.618 46.8245C752.631 47.4572 751.392 47.781 750.131 47.781C748.869 47.781 747.631 47.4572 746.644 46.8245C745.679 46.2063 744.71 45.1027 744.71 43.565C744.71 42.0274 745.679 40.9237 746.644 40.3055C747.631 39.6728 748.869 39.349 750.131 39.349C751.392 39.349 752.631 39.6728 753.618 40.3055C754.582 40.9237 755.551 42.0274 755.551 43.565C755.551 45.1027 754.582 46.2063 753.618 46.8245ZM733.018 65.4854C732.625 64.2608 732.628 62.8443 732.992 61.486C733.356 60.1276 734.061 58.8992 735.014 58.0353C735.948 57.1886 737.361 56.5104 738.933 56.9317C740.505 57.3529 741.39 58.6469 741.776 59.8471C742.169 61.0716 742.165 62.4882 741.802 63.8465C741.438 65.2048 740.732 66.4333 739.779 67.2972C738.846 68.1439 737.432 68.822 735.86 68.4008C734.288 67.9796 733.403 66.6855 733.018 65.4854ZM719.406 71.8838C718.214 72.6628 716.69 73.0773 715.112 73.0773C713.534 73.0773 712.01 72.6628 710.818 71.8838C709.645 71.1167 708.573 69.8188 708.573 68.0868C708.573 66.3549 709.645 65.057 710.818 64.2899C712.01 63.5109 713.534 63.0964 715.112 63.0964C716.69 63.0964 718.214 63.5109 719.406 64.2899C720.579 65.057 721.651 66.3549 721.651 68.0868C721.651 69.8188 720.579 71.1167 719.406 71.8838ZM696.026 61.7332C694.882 61.1453 693.883 60.1413 693.18 58.9234C692.477 57.7056 692.107 56.3382 692.17 55.0536C692.231 53.7946 692.751 52.3156 694.161 51.5018C695.57 50.6881 697.111 50.9773 698.232 51.5535C699.376 52.1414 700.375 53.1454 701.079 54.3632C701.782 55.5811 702.152 56.9485 702.089 58.233C702.027 59.492 701.507 60.9711 700.098 61.7848C698.688 62.5985 697.147 62.3094 696.026 61.7332ZM733.962 24.0083C733.052 24.5972 731.918 24.894 730.772 24.894C729.625 24.894 728.491 24.5972 727.581 24.0083C726.692 23.4327 725.781 22.3932 725.781 20.9361C725.781 19.479 726.692 18.4395 727.581 17.8639C728.491 17.2749 729.625 16.9782 730.772 16.9782C731.918 16.9782 733.052 17.2749 733.962 17.8639C734.851 18.4395 735.762 19.479 735.762 20.9361C735.762 22.3932 734.851 23.4327 733.962 24.0083ZM712.227 15.8292C711.87 17.1604 709.906 17.7908 707.841 17.2373C705.775 16.6839 704.39 15.1561 704.747 13.825C705.103 12.4939 707.067 11.8635 709.133 12.4169C711.198 12.9704 712.583 14.4981 712.227 15.8292ZM696.235 31.7247C696.554 32.9181 695.288 34.2943 693.406 34.7986C691.524 35.3028 689.739 34.7442 689.42 33.5508C689.1 32.3574 690.366 30.9811 692.248 30.4769C694.13 29.9726 695.915 30.5313 696.235 31.7247ZM750.131 45.716C751.984 45.716 753.486 44.753 753.486 43.565C753.486 42.377 751.984 41.414 750.131 41.414C748.278 41.414 746.775 42.377 746.775 43.565C746.775 44.753 748.278 45.716 750.131 45.716ZM736.395 66.4062C735.063 66.0495 734.433 64.0859 734.987 62.0204C735.54 59.9549 737.068 58.5696 738.399 58.9263C739.73 59.283 740.36 61.2465 739.807 63.312C739.253 65.3775 737.726 66.7628 736.395 66.4062ZM715.112 71.0123C717.583 71.0123 719.586 69.7025 719.586 68.0868C719.586 66.4712 717.583 65.1614 715.112 65.1614C712.641 65.1614 710.638 66.4712 710.638 68.0868C710.638 69.7025 712.641 71.0123 715.112 71.0123ZM699.065 59.9965C697.872 60.6855 696.038 59.7428 694.968 57.8909C693.899 56.039 694 53.9792 695.193 53.2902C696.387 52.6012 698.221 53.5438 699.29 55.3957C700.359 57.2476 700.259 59.3074 699.065 59.9965ZM730.772 22.829C732.387 22.829 733.697 21.9815 733.697 20.9361C733.697 19.8907 732.387 19.0432 730.772 19.0432C729.156 19.0432 727.846 19.8907 727.846 20.9361C727.846 21.9815 729.156 22.829 730.772 22.829Z" fill="black"/>
<path fill-rule="evenodd" clip-rule="evenodd" d="M707.024 34.2726C707.594 34.2726 708.057 34.7348 708.057 35.3051V39.8653C708.057 40.4355 707.594 40.8978 707.024 40.8978C706.454 40.8978 705.992 40.4355 705.992 39.8653V35.3051C705.992 34.7348 706.454 34.2726 707.024 34.2726ZM731.804 34.2726C732.374 34.2726 732.837 34.7348 732.837 35.3051V39.8653C732.837 40.4355 732.374 40.8978 731.804 40.8978C731.234 40.8978 730.772 40.4355 730.772 39.8653V35.3051C730.772 34.7348 731.234 34.2726 731.804 34.2726ZM725.083 40.14C725.406 40.6096 725.288 41.2525 724.818 41.576C722.985 42.8385 721.369 43.6332 719.634 43.6508C717.893 43.6685 716.244 42.9016 714.347 41.571C713.88 41.2436 713.767 40.5997 714.095 40.1329C714.422 39.666 715.066 39.5529 715.533 39.8804C717.316 41.1309 718.524 41.597 719.613 41.5859C720.71 41.5748 721.9 41.0789 723.647 39.8754C724.116 39.5519 724.759 39.6704 725.083 40.14Z" fill="black"/>
<path d="M713.605 130.446L706.609 121.336H704.104V130.446H701.64V110.598H704.104V119.204H705.178L713.327 110.598H716.269L708.04 119.321L716.547 130.446H713.605Z" fill="#8B6B54"/>
<path d="M723.831 130.446V110.598H730.947C732.365 110.598 733.535 110.838 734.456 111.316C735.377 111.787 736.062 112.424 736.513 113.225C736.963 114.02 737.189 114.901 737.189 115.871C737.189 116.723 737.033 117.428 736.722 117.983C736.417 118.539 736.013 118.978 735.509 119.301C735.012 119.624 734.472 119.863 733.889 120.018V120.212C734.512 120.251 735.138 120.464 735.767 120.852C736.397 121.24 736.924 121.795 737.348 122.519C737.772 123.242 737.984 124.128 737.984 125.174C737.984 126.169 737.752 127.064 737.288 127.859C736.824 128.653 736.092 129.283 735.092 129.749C734.091 130.214 732.789 130.446 731.186 130.446H723.831ZM726.296 128.314H731.186C732.796 128.314 733.939 128.011 734.615 127.403C735.297 126.789 735.638 126.046 735.638 125.174C735.638 124.502 735.463 123.882 735.112 123.313C734.76 122.738 734.26 122.28 733.611 121.937C732.961 121.588 732.193 121.414 731.305 121.414H726.296V128.314ZM726.296 119.321H730.868C731.61 119.321 732.279 119.179 732.875 118.894C733.478 118.61 733.955 118.209 734.306 117.693C734.664 117.176 734.843 116.568 734.843 115.871C734.843 114.998 734.532 114.259 733.909 113.651C733.286 113.037 732.299 112.731 730.947 112.731H726.296V119.321Z" fill="#8B6B54"/>
<path fill-rule="evenodd" clip-rule="evenodd" d="M712.785 132.045L705.788 122.935H705.744V132.045H700V109H705.744V116.25L712.609 109H720.005L710.167 119.428L719.815 132.045H712.785ZM708.04 119.321L716.269 110.598H713.327L705.178 119.204H704.104V110.598H701.64V130.446H704.104V121.336H706.609L713.605 130.446H716.547L708.04 119.321ZM722.192 132.045V109H730.947C732.54 109 733.995 109.267 735.222 109.903C736.393 110.503 737.327 111.35 737.949 112.454C738.542 113.501 738.828 114.651 738.828 115.871C738.828 116.9 738.642 117.887 738.164 118.744C737.919 119.189 737.621 119.592 737.269 119.945C737.869 120.434 738.367 121.036 738.771 121.726C739.369 122.745 739.623 123.92 739.623 125.174C739.623 126.421 739.33 127.593 738.713 128.649C738.055 129.777 737.044 130.612 735.797 131.191C734.501 131.794 732.933 132.045 731.186 132.045H722.192ZM735.509 119.301C735.62 119.23 735.726 119.154 735.827 119.071C736.186 118.779 736.484 118.417 736.722 117.983C737.033 117.428 737.189 116.723 737.189 115.871C737.189 114.901 736.963 114.02 736.513 113.225C736.062 112.424 735.377 111.787 734.456 111.316C733.535 110.838 732.365 110.598 730.947 110.598H723.831V130.446H731.186C732.789 130.446 734.091 130.214 735.092 129.749C736.092 129.283 736.824 128.653 737.288 127.859C737.752 127.064 737.984 126.169 737.984 125.174C737.984 124.128 737.772 123.242 737.348 122.519C736.954 121.847 736.472 121.32 735.901 120.938C735.857 120.908 735.813 120.88 735.767 120.852C735.157 120.476 734.549 120.264 733.944 120.216C733.926 120.215 733.908 120.213 733.889 120.212V120.018C733.893 120.017 733.898 120.016 733.902 120.015C734.079 119.967 734.253 119.912 734.422 119.849C734.805 119.706 735.167 119.524 735.509 119.301ZM732.249 119.133C732.466 119.069 732.675 118.99 732.875 118.894C733.092 118.792 733.292 118.675 733.476 118.543C733.529 118.505 733.58 118.467 733.629 118.427C733.892 118.216 734.117 117.971 734.306 117.693C734.664 117.176 734.843 116.568 734.843 115.871C734.843 114.998 734.532 114.259 733.909 113.651C733.286 113.037 732.299 112.731 730.947 112.731H726.296V119.321H730.868C731.36 119.321 731.821 119.258 732.249 119.133ZM727.936 117.722H730.868C731.39 117.722 731.808 117.624 732.155 117.458L732.158 117.457L732.162 117.455C732.514 117.289 732.76 117.075 732.94 116.81L732.943 116.804L732.947 116.798C733.101 116.576 733.204 116.289 733.204 115.871C733.204 115.415 733.06 115.084 732.749 114.781L732.746 114.778L732.743 114.775C732.558 114.593 732.088 114.329 730.947 114.329H727.936V117.722ZM733.272 121.776C732.956 121.643 732.615 121.547 732.249 121.487C731.951 121.438 731.637 121.414 731.305 121.414H726.296V128.314H731.186C732.796 128.314 733.939 128.011 734.615 127.403C735.297 126.789 735.638 126.046 735.638 125.174C735.638 124.502 735.463 123.882 735.112 123.313C734.76 122.738 734.26 122.28 733.611 121.937C733.501 121.878 733.388 121.825 733.272 121.776ZM733.503 126.228C733.863 125.904 733.999 125.581 733.999 125.174C733.999 124.789 733.902 124.454 733.707 124.138L733.705 124.135L733.703 124.131C733.514 123.823 733.24 123.559 732.831 123.343L732.825 123.34L732.819 123.337C732.456 123.142 731.971 123.012 731.305 123.012H727.936V126.716H731.186C732.667 126.716 733.288 126.421 733.503 126.228" fill="black"/>
</g>
<defs>
<filter id="filter0_i_215_13510" x="678" y="0" width="83" height="83" filterUnits="userSpaceOnUse" color-interpolation-filters="sRGB">
<feFlood flood-opacity="0" result="BackgroundImageFix"/>
<feBlend mode="normal" in="SourceGraphic" in2="BackgroundImageFix" result="shape"/>
<feColorMatrix in="SourceAlpha" type="matrix" values="0 0 0 0 0 0 0 0 0 0 0 0 0 0 0 0 0 0 127 0" result="hardAlpha"/>
<feOffset dx="8"/>
<feComposite in2="hardAlpha" operator="arithmetic" k2="-1" k3="1"/>
<feColorMatrix type="matrix" values="0 0 0 0 0 0 0 0 0 0 0 0 0 0 0 0 0 0 0.2 0"/>
<feBlend mode="normal" in2="shape" result="effect1_innerShadow_215_13510"/>
</filter>
<clipPath id="clip0_215_13510">
<rect width="1440" height="142" fill="white"/>
</clipPath>
</defs>
</svg>
