<svg width="412" height="57" viewBox="0 0 412 57" fill="none" xmlns="http://www.w3.org/2000/svg">
<g clip-path="url(#clip0_361_10629)">
<path d="M412 58.5C412.398 58.5 412.779 58.342 413.061 58.0607C413.342 57.7794 413.5 57.3978 413.5 57L413.5 3C413.5 2.44802 413.197 1.94063 412.711 1.67908C412.225 1.41753 411.634 1.44408 411.174 1.7482L385.424 18.7482C370.307 28.7284 350.694 28.7284 335.576 18.7482C319.457 8.10613 298.543 8.10613 282.424 18.7482C267.307 28.7284 247.693 28.7284 232.576 18.7482C216.457 8.10612 195.543 8.10612 179.424 18.7482C164.307 28.7284 144.694 28.7284 129.576 18.7482C113.457 8.10611 92.5432 8.10611 76.4236 18.7482C61.3065 28.7284 41.6935 28.7284 26.5764 18.7482L0.826451 1.74816C0.365789 1.44404 -0.224666 1.41749 -0.71075 1.67904C-1.19683 1.9406 -1.5 2.44798 -1.5 2.99996L-1.5 57C-1.5 57.8284 -0.82843 58.5 -1.31134e-07 58.5L412 58.5Z" fill="#F7B779" stroke="black" stroke-width="3" stroke-linejoin="round"/>
<path d="M26.0557 30.0176C23.6419 27.6037 20.75 26.0302 17.9691 25.492C15.1987 24.9558 12.3633 25.4319 10.3977 27.3975C8.43212 29.3632 7.95596 32.1985 8.49218 34.969C9.0304 37.7498 10.6039 40.6417 13.0177 43.0556C15.4316 45.4694 18.3235 47.0429 21.1043 47.5811C23.8748 48.1173 26.7101 47.6412 28.6757 45.6756C30.6414 43.7099 31.1175 40.8746 30.5813 38.1041C30.0431 35.3233 28.4696 32.4314 26.0557 30.0176Z" fill="#644D3A" stroke="black" stroke-width="3" stroke-linejoin="round"/>
<path d="M89.8844 26.8626C86.2348 28.9698 83.4484 31.9082 81.9317 35.0242C80.4196 38.1308 80.1095 41.5791 81.7699 44.4549C83.4302 47.3307 86.5715 48.7863 90.018 49.0301C93.4749 49.2746 97.4128 48.3308 101.062 46.2236C104.712 44.1165 107.499 41.1781 109.015 38.0621C110.527 34.9555 110.837 31.5072 109.177 28.6314C107.517 25.7556 104.375 24.2999 100.929 24.0562C97.472 23.8116 93.5341 24.7555 89.8844 26.8626Z" fill="#8B6B54" stroke="black" stroke-width="3" stroke-linejoin="round"/>
<path d="M385.944 30.0176C388.358 27.6037 391.25 26.0302 394.031 25.492C396.801 24.9558 399.637 25.4319 401.602 27.3975C403.568 29.3632 404.044 32.1985 403.508 34.969C402.97 37.7498 401.396 40.6417 398.982 43.0556C396.568 45.4694 393.676 47.0429 390.896 47.5811C388.125 48.1173 385.29 47.6412 383.324 45.6756C381.359 43.7099 380.882 40.8746 381.419 38.1041C381.957 35.3233 383.53 32.4314 385.944 30.0176Z" fill="#644D3A" stroke="black" stroke-width="3" stroke-linejoin="round"/>
<path d="M322.115 26.8626C325.765 28.9698 328.551 31.9082 330.068 35.0242C331.58 38.1308 331.89 41.5791 330.23 44.4549C328.57 47.3307 325.428 48.7863 321.982 49.0301C318.525 49.2746 314.587 48.3308 310.937 46.2236C307.288 44.1165 304.501 41.1781 302.985 38.0621C301.473 34.9555 301.162 31.5072 302.823 28.6314C304.483 25.7556 307.625 24.2999 311.071 24.0562C314.528 23.8116 318.466 24.7555 322.115 26.8626Z" fill="#8B6B54" stroke="black" stroke-width="3" stroke-linejoin="round"/>
<path d="M199.735 46.6501L192.672 37.4537H190.143V46.6501H187.655V26.6136H190.143V35.3013H191.227L199.454 26.6136H202.424L194.116 35.4187L202.705 46.6501H199.735Z" fill="#8B6B54"/>
<path d="M210.058 46.6501V26.6136H217.242C218.673 26.6136 219.853 26.8549 220.783 27.3376C221.713 27.8137 222.405 28.4562 222.86 29.2649C223.315 30.0672 223.542 30.9575 223.542 31.9358C223.542 32.7968 223.385 33.5077 223.071 34.0686C222.763 34.6295 222.355 35.073 221.847 35.3992C221.345 35.7253 220.8 35.9666 220.211 36.1231V36.3188C220.84 36.3579 221.472 36.5732 222.107 36.9645C222.743 37.3558 223.275 37.9168 223.703 38.6473C224.131 39.3778 224.345 40.2713 224.345 41.3279C224.345 42.3324 224.111 43.2357 223.643 44.0379C223.174 44.8402 222.435 45.4761 221.425 45.9457C220.415 46.4153 219.101 46.6501 217.482 46.6501H210.058ZM212.546 44.4978H217.482C219.108 44.4978 220.261 44.1912 220.944 43.5781C221.633 42.9585 221.977 42.2084 221.977 41.3279C221.977 40.6496 221.8 40.0235 221.445 39.4495C221.091 38.869 220.586 38.4059 219.93 38.0602C219.275 37.708 218.499 37.5319 217.603 37.5319H212.546V44.4978ZM212.546 35.4187H217.161C217.91 35.4187 218.586 35.2752 219.188 34.9882C219.797 34.7013 220.278 34.2969 220.633 33.7751C220.994 33.2533 221.174 32.6402 221.174 31.9358C221.174 31.0553 220.86 30.3085 220.231 29.6954C219.603 29.0758 218.606 28.766 217.242 28.766H212.546V35.4187Z" fill="#8B6B54"/>
<path fill-rule="evenodd" clip-rule="evenodd" d="M198.906 48.2638L191.843 39.0674H191.799V48.2638H186V24.9999H191.799V32.3188L198.729 24.9999H206.195L196.263 35.5267L206.003 48.2638H198.906ZM194.116 35.4187L202.424 26.6136H199.454L191.227 35.3013H190.143V26.6136H187.655V46.6501H190.143V37.4537H192.672L199.735 46.6501H202.705L194.116 35.4187ZM208.403 48.2638V24.9999H217.242C218.849 24.9999 220.318 25.2691 221.557 25.911C222.739 26.5173 223.682 27.372 224.31 28.4867C224.908 29.5433 225.197 30.7043 225.197 31.9358C225.197 32.9747 225.01 33.9713 224.527 34.8361C224.279 35.2855 223.978 35.6923 223.623 36.0489C224.229 36.5424 224.732 37.1503 225.14 37.8468C225.743 38.876 226 40.0614 226 41.3279C226 42.5868 225.704 43.7693 225.081 44.836C224.417 45.974 223.396 46.8171 222.138 47.4022C220.829 48.0109 219.246 48.2638 217.482 48.2638H208.403ZM221.847 35.3992C221.958 35.3274 222.065 35.25 222.168 35.1669C222.53 34.8723 222.831 34.5061 223.071 34.0686C223.385 33.5077 223.542 32.7968 223.542 31.9358C223.542 30.9575 223.315 30.0672 222.86 29.2649C222.405 28.4562 221.713 27.8137 220.783 27.3376C219.853 26.8549 218.673 26.6136 217.242 26.6136H210.058V46.6501H217.482C219.101 46.6501 220.415 46.4153 221.425 45.9457C222.435 45.4761 223.174 44.8402 223.643 44.0379C224.111 43.2357 224.345 42.3324 224.345 41.3279C224.345 40.2713 224.131 39.3778 223.703 38.6473C223.305 37.9691 222.819 37.4371 222.242 37.0512C222.198 37.0214 222.153 36.9925 222.107 36.9645C221.491 36.5848 220.877 36.3708 220.267 36.3227C220.249 36.3213 220.23 36.32 220.211 36.3188V36.1231C220.216 36.122 220.22 36.1208 220.224 36.1196C220.403 36.0716 220.578 36.0156 220.75 35.9518C221.136 35.8077 221.502 35.6235 221.847 35.3992ZM218.556 35.229C218.775 35.1649 218.986 35.0847 219.188 34.9882C219.407 34.8852 219.609 34.767 219.795 34.6336C219.847 34.5957 219.899 34.5566 219.949 34.5163C220.214 34.3033 220.442 34.0562 220.633 33.7751C220.994 33.2533 221.174 32.6402 221.174 31.9358C221.174 31.0553 220.86 30.3085 220.231 29.6954C219.603 29.0758 218.606 28.766 217.242 28.766H212.546V35.4187H217.161C217.659 35.4187 218.124 35.3555 218.556 35.229ZM214.201 33.805H217.161C217.688 33.805 218.111 33.7055 218.461 33.5386L218.464 33.5371L218.467 33.5355C218.823 33.3677 219.071 33.1512 219.253 32.884L219.257 32.8782L219.261 32.8724C219.416 32.6484 219.519 32.3583 219.519 31.9358C219.519 31.4757 219.374 31.1415 219.061 30.8363L219.058 30.8333L219.055 30.8303C218.867 30.6457 218.393 30.3797 217.242 30.3797H214.201V33.805ZM219.588 37.897C219.269 37.7629 218.925 37.6658 218.556 37.6056C218.255 37.5565 217.937 37.5319 217.603 37.5319H212.546V44.4978H217.482C219.108 44.4978 220.261 44.1912 220.944 43.5781C221.633 42.9585 221.977 42.2084 221.977 41.3279C221.977 40.6496 221.8 40.0235 221.445 39.4495C221.091 38.869 220.586 38.4059 219.93 38.0602C219.82 38.0008 219.706 37.9464 219.588 37.897ZM219.822 42.3916C220.185 42.0646 220.322 41.7388 220.322 41.3279C220.322 40.9391 220.225 40.6013 220.027 40.2819L220.025 40.2785L220.023 40.275C219.833 39.9635 219.556 39.6976 219.143 39.4796L219.137 39.4766L219.131 39.4735C218.765 39.2765 218.275 39.1456 217.603 39.1456H214.201V42.8841H217.482C218.977 42.8841 219.605 42.5867 219.822 42.3918" fill="black"/>
</g>
<defs>
<clipPath id="clip0_361_10629">
<rect width="412" height="57" fill="white"/>
</clipPath>
</defs>
</svg>
