<svg width="26" height="25" viewBox="0 0 26 25" fill="none" xmlns="http://www.w3.org/2000/svg">
<path fill-rule="evenodd" clip-rule="evenodd" d="M7.60582 4.86111C7.60582 4.09405 8.2293 3.47222 8.99839 3.47222H17.3538C18.1229 3.47222 18.7464 4.09405 18.7464 4.86111V7.63889C18.7464 8.40595 18.1229 9.02778 17.3538 9.02778H8.9984C8.2293 9.02778 7.60582 8.40595 7.60582 7.63889V4.86111ZM17.3538 4.86111H8.99839V7.63889H17.3538V4.86111ZM7.60582 12.5C7.60582 12.1165 7.91756 11.8056 8.30211 11.8056H13.8724C14.2569 11.8056 14.5687 12.1165 14.5687 12.5C14.5687 12.8835 14.2569 13.1944 13.8724 13.1944H8.30211C7.91756 13.1944 7.60582 12.8835 7.60582 12.5ZM15.9613 12.5C15.9613 12.1165 16.273 11.8056 16.6575 11.8056H18.0501C18.4347 11.8056 18.7464 12.1165 18.7464 12.5C18.7464 12.8835 18.4347 13.1944 18.0501 13.1944H16.6575C16.273 13.1944 15.9613 12.8835 15.9613 12.5ZM7.60582 16.6667C7.60582 16.2831 7.91756 15.9722 8.30211 15.9722H18.0501C18.4347 15.9722 18.7464 16.2831 18.7464 16.6667C18.7464 17.0502 18.4347 17.3611 18.0501 17.3611H8.30211C7.91756 17.3611 7.60582 17.0502 7.60582 16.6667ZM7.60582 20.8333C7.60582 20.4498 7.91756 20.1389 8.30211 20.1389H9.69468C10.0792 20.1389 10.391 20.4498 10.391 20.8333C10.391 21.2169 10.0792 21.5278 9.69468 21.5278H8.30211C7.91756 21.5278 7.60582 21.2169 7.60582 20.8333ZM11.7835 20.8333C11.7835 20.4498 12.0953 20.1389 12.4798 20.1389H18.0501C18.4347 20.1389 18.7464 20.4498 18.7464 20.8333C18.7464 21.2169 18.4347 21.5278 18.0501 21.5278H12.4798C12.0953 21.5278 11.7835 21.2169 11.7835 20.8333Z" fill="#4C956C"/>
<path fill-rule="evenodd" clip-rule="evenodd" d="M6.90954 0H19.4427C20.9809 0 22.2278 1.24365 22.2278 2.77778V22.2222C22.2278 23.7563 20.9809 25 19.4427 25H6.90954C5.37134 25 4.12439 23.7563 4.12439 22.2222V2.77778C4.12439 1.24365 5.37134 0 6.90954 0ZM6.90954 1.38889C6.14044 1.38889 5.51696 2.01072 5.51696 2.77778V22.2222C5.51696 22.9893 6.14044 23.6111 6.90954 23.6111H19.4427C20.2118 23.6111 20.8353 22.9893 20.8353 22.2222V2.77778C20.8353 2.01072 20.2118 1.38889 19.4427 1.38889H6.90954Z" fill="#4C956C"/>
</svg>
