<svg width="26" height="25" viewBox="0 0 26 25" fill="none" xmlns="http://www.w3.org/2000/svg">
<path fill-rule="evenodd" clip-rule="evenodd" d="M23.9068 4.83714L13.9942 14.6699L12.9028 13.5875L22.8162 3.75471C23.1177 3.45565 23.606 3.45565 23.9068 3.75471C24.2084 4.05377 24.2084 4.53808 23.9068 4.83714ZM11.2669 17.3764C11.1661 17.2767 10.1754 16.294 10.1754 16.294L11.8122 14.6699L12.9028 15.7524L11.2669 17.3764ZM9.63012 21.1637C8.86137 21.8803 5.42618 23.4776 3.40351 21.929C3.40351 21.929 4.10742 21.3772 4.64024 20.2696C5.9129 16.8732 9.08481 17.3764 9.08481 17.3764L10.1754 18.458C10.1864 18.469 10.9903 19.8968 9.63012 21.1637ZM24.9982 2.67229C24.0943 1.7759 22.6287 1.7759 21.7247 2.67229L8.30433 15.9855C6.66135 15.9478 4.38555 16.5326 3.40351 19.7649C2.65272 21.4745 0.676147 21.3882 0.676147 21.3882C4.78009 25.9619 9.61684 23.3701 10.7208 22.2461C11.6919 21.2586 11.8317 20.0498 11.7278 19.0828L24.9982 5.91955C25.9021 5.02238 25.9021 3.56868 24.9982 2.67229Z" fill="#4C956C"/>
</svg>
