<svg width="26" height="26" viewBox="0 0 26 26" fill="none" xmlns="http://www.w3.org/2000/svg">
<path fill-rule="evenodd" clip-rule="evenodd" d="M10.7158 2.42462C10.6947 2.43875 10.6453 2.47799 10.5672 2.57349C10.4084 2.76765 10.2113 3.09737 9.96674 3.61887C9.47821 4.66079 8.90896 6.22548 8.11858 8.40207C7.51879 10.0539 6.99833 11.618 6.62909 12.9564C6.25281 14.3203 6.05863 15.3635 6.05863 16.0101C6.05863 18.9841 7.67226 21.5567 10.0188 22.7935C9.5807 20.792 10.0197 18.6636 11.2492 17.0299C12.2369 15.7175 14.1154 15.7175 15.103 17.0299C16.3326 18.6636 16.7716 20.792 16.3334 22.7935C18.68 21.5567 20.2936 18.9841 20.2936 16.0101C20.2936 15.4116 20.1267 14.4662 19.7973 13.2298C19.474 12.0158 19.015 10.5963 18.4777 9.0818C18.4407 8.97738 18.3983 8.9504 18.3823 8.9415C18.3571 8.92748 18.3158 8.91758 18.2638 8.92849C18.2117 8.93941 18.1702 8.96693 18.1444 8.99872C18.1248 9.02283 18.0932 9.07384 18.0932 9.18756C18.0932 11.1306 16.611 12.7076 14.7807 12.7076C12.9505 12.7076 11.4683 11.1306 11.4683 9.18756C11.4683 6.81431 11.4673 5.10543 11.3644 3.92523C11.3128 3.33432 11.2403 2.94266 11.1571 2.6946C11.1163 2.57316 11.0831 2.51599 11.0678 2.49379C10.9629 2.4421 10.8311 2.41618 10.7158 2.42462ZM11.0587 2.48204C11.0587 2.48199 11.0594 2.48266 11.0607 2.48419C11.0593 2.48286 11.0587 2.48209 11.0587 2.48204ZM14.1963 23.4998L14.3615 23.0607C14.9717 21.4391 14.7144 19.5939 13.6882 18.2304C13.4256 17.8814 12.9267 17.8814 12.664 18.2304C11.6379 19.5939 11.3805 21.4391 11.9907 23.0607L12.1559 23.4998C12.4891 23.5506 12.8297 23.5769 13.1761 23.5769C13.5225 23.5769 13.8631 23.5506 14.1963 23.4998ZM10.7278 2.41769C10.7278 2.41776 10.7268 2.41831 10.7248 2.41912C10.7268 2.41803 10.7278 2.41762 10.7278 2.41769ZM11.9308 0.802023C11.4948 0.560162 10.9759 0.45744 10.4872 0.516151C9.92839 0.5833 9.50801 0.93562 9.19975 1.31254C8.89098 1.69008 8.61326 2.19069 8.34549 2.76177C7.81417 3.89495 7.21495 5.54517 6.44923 7.65388L6.42878 7.71022C5.81975 9.38743 5.27992 11.0063 4.89107 12.4157C4.50926 13.7996 4.24756 15.0689 4.24756 16.0101C4.24756 21.2502 8.2441 25.5 13.1761 25.5C18.1081 25.5 22.1047 21.2502 22.1047 16.0101C22.1047 15.1306 21.8767 13.9703 21.54 12.7064C21.1974 11.4202 20.7193 9.9451 20.1725 8.40387C19.7783 7.2926 18.7849 6.85897 17.9129 7.04186C17.047 7.22345 16.2821 8.01463 16.2821 9.18756C16.2821 10.0705 15.609 10.7845 14.7807 10.7845C13.9525 10.7845 13.2794 10.0705 13.2794 9.18756V9.12814C13.2794 6.82655 13.2794 5.02789 13.1677 3.74786C13.1115 3.10315 13.0223 2.52326 12.863 2.04888C12.7047 1.57726 12.4331 1.08069 11.9309 0.802066" fill="#D68C45"/>
</svg>
