<svg width="21" height="20" viewBox="0 0 21 20" fill="none" xmlns="http://www.w3.org/2000/svg">
<path fill-rule="evenodd" clip-rule="evenodd" d="M10.1761 1.53846C5.50297 1.53846 1.71461 5.32682 1.71461 10C1.71461 14.6732 5.50297 18.4615 10.1761 18.4615C14.8494 18.4615 18.6377 14.6732 18.6377 10C18.6377 5.32682 14.8494 1.53846 10.1761 1.53846ZM0.176147 10C0.176147 4.47716 4.6533 0 10.1761 0C15.699 0 20.1761 4.47716 20.1761 10C20.1761 15.5229 15.699 20 10.1761 20C4.65331 20 0.176147 15.5229 0.176147 10ZM10.1761 4.10256C10.601 4.10256 10.9454 4.44696 10.9454 4.87179V10C10.9454 10.1394 10.9075 10.2762 10.8358 10.3958L9.2973 12.9599C9.07872 13.3242 8.60621 13.4423 8.24192 13.2237C7.87763 13.0051 7.7595 12.5326 7.97808 12.1683L9.40692 9.78693V4.87179C9.40692 4.44696 9.75131 4.10256 10.1761 4.10256Z" fill="#FF6766"/>
</svg>
