<svg width="26" height="26" viewBox="0 0 26 26" fill="none" xmlns="http://www.w3.org/2000/svg">
<path fill-rule="evenodd" clip-rule="evenodd" d="M13.1761 2.42308C7.33468 2.42308 2.59922 7.15853 2.59922 13C2.59922 18.8415 7.33467 23.5769 13.1761 23.5769C19.0177 23.5769 23.7531 18.8415 23.7531 13C23.7531 7.15853 19.0177 2.42308 13.1761 2.42308ZM0.676147 13C0.676147 6.09644 6.27259 0.5 13.1761 0.5C20.0798 0.5 25.6761 6.09645 25.6761 13C25.6761 19.9036 20.0798 25.5 13.1761 25.5C6.27259 25.5 0.676147 19.9036 0.676147 13ZM13.1761 5.62821C13.7072 5.62821 14.1377 6.0587 14.1377 6.58974V13C14.1377 13.1743 14.0903 13.3453 14.0007 13.4947L12.0776 16.6998C11.8044 17.1552 11.2137 17.3029 10.7584 17.0296C10.303 16.7564 10.1553 16.1658 10.4286 15.7104L12.2146 12.7337V6.58974C12.2146 6.0587 12.6451 5.62821 13.1761 5.62821Z" fill="#4C956C"/>
</svg>
