<svg width="26" height="25" viewBox="0 0 26 25" fill="none" xmlns="http://www.w3.org/2000/svg">
<path fill-rule="evenodd" clip-rule="evenodd" d="M0.676147 5.04515C0.676147 2.79639 2.55666 1 4.84281 1H21.5095C23.7956 1 25.6761 2.79639 25.6761 5.04515V16.3282C25.6761 18.5769 23.7956 20.3733 21.5095 20.3733H20.2456L17.5792 23.6889C17.4211 23.8854 17.1806 24 16.9261 24C16.6717 24 16.4312 23.8854 16.2731 23.6889L13.6067 20.3733H4.84281C2.55666 20.3733 0.676147 18.5769 0.676147 16.3282V5.04515ZM4.84281 2.64286C3.44707 2.64286 2.34281 3.73308 2.34281 5.04515V16.3282C2.34281 17.6402 3.44707 18.7305 4.84281 18.7305H14.0095C14.2639 18.7305 14.5044 18.8451 14.6625 19.0416L16.9261 21.8563L19.1898 19.0416C19.3479 18.8451 19.5884 18.7305 19.8428 18.7305H21.5095C22.9052 18.7305 24.0095 17.6402 24.0095 16.3282V5.04515C24.0095 3.73308 22.9052 2.64286 21.5095 2.64286H4.84281ZM4.84281 6.65701C4.84281 6.20335 5.21591 5.83558 5.67615 5.83558H14.0095C14.4697 5.83558 14.8428 6.20335 14.8428 6.65701C14.8428 7.11067 14.4697 7.47844 14.0095 7.47844H5.67615C5.21591 7.47844 4.84281 7.11067 4.84281 6.65701ZM16.5095 6.65701C16.5095 6.20335 16.8826 5.83558 17.3428 5.83558H20.6761C21.1364 5.83558 21.5095 6.20335 21.5095 6.65701C21.5095 7.11067 21.1364 7.47844 20.6761 7.47844H17.3428C16.8826 7.47844 16.5095 7.11067 16.5095 6.65701ZM4.84281 10.6867C4.84281 10.233 5.21591 9.86523 5.67615 9.86523H20.6761C21.1364 9.86523 21.5095 10.233 21.5095 10.6867C21.5095 11.1403 21.1364 11.5081 20.6761 11.5081H5.67615C5.21591 11.5081 4.84281 11.1403 4.84281 10.6867ZM4.84281 14.7163C4.84281 14.2626 5.21591 13.8949 5.67615 13.8949H9.00948C9.46972 13.8949 9.84281 14.2626 9.84281 14.7163C9.84281 15.17 9.46972 15.5377 9.00948 15.5377H5.67615C5.21591 15.5377 4.84281 15.17 4.84281 14.7163ZM11.5095 14.7163C11.5095 14.2626 11.8826 13.8949 12.3428 13.8949H20.6761C21.1364 13.8949 21.5095 14.2626 21.5095 14.7163C21.5095 15.17 21.1364 15.5377 20.6761 15.5377H12.3428C11.8826 15.5377 11.5095 15.17 11.5095 14.7163Z" fill="#4C956C"/>
</svg>
