<svg width="26" height="25" viewBox="0 0 26 25" fill="none" xmlns="http://www.w3.org/2000/svg">
<path fill-rule="evenodd" clip-rule="evenodd" d="M18.9635 0.332835C19.4073 -0.110945 20.1268 -0.110945 20.5706 0.332834L25.3433 5.10558C25.7854 5.54772 25.7873 6.26398 25.3475 6.70843L14.552 17.6176C14.3508 17.8208 14.0804 17.9408 13.7947 17.9535L8.68105 18.1808C8.35807 18.1951 8.04427 18.0712 7.81821 17.8401C7.59215 17.609 7.47523 17.2925 7.49674 16.9699L7.83765 11.8563C7.85596 11.5816 7.97333 11.323 8.16797 11.1283L18.9635 0.332835ZM19.767 2.74343L10.077 12.4335L9.84893 15.8539L13.2494 15.7027L22.9369 5.91331L19.767 2.74343ZM4.08526 4.54538C3.78387 4.54538 3.49483 4.6651 3.28172 4.87821C3.06861 5.09132 2.94889 5.38036 2.94889 5.68175V21.5909C2.94889 21.8923 3.06861 22.1813 3.28172 22.3944C3.49483 22.6075 3.78388 22.7273 4.08526 22.7273H19.9944C20.2958 22.7273 20.5849 22.6075 20.798 22.3944C21.0111 22.1813 21.1308 21.8923 21.1308 21.5909V17.0454C21.1308 16.4178 21.6396 15.9091 22.2672 15.9091C22.8948 15.9091 23.4036 16.4178 23.4036 17.0454V21.5909C23.4036 22.495 23.0444 23.3622 22.405 24.0015C21.7657 24.6408 20.8986 25 19.9944 25H4.08526C3.18111 25 2.31398 24.6408 1.67465 24.0015C1.03532 23.3622 0.676147 22.495 0.676147 21.5909V5.68175C0.676147 4.7776 1.03532 3.91048 1.67465 3.27115C2.31399 2.63182 3.18111 2.27264 4.08526 2.27264H8.63074C9.25834 2.27264 9.76711 2.78141 9.76711 3.40901C9.76711 4.03661 9.25834 4.54538 8.63074 4.54538H4.08526Z" fill="black"/>
</svg>
