<svg width="23" height="23" viewBox="0 0 23 23" fill="none" xmlns="http://www.w3.org/2000/svg">
<path fill-rule="evenodd" clip-rule="evenodd" d="M16.8244 0.306208C17.2326 -0.102069 17.8946 -0.102069 18.3029 0.306208L22.6938 4.69713C23.1006 5.1039 23.1023 5.76286 22.6977 6.17175L12.7658 16.2082C12.5807 16.3952 12.3319 16.5055 12.0691 16.5172L7.36451 16.7263C7.06737 16.7395 6.77867 16.6255 6.5707 16.4129C6.36272 16.2003 6.25516 15.9091 6.27495 15.6123L6.58858 10.9078C6.60543 10.6551 6.71341 10.4171 6.89248 10.2381L16.8244 0.306208ZM17.5636 2.52396L8.64875 11.4388L8.43896 14.5856L11.5674 14.4465L20.4799 5.44024L17.5636 2.52396ZM3.13638 4.18175C2.85911 4.18175 2.59319 4.2919 2.39713 4.48796C2.20107 4.68402 2.09092 4.94993 2.09092 5.22721V19.8636C2.09092 20.1409 2.20107 20.4068 2.39713 20.6029C2.59319 20.7989 2.85911 20.9091 3.13638 20.9091H17.7728C18.0501 20.9091 18.316 20.7989 18.5121 20.6029C18.7081 20.4068 18.8183 20.1409 18.8183 19.8636V15.6818C18.8183 15.1044 19.2864 14.6363 19.8638 14.6363C20.4411 14.6363 20.9092 15.1044 20.9092 15.6818V19.8636C20.9092 20.6954 20.5788 21.4932 19.9906 22.0814C19.4024 22.6696 18.6047 23 17.7728 23H3.13638C2.30456 23 1.50681 22.6696 0.918625 22.0814C0.330439 21.4932 0 20.6954 0 19.8636V5.22721C0 4.39539 0.330439 3.59764 0.918625 3.00946C1.50681 2.42127 2.30456 2.09083 3.13638 2.09083H7.31822C7.89562 2.09083 8.36369 2.5589 8.36369 3.13629C8.36369 3.71368 7.89562 4.18175 7.31822 4.18175H3.13638Z" fill="black" fill-opacity="0.5"/>
</svg>
