<svg width="17" height="16" viewBox="0 0 17 16" fill="none" xmlns="http://www.w3.org/2000/svg">
<path d="M9.27366 7.21972e-08C9.38561 -5.81246e-05 9.49473 0.0350686 9.58557 0.100484C9.67641 0.1659 9.74436 0.258241 9.77978 0.364425L10.3213 1.9889C10.5399 2.06588 10.7538 2.15413 10.9628 2.25444L12.4947 1.48906C12.5948 1.43904 12.7081 1.4218 12.8186 1.43974C12.929 1.45768 13.031 1.50993 13.1102 1.58905L14.6181 3.09687C14.6972 3.17599 14.7495 3.27803 14.7674 3.38849C14.7854 3.49894 14.7681 3.61222 14.7181 3.71232L13.9537 5.24099C14.0542 5.45102 14.1432 5.66584 14.2203 5.88559L15.8428 6.42706C15.949 6.46248 16.0413 6.53043 16.1067 6.62126C16.1722 6.7121 16.2073 6.82117 16.2073 6.93311V9.06579C16.2073 9.17772 16.1722 9.28686 16.1067 9.37769C16.0413 9.46853 15.949 9.53647 15.8428 9.5719L14.2151 10.1144C14.1384 10.3317 14.0503 10.5439 13.9506 10.7517L14.7181 12.2866C14.7681 12.3867 14.7854 12.5 14.7674 12.6105C14.7495 12.7209 14.6972 12.8229 14.6181 12.902L13.1102 14.4109C13.031 14.4901 12.929 14.5423 12.8186 14.5602C12.7081 14.5781 12.5948 14.5609 12.4947 14.5109L10.9628 13.7445C10.754 13.8442 10.5407 13.9323 10.3223 14.0089L9.77978 15.6355C9.74436 15.7417 9.67641 15.834 9.58557 15.8995C9.49473 15.9649 9.38561 16.0001 9.27366 16H7.14089C7.02894 16.0001 6.91982 15.9649 6.82898 15.8995C6.73814 15.834 6.67019 15.7417 6.63477 15.6355L6.0922 14.0058C5.87546 13.9294 5.66317 13.8416 5.45591 13.7424L3.91985 14.5109C3.81975 14.5609 3.70645 14.5781 3.59599 14.5602C3.48553 14.5423 3.38351 14.4901 3.30439 14.4109L1.79644 12.902C1.71731 12.8229 1.66507 12.7209 1.64713 12.6105C1.62919 12.5 1.64645 12.3867 1.69647 12.2866L2.4619 10.7559C2.36156 10.5466 2.27335 10.3323 2.19634 10.1134L0.571763 9.5719C0.465573 9.53647 0.373225 9.46853 0.307807 9.37769C0.242388 9.28686 0.207216 9.17772 0.207275 9.06579V6.93317C0.207216 6.82123 0.242388 6.7121 0.307807 6.62126C0.373225 6.53043 0.465573 6.46248 0.571763 6.42706L2.19738 5.88559C2.27435 5.66731 2.36278 5.45381 2.46294 5.24517L1.69647 3.71232C1.64645 3.61222 1.62918 3.49894 1.64712 3.38849C1.66507 3.27803 1.71731 3.17599 1.79644 3.09687L3.30439 1.58905C3.38351 1.50993 3.48553 1.45768 3.59598 1.43974C3.70644 1.4218 3.81975 1.4391 3.91985 1.48912L5.44758 2.25241C5.65832 2.15166 5.8738 2.06298 6.09428 1.98583L6.63477 0.364486C6.67019 0.258298 6.73814 0.165904 6.82897 0.100484C6.91981 0.0350648 7.02894 -5.69266e-05 7.14089 7.21972e-08H9.27366ZM8.88939 1.06628H7.52516L7.0305 2.55122C7.00338 2.63259 6.95704 2.70626 6.8954 2.7659C6.83376 2.82554 6.75865 2.86939 6.67642 2.89381C6.3294 2.99699 5.9936 3.13498 5.6746 3.3062C5.59946 3.34671 5.51569 3.36857 5.43033 3.36997C5.34498 3.37138 5.26054 3.35227 5.1841 3.31426L3.78655 2.61554L2.82222 3.5798L3.52412 4.9835C3.56243 5.06001 3.58176 5.14462 3.58049 5.23016C3.57922 5.31571 3.55738 5.39971 3.51682 5.47504C3.346 5.79191 3.20704 6.12477 3.10339 6.46949C3.07893 6.5514 3.03512 6.62624 2.97568 6.68768C2.91623 6.74912 2.84288 6.79539 2.76181 6.82254L1.27366 7.3182V8.6823L2.76077 9.17802C2.84184 9.20517 2.91518 9.25138 2.97463 9.31281C3.03408 9.37425 3.07788 9.44909 3.10235 9.531C3.20588 9.87639 3.34484 10.2101 3.51578 10.5275C3.55635 10.6029 3.57819 10.6869 3.57946 10.7724C3.58073 10.858 3.56139 10.9426 3.52308 11.0191L2.82222 12.4207L3.78655 13.386L5.19348 12.6821C5.27004 12.6439 5.35468 12.6247 5.44023 12.6261C5.52578 12.6275 5.60974 12.6494 5.68501 12.6901C6.00077 12.86 6.332 12.9982 6.67538 13.1015C6.7573 13.1259 6.83213 13.1697 6.89357 13.2292C6.95501 13.2886 7.00126 13.3619 7.02842 13.443L7.52516 14.9353H8.88939L9.38613 13.4451C9.41315 13.3638 9.45933 13.2903 9.52078 13.2307C9.58223 13.171 9.65714 13.1271 9.73917 13.1025C10.0838 12.9995 10.4178 12.8624 10.7347 12.6922C10.8099 12.6517 10.8937 12.6298 10.979 12.6284C11.0644 12.627 11.1488 12.6461 11.2252 12.6841L12.628 13.386L13.5923 12.4207L12.8894 11.0149C12.8511 10.9384 12.8317 10.8538 12.833 10.7682C12.8343 10.6827 12.8561 10.5988 12.8967 10.5234C13.067 10.2074 13.2056 9.87472 13.3091 9.531C13.3337 9.44928 13.3776 9.37468 13.437 9.31343C13.4964 9.25218 13.5697 9.20605 13.6507 9.179L15.1409 8.6823V7.3182L13.6548 6.82254C13.5736 6.79553 13.5 6.74931 13.4404 6.68786C13.3807 6.62641 13.3368 6.55152 13.3122 6.46949C13.2088 6.12346 13.0709 5.78892 12.8998 5.47086C12.8592 5.39553 12.8374 5.31153 12.8361 5.22598C12.8349 5.14043 12.8542 5.05583 12.8925 4.97932L13.5923 3.5798L12.628 2.61554L11.2252 3.31635C11.1487 3.35454 11.064 3.37371 10.9785 3.37231C10.8929 3.37091 10.809 3.34897 10.7337 3.30829C10.4165 3.13741 10.0832 2.99843 9.73813 2.89486C9.65621 2.87039 9.58137 2.82664 9.51993 2.76719C9.45849 2.70775 9.41225 2.63437 9.38509 2.55331L8.88939 1.06628Z" fill="white"/>
<path d="M8.20911 4.26426C10.2641 4.26426 11.9404 5.94438 11.9404 7.99927C11.9404 10.0541 10.2641 11.7304 8.20911 11.7304C6.1541 11.7304 4.47386 10.0541 4.47386 7.99927C4.47386 5.94438 6.1541 4.26426 8.20911 4.26426ZM8.20911 5.33084C6.73042 5.33084 5.54051 6.52068 5.54051 7.99927C5.54051 9.47787 6.73042 10.6638 8.20911 10.6638C9.6878 10.6638 10.8738 9.47787 10.8738 7.99927C10.8738 6.52068 9.6878 5.33084 8.20911 5.33084Z" fill="white"/>
</svg>
