<svg width="25" height="21" viewBox="0 0 25 21" fill="none" xmlns="http://www.w3.org/2000/svg">
<path fill-rule="evenodd" clip-rule="evenodd" d="M12.7995 1.93287C15.3226 -0.282067 19.0576 -0.824939 22.0426 1.58263C25.2808 4.19447 25.678 8.66736 23.1749 11.7931C22.2194 12.9863 20.3507 14.7828 18.55 16.4322C16.7296 18.0996 14.9133 19.6754 14.0175 20.4453L14.0004 20.46C13.9156 20.5329 13.8136 20.6206 13.7165 20.6916C13.6006 20.7763 13.4396 20.8773 13.2275 20.9386C12.9445 21.0204 12.6406 21.0205 12.3573 20.9386C12.1454 20.8772 11.9845 20.7763 11.8686 20.6916C11.7711 20.6204 11.6688 20.5324 11.5838 20.4593L11.5676 20.4453C11.5675 20.4453 11.5676 20.4454 11.5676 20.4453C10.6717 19.6754 8.85533 18.0996 7.03503 16.4322C5.23427 14.7828 3.3656 12.9863 2.41008 11.7931C-0.1022 8.6559 0.365294 4.21679 3.5319 1.5912C6.4822 -0.855054 10.271 -0.281475 12.7995 1.93287ZM12.0498 4.00367C10.1276 1.8228 7.06022 1.26375 4.80847 3.1308C2.46395 5.07476 2.15556 8.27567 3.9712 10.543C4.81487 11.5964 6.56826 13.2925 8.38592 14.9574C10.1324 16.5572 11.8793 18.0752 12.7925 18.8609C13.7057 18.0752 15.4526 16.5572 17.1991 14.9574C19.0167 13.2925 20.7701 11.5965 21.6138 10.543C23.4386 8.2642 23.1546 5.04901 20.7869 3.13937C18.4782 1.27724 15.4654 1.83088 13.5502 4.00367C13.3604 4.21904 13.0871 4.34244 12.8 4.34244C12.5129 4.34244 12.2397 4.21904 12.0498 4.00367Z" fill="black"/>
</svg>
