<svg width="26" height="25" viewBox="0 0 26 25" fill="none" xmlns="http://www.w3.org/2000/svg">
<path fill-rule="evenodd" clip-rule="evenodd" d="M9.46728 13.5619C7.24601 12.306 5.75127 9.95681 5.75127 7.26595C5.75127 3.25308 9.07551 0 13.1762 0C17.2768 0 20.6011 3.25308 20.6011 7.26595C20.6011 9.95682 19.1063 12.306 16.885 13.5619C17.1181 13.6396 17.3489 13.7247 17.577 13.8172C18.9723 14.3827 20.24 15.2117 21.3079 16.2567C22.3757 17.3017 23.2228 18.5423 23.8008 19.9077C24.3787 21.2731 24.6761 22.7365 24.6761 24.2143V25H1.67615V24.2143C1.67615 22.7365 1.9736 21.2731 2.55153 19.9077C3.12946 18.5423 3.97655 17.3017 5.04442 16.2567C6.11229 15.2117 7.38004 14.3827 8.77529 13.8172C9.0034 13.7247 9.23419 13.6396 9.46728 13.5619ZM7.35698 7.26595C7.35698 4.1209 9.96232 1.57133 13.1762 1.57133C16.39 1.57133 18.9954 4.1209 18.9954 7.26595C18.9954 10.4048 16.4003 12.9505 13.1951 12.9605C13.1888 12.9605 13.1825 12.9605 13.1761 12.9605C13.1698 12.9605 13.1635 12.9605 13.1572 12.9605C9.95207 12.9505 7.35698 10.4048 7.35698 7.26595ZM13.1563 14.5319C11.8637 14.5344 10.5841 14.7848 9.38976 15.2689C8.18933 15.7555 7.0986 16.4687 6.17983 17.3678C5.26106 18.2669 4.53225 19.3343 4.03501 20.509C3.64048 21.4411 3.39787 22.4263 3.31448 23.4287H23.0378C22.9544 22.4263 22.7118 21.4411 22.3173 20.509C21.82 19.3343 21.0912 18.2669 20.1725 17.3678C19.2537 16.4687 18.163 15.7555 16.9625 15.2689C15.7682 14.7848 14.4886 14.5344 13.196 14.5319C13.1894 14.5319 13.1828 14.5319 13.1762 14.5319C13.1695 14.5319 13.1629 14.5319 13.1563 14.5319Z" fill="#4C956C"/>
</svg>
