<svg width="26" height="26" viewBox="0 0 26 26" fill="none" xmlns="http://www.w3.org/2000/svg">
<circle cx="13.1761" cy="13" r="12.5" fill="#F1F1F1"/>
<path d="M10.1973 15.9372C9.63963 16.4179 9.10502 16.9373 8.7067 17.3404C8.01307 18.0424 6.71233 17.5212 6.83907 16.5224L6.85941 16.362C7.08675 14.5703 7.47072 12.3293 9.18217 10.9203C9.27857 10.8409 9.38008 10.7648 9.48622 10.6951C10.3387 10.1352 11.5828 9.99532 12.5482 9.96908C13.1049 9.95394 13.6313 9.9761 14.0456 10.0055V8.15713C14.0456 7.41979 14.9955 7.05833 15.5355 7.59024L20.1763 12.1624C20.5101 12.4912 20.4955 13.0146 20.1438 13.3264L15.5046 17.4399C14.9505 17.9312 14.0426 17.5575 14.0471 16.8379C14.0501 16.3412 14.0562 15.1885 14.0516 14.5575C13.9068 14.5332 13.7143 14.5157 13.486 14.513C12.8242 14.5052 12.1239 14.6224 11.7509 14.8129C11.3162 15.035 10.7654 15.4477 10.1973 15.9372Z" fill="#ACACAC"/>
</svg>
