<svg width="26" height="25" viewBox="0 0 26 25" fill="none" xmlns="http://www.w3.org/2000/svg">
<path fill-rule="evenodd" clip-rule="evenodd" d="M8.63067 3.40909C8.63067 1.5263 10.157 0 12.0398 0H14.3125C16.1953 0 17.7216 1.5263 17.7216 3.40909V4.54545H22.267C22.8946 4.54545 23.4034 5.05422 23.4034 5.68182C23.4034 6.30941 22.8946 6.81818 22.267 6.81818H21.0619L20.1253 21.8036C20.013 23.6003 18.523 25 16.7228 25H9.62942C7.82921 25 6.33927 23.6003 6.22697 21.8036L5.29039 6.81818H4.08522C3.45762 6.81818 2.94885 6.30941 2.94885 5.68182C2.94885 5.05422 3.45762 4.54545 4.08522 4.54545H8.63067V3.40909ZM10.9034 4.54545H15.4489V3.40909C15.4489 2.78149 14.9401 2.27273 14.3125 2.27273H12.0398C11.4122 2.27273 10.9034 2.78149 10.9034 3.40909V4.54545ZM7.56755 6.81818L8.49527 21.6618C8.5327 22.2607 9.02935 22.7273 9.62942 22.7273H16.7228C17.3229 22.7273 17.8195 22.2607 17.857 21.6618L18.7847 6.81818H7.56755ZM10.9034 9.09091C11.531 9.09091 12.0398 9.59968 12.0398 10.2273V19.3182C12.0398 19.9458 11.531 20.4545 10.9034 20.4545C10.2758 20.4545 9.76703 19.9458 9.76703 19.3182V10.2273C9.76703 9.59968 10.2758 9.09091 10.9034 9.09091ZM15.4489 9.09091C16.0764 9.09091 16.5852 9.59968 16.5852 10.2273V19.3182C16.5852 19.9458 16.0764 20.4545 15.4489 20.4545C14.8213 20.4545 14.3125 19.9458 14.3125 19.3182V10.2273C14.3125 9.59968 14.8213 9.09091 15.4489 9.09091Z" fill="#FF6766"/>
</svg>
