<svg width="20" height="20" viewBox="0 0 20 20" fill="none" xmlns="http://www.w3.org/2000/svg">
<path fill-rule="evenodd" clip-rule="evenodd" d="M0.8962 17.5121C0.446132 18.3799 0.877093 19.09 1.85472 19.09H18.1447C19.1229 19.09 19.5544 18.3799 19.1033 17.5121L10.8189 1.56073C10.3683 0.692972 9.6306 0.692972 9.18053 1.56073L0.8962 17.5121ZM10.0005 6.053C9.32596 6.053 8.81592 6.48077 8.81592 7.1718V12.5078C8.81592 13.1983 9.32596 13.6266 10.0005 13.6266C10.6592 13.6266 11.1857 13.1824 11.1857 12.5078V7.1718C11.1857 6.49723 10.6592 6.053 10.0005 6.053ZM9.09336 14.9736C8.8527 15.2142 8.71724 15.5404 8.71667 15.8806C8.7171 16.221 8.8525 16.5473 9.09317 16.788C9.33385 17.0287 9.66016 17.1641 10.0005 17.1645C10.3409 17.1641 10.6672 17.0287 10.9079 16.788C11.1486 16.5473 11.284 16.221 11.2844 15.8806C11.2838 15.5404 11.1484 15.2142 10.9077 14.9736C10.667 14.7331 10.3408 14.5977 10.0005 14.5973C9.66026 14.5977 9.33403 14.7331 9.09336 14.9736Z" fill="#FF6766"/>
</svg>
