<svg width="26" height="25" viewBox="0 0 26 25" fill="none" xmlns="http://www.w3.org/2000/svg">
<path fill-rule="evenodd" clip-rule="evenodd" d="M7.60594 4.86111C7.60594 4.09405 8.22942 3.47222 8.99852 3.47222H17.354C18.1231 3.47222 18.7465 4.09405 18.7465 4.86111V7.63889C18.7465 8.40595 18.1231 9.02778 17.354 9.02778H8.99852C8.22942 9.02778 7.60594 8.40595 7.60594 7.63889V4.86111ZM17.354 4.86111H8.99852V7.63889H17.354V4.86111ZM7.60594 12.5C7.60594 12.1165 7.91768 11.8056 8.30223 11.8056H13.8725C14.2571 11.8056 14.5688 12.1165 14.5688 12.5C14.5688 12.8835 14.2571 13.1944 13.8725 13.1944H8.30223C7.91768 13.1944 7.60594 12.8835 7.60594 12.5ZM15.9614 12.5C15.9614 12.1165 16.2731 11.8056 16.6577 11.8056H18.0502C18.4348 11.8056 18.7465 12.1165 18.7465 12.5C18.7465 12.8835 18.4348 13.1944 18.0502 13.1944H16.6577C16.2731 13.1944 15.9614 12.8835 15.9614 12.5ZM7.60594 16.6667C7.60594 16.2831 7.91768 15.9722 8.30223 15.9722H18.0502C18.4348 15.9722 18.7465 16.2831 18.7465 16.6667C18.7465 17.0502 18.4348 17.3611 18.0502 17.3611H8.30223C7.91768 17.3611 7.60594 17.0502 7.60594 16.6667ZM7.60594 20.8333C7.60594 20.4498 7.91768 20.1389 8.30223 20.1389H9.6948C10.0794 20.1389 10.3911 20.4498 10.3911 20.8333C10.3911 21.2169 10.0794 21.5278 9.6948 21.5278H8.30223C7.91768 21.5278 7.60594 21.2169 7.60594 20.8333ZM11.7837 20.8333C11.7837 20.4498 12.0954 20.1389 12.4799 20.1389H18.0502C18.4348 20.1389 18.7465 20.4498 18.7465 20.8333C18.7465 21.2169 18.4348 21.5278 18.0502 21.5278H12.4799C12.0954 21.5278 11.7837 21.2169 11.7837 20.8333Z" fill="black" fill-opacity="0.5"/>
<path fill-rule="evenodd" clip-rule="evenodd" d="M6.90966 0H19.4428C20.981 0 22.228 1.24365 22.228 2.77778V22.2222C22.228 23.7563 20.981 25 19.4428 25H6.90966C5.37146 25 4.12451 23.7563 4.12451 22.2222V2.77778C4.12451 1.24365 5.37146 0 6.90966 0ZM6.90966 1.38889C6.14056 1.38889 5.51708 2.01072 5.51708 2.77778V22.2222C5.51708 22.9893 6.14056 23.6111 6.90966 23.6111H19.4428C20.2119 23.6111 20.8354 22.9893 20.8354 22.2222V2.77778C20.8354 2.01072 20.2119 1.38889 19.4428 1.38889H6.90966Z" fill="black" fill-opacity="0.5"/>
</svg>
