<svg width="20" height="20" viewBox="0 0 20 20" fill="none" xmlns="http://www.w3.org/2000/svg">
<path fill-rule="evenodd" clip-rule="evenodd" d="M5.54375 3.88889C5.54375 3.27524 6.04253 2.77778 6.65781 2.77778H13.3422C13.9574 2.77778 14.4562 3.27524 14.4562 3.88889V6.11111C14.4562 6.72476 13.9574 7.22222 13.3422 7.22222H6.65781C6.04253 7.22222 5.54375 6.72476 5.54375 6.11111V3.88889ZM13.3422 3.88889H6.65781V6.11111H13.3422V3.88889ZM5.54375 10C5.54375 9.69318 5.79314 9.44444 6.10078 9.44444H10.557C10.8647 9.44444 11.114 9.69318 11.114 10C11.114 10.3068 10.8647 10.5556 10.557 10.5556H6.10078C5.79314 10.5556 5.54375 10.3068 5.54375 10ZM12.2281 10C12.2281 9.69318 12.4775 9.44444 12.7851 9.44444H13.8992C14.2068 9.44444 14.4562 9.69318 14.4562 10C14.4562 10.3068 14.2068 10.5556 13.8992 10.5556H12.7851C12.4775 10.5556 12.2281 10.3068 12.2281 10ZM5.54375 13.3333C5.54375 13.0265 5.79314 12.7778 6.10078 12.7778H13.8992C14.2068 12.7778 14.4562 13.0265 14.4562 13.3333C14.4562 13.6402 14.2068 13.8889 13.8992 13.8889H6.10078C5.79314 13.8889 5.54375 13.6402 5.54375 13.3333ZM5.54375 16.6667C5.54375 16.3598 5.79314 16.1111 6.10078 16.1111H7.21484C7.52248 16.1111 7.77187 16.3598 7.77187 16.6667C7.77187 16.9735 7.52248 17.2222 7.21484 17.2222H6.10078C5.79314 17.2222 5.54375 16.9735 5.54375 16.6667ZM8.88593 16.6667C8.88593 16.3598 9.13532 16.1111 9.44296 16.1111H13.8992C14.2068 16.1111 14.4562 16.3598 14.4562 16.6667C14.4562 16.9735 14.2068 17.2222 13.8992 17.2222H9.44296C9.13532 17.2222 8.88593 16.9735 8.88593 16.6667Z" fill="black"/>
<path fill-rule="evenodd" clip-rule="evenodd" d="M4.98672 0H15.0132C16.2438 0 17.2414 0.994923 17.2414 2.22222V17.7778C17.2414 19.0051 16.2438 20 15.0132 20H4.98672C3.75617 20 2.75861 19.0051 2.75861 17.7778V2.22222C2.75861 0.994923 3.75617 0 4.98672 0ZM4.98672 1.11111C4.37145 1.11111 3.87266 1.60857 3.87266 2.22222V17.7778C3.87266 18.3914 4.37144 18.8889 4.98672 18.8889H15.0132C15.6285 18.8889 16.1273 18.3914 16.1273 17.7778V2.22222C16.1273 1.60857 15.6285 1.11111 15.0132 1.11111H4.98672Z" fill="black"/>
</svg>
