<svg width="38" height="34" viewBox="0 0 38 34" fill="none" xmlns="http://www.w3.org/2000/svg">
<path d="M36 18.125L34.694 19.3565C33.2898 20.6808 31.1042 20.7361 29.6335 19.4849L28.0697 18.1542C26.6549 16.9507 24.5673 16.9507 23.1525 18.1542L21.4586 19.5958C20.0438 20.7993 17.9562 20.7993 16.5414 19.5958L14.8474 18.1542C13.4327 16.9507 11.3451 16.9507 9.93035 18.1542L8.36641 19.4849C6.89581 20.7361 4.71018 20.6806 3.30594 19.3565L2 18.125M19 2C9.05676 2 4.92929 5.20722 3.21595 7.86989C2.09284 9.61529 3.69137 11.375 5.77778 11.375H32.2222C34.3087 11.375 35.9071 9.61529 34.7841 7.86989C33.0707 5.20722 28.9433 2 19 2ZM4.83333 26.375H33.1667C34.7314 26.375 36 27.6342 36 29.1875C36 30.7407 34.7314 32 33.1667 32H4.83333C3.26852 32 2 30.7407 2 29.1875C2 27.6342 3.26852 26.375 4.83333 26.375Z" stroke="black" stroke-width="3" stroke-linecap="round" stroke-linejoin="round"/>
</svg>
