<svg width="19" height="19" viewBox="0 0 19 19" fill="none" xmlns="http://www.w3.org/2000/svg">
<path fill-rule="evenodd" clip-rule="evenodd" d="M0.527032 9.14557C1.71714 5.10008 5.26944 2.13338 9.50001 2.13338C13.7305 2.13338 17.2828 5.10011 18.473 9.14556C18.509 9.26808 18.509 9.39867 18.473 9.52119C17.2828 13.5667 13.7305 16.5334 9.50001 16.5334C5.26944 16.5334 1.71712 13.5667 0.527031 9.52119C0.490989 9.39867 0.49099 9.26808 0.527032 9.14557ZM1.81614 9.33338C2.91046 12.7767 5.95162 15.2243 9.50001 15.2243C13.0483 15.2243 16.0895 12.7767 17.1839 9.33338C16.0895 5.89002 13.0483 3.44247 9.50001 3.44247C5.95162 3.44247 2.91047 5.89 1.81614 9.33338ZM9.49957 7.18273C8.43197 7.18273 7.51503 8.11595 7.51503 9.33338C7.51503 10.5508 8.43197 11.484 9.49957 11.484C10.5673 11.484 11.4841 10.5508 11.4841 9.33338C11.4841 8.11595 10.5673 7.18273 9.49957 7.18273ZM6.22932 9.33338C6.22932 7.45218 7.66509 5.87364 9.49957 5.87364C11.3341 5.87364 12.7699 7.45219 12.7699 9.33338C12.7699 11.2146 11.3341 12.7931 9.49957 12.7931C7.66509 12.7931 6.22932 11.2146 6.22932 9.33338Z" fill="black"/>
</svg>
