<svg width="26" height="25" viewBox="0 0 26 25" fill="none" xmlns="http://www.w3.org/2000/svg">
<path fill-rule="evenodd" clip-rule="evenodd" d="M0.713692 12.2392C2.36661 6.62042 7.30037 2.5 13.1762 2.5C19.0519 2.5 23.9857 6.62046 25.6386 12.2391C25.6887 12.4093 25.6887 12.5907 25.6386 12.7609C23.9857 18.3796 19.0519 22.5 13.1762 22.5C7.30037 22.5 2.36659 18.3796 0.713691 12.7608C0.663633 12.5907 0.663633 12.4093 0.713692 12.2392ZM2.50412 12.5C4.02401 17.2824 8.24784 20.6818 13.1762 20.6818C18.1044 20.6818 22.3282 17.2825 23.8482 12.5C22.3282 7.71756 18.1044 4.31818 13.1762 4.31818C8.24784 4.31818 4.02403 7.71753 2.50412 12.5ZM13.1756 9.51299C11.6928 9.51299 10.4192 10.8091 10.4192 12.5C10.4192 14.1909 11.6928 15.487 13.1756 15.487C14.6584 15.487 15.9319 14.1909 15.9319 12.5C15.9319 10.8091 14.6584 9.51299 13.1756 9.51299ZM8.63353 12.5C8.63353 9.88723 10.6277 7.69481 13.1756 7.69481C15.7236 7.69481 17.7176 9.88724 17.7176 12.5C17.7176 15.1128 15.7236 17.3052 13.1756 17.3052C10.6277 17.3052 8.63353 15.1128 8.63353 12.5Z" fill="#4C956C"/>
</svg>
