<svg width="26" height="25" viewBox="0 0 26 25" fill="none" xmlns="http://www.w3.org/2000/svg">
<path d="M14.8424 1.12808e-07C15.0173 -9.08198e-05 15.1878 0.0547947 15.3297 0.157007C15.4717 0.259219 15.5778 0.403501 15.6332 0.569414L16.4793 3.10766C16.8209 3.22793 17.1551 3.36582 17.4817 3.52256L19.8752 2.32666C20.0317 2.2485 20.2087 2.22157 20.3813 2.2496C20.5539 2.27762 20.7133 2.35926 20.8369 2.4829L23.1931 4.83886C23.3167 4.96248 23.3983 5.12192 23.4264 5.29451C23.4544 5.46709 23.4274 5.6441 23.3493 5.8005L22.1549 8.18904C22.312 8.51722 22.4511 8.85288 22.5715 9.19623L25.1066 10.0423C25.2726 10.0976 25.4168 10.2038 25.5191 10.3457C25.6213 10.4877 25.6762 10.6581 25.6761 10.833V14.1653C25.6762 14.3402 25.6213 14.5107 25.5191 14.6526C25.4168 14.7946 25.2726 14.9007 25.1066 14.9561L22.5634 15.8038C22.4435 16.1433 22.3058 16.4749 22.15 16.7995L23.3493 19.1979C23.4274 19.3543 23.4544 19.5313 23.4264 19.7039C23.3983 19.8764 23.3167 20.0358 23.1931 20.1594L20.8369 22.5171C20.7133 22.6407 20.5539 22.7223 20.3813 22.7503C20.2087 22.7783 20.0317 22.7514 19.8752 22.6732L17.4817 21.4757C17.1554 21.6316 16.8221 21.7692 16.481 21.889L15.6332 24.4305C15.5778 24.5964 15.4717 24.7407 15.3297 24.8429C15.1878 24.9451 15.0173 25.0001 14.8424 25H11.5099C11.335 25.0001 11.1645 24.9451 11.0226 24.8429C10.8806 24.7407 10.7745 24.5964 10.7191 24.4305L9.87134 21.8841C9.53268 21.7647 9.20099 21.6275 8.87714 21.4724L6.47704 22.6732C6.32063 22.7514 6.1436 22.7783 5.97101 22.7503C5.79842 22.7223 5.63902 22.6407 5.51538 22.5171L3.15922 20.1594C3.03558 20.0358 2.95396 19.8764 2.92592 19.7039C2.89789 19.5313 2.92486 19.3543 3.00302 19.1979L4.19899 16.8061C4.04222 16.479 3.90439 16.1443 3.78406 15.8021L1.24566 14.9561C1.07974 14.9007 0.935443 14.7946 0.833228 14.6526C0.731011 14.5107 0.676054 14.3402 0.676148 14.1653V10.8331C0.676054 10.6582 0.731011 10.4877 0.833228 10.3457C0.935443 10.2038 1.07974 10.0976 1.24566 10.0423L3.78569 9.19623C3.90595 8.85518 4.04413 8.52158 4.20062 8.19558L3.00301 5.8005C2.92485 5.6441 2.89787 5.46709 2.92591 5.29451C2.95395 5.12192 3.03557 4.96248 3.15922 4.83886L5.51538 2.4829C5.63902 2.35926 5.79841 2.27762 5.97101 2.2496C6.1436 2.22157 6.32063 2.24859 6.47704 2.32675L8.86412 3.51939C9.19341 3.36196 9.53009 3.22341 9.8746 3.10285L10.7191 0.56951C10.7745 0.403591 10.8806 0.259225 11.0226 0.157007C11.1645 0.0547887 11.335 -8.89477e-05 11.5099 1.12808e-07H14.8424ZM14.242 1.66606H12.1103L11.3374 3.98628C11.2951 4.11342 11.2227 4.22853 11.1263 4.32172C11.03 4.41491 10.9127 4.48343 10.7842 4.52158C10.242 4.68279 9.71728 4.89841 9.21884 5.16594C9.10143 5.22923 8.97054 5.26339 8.83718 5.26559C8.70381 5.26778 8.57187 5.23793 8.45244 5.17853L6.26877 4.08679L4.762 5.59344L5.85872 7.78673C5.91857 7.90626 5.94878 8.03847 5.9468 8.17213C5.94481 8.3058 5.91069 8.43705 5.84732 8.55475C5.5804 9.04987 5.36328 9.56995 5.20133 10.1086C5.1631 10.2366 5.09466 10.3535 5.00177 10.4495C4.90889 10.5455 4.79428 10.6178 4.66761 10.6602L2.34237 11.4347V13.5661L4.66599 14.3406C4.79265 14.3831 4.90726 14.4553 5.00014 14.5513C5.09303 14.6473 5.16147 14.7642 5.1997 14.8922C5.36146 15.4319 5.57859 15.9533 5.84569 16.4493C5.90907 16.567 5.9432 16.6982 5.94518 16.8319C5.94716 16.9656 5.91695 17.0978 5.85709 17.2173L4.762 19.4073L6.26877 20.9156L8.46709 19.8157C8.58672 19.756 8.71896 19.7261 8.85264 19.7283C8.98632 19.7305 9.1175 19.7647 9.23512 19.8283C9.72848 20.0937 10.246 20.3097 10.7826 20.471C10.9106 20.5092 11.0275 20.5777 11.1235 20.6706C11.2195 20.7635 11.2918 20.878 11.3342 21.0047L12.1103 23.3363H14.242L15.0181 21.008C15.0603 20.881 15.1325 20.7661 15.2285 20.6729C15.3245 20.5797 15.4416 20.511 15.5697 20.4727C16.1083 20.3118 16.6301 20.0975 17.1253 19.8316C17.2427 19.7683 17.3736 19.7341 17.507 19.7319C17.6403 19.7297 17.7723 19.7596 17.8917 19.819L20.0835 20.9156L21.5903 19.4073L20.492 17.2108C20.4321 17.0912 20.4019 16.959 20.4039 16.8254C20.4059 16.6917 20.44 16.5606 20.5033 16.4428C20.7695 15.9491 20.986 15.4292 21.1477 14.8922C21.1862 14.7645 21.2547 14.6479 21.3476 14.5522C21.4405 14.4565 21.5549 14.3845 21.6814 14.3422L24.0099 13.5661V11.4347L21.6879 10.6602C21.561 10.618 21.446 10.5458 21.3528 10.4498C21.2597 10.3538 21.191 10.2367 21.1526 10.1086C20.991 9.5679 20.7755 9.04519 20.5082 8.54822C20.4448 8.43051 20.4107 8.29927 20.4087 8.1656C20.4068 8.03193 20.437 7.89973 20.4968 7.78019L21.5903 5.59344L20.0835 4.08679L17.8917 5.1818C17.7721 5.24147 17.6398 5.27143 17.5062 5.26924C17.3725 5.26705 17.2413 5.23277 17.1237 5.16921C16.6281 4.90221 16.1073 4.68505 15.5681 4.52321C15.4401 4.48499 15.3232 4.41662 15.2272 4.32374C15.1312 4.23086 15.0589 4.1162 15.0165 3.98955L14.242 1.66606Z" fill="#D68C45"/>
<path d="M13.179 6.6629C16.39 6.6629 19.0092 9.28809 19.0092 12.4989C19.0092 15.7096 16.39 18.3287 13.179 18.3287C9.96806 18.3287 7.34269 15.7096 7.34269 12.4989C7.34269 9.28809 9.96806 6.6629 13.179 6.6629ZM13.179 8.32944C10.8686 8.32944 9.00933 10.1886 9.00933 12.4989C9.00933 14.8092 10.8686 16.6621 13.179 16.6621C15.4895 16.6621 17.3425 14.8092 17.3425 12.4989C17.3425 10.1886 15.4895 8.32944 13.179 8.32944Z" fill="#D68C45"/>
</svg>
