<svg width="22" height="21" viewBox="0 0 22 21" fill="none" xmlns="http://www.w3.org/2000/svg">
<path fill-rule="evenodd" clip-rule="evenodd" d="M11.0827 3.50486C13.2904 1.5668 16.5585 1.09179 19.1704 3.1984C22.0038 5.48375 22.3513 9.39751 20.1611 12.1325C19.3251 13.1766 17.69 14.7485 16.1144 16.1917C14.5215 17.6507 12.9323 19.0295 12.1484 19.7032L12.1335 19.716C12.0593 19.7798 11.97 19.8565 11.8851 19.9187C11.7837 19.9928 11.6428 20.0812 11.4572 20.1348C11.2096 20.2064 10.9437 20.2065 10.6958 20.1348C10.5104 20.0811 10.3696 19.9928 10.2682 19.9187C10.1828 19.8564 10.0933 19.7794 10.019 19.7154L10.0048 19.7032C10.0048 19.7032 10.0047 19.7032 10.0048 19.7032C9.22088 19.0295 7.63156 17.6507 6.0388 16.1917C4.46315 14.7485 2.82807 13.1766 1.99199 12.1325C-0.206242 9.38748 0.202813 5.50328 2.97358 3.2059C5.55508 1.06544 8.87026 1.56732 11.0827 3.50486ZM10.4267 5.3168C8.74479 3.40855 6.06084 2.91938 4.09057 4.55304C2.03913 6.254 1.76929 9.05478 3.35797 11.0387C4.09617 11.9604 5.63038 13.4445 7.22083 14.9013C8.74899 16.3011 10.2775 17.6293 11.0766 18.3168C11.8756 17.6293 13.4041 16.3011 14.9323 14.9013C16.5227 13.4445 18.0569 11.9605 18.7952 11.0387C20.3919 9.04475 20.1434 6.23147 18.0716 4.56054C16.0515 2.93119 13.4153 3.41562 11.7396 5.3168C11.5735 5.50525 11.3343 5.61322 11.0831 5.61322C10.8319 5.61322 10.5929 5.50525 10.4267 5.3168Z" fill="black" fill-opacity="0.5"/>
</svg>
