<svg width="30" height="30" viewBox="0 0 30 30" fill="none" xmlns="http://www.w3.org/2000/svg">
<path fill-rule="evenodd" clip-rule="evenodd" d="M14.9995 4.39575C18.1534 1.65376 22.8221 0.981709 26.5534 3.96217C30.6011 7.19551 31.0976 12.7328 27.9687 16.6023C26.7744 18.0794 24.4385 20.3034 22.1876 22.3453C19.9121 24.4094 17.6418 26.3602 16.522 27.3133L16.5007 27.3315C16.3947 27.4218 16.2672 27.5303 16.1458 27.6182C16.0009 27.7231 15.7997 27.8481 15.5345 27.924C15.1808 28.0253 14.8009 28.0254 14.4468 27.924C14.1819 27.848 13.9808 27.7231 13.8359 27.6182C13.7141 27.5301 13.5862 27.4211 13.4799 27.3307L13.4597 27.3133C13.4597 27.3134 13.4596 27.3133 13.4597 27.3133C12.3398 26.3602 10.0694 24.4094 7.79399 22.3453C5.54306 20.3034 3.20723 18.0794 2.01283 16.6023C-1.1275 12.7186 -0.543135 7.22315 3.4151 3.97278C7.10296 0.944428 11.8389 1.65449 14.9995 4.39575ZM14.0624 6.95931C11.6597 4.25949 7.82548 3.56741 5.01081 5.87874C2.08017 8.28527 1.69469 12.2479 3.96423 15.0547C5.01881 16.3588 7.21053 18.4585 9.4826 20.5195C11.6657 22.5 13.8493 24.3792 14.9908 25.3519C16.1323 24.3792 18.3159 22.5 20.499 20.5195C22.771 18.4585 24.9627 16.3589 26.0174 15.0547C28.2984 12.2337 27.9434 8.2534 24.9837 5.88935C22.0979 3.58411 18.3319 4.2695 15.9379 6.95931C15.7007 7.22593 15.359 7.37869 15.0002 7.37869C14.6413 7.37869 14.2998 7.22593 14.0624 6.95931Z" fill="black"/>
</svg>
