<svg width="24" height="21" viewBox="0 0 24 21" fill="none" xmlns="http://www.w3.org/2000/svg">
<path fill-rule="evenodd" clip-rule="evenodd" d="M21.2428 1.585C18.2578 -0.822565 14.5229 -0.279693 11.9997 1.93525C9.47119 -0.279101 5.68243 -0.852679 2.73214 1.59357C-0.434472 4.21917 -0.901966 8.65828 1.61032 11.7955C2.56584 12.9887 4.4345 14.7852 6.23526 16.4346C8.05557 18.102 9.87195 19.6778 10.7678 20.4477L10.784 20.4616L10.7841 20.4617L10.7841 20.4618L10.7842 20.4618C10.8691 20.5349 10.9714 20.6228 11.0688 20.694C11.1847 20.7787 11.3456 20.8796 11.5575 20.9409C11.8408 21.0229 12.1447 21.0228 12.4277 20.941C12.6399 20.8797 12.8008 20.7786 12.9167 20.6939C13.0138 20.623 13.1157 20.5354 13.2005 20.4625L13.2006 20.4624L13.2006 20.4624L13.2177 20.4477C14.1135 19.6778 15.9298 18.102 17.7502 16.4346C19.5509 14.7852 21.4196 12.9886 22.3752 11.7955C24.8782 8.66974 24.481 4.19685 21.2428 1.585Z" fill="#DB4443"/>
</svg>
