<svg width="30" height="30" viewBox="0 0 30 30" fill="none" xmlns="http://www.w3.org/2000/svg">
<path fill-rule="evenodd" clip-rule="evenodd" d="M26.5533 3.96217C22.8221 0.981709 18.1535 1.65376 14.9995 4.39576C11.8389 1.65449 7.10296 0.944429 3.41511 3.97278C-0.543137 7.22315 -1.1275 12.7186 2.01284 16.6023C3.20724 18.0794 5.54305 20.3034 7.79399 22.3453C10.0694 24.4095 12.3398 26.3602 13.4596 27.3133L13.4799 27.3305C13.586 27.421 13.7141 27.5301 13.8359 27.6182C13.9808 27.7231 14.1819 27.848 14.4468 27.9239C14.8009 28.0254 15.1808 28.0253 15.5345 27.924C15.7998 27.8481 16.0009 27.723 16.1458 27.6181C16.2671 27.5304 16.3945 27.4219 16.5005 27.3317L16.522 27.3133C17.6418 26.3602 19.9121 24.4095 22.1876 22.3453C24.4385 20.3034 26.7743 18.0793 27.9688 16.6023C31.0976 12.7328 30.6011 7.19552 26.5533 3.96217Z" fill="#DB4443"/>
</svg>
