<svg width="22" height="21" viewBox="0 0 22 21" fill="none" xmlns="http://www.w3.org/2000/svg">
<path fill-rule="evenodd" clip-rule="evenodd" d="M7.6344 11.392C5.76853 10.3371 4.51295 8.36372 4.51295 6.1034C4.51295 2.73258 7.30531 0 10.7499 0C14.1944 0 16.9868 2.73258 16.9868 6.1034C16.9868 8.36373 15.7312 10.3371 13.8653 11.392C14.0611 11.4572 14.255 11.5288 14.4466 11.6064C15.6186 12.0815 16.6835 12.7778 17.5805 13.6556C18.4775 14.5334 19.1891 15.5755 19.6745 16.7225C20.16 17.8694 20.4098 19.0986 20.4098 20.34V21H1.08984V20.34C1.08984 19.0986 1.33971 17.8694 1.82517 16.7225C2.31063 15.5755 3.02218 14.5334 3.91919 13.6556C4.81621 12.7778 5.88112 12.0815 7.05312 11.6064C7.24474 11.5287 7.4386 11.4572 7.6344 11.392ZM5.86174 6.1034C5.86174 3.46156 8.05023 1.31992 10.7499 1.31992C13.4495 1.31992 15.638 3.46156 15.638 6.1034C15.638 8.74004 13.4581 10.8784 10.7658 10.8868C10.7605 10.8868 10.7552 10.8868 10.7498 10.8868C10.7445 10.8868 10.7392 10.8868 10.7339 10.8868C8.04162 10.8784 5.86174 8.74003 5.86174 6.1034ZM10.7332 12.2068C9.6474 12.2089 8.57251 12.4192 7.56928 12.8259C6.56092 13.2346 5.6447 13.8337 4.87293 14.5889C4.10117 15.3442 3.48897 16.2408 3.07129 17.2276C2.73988 18.0105 2.53609 18.8381 2.46604 19.6801H19.0336C18.9636 18.8381 18.7598 18.0105 18.4284 17.2276C18.0107 16.2408 17.3985 15.3442 16.6268 14.5889C15.855 13.8337 14.9388 13.2346 13.9304 12.8259C12.9272 12.4192 11.8523 12.2089 10.7665 12.2068C10.761 12.2068 10.7554 12.2068 10.7499 12.2068C10.7443 12.2068 10.7387 12.2068 10.7332 12.2068Z" fill="black" fill-opacity="0.5"/>
</svg>
