<svg width="26" height="25" viewBox="0 0 26 25" fill="none" xmlns="http://www.w3.org/2000/svg">
<path d="M24.5891 1.92221V0C22.7015 0 21.2292 0.533113 20.2168 1.57681C19.6308 2.18126 19.3156 2.85328 19.1339 3.43145C18.6518 3.09356 18.0918 2.88332 17.4687 2.88332C15.073 2.88332 14.1681 4.81304 14.1459 6.12705C14.1459 6.33729 14.1385 6.55879 14.1236 6.78781C13.4858 8.69875 12.2471 7.43355 12.2471 4.80553C9.18757 8.09431 12.4845 9.30695 10.6042 11.2104C10.2037 11.6159 9.2469 11.7735 8.64983 11.0302C7.85991 10.0803 9.46571 8.51855 7.9452 7.35095C8.22334 9.10797 6.88456 8.7438 6.43212 8.36837C5.84246 7.88031 4.77069 6.80658 6.55079 3.84442C4.7299 4.68539 3.63217 6.3936 3.70263 7.68884C3.89177 11.0865 9.08002 14.0374 6.98469 16.0197C5.92776 17.0221 3.85097 15.6668 4.65202 13.4555C3.65442 13.9698 2.48252 15.1937 2.85708 17.0972C3.11668 18.4149 5.00804 21.3846 1.80386 23.0665C1.80386 23.0665 1.81869 23.0703 1.84465 23.0778L1.76306 24.9887C1.82611 24.9925 2.082 25 2.49365 25C5.1638 25 14.4055 24.5833 20.0944 19.0682C23.0761 16.1774 24.5891 12.3479 24.5891 7.68884C24.5891 6.35981 23.9921 3.84442 21.741 3.84442C21.4628 3.84442 21.2032 3.88196 20.9585 3.94203C21.066 3.61916 21.2515 3.25124 21.5704 2.92086C22.2157 2.2601 23.2281 1.92221 24.5891 1.92221ZM21.741 5.76663C22.6385 5.76663 22.6904 7.67382 22.6904 7.68884C22.6904 11.7998 21.3738 15.1599 18.7853 17.6753C14.5835 21.7525 7.96375 22.7624 4.37017 23.0027C5.24538 22.8 6.29861 22.387 7.45197 21.5986C13.0074 18.5163 15.9297 11.2479 16.0372 6.40862H16.0447V6.14582C16.0484 5.92056 16.1374 4.80553 17.4687 4.80553C18.2809 4.80553 18.8928 5.97312 18.8928 6.72774H20.7916C20.7916 6.31476 20.8917 5.76663 21.741 5.76663Z" fill="#FF6766"/>
</svg>
