<svg width="25" height="24" viewBox="0 0 25 24" fill="none" xmlns="http://www.w3.org/2000/svg">
<path d="M23.1761 12C23.1761 18.0751 18.2513 23 12.1761 23C6.10102 23 1.17615 18.0751 1.17615 12C1.17615 5.92487 6.10102 1 12.1761 1C18.2513 1 23.1761 5.92487 23.1761 12Z" fill="white"/>
<path fill-rule="evenodd" clip-rule="evenodd" d="M24.1761 12C24.1761 18.6274 18.8036 24 12.1761 24C5.54873 24 0.176147 18.6274 0.176147 12C0.176147 5.37258 5.54873 0 12.1761 0C18.8036 0 24.1761 5.37258 24.1761 12ZM12.1761 23C18.2513 23 23.1761 18.0751 23.1761 12C23.1761 5.92487 18.2513 1 12.1761 1C6.10102 1 1.17615 5.92487 1.17615 12C1.17615 18.0751 6.10102 23 12.1761 23Z" fill="#F1F1F1"/>
<path d="M12.437 6.00203C11.8824 5.98444 11.3302 6.08114 10.8147 6.28611C10.2991 6.49109 9.83127 6.79996 9.44022 7.19351C9.0346 7.57147 8.71261 8.03016 8.49497 8.54007C8.27733 9.04998 8.16885 9.5998 8.17653 10.1542C8.17653 10.3936 8.27163 10.6231 8.4409 10.7924C8.61018 10.9617 8.83977 11.0568 9.07916 11.0568C9.31856 11.0568 9.54815 10.9617 9.71742 10.7924C9.8867 10.6231 9.9818 10.3936 9.9818 10.1542C9.98133 9.8372 10.0451 9.52343 10.1692 9.23178C10.2933 8.94013 10.4752 8.67664 10.7039 8.4572C10.9256 8.23626 11.1912 8.06427 11.4835 7.95232C11.7758 7.84038 12.0883 7.79098 12.4009 7.80731C12.9838 7.81884 13.5415 8.04693 13.9655 8.44714C14.3894 8.84736 14.6492 9.39105 14.6943 9.97232C14.7393 10.5536 14.5664 11.1308 14.2092 11.5916C13.852 12.0524 13.3361 12.3637 12.7619 12.4649C12.3857 12.5255 12.0439 12.7193 11.7986 13.0109C11.5534 13.3025 11.4212 13.6726 11.426 14.0535V15.2089C11.426 15.4483 11.5211 15.6779 11.6904 15.8472C11.8597 16.0165 12.0893 16.1116 12.3287 16.1116C12.568 16.1116 12.7976 16.0165 12.9669 15.8472C13.1362 15.6779 13.2313 15.4483 13.2313 15.2089V14.198C14.1667 13.983 14.9999 13.4532 15.5914 12.6974C16.1829 11.9416 16.4969 11.0055 16.4808 10.0458C16.4364 8.98758 15.9962 7.98458 15.2472 7.23561C14.4982 6.48665 13.4952 6.04637 12.437 6.00203Z" fill="#ACACAC"/>
<path d="M12.3284 19C12.8269 19 13.2311 18.5959 13.2311 18.0974C13.2311 17.5988 12.8269 17.1947 12.3284 17.1947C11.8299 17.1947 11.4258 17.5988 11.4258 18.0974C11.4258 18.5959 11.8299 19 12.3284 19Z" fill="#ACACAC"/>
</svg>
