<svg width="25" height="25" viewBox="0 0 25 25" fill="none" xmlns="http://www.w3.org/2000/svg">
<path fill-rule="evenodd" clip-rule="evenodd" d="M9.40905 6.31818C9.40905 5.03789 10.4469 4 11.7272 4H13.2727C14.553 4 15.5909 5.03789 15.5909 6.31818V7.09091H18.6818C19.1085 7.09091 19.4545 7.43687 19.4545 7.86364C19.4545 8.2904 19.1085 8.63636 18.6818 8.63636H17.8623L17.2254 18.8264C17.149 20.0482 16.1359 21 14.9117 21H10.0882C8.86405 21 7.85089 20.0482 7.77453 18.8264L7.13765 8.63636H6.31814C5.89137 8.63636 5.54541 8.2904 5.54541 7.86364C5.54541 7.43687 5.89137 7.09091 6.31814 7.09091H9.40905V6.31818ZM10.9545 7.09091H14.0454V6.31818C14.0454 5.89142 13.6994 5.54545 13.2727 5.54545H11.7272C11.3005 5.54545 10.9545 5.89142 10.9545 6.31818V7.09091ZM8.68612 8.63636L9.31698 18.73C9.34243 19.1373 9.68015 19.4545 10.0882 19.4545H14.9117C15.3198 19.4545 15.6575 19.1373 15.6829 18.73L16.3138 8.63636H8.68612ZM10.9545 10.1818C11.3813 10.1818 11.7272 10.5278 11.7272 10.9545V17.1364C11.7272 17.5631 11.3813 17.9091 10.9545 17.9091C10.5277 17.9091 10.1818 17.5631 10.1818 17.1364V10.9545C10.1818 10.5278 10.5277 10.1818 10.9545 10.1818ZM14.0454 10.1818C14.4722 10.1818 14.8181 10.5278 14.8181 10.9545V17.1364C14.8181 17.5631 14.4722 17.9091 14.0454 17.9091C13.6186 17.9091 13.2727 17.5631 13.2727 17.1364V10.9545C13.2727 10.5278 13.6186 10.1818 14.0454 10.1818Z" fill="#FF6766"/>
</svg>
