<svg width="20" height="20" viewBox="0 0 20 20" fill="none" xmlns="http://www.w3.org/2000/svg">
<path d="M17.8571 14.379V11.4224C17.8571 11.0437 17.7066 10.6806 17.4387 10.4128C17.1708 10.145 16.8074 9.99462 16.4286 9.99462H10.7143V7.13901H12.1429C12.5216 7.13858 12.8847 6.98801 13.1525 6.72034C13.4203 6.45267 13.571 6.08975 13.5714 5.71121V1.4278C13.571 1.04926 13.4203 0.686344 13.1525 0.418674C12.8847 0.151003 12.5216 0.000434576 12.1429 0H7.85714C7.47838 0.000377994 7.11524 0.150928 6.84741 0.418611C6.57958 0.686294 6.42895 1.04924 6.42857 1.4278V5.71121C6.42895 6.08977 6.57958 6.45272 6.84741 6.7204C7.11524 6.98808 7.47838 7.13863 7.85714 7.13901H9.28572V9.99462H3.57143C3.19255 9.99462 2.82919 10.145 2.56128 10.4128C2.29337 10.6806 2.14286 11.0437 2.14286 11.4224V14.3795C1.46954 14.5532 0.882728 14.9665 0.492434 15.5417C0.10214 16.117 -0.0648453 16.8147 0.0227792 17.5042C0.110404 18.1937 0.446622 18.8276 0.968412 19.2871C1.4902 19.7465 2.16174 20 2.85715 20C3.55256 20 4.22409 19.7465 4.74588 19.2871C5.26767 18.8276 5.60389 18.1937 5.69152 17.5042C5.77914 16.8147 5.61216 16.117 5.22186 15.5417C4.83157 14.9665 4.24476 14.5532 3.57143 14.3795V11.4224H9.28572V14.3794C8.61239 14.5532 8.02558 14.9664 7.63529 15.5416C7.24499 16.1169 7.07801 16.8146 7.16563 17.5041C7.25326 18.1936 7.58947 18.8275 8.11126 19.287C8.63305 19.7464 9.30459 19.9999 10 19.9999C10.6954 19.9999 11.3669 19.7464 11.8887 19.287C12.4105 18.8275 12.7467 18.1936 12.8344 17.5041C12.922 16.8146 12.755 16.1169 12.3647 15.5416C11.9744 14.9664 11.3876 14.5532 10.7143 14.3794V11.4224H16.4286V14.379C15.7552 14.5527 15.1684 14.966 14.7781 15.5412C14.3878 16.1165 14.2209 16.8142 14.3085 17.5037C14.3961 18.1932 14.7323 18.8271 15.2541 19.2866C15.7759 19.746 16.4474 19.9995 17.1429 19.9995C17.8383 19.9995 18.5098 19.746 19.0316 19.2866C19.5534 18.8271 19.8896 18.1932 19.9772 17.5037C20.0648 16.8142 19.8979 16.1165 19.5076 15.5412C19.1173 14.966 18.5305 14.5527 17.8571 14.379ZM7.85714 1.4278H12.1429L12.1436 5.71121H7.85714V1.4278ZM4.28572 17.1336C4.28572 17.416 4.20193 17.6921 4.04496 17.9269C3.88799 18.1617 3.66488 18.3447 3.40384 18.4527C3.1428 18.5608 2.85556 18.5891 2.57845 18.534C2.30133 18.4789 2.04679 18.3429 1.847 18.1432C1.64721 17.9436 1.51115 17.6891 1.45603 17.4122C1.40091 17.1352 1.4292 16.8481 1.53732 16.5872C1.64545 16.3263 1.82855 16.1033 2.06348 15.9465C2.2984 15.7896 2.5746 15.7058 2.85715 15.7058C3.23589 15.7063 3.599 15.8568 3.86682 16.1245C4.13463 16.3922 4.28528 16.7551 4.28572 17.1336ZM11.4286 17.1336C11.4286 17.416 11.3448 17.6921 11.1878 17.9269C11.0308 18.1617 10.8077 18.3447 10.5467 18.4527C10.2857 18.5608 9.99842 18.5891 9.7213 18.534C9.44418 18.4789 9.18964 18.3429 8.98985 18.1432C8.79006 17.9436 8.654 17.6891 8.59888 17.4122C8.54376 17.1352 8.57205 16.8481 8.68017 16.5872C8.7883 16.3263 8.9714 16.1033 9.20633 15.9465C9.44126 15.7896 9.71746 15.7058 10 15.7058C10.3787 15.7063 10.7418 15.8569 11.0096 16.1246C11.2774 16.3922 11.4281 16.7551 11.4286 17.1336ZM17.1429 18.5614C16.8603 18.5614 16.5841 18.4777 16.3492 18.3208C16.1143 18.1639 15.9312 17.9409 15.823 17.68C15.7149 17.4191 15.6866 17.132 15.7417 16.8551C15.7969 16.5781 15.9329 16.3237 16.1327 16.124C16.3325 15.9243 16.587 15.7884 16.8642 15.7333C17.1413 15.6782 17.4285 15.7064 17.6895 15.8145C17.9506 15.9226 18.1737 16.1056 18.3307 16.3404C18.4876 16.5752 18.5714 16.8512 18.5714 17.1336C18.571 17.5122 18.4203 17.8751 18.1525 18.1428C17.8847 18.4104 17.5216 18.561 17.1429 18.5614Z" fill="black"/>
</svg>
