<svg width="66" height="308" viewBox="0 0 66 308" fill="none" xmlns="http://www.w3.org/2000/svg">
<path d="M2.51958 28.4025C2.51958 10.8598 15.4678 0 32.5928 0C49.3137 0 62.6796 11.2775 62.6796 28.4025V189.251C62.6796 206.376 49.3137 217.654 32.5928 217.654C15.4678 217.654 2.51958 206.781 2.51958 189.251V28.4025ZM0 274.877C0.0142602 266.238 3.45315 257.958 9.56279 251.851C15.6724 245.743 23.9543 242.308 32.5928 242.297C41.2314 242.308 49.5133 245.743 55.6229 251.851C61.7325 257.958 65.1714 266.238 65.1857 274.877C65.175 283.518 61.7377 291.801 55.6276 297.911C49.5176 304.021 41.2337 307.459 32.5928 307.469C23.952 307.459 15.6681 304.021 9.55804 297.911C3.44801 291.801 0.0106964 283.518 0 274.877Z" fill="#F7B779"/>
</svg>
