<svg width="66" height="67" viewBox="0 0 66 67" fill="none" xmlns="http://www.w3.org/2000/svg">
<path fill-rule="evenodd" clip-rule="evenodd" d="M3.99121 0.670748H62.0314C64.2232 0.670748 66 2.44804 66 4.64045V62.6973C66 64.8897 64.2232 66.667 62.0314 66.667H3.99121C1.79943 66.667 0.0226477 64.8897 0.0226477 62.6973V4.64045C0.0226477 2.44804 1.79943 0.670748 3.99121 0.670748ZM62.0314 1.91128H3.99121C2.48436 1.91128 1.26282 3.13317 1.26282 4.64045V62.6973C1.26282 64.2046 2.48436 65.4265 3.99121 65.4265H62.0314C63.5383 65.4265 64.7598 64.2046 64.7598 62.6973V4.64045C64.7598 3.13317 63.5383 1.91128 62.0314 1.91128Z" fill="black" fill-opacity="0.5"/>
<path d="M59.4726 11.1054C62.2101 9.97211 64.4301 8.17705 65.7828 6.1305C65.8496 6.02938 65.9145 5.92732 65.9774 5.82441V4.63669C65.9774 4.17312 65.8979 3.72812 65.7519 3.31454C65.0117 5.91157 62.5101 8.50533 58.9984 9.95913C53.9191 12.0619 48.6501 10.9836 47.2297 7.55064C46.335 5.388 47.181 2.80682 49.1995 0.666992H47.5659C47.3898 0.893009 47.2245 1.1229 47.0704 1.35605C45.7225 3.39534 45.1687 5.81326 46.0838 8.02504C46.999 10.2368 49.099 11.5561 51.4934 12.0461C53.8963 12.5379 56.7352 12.2386 59.4726 11.1054Z" fill="black" fill-opacity="0.5"/>
<path d="M0 9.19359C0.457803 9.63841 1.01741 9.97969 1.68102 10.1576C3.16246 10.5546 4.60211 9.98718 5.68824 9.04428C6.78094 8.09567 7.63664 6.68248 8.07425 5.04881C8.48328 3.52188 8.47972 1.97909 8.092 0.666992H6.78468C7.20959 1.79104 7.27407 3.24294 6.87634 4.72774C6.11192 7.58141 3.9296 9.47594 2.002 8.95929C1.08708 8.71407 0.393986 7.96972 0 6.95016V9.19359Z" fill="black" fill-opacity="0.5"/>
<path d="M17.1706 66.6632C17.5493 66.2409 17.8897 65.802 18.1879 65.3508C19.5358 63.3115 20.0895 60.8936 19.1744 58.6818C18.2593 56.4701 16.1593 55.1508 13.7649 54.6608C11.3619 54.169 8.52303 54.4682 5.7856 55.6015C3.37707 56.5986 1.3691 58.108 0 59.8503V62.1384C1.08142 59.9868 3.31563 57.9666 6.25986 56.7477C11.3391 54.645 16.6081 55.7233 18.0285 59.1562C19.0121 61.5336 17.8921 64.4166 15.4235 66.6632H17.1706Z" fill="black" fill-opacity="0.5"/>
<path d="M65.9774 58.4203C65.439 57.5408 64.642 56.8347 63.5772 56.5493C62.0958 56.1523 60.6561 56.7197 59.57 57.6626C58.4773 58.6112 57.6216 60.0244 57.184 61.6581C56.7464 63.2917 56.781 64.9436 57.2532 66.3116C57.2941 66.4301 57.3387 66.5474 57.3871 66.6632H58.7656C58.092 65.4861 57.9059 63.7562 58.3819 61.9791C59.1463 59.1255 61.3286 57.2309 63.2562 57.7476C65.1838 58.2642 66.1268 60.9964 65.3624 63.8501C65.1811 64.5267 64.9202 65.1493 64.6018 65.6987C65.4442 64.9708 65.9774 63.8945 65.9774 62.6935V58.4203Z" fill="black" fill-opacity="0.5"/>
<path fill-rule="evenodd" clip-rule="evenodd" d="M11.3159 38.5148C10.6645 37.392 9.74147 36.5049 8.71895 36.0098C7.70425 35.5185 6.45435 35.3636 5.35748 36.0003C4.26061 36.6369 3.77484 37.7993 3.69776 38.9243C3.62009 40.058 3.93204 41.2997 4.58341 42.4226C5.23477 43.5454 6.1578 44.4325 7.18032 44.9276C8.19501 45.4189 9.44492 45.5738 10.5418 44.9371C11.6387 44.3004 12.1244 43.1381 12.2015 42.0131C12.2792 40.8794 11.9672 39.6376 11.3159 38.5148ZM5.97992 37.0732C7.24662 36.338 9.15535 37.2622 10.2432 39.1374C11.331 41.0127 11.1861 43.1289 9.91935 43.8641C8.65265 44.5994 6.74392 43.6752 5.65607 41.8C4.56822 39.9247 4.71321 37.8085 5.97992 37.0732Z" fill="black" fill-opacity="0.5"/>
<path fill-rule="evenodd" clip-rule="evenodd" d="M19.0717 8.12342C18.917 8.92285 18.4786 9.70337 17.8488 10.3334C17.2189 10.9634 16.4386 11.4019 15.6394 11.5566C14.8488 11.7097 13.8938 11.5979 13.1916 10.8955C12.4893 10.193 12.3776 9.23777 12.5306 8.44689C12.6853 7.64746 13.1237 6.86694 13.7535 6.23694C14.3833 5.60693 15.1636 5.1684 15.9628 5.01368C16.7535 4.8606 17.7085 4.97242 18.4107 5.67484C19.1129 6.37726 19.2247 7.33254 19.0717 8.12342ZM16.9718 9.45619C17.9287 8.49901 18.1803 7.19877 17.5338 6.55203C16.8872 5.90529 15.5873 6.15694 14.6304 7.11412C13.6735 8.0713 13.4219 9.37154 14.0685 10.0183C14.7151 10.665 16.0149 10.4134 16.9718 9.45619Z" fill="black" fill-opacity="0.5"/>
<path fill-rule="evenodd" clip-rule="evenodd" d="M8.06112 24.7333C9.13298 24.7333 10.1584 24.4399 10.9508 23.9009C11.7367 23.3664 12.4017 22.4986 12.4017 21.3839C12.4017 20.2691 11.7367 19.4014 10.9508 18.8668C10.1584 18.3278 9.13298 18.0344 8.06112 18.0344C6.98927 18.0344 5.96387 18.3278 5.17142 18.8668C4.38552 19.4014 3.72051 20.2691 3.72051 21.3839C3.72051 22.4986 4.38552 23.3664 5.17142 23.9009C5.96387 24.4399 6.98927 24.7333 8.06112 24.7333ZM11.1616 21.3839C11.1616 22.5486 9.77345 23.4928 8.06112 23.4928C6.3488 23.4928 4.96068 22.5486 4.96068 21.3839C4.96068 20.2192 6.3488 19.275 8.06112 19.275C9.77345 19.275 11.1616 20.2192 11.1616 21.3839Z" fill="black" fill-opacity="0.5"/>
<path fill-rule="evenodd" clip-rule="evenodd" d="M56.5393 30.6971C55.5168 30.202 54.5937 29.3149 53.9424 28.1921C53.291 27.0692 52.9791 25.8275 53.0567 24.6938C53.1338 23.5688 53.6196 22.4064 54.7165 21.7698C55.8133 21.1331 57.0632 21.288 58.0779 21.7793C59.1004 22.2744 60.0235 23.1615 60.6748 24.2843C61.3262 25.4071 61.6381 26.6489 61.5605 27.7826C61.4834 28.9076 60.9976 30.0699 59.9008 30.7066C58.8039 31.3433 57.554 31.1884 56.5393 30.6971ZM55.015 27.5695C56.1029 29.4447 58.0116 30.3689 59.2783 29.6336C60.545 28.8984 60.69 26.7822 59.6022 24.9069C58.5143 23.0317 56.6056 22.1075 55.3389 22.8427C54.0722 23.578 53.9272 25.6942 55.015 27.5695Z" fill="black" fill-opacity="0.5"/>
<path fill-rule="evenodd" clip-rule="evenodd" d="M47.4095 56.3735C46.7797 57.0035 46.3413 57.784 46.1866 58.5835C46.0335 59.3743 46.1453 60.3296 46.8475 61.032C47.5498 61.7345 48.5048 61.8463 49.2954 61.6932C50.0946 61.5385 50.8749 61.1 51.5047 60.4699C52.1346 59.8399 52.573 59.0594 52.7277 58.26C52.8807 57.4691 52.7689 56.5138 52.0667 55.8114C51.3645 55.109 50.4095 54.9972 49.6188 55.1502C48.8196 55.305 48.0393 55.7435 47.4095 56.3735ZM47.7245 60.1548C47.0779 59.5081 47.3295 58.2079 48.2864 57.2507C49.2433 56.2935 50.5432 56.0419 51.1897 56.6886C51.8363 57.3353 51.5847 58.6356 50.6278 59.5928C49.6709 60.5499 48.371 60.8016 47.7245 60.1548Z" fill="black" fill-opacity="0.5"/>
<path fill-rule="evenodd" clip-rule="evenodd" d="M54.3074 42.806C55.0999 42.2669 56.1253 41.9736 57.1971 41.9736C58.269 41.9736 59.2944 42.2669 60.0868 42.806C60.8727 43.3405 61.5377 44.2083 61.5377 45.323C61.5377 46.4377 60.8727 47.3055 60.0868 47.84C59.2944 48.3791 58.269 48.6724 57.1971 48.6724C56.1253 48.6724 55.0999 48.3791 54.3074 47.84C53.5215 47.3055 52.8565 46.4377 52.8565 45.323C52.8565 44.2083 53.5215 43.3405 54.3074 42.806ZM57.1971 43.2141C55.4848 43.2141 54.0967 44.1583 54.0967 45.323C54.0967 46.4877 55.4848 47.4319 57.1971 47.4319C58.9094 47.4319 60.2976 46.4877 60.2976 45.323C60.2976 44.1583 58.9094 43.2141 57.1971 43.2141Z" fill="black" fill-opacity="0.5"/>
<path fill-rule="evenodd" clip-rule="evenodd" d="M22.6871 30.6792C22.3084 31.0909 21.7747 31.3934 21.1893 31.5503C20.6039 31.7072 19.9905 31.7122 19.4567 31.545C18.9362 31.3821 18.3521 30.9977 18.1631 30.2921C17.9741 29.5866 18.2878 28.9616 18.6571 28.5601C19.0359 28.1484 19.5696 27.846 20.155 27.6891C20.7404 27.5322 21.3538 27.5271 21.8876 27.6943C22.4081 27.8572 22.9922 28.2417 23.1812 28.9472C23.3702 29.6527 23.0564 30.2777 22.6871 30.6792ZM22.2548 29.1955C22.4033 29.7499 21.8151 30.3893 20.941 30.6236C20.067 30.8578 19.238 30.5983 19.0895 30.0438C18.941 29.4894 19.5291 28.85 20.4032 28.6157C21.2773 28.3815 22.1062 28.641 22.2548 29.1955Z" fill="black" fill-opacity="0.5"/>
<path fill-rule="evenodd" clip-rule="evenodd" d="M29.2547 23.3795C28.6859 23.5621 28.028 23.5606 27.3971 23.3915C26.7662 23.2224 26.1957 22.8947 25.7944 22.4521C25.4012 22.0182 25.0862 21.3615 25.2818 20.6312C25.4775 19.9008 26.0785 19.4896 26.6359 19.3106C27.2047 19.128 27.8626 19.1295 28.4935 19.2986C29.1244 19.4677 29.6949 19.7954 30.0962 20.238C30.4894 20.6719 30.8044 21.3286 30.6087 22.0589C30.4131 22.7892 29.8121 23.2005 29.2547 23.3795ZM29.6823 21.8106C29.5167 22.429 28.6047 22.7219 27.6453 22.4648C26.686 22.2077 26.0426 21.4979 26.2083 20.8795C26.3739 20.2611 27.2859 19.9682 28.2452 20.2253C29.2046 20.4824 29.848 21.1922 29.6823 21.8106Z" fill="black" fill-opacity="0.5"/>
<path fill-rule="evenodd" clip-rule="evenodd" d="M48.9068 36.2107C48.4484 36.5046 47.8731 36.6551 47.2872 36.6551C46.7012 36.6551 46.126 36.5046 45.6675 36.2107C45.2196 35.9235 44.7695 35.4107 44.7695 34.6964C44.7695 33.982 45.2196 33.4692 45.6675 33.182C46.126 32.8881 46.7012 32.7376 47.2872 32.7376C47.8731 32.7376 48.4484 32.8881 48.9068 33.182C49.3547 33.4692 49.8048 33.982 49.8048 34.6964C49.8048 35.4107 49.3547 35.9235 48.9068 36.2107ZM47.2872 35.6957C48.1479 35.6957 48.8457 35.2483 48.8457 34.6964C48.8457 34.1444 48.1479 33.697 47.2872 33.697C46.4264 33.697 45.7286 34.1444 45.7286 34.6964C45.7286 35.2483 46.4264 35.6957 47.2872 35.6957Z" fill="black" fill-opacity="0.5"/>
<path fill-rule="evenodd" clip-rule="evenodd" d="M39.3388 44.8803C39.1562 44.3114 39.1578 43.6533 39.3269 43.0222C39.4959 42.3912 39.8235 41.8204 40.266 41.4191C40.6997 41.0257 41.3563 40.7107 42.0864 40.9064C42.8165 41.102 43.2276 41.7033 43.4066 42.2608C43.5892 42.8297 43.5876 43.4878 43.4185 44.1189C43.2495 44.75 42.9219 45.3207 42.4794 45.7221C42.0457 46.1154 41.3891 46.4305 40.659 46.2348C39.9289 46.0391 39.5178 45.4379 39.3388 44.8803ZM40.9073 45.3081C40.289 45.1424 39.9962 44.2301 40.2533 43.2705C40.5103 42.3109 41.2199 41.6673 41.8381 41.833C42.4564 41.9987 42.7492 42.911 42.4921 43.8706C42.2351 44.8302 41.5255 45.4738 40.9073 45.3081Z" fill="black" fill-opacity="0.5"/>
<path fill-rule="evenodd" clip-rule="evenodd" d="M33.0167 47.8529C32.4633 48.2149 31.7555 48.4074 31.0224 48.4074C30.2893 48.4074 29.5815 48.2149 29.0281 47.8529C28.4833 47.4966 27.9853 46.8936 27.9853 46.0889C27.9853 45.2843 28.4833 44.6813 29.0281 44.3249C29.5815 43.963 30.2893 43.7704 31.0224 43.7704C31.7555 43.7704 32.4633 43.963 33.0167 44.3249C33.5616 44.6813 34.0596 45.2843 34.0596 46.0889C34.0596 46.8936 33.5616 47.4966 33.0167 47.8529ZM31.0224 47.448C32.1701 47.448 33.1005 46.8395 33.1005 46.0889C33.1005 45.3383 32.1701 44.7298 31.0224 44.7298C29.8747 44.7298 28.9444 45.3383 28.9444 46.0889C28.9444 46.8395 29.8747 47.448 31.0224 47.448Z" fill="black" fill-opacity="0.5"/>
<path fill-rule="evenodd" clip-rule="evenodd" d="M22.1579 43.1371C21.6267 42.864 21.1626 42.3975 20.836 41.8317C20.5094 41.2659 20.3376 40.6306 20.3668 40.0338C20.3954 39.4489 20.6369 38.7618 21.2915 38.3837C21.9461 38.0057 22.6618 38.14 23.1825 38.4077C23.7138 38.6808 24.1779 39.1473 24.5045 39.7131C24.8311 40.2789 25.0029 40.9142 24.9737 41.5109C24.9451 42.0959 24.7036 42.783 24.0489 43.1611C23.3943 43.5391 22.6786 43.4048 22.1579 43.1371ZM23.5694 42.3302C23.0151 42.6503 22.1632 42.2124 21.6666 41.352C21.17 40.4916 21.2168 39.5347 21.7711 39.2146C22.3254 38.8944 23.1773 39.3324 23.6739 40.1928C24.1705 41.0531 24.1237 42.0101 23.5694 42.3302Z" fill="black" fill-opacity="0.5"/>
<path fill-rule="evenodd" clip-rule="evenodd" d="M39.7774 25.6105C39.3546 25.8841 38.8281 26.022 38.2956 26.022C37.7631 26.022 37.2365 25.8841 36.8138 25.6105C36.4006 25.3431 35.9778 24.8602 35.9778 24.1832C35.9778 23.5062 36.4006 23.0233 36.8138 22.7559C37.2365 22.4823 37.7631 22.3444 38.2956 22.3444C38.8281 22.3444 39.3546 22.4823 39.7774 22.7559C40.1906 23.0233 40.6134 23.5062 40.6134 24.1832C40.6134 24.8602 40.1906 25.3431 39.7774 25.6105ZM38.2956 25.0626C39.046 25.0626 39.6543 24.6689 39.6543 24.1832C39.6543 23.6975 39.046 23.3038 38.2956 23.3038C37.5452 23.3038 36.9369 23.6975 36.9369 24.1832C36.9369 24.6689 37.5452 25.0626 38.2956 25.0626Z" fill="black" fill-opacity="0.5"/>
<path d="M27.7455 30.8588C27.7455 30.5938 27.5308 30.3791 27.2659 30.3791C27.0011 30.3791 26.7864 30.5938 26.7864 30.8588V32.9774C26.7864 33.2423 27.0011 33.4571 27.2659 33.4571C27.5308 33.4571 27.7455 33.2423 27.7455 32.9774V30.8588Z" fill="black" fill-opacity="0.5"/>
<path d="M39.2547 30.8588C39.2547 30.5938 39.04 30.3791 38.7751 30.3791C38.5103 30.3791 38.2956 30.5938 38.2956 30.8588V32.9774C38.2956 33.2423 38.5103 33.4571 38.7751 33.4571C39.04 33.4571 39.2547 33.2423 39.2547 32.9774V30.8588Z" fill="black" fill-opacity="0.5"/>
<path d="M35.5305 33.7722C35.7486 33.6219 35.8036 33.3232 35.6534 33.105C35.5031 32.8868 35.2045 32.8318 34.9864 32.9821C34.1749 33.5412 33.6226 33.7716 33.1131 33.7768C32.6072 33.7819 32.046 33.5654 31.2178 32.9844C31.001 32.8323 30.7019 32.8848 30.5499 33.1017C30.3978 33.3186 30.4503 33.6177 30.6671 33.7699C31.5484 34.388 32.3139 34.7443 33.1229 34.7361C33.9284 34.7279 34.6793 34.3587 35.5305 33.7722Z" fill="black" fill-opacity="0.5"/>
<path fill-rule="evenodd" clip-rule="evenodd" d="M47.6319 23.999L47.3457 24.1499C45.5917 25.0745 43.5072 23.7021 43.6626 21.725C43.7179 21.021 43.048 20.4819 42.3724 20.6866L41.9852 20.804C39.8825 21.4413 37.8895 19.5385 38.4279 17.4078C38.5361 16.9797 38.3528 16.5311 37.9758 16.3014L36.5605 15.4389C34.4109 14.1291 31.7101 14.1291 29.5605 15.4389C28.7738 15.9183 27.8661 16.1616 26.9452 16.1399C24.4288 16.0806 22.0898 17.4314 20.883 19.6409C20.4413 20.4495 19.7768 21.1142 18.9685 21.556C16.7596 22.7632 15.4092 25.1028 15.4685 27.6199C15.4901 28.5411 15.2469 29.4491 14.7677 30.236C13.4582 32.3862 13.4582 35.0878 14.7677 37.238C15.2469 38.0249 15.4901 38.9329 15.4685 39.854C15.4092 42.3711 16.7596 44.7107 18.9685 45.9179C19.7768 46.3597 20.4413 47.0244 20.883 47.833C22.0898 50.0425 24.4288 51.3933 26.9452 51.334C27.8661 51.3123 28.7738 51.5556 29.5605 52.035C31.7101 53.3449 34.4109 53.3449 36.5605 52.035C37.3471 51.5556 38.2549 51.3123 39.1758 51.334C41.6921 51.3933 44.0311 50.0425 45.238 47.833C45.6796 47.0244 46.3441 46.3597 47.1525 45.9179C49.3614 44.7107 50.7118 42.3711 50.6525 39.854C50.6308 38.9329 50.874 38.0249 51.3533 37.238C52.6628 35.0878 52.6628 32.3862 51.3533 30.236L50.8362 29.3869C50.6309 29.0499 50.463 28.6915 50.3353 28.3181L49.0511 24.5628C48.8514 23.9789 48.1777 23.7112 47.6319 23.999ZM47.2519 25.23C45.2545 25.8951 43.1294 24.5986 42.7535 22.576L42.7503 22.5586C42.7045 22.3047 42.6862 22.0395 42.6992 21.7654C42.701 21.727 42.7034 21.6885 42.7064 21.6498C42.7088 21.6193 42.6798 21.5959 42.6505 21.6048L42.2633 21.7221C42.0972 21.7725 41.9315 21.811 41.767 21.8383C41.757 21.84 41.7469 21.8416 41.7369 21.8432C39.1256 22.2555 36.822 19.8483 37.4981 17.1727C37.5032 17.1526 37.4946 17.1315 37.4769 17.1207L36.0615 16.2583C34.2184 15.1351 31.9026 15.1351 30.0595 16.2583C29.1159 16.8332 28.0271 17.125 26.9226 17.099C24.765 17.0482 22.7595 18.2064 21.7247 20.1009C21.1949 21.0708 20.3979 21.868 19.4283 22.3979C17.5343 23.433 16.3765 25.4391 16.4273 27.5973C16.4533 28.7022 16.1616 29.7913 15.5868 30.7351C14.4639 32.5788 14.4639 34.8952 15.5868 36.7389C16.1616 37.6827 16.4533 38.7718 16.4273 39.8766C16.3765 42.0349 17.5343 44.0409 19.4283 45.076C20.3979 45.6059 21.1949 46.4032 21.7247 47.373C22.7595 49.2675 24.765 50.4258 26.9226 50.3749C28.0271 50.3489 29.1159 50.6407 30.0595 51.2157C31.9026 52.3388 34.2184 52.3388 36.0615 51.2157C37.0051 50.6407 38.0938 50.3489 39.1984 50.3749C41.356 50.4258 43.3615 49.2675 44.3963 47.373C44.926 46.4032 45.7231 45.6059 46.6926 45.076C48.5866 44.0409 49.7445 42.0349 49.6937 39.8766C49.6676 38.7718 49.9594 37.6827 50.5342 36.7389C51.657 34.8952 51.657 32.5788 50.5342 30.7351L50.0171 29.8861C49.7756 29.4896 49.578 29.0679 49.4278 28.6286L48.1436 24.8733C48.1346 24.8468 48.1039 24.8346 48.0791 24.8477L47.7928 24.9986C47.6149 25.0924 47.4346 25.1691 47.2531 25.2296L47.2519 25.23Z" fill="black" fill-opacity="0.5"/>
</svg>
