<svg width="24" height="24" viewBox="0 0 24 24" fill="none" xmlns="http://www.w3.org/2000/svg">
<path d="M6.23809 11.0663C6.23809 12.7232 7.13352 14.0663 8.23809 14.0663C9.34266 14.0663 10.2381 12.7232 10.2381 11.0663C10.2381 9.40949 9.34266 8.06634 8.23809 8.06634C7.13352 8.06634 6.23809 9.40949 6.23809 11.0663Z" fill="black" fill-opacity="0.5"/>
<path d="M16.2381 14.0663C15.1335 14.0663 14.2381 12.7232 14.2381 11.0663C14.2381 9.40949 15.1335 8.06634 16.2381 8.06634C17.3427 8.06634 18.2381 9.40949 18.2381 11.0663C18.2381 12.7232 17.3427 14.0663 16.2381 14.0663Z" fill="black" fill-opacity="0.5"/>
<path fill-rule="evenodd" clip-rule="evenodd" d="M15.2752 1.74557L14.4686 1.2542C13.0987 0.419661 11.3775 0.419661 10.0076 1.2542C9.63343 1.48213 9.20169 1.59781 8.76371 1.58749C7.16005 1.54972 5.66946 2.41032 4.90034 3.81801C4.69028 4.20248 4.37423 4.51853 3.98976 4.72859C2.58207 5.4977 1.72148 6.9883 1.75925 8.59195C1.76956 9.02994 1.65388 9.46168 1.42595 9.83582C0.591414 11.2057 0.591414 12.9269 1.42595 14.2969C1.65388 14.671 1.76956 15.1027 1.75925 15.5407C1.72148 17.1444 2.58207 18.635 3.98976 19.4041C4.37423 19.6142 4.69028 19.9302 4.90034 20.3147C5.66946 21.7224 7.16005 22.583 8.76371 22.5452C9.20169 22.5349 9.63343 22.6506 10.0076 22.8785C11.3775 23.713 13.0987 23.713 14.4686 22.8785C14.8428 22.6506 15.2745 22.5349 15.7125 22.5452C17.3161 22.583 18.8067 21.7224 19.5758 20.3147C19.7859 19.9302 20.102 19.6142 20.4864 19.4041C21.8941 18.635 22.7547 17.1444 22.7169 15.5407C22.7066 15.1027 22.8223 14.671 23.0502 14.2969C23.8848 12.9269 23.8848 11.2057 23.0502 9.83582L22.7832 9.39745C22.665 9.2034 22.5682 8.99707 22.4947 8.78208L21.78 6.69281C21.5761 6.09671 20.8882 5.82346 20.3309 6.1172L20.1677 6.20318C19.4841 6.56347 18.6716 6.02871 18.7322 5.25832C18.7887 4.53897 18.104 3.98802 17.4134 4.19725L17.1927 4.26411C16.332 4.52491 15.5162 3.74624 15.7366 2.87427C15.847 2.43757 15.6599 1.97991 15.2752 1.74557ZM21.5485 9.10573L20.8339 7.01646C20.8287 7.00133 20.8112 6.9944 20.7971 7.00185L20.6339 7.08784C20.4327 7.19392 20.2258 7.26158 20.0198 7.29494C19.1298 7.43898 18.2537 6.9434 17.8965 6.14065L17.8944 6.13592C17.7765 5.86895 17.7159 5.56818 17.7311 5.24578C17.7321 5.22393 17.7335 5.20197 17.7352 5.17992C17.7366 5.16254 17.7201 5.14923 17.7034 5.15428L17.4827 5.22114C17.2322 5.29705 16.9837 5.32574 16.7443 5.31392L16.7288 5.3131C15.4415 5.24004 14.4215 3.99609 14.7671 2.6292C14.77 2.61774 14.765 2.60573 14.755 2.59958L13.9484 2.10821C12.898 1.46832 11.5782 1.46832 10.5278 2.10821C9.99011 2.43579 9.36963 2.60204 8.74016 2.58722C7.51055 2.55825 6.36762 3.21812 5.7779 4.29748C5.47601 4.85003 5.02178 5.30425 4.46923 5.60615C3.38987 6.19587 2.73001 7.33879 2.75897 8.56841C2.7738 9.19787 2.60754 9.81836 2.27997 10.3561C1.64008 11.4065 1.64008 12.7262 2.27997 13.7766C2.60754 14.3143 2.7738 14.9348 2.75897 15.5643C2.73001 16.7939 3.38987 17.9368 4.46923 18.5265C5.02178 18.8284 5.47601 19.2827 5.7779 19.8352C6.36762 20.9146 7.51055 21.5744 8.74016 21.5455C9.36963 21.5306 9.99011 21.6969 10.5278 22.0245C11.5782 22.6644 12.898 22.6644 13.9484 22.0245C14.4861 21.6969 15.1066 21.5306 15.736 21.5455C16.9656 21.5744 18.1086 20.9146 18.6983 19.8352C19.0002 19.2827 19.4544 18.8284 20.007 18.5265C21.0863 17.9368 21.7462 16.7939 21.7172 15.5643C21.7024 14.9348 21.8686 14.3143 22.1962 13.7766C22.8361 12.7262 22.8361 11.4065 22.1962 10.3561L21.9292 9.9177C21.7732 9.66166 21.6456 9.3894 21.5485 9.10573Z" fill="black" fill-opacity="0.5"/>
<path d="M14.9857 16.7685C15.1484 16.9917 15.0993 17.3044 14.8761 17.467C14.6529 17.6297 14.3402 17.5806 14.1775 17.3574C13.8383 16.8918 13.1948 16.6238 12.4718 16.6284C11.7499 16.633 11.0692 16.9104 10.6877 17.3787C10.5134 17.5928 10.1984 17.625 9.98431 17.4506C9.7702 17.2763 9.73798 16.9613 9.91237 16.7472C10.5285 15.9907 11.5269 15.6344 12.4654 15.6284C13.403 15.6224 14.4015 15.9668 14.9857 16.7685Z" fill="black" fill-opacity="0.5"/>
</svg>
