<svg width="24" height="24" viewBox="0 0 24 24" fill="none" xmlns="http://www.w3.org/2000/svg">
<path d="M6.23809 11.1902C6.23809 12.8471 7.13352 14.1902 8.23809 14.1902C9.34266 14.1902 10.2381 12.8471 10.2381 11.1902C10.2381 9.53339 9.34266 8.19024 8.23809 8.19024C7.13352 8.19024 6.23809 9.53339 6.23809 11.1902Z" fill="white"/>
<path d="M16.2381 14.1902C15.1335 14.1902 14.2381 12.8471 14.2381 11.1902C14.2381 9.53339 15.1335 8.19024 16.2381 8.19024C17.3427 8.19024 18.2381 9.53339 18.2381 11.1902C18.2381 12.8471 17.3427 14.1902 16.2381 14.1902Z" fill="white"/>
<path fill-rule="evenodd" clip-rule="evenodd" d="M15.2752 1.86947L14.4686 1.3781C13.0987 0.543562 11.3775 0.543562 10.0076 1.3781C9.63343 1.60603 9.20169 1.72171 8.76371 1.7114C7.16005 1.67362 5.66946 2.53422 4.90034 3.94191C4.69028 4.32638 4.37423 4.64243 3.98976 4.85249C2.58207 5.6216 1.72148 7.1122 1.75925 8.71586C1.76956 9.15384 1.65388 9.58558 1.42595 9.95973C0.591414 11.3296 0.591414 13.0508 1.42595 14.4208C1.65388 14.7949 1.76956 15.2266 1.75925 15.6646C1.72148 17.2683 2.58207 18.7589 3.98976 19.528C4.37423 19.7381 4.69028 20.0541 4.90034 20.4386C5.66946 21.8463 7.16005 22.7069 8.76371 22.6691C9.20169 22.6588 9.63343 22.7745 10.0076 23.0024C11.3775 23.8369 13.0987 23.8369 14.4686 23.0024C14.8428 22.7745 15.2745 22.6588 15.7125 22.6691C17.3161 22.7069 18.8067 21.8463 19.5758 20.4386C19.7859 20.0541 20.102 19.7381 20.4864 19.528C21.8941 18.7589 22.7547 17.2683 22.7169 15.6646C22.7066 15.2266 22.8223 14.7949 23.0502 14.4208C23.8848 13.0508 23.8848 11.3296 23.0502 9.95973L22.7832 9.52135C22.665 9.3273 22.5682 9.12097 22.4947 8.90598L21.78 6.81671C21.5761 6.22062 20.8882 5.94736 20.3309 6.2411L20.1677 6.32708C19.4841 6.68738 18.6716 6.15261 18.7322 5.38222C18.7887 4.66287 18.104 4.11192 17.4134 4.32115L17.1927 4.38801C16.332 4.64881 15.5162 3.87014 15.7366 2.99817C15.847 2.56148 15.6599 2.10381 15.2752 1.86947ZM21.5485 9.22963L20.8339 7.14036C20.8287 7.12524 20.8112 7.1183 20.7971 7.12575L20.6339 7.21174C20.4327 7.31782 20.2258 7.38548 20.0198 7.41884C19.1298 7.56288 18.2537 7.0673 17.8965 6.26455L17.8944 6.25982C17.7765 5.99285 17.7159 5.69208 17.7311 5.36968C17.7321 5.34783 17.7335 5.32587 17.7352 5.30382C17.7366 5.28644 17.7201 5.27313 17.7034 5.27818L17.4827 5.34504C17.2322 5.42095 16.9837 5.44964 16.7443 5.43782L16.7288 5.437C15.4415 5.36394 14.4215 4.11999 14.7671 2.75311C14.77 2.74164 14.765 2.72963 14.755 2.72348L13.9484 2.23211C12.898 1.59223 11.5782 1.59222 10.5278 2.23211C9.99011 2.55969 9.36963 2.72595 8.74016 2.71112C7.51055 2.68216 6.36762 3.34202 5.7779 4.42138C5.47601 4.97393 5.02178 5.42815 4.46923 5.73005C3.38987 6.31977 2.73001 7.46269 2.75897 8.69231C2.7738 9.32178 2.60754 9.94226 2.27997 10.48C1.64008 11.5304 1.64008 12.8501 2.27997 13.9005C2.60754 14.4382 2.7738 15.0587 2.75897 15.6882C2.73001 16.9178 3.38987 18.0607 4.46923 18.6504C5.02178 18.9523 5.47601 19.4066 5.7779 19.9591C6.36762 21.0385 7.51055 21.6983 8.74016 21.6694C9.36963 21.6545 9.99011 21.8208 10.5278 22.1484C11.5782 22.7883 12.898 22.7883 13.9484 22.1484C14.4861 21.8208 15.1066 21.6545 15.736 21.6694C16.9656 21.6983 18.1086 21.0385 18.6983 19.9591C19.0002 19.4066 19.4544 18.9523 20.007 18.6504C21.0863 18.0607 21.7462 16.9178 21.7172 15.6882C21.7024 15.0587 21.8686 14.4382 22.1962 13.9005C22.8361 12.8501 22.8361 11.5304 22.1962 10.48L21.9292 10.0416C21.7732 9.78556 21.6456 9.5133 21.5485 9.22963Z" fill="white"/>
<path d="M14.9857 16.8924C15.1484 17.1156 15.0993 17.4283 14.8761 17.591C14.6529 17.7536 14.3402 17.7045 14.1775 17.4813C13.8383 17.0157 13.1948 16.7477 12.4718 16.7523C11.7499 16.7569 11.0692 17.0343 10.6877 17.5026C10.5134 17.7167 10.1984 17.7489 9.98431 17.5745C9.7702 17.4002 9.73798 17.0852 9.91237 16.8711C10.5285 16.1146 11.5269 15.7583 12.4654 15.7523C13.403 15.7463 14.4015 16.0907 14.9857 16.8924Z" fill="white"/>
</svg>
