<svg width="18" height="19" viewBox="0 0 18 19" fill="none" xmlns="http://www.w3.org/2000/svg">
<path d="M4.27891 8.69362C4.27891 9.99731 4.98348 11.0542 5.85261 11.0542C6.72174 11.0542 7.4263 9.99731 7.4263 8.69362C7.4263 7.38993 6.72174 6.33308 5.85261 6.33308C4.98348 6.33308 4.27891 7.38993 4.27891 8.69362Z" fill="#4C956C"/>
<path d="M12.1474 11.0542C11.2783 11.0542 10.5737 9.99731 10.5737 8.69362C10.5737 7.38993 11.2783 6.33308 12.1474 6.33308C13.0165 6.33308 13.7211 7.38993 13.7211 8.69362C13.7211 9.99731 13.0165 11.0542 12.1474 11.0542Z" fill="#4C956C"/>
<path d="M7.12298 12.6657C6.99501 12.4901 7.03364 12.244 7.20924 12.116C7.38485 11.9881 7.63094 12.0267 7.7589 12.2023C8.02584 12.5686 8.53216 12.7796 9.10104 12.7759C9.66911 12.7723 10.2047 12.554 10.5048 12.1855C10.642 12.0171 10.8899 11.9917 11.0583 12.1289C11.2268 12.2661 11.2521 12.5139 11.1149 12.6824C10.6301 13.2777 9.84458 13.558 9.10607 13.5628C8.36837 13.5675 7.58267 13.2965 7.12298 12.6657Z" fill="#4C956C"/>
<path fill-rule="evenodd" clip-rule="evenodd" d="M11.3897 1.35959L10.7551 0.972961C9.67716 0.316305 8.32284 0.316304 7.24492 0.972961C6.95053 1.1523 6.61082 1.24333 6.26619 1.23521C5.00435 1.20549 3.83148 1.88265 3.22631 2.99029C3.06102 3.2928 2.81234 3.54149 2.50982 3.70677C1.40218 4.31195 0.725022 5.48482 0.754744 6.74666C0.762861 7.09128 0.671836 7.43099 0.492492 7.72539C-0.164164 8.80331 -0.164164 10.1576 0.492492 11.2355C0.671836 11.5299 0.762861 11.8697 0.754744 12.2143C0.725022 13.4761 1.40218 14.649 2.50982 15.2542C2.81234 15.4194 3.06102 15.6681 3.22631 15.9706C3.83148 17.0783 5.00435 17.7554 6.26619 17.7257C6.61082 17.7176 6.95053 17.8086 7.24492 17.988C8.32284 18.6446 9.67716 18.6446 10.7551 17.988C11.0495 17.8086 11.3892 17.7176 11.7338 17.7257C12.9956 17.7554 14.1685 17.0783 14.7737 15.9706C14.939 15.6681 15.1877 15.4194 15.4902 15.2542C16.5978 14.649 17.275 13.4761 17.2453 12.2143C17.2371 11.8697 17.3282 11.5299 17.5075 11.2355C18.1642 10.1576 18.1642 8.80331 17.5075 7.72539L17.2974 7.38045C17.2044 7.22777 17.1283 7.06542 17.0704 6.89626L16.5081 5.25232C16.3476 4.78328 15.8063 4.56827 15.3678 4.7994L15.2394 4.86705C14.7015 5.15055 14.0622 4.72977 14.1099 4.12359C14.1544 3.55757 13.6155 3.12406 13.0722 3.28869L12.8986 3.3413C12.2213 3.54651 11.5793 2.93382 11.7528 2.24771C11.8396 1.9041 11.6924 1.54398 11.3897 1.35959ZM16.3259 7.15092L15.7636 5.50698C15.7595 5.49508 15.7458 5.48962 15.7346 5.49549L15.6063 5.56315C15.4479 5.64662 15.2851 5.69985 15.123 5.7261C14.4228 5.83944 13.7334 5.44949 13.4523 4.81785L13.4507 4.81413C13.3579 4.60407 13.3102 4.3674 13.3222 4.11373C13.323 4.09653 13.3241 4.07926 13.3254 4.06191C13.3265 4.04823 13.3135 4.03775 13.3003 4.04173L13.1267 4.09434C12.9296 4.15407 12.7341 4.17664 12.5457 4.16734L12.5335 4.16669C11.5206 4.10921 10.718 3.13041 10.9899 2.05488C10.9922 2.04586 10.9883 2.03641 10.9804 2.03157L10.3457 1.64494C9.51921 1.14144 8.48079 1.14144 7.65428 1.64494C7.23118 1.90269 6.74295 2.03351 6.24766 2.02184C5.28014 1.99905 4.38083 2.51827 3.91681 3.36756C3.67927 3.80233 3.32186 4.15973 2.88709 4.39728C2.0378 4.8613 1.51858 5.76061 1.54137 6.72813C1.55304 7.22342 1.42222 7.71165 1.16447 8.13475C0.660974 8.96125 0.660974 9.99968 1.16447 10.8262C1.42222 11.2493 1.55304 11.7375 1.54137 12.2328C1.51858 13.2003 2.0378 14.0996 2.88709 14.5637C3.32186 14.8012 3.67927 15.1586 3.91681 15.5934C4.38083 16.4427 5.28014 16.9619 6.24766 16.9391C6.74295 16.9274 7.23118 17.0582 7.65428 17.316C8.48079 17.8195 9.51921 17.8195 10.3457 17.316C10.7688 17.0582 11.257 16.9274 11.7523 16.9391C12.7199 16.9619 13.6192 16.4427 14.0832 15.5934C14.3207 15.1586 14.6781 14.8012 15.1129 14.5637C15.9622 14.0996 16.4814 13.2003 16.4586 12.2328C16.447 11.7375 16.5778 11.2493 16.8355 10.8262C17.339 9.99968 17.339 8.96125 16.8355 8.13475L16.6254 7.78982C16.5027 7.58835 16.4022 7.37413 16.3259 7.15092Z" fill="#4C956C"/>
</svg>
