<svg width="24" height="24" viewBox="0 0 24 24" fill="none" xmlns="http://www.w3.org/2000/svg">
<path d="M6.23809 11.3141C6.23809 12.971 7.13352 14.3141 8.23809 14.3141C9.34266 14.3141 10.2381 12.971 10.2381 11.3141C10.2381 9.65729 9.34266 8.31414 8.23809 8.31414C7.13352 8.31414 6.23809 9.65729 6.23809 11.3141Z" fill="black" fill-opacity="0.5"/>
<path d="M16.2381 14.3141C15.1335 14.3141 14.2381 12.971 14.2381 11.3141C14.2381 9.65729 15.1335 8.31414 16.2381 8.31414C17.3427 8.31414 18.2381 9.65729 18.2381 11.3141C18.2381 12.971 17.3427 14.3141 16.2381 14.3141Z" fill="black" fill-opacity="0.5"/>
<path d="M9.8526 16.3622C9.68997 16.139 9.73905 15.8263 9.96223 15.6636C10.1854 15.501 10.4982 15.5501 10.6608 15.7733C11 16.2389 11.6435 16.5069 12.3665 16.5023C13.0885 16.4977 13.7692 16.2203 14.1506 15.752C14.325 15.5379 14.6399 15.5057 14.854 15.6801C15.0681 15.8544 15.1003 16.1694 14.926 16.3835C14.3098 17.14 13.3115 17.4963 12.3729 17.5023C11.4354 17.5083 10.4368 17.1639 9.8526 16.3622Z" fill="black" fill-opacity="0.5"/>
<path fill-rule="evenodd" clip-rule="evenodd" d="M15.2752 1.99337L14.4686 1.502C13.0987 0.667464 11.3775 0.667463 10.0076 1.502C9.63343 1.72993 9.20169 1.84561 8.76371 1.8353C7.16005 1.79752 5.66946 2.65812 4.90034 4.06581C4.69028 4.45028 4.37423 4.76633 3.98976 4.97639C2.58207 5.74551 1.72148 7.2361 1.75925 8.83976C1.76956 9.27774 1.65388 9.70948 1.42595 10.0836C0.591414 11.4535 0.591414 13.1747 1.42595 14.5447C1.65388 14.9188 1.76956 15.3505 1.75925 15.7885C1.72148 17.3922 2.58207 18.8828 3.98976 19.6519C4.37423 19.862 4.69028 20.178 4.90034 20.5625C5.66946 21.9702 7.16005 22.8308 8.76371 22.793C9.20169 22.7827 9.63343 22.8984 10.0076 23.1263C11.3775 23.9608 13.0987 23.9608 14.4686 23.1263C14.8428 22.8984 15.2745 22.7827 15.7125 22.793C17.3161 22.8308 18.8067 21.9702 19.5758 20.5625C19.7859 20.178 20.102 19.862 20.4864 19.6519C21.8941 18.8828 22.7547 17.3922 22.7169 15.7885C22.7066 15.3505 22.8223 14.9188 23.0502 14.5447C23.8848 13.1747 23.8848 11.4535 23.0502 10.0836L22.7832 9.64525C22.665 9.45121 22.5682 9.24487 22.4947 9.02988L21.78 6.94061C21.5761 6.34452 20.8882 6.07127 20.3309 6.365L20.1677 6.45098C19.4841 6.81128 18.6716 6.27651 18.7322 5.50612C18.7887 4.78677 18.104 4.23582 17.4134 4.44505L17.1927 4.51191C16.332 4.77272 15.5162 3.99404 15.7366 3.12207C15.847 2.68538 15.6599 2.22771 15.2752 1.99337ZM21.5485 9.35354L20.8339 7.26426C20.8287 7.24914 20.8112 7.2422 20.7971 7.24966L20.6339 7.33564C20.4327 7.44173 20.2258 7.50938 20.0198 7.54274C19.1298 7.68678 18.2537 7.1912 17.8965 6.38845L17.8944 6.38372C17.7765 6.11675 17.7159 5.81598 17.7311 5.49358C17.7321 5.47173 17.7335 5.44978 17.7352 5.42773C17.7366 5.41034 17.7201 5.39703 17.7034 5.40209L17.4827 5.46894C17.2322 5.54485 16.9837 5.57354 16.7443 5.56172L16.7288 5.5609C15.4415 5.48784 14.4215 4.2439 14.7671 2.87701C14.77 2.86555 14.765 2.85353 14.755 2.84738L13.9484 2.35602C12.898 1.71613 11.5782 1.71613 10.5278 2.35602C9.99011 2.68359 9.36963 2.84985 8.74016 2.83502C7.51055 2.80606 6.36762 3.46592 5.7779 4.54528C5.47601 5.09783 5.02178 5.55206 4.46923 5.85395C3.38987 6.44367 2.73001 7.5866 2.75897 8.81621C2.7738 9.44568 2.60754 10.0662 2.27997 10.6039C1.64008 11.6543 1.64008 12.974 2.27997 14.0244C2.60754 14.5621 2.7738 15.1826 2.75897 15.8121C2.73001 17.0417 3.38987 18.1846 4.46923 18.7743C5.02178 19.0762 5.47601 19.5305 5.7779 20.083C6.36762 21.1624 7.51055 21.8222 8.74016 21.7933C9.36963 21.7784 9.99011 21.9447 10.5278 22.2723C11.5782 22.9122 12.898 22.9122 13.9484 22.2723C14.4861 21.9447 15.1066 21.7784 15.736 21.7933C16.9656 21.8222 18.1086 21.1624 18.6983 20.083C19.0002 19.5305 19.4544 19.0762 20.007 18.7743C21.0863 18.1846 21.7462 17.0417 21.7172 15.8121C21.7024 15.1826 21.8686 14.5621 22.1962 14.0244C22.8361 12.974 22.8361 11.6543 22.1962 10.6039L21.9292 10.1655C21.7732 9.90946 21.6456 9.63721 21.5485 9.35354Z" fill="black" fill-opacity="0.5"/>
</svg>
