<svg width="34" height="34" viewBox="0 0 34 34" fill="none" xmlns="http://www.w3.org/2000/svg">
<g filter="url(#filter0_i_125_1657)">
<path d="M14.5812 1.55748C16.1749 0.586596 18.1773 0.586595 19.7711 1.55748L20.9949 2.30302C21.0102 2.31235 21.0177 2.33058 21.0133 2.34797C20.3896 4.81529 22.6981 7.01862 25.1337 6.28064L25.4685 6.1792C25.4938 6.17153 25.5189 6.19173 25.5168 6.21811C25.3312 8.57839 27.8205 10.2168 29.9149 9.11294L30.1625 8.98247C30.184 8.97116 30.2104 8.98168 30.2183 9.00463L31.3287 12.2508C31.4586 12.6306 31.6294 12.9951 31.8383 13.3378L32.2854 14.0717C33.2562 15.6655 33.2562 17.6679 32.2854 19.2616C31.7883 20.0775 31.5361 21.0189 31.5586 21.974C31.6025 23.8397 30.6013 25.5738 28.9636 26.4686C28.1253 26.9266 27.4361 27.6158 26.978 28.4542C26.0833 30.0919 24.3491 31.093 22.4835 31.0491C21.5284 31.0266 20.587 31.2789 19.7711 31.7759C18.1773 32.7468 16.1749 32.7468 14.5812 31.7759C13.7653 31.2789 12.8239 31.0266 11.8688 31.0491C10.0032 31.093 8.26904 30.0919 7.37427 28.4542C6.91621 27.6158 6.22703 26.9266 5.38866 26.4686C3.75098 25.5738 2.74978 23.8397 2.79372 21.974C2.81622 21.0189 2.56396 20.0775 2.06694 19.2616C1.09606 17.6679 1.09606 15.6655 2.06694 14.0717C2.56396 13.2559 2.81622 12.3144 2.79372 11.3594C2.74978 9.4937 3.75098 7.75958 5.38866 6.8648C6.22703 6.40675 6.91621 5.71756 7.37427 4.8792C8.26904 3.24152 10.0032 2.24032 11.8688 2.28426C12.8239 2.30676 13.7653 2.0545 14.5812 1.55748Z" fill="#F7B779"/>
<path fill-rule="evenodd" clip-rule="evenodd" d="M29.5283 8.37927L29.7758 8.24881C30.2478 8.00008 30.8303 8.23148 31.003 8.73622L32.1134 11.9824C32.2238 12.3052 32.369 12.615 32.5465 12.9064L32.9936 13.6403C34.1259 15.499 34.1259 17.8344 32.9936 19.6931C32.5792 20.3733 32.3689 21.1582 32.3877 21.9545C32.4389 24.1303 31.2712 26.1528 29.3613 27.1963C28.6623 27.5782 28.0877 28.1528 27.7058 28.8518C26.6623 30.7618 24.6398 31.9294 22.4639 31.8782C21.6677 31.8594 20.8828 32.0698 20.2025 32.4841C18.3438 33.6164 16.0085 33.6164 14.1498 32.4841C13.4695 32.0698 12.6846 31.8594 11.8884 31.8782C9.71249 31.9294 7.69004 30.7618 6.64649 28.8518C6.2646 28.1528 5.69 27.5782 4.99103 27.1963C3.08105 26.1528 1.91339 24.1303 1.96464 21.9545C1.98339 21.1582 1.77308 20.3733 1.3587 19.6931C0.226382 17.8344 0.226382 15.499 1.3587 13.6403C1.77308 12.9601 1.98339 12.1752 1.96464 11.3789C1.91339 9.20303 3.08105 7.18057 4.99103 6.13703C5.69 5.75513 6.2646 5.18054 6.64649 4.48157C7.69004 2.57159 9.71249 1.40393 11.8884 1.45518C12.6846 1.47393 13.4695 1.26362 14.1498 0.849236C16.0085 -0.283078 18.3438 -0.283079 20.2025 0.849236L21.4264 1.59478C21.7523 1.79334 21.9109 2.18114 21.8173 2.55121C21.3517 4.39307 23.075 6.03786 24.8932 5.48696L25.228 5.38552C25.8122 5.20852 26.3915 5.67458 26.3436 6.28312C26.2092 7.9922 28.0117 9.17857 29.5283 8.37927ZM25.5576 7.01876C25.8826 8.76714 27.7201 9.88793 29.4472 9.31293C29.4476 9.31281 29.4479 9.31269 29.4483 9.31258C29.6052 9.26029 29.7611 9.19401 29.9149 9.11294L30.1625 8.98247C30.184 8.97116 30.2104 8.98168 30.2183 9.00463L31.3287 12.2508C31.4586 12.6306 31.6294 12.9951 31.8383 13.3378L32.2854 14.0717C33.2562 15.6655 33.2562 17.6679 32.2854 19.2616C31.7883 20.0775 31.5361 21.0189 31.5586 21.974C31.6025 23.8397 30.6013 25.5738 28.9636 26.4686C28.1253 26.9266 27.4361 27.6158 26.978 28.4542C26.0833 30.0919 24.3491 31.093 22.4835 31.0491C21.5284 31.0266 20.587 31.2789 19.7711 31.7759C18.1773 32.7468 16.1749 32.7468 14.5812 31.7759C13.7653 31.2789 12.8239 31.0266 11.8688 31.0491C10.0032 31.093 8.26904 30.0919 7.37427 28.4542C6.91621 27.6158 6.22703 26.9266 5.38866 26.4686C3.75098 25.5738 2.74978 23.8397 2.79372 21.974C2.81622 21.0189 2.56396 20.0775 2.06694 19.2616C1.09606 17.6679 1.09606 15.6655 2.06694 14.0717C2.56396 13.2559 2.81622 12.3144 2.79372 11.3594C2.74978 9.4937 3.75098 7.75958 5.38866 6.8648C6.22703 6.40675 6.91621 5.71756 7.37427 4.8792C8.26904 3.24152 10.0032 2.24032 11.8688 2.28426C12.8239 2.30676 13.7653 2.0545 14.5812 1.55748C16.1749 0.586596 18.1773 0.586595 19.7711 1.55748L20.9949 2.30302C21.0102 2.31235 21.0177 2.33058 21.0133 2.34797C20.4286 4.66084 22.4206 6.74173 24.6785 6.38531C24.6872 6.38394 24.6959 6.38253 24.7046 6.38109C24.8468 6.35748 24.99 6.32418 25.1337 6.28064L25.4685 6.1792C25.4938 6.17153 25.5189 6.19173 25.5168 6.21811C25.5142 6.25156 25.5121 6.28487 25.5105 6.31803C25.4994 6.555 25.5152 6.78426 25.5548 7.00372C25.5557 7.00874 25.5566 7.01375 25.5576 7.01876Z" fill="black"/>
</g>
<path d="M7.83259 12.7408C7.96101 13.2201 7.45243 13.7728 6.69664 13.9753C5.94085 14.1778 5.22406 13.9535 5.09564 13.4742C4.96721 12.9949 5.47579 12.4422 6.23158 12.2397C6.98737 12.0372 7.70416 12.2615 7.83259 12.7408Z" fill="#644D3A"/>
<path d="M14.2551 6.35711C14.1118 6.89169 13.3233 7.14487 12.4937 6.9226C11.6642 6.70033 11.1079 6.08678 11.2511 5.55219C11.3943 5.01761 12.1829 4.76443 13.0125 4.9867C13.842 5.20897 14.3983 5.82252 14.2551 6.35711Z" fill="#644D3A"/>
<path d="M30.8253 17.496C30.8253 17.9731 30.2219 18.3599 29.4777 18.3599C28.7334 18.3599 28.13 17.9731 28.13 17.496C28.13 17.0189 28.7334 16.6321 29.4777 16.6321C30.2219 16.6321 30.8253 17.0189 30.8253 17.496Z" fill="#644D3A"/>
<path d="M23.9611 26.6691C23.4265 26.5259 23.1733 25.7373 23.3956 24.9078C23.6179 24.0783 24.2314 23.5219 24.766 23.6652C25.3006 23.8084 25.5538 24.597 25.3315 25.4265C25.1092 26.256 24.4957 26.8124 23.9611 26.6691Z" fill="#8B6B54"/>
<path d="M17.2107 27.3441C17.2107 27.993 16.4062 28.519 15.4138 28.519C14.4214 28.519 13.617 27.993 13.617 27.3441C13.617 26.6953 14.4214 26.1693 15.4138 26.1693C16.4062 26.1693 17.2107 26.6953 17.2107 27.3441Z" fill="#644D3A"/>
<path d="M8.96933 24.095C8.49004 24.3717 7.7534 23.9931 7.32401 23.2494C6.89462 22.5056 6.93507 21.6784 7.41436 21.4017C7.89366 21.125 8.63029 21.5035 9.05968 22.2473C9.48908 22.991 9.44863 23.8182 8.96933 24.095Z" fill="#8B6B54"/>
<path d="M22.8777 8.40805C22.8777 8.8279 22.3517 9.16825 21.7028 9.16825C21.0539 9.16825 20.5279 8.8279 20.5279 8.40805C20.5279 7.9882 21.0539 7.64784 21.7028 7.64784C22.3517 7.64784 22.8777 7.9882 22.8777 8.40805Z" fill="#8B6B54"/>
<path fill-rule="evenodd" clip-rule="evenodd" d="M8.20646 14.0234C7.87897 14.3793 7.41747 14.6408 6.91128 14.7764C6.4051 14.912 5.87472 14.9164 5.41314 14.7719C4.96308 14.631 4.45799 14.2987 4.29458 13.6888C4.13116 13.079 4.40243 12.5386 4.72176 12.1916C5.04926 11.8357 5.51075 11.5743 6.01694 11.4386C6.52312 11.303 7.05351 11.2987 7.51508 11.4431C7.96514 11.584 8.47023 11.9163 8.63365 12.5262C8.79706 13.1361 8.52579 13.6764 8.20646 14.0234ZM13.8853 7.71329C13.3935 7.87118 12.8246 7.86982 12.2791 7.72366C11.7336 7.57749 11.2402 7.29421 10.8933 6.91159C10.5532 6.53658 10.2809 5.96887 10.45 5.33755C10.6192 4.70623 11.1389 4.35076 11.6209 4.19601C12.1127 4.03812 12.6816 4.03948 13.2271 4.18565C13.7726 4.33181 14.266 4.61509 14.6129 4.99771C14.953 5.37272 15.2253 5.94043 15.0561 6.57175C14.887 7.20307 14.3673 7.55854 13.8853 7.71329ZM30.8781 18.805C30.4817 19.0591 29.9843 19.1892 29.4777 19.1892C28.971 19.1892 28.4736 19.0591 28.0772 18.805C27.6899 18.5568 27.3007 18.1135 27.3007 17.496C27.3007 16.8784 27.6899 16.4352 28.0772 16.1869C28.4736 15.9328 28.971 15.8028 29.4777 15.8028C29.9843 15.8028 30.4817 15.9328 30.8781 16.1869C31.2654 16.4352 31.6546 16.8784 31.6546 17.496C31.6546 18.1135 31.2654 18.5568 30.8781 18.805ZM22.6049 26.2993C22.447 25.8076 22.4484 25.2387 22.5945 24.6932C22.7407 24.1476 23.024 23.6543 23.4066 23.3073C23.7816 22.9673 24.3493 22.695 24.9806 22.8641C25.612 23.0333 25.9674 23.553 26.1222 24.035C26.2801 24.5268 26.2787 25.0957 26.1325 25.6412C25.9864 26.1867 25.7031 26.68 25.3205 27.027C24.9455 27.367 24.3778 27.6394 23.7464 27.4702C23.1151 27.301 22.7596 26.7813 22.6049 26.2993ZM17.1382 28.869C16.6597 29.1819 16.0477 29.3483 15.4138 29.3483C14.7799 29.3483 14.1679 29.1819 13.6894 28.869C13.2183 28.5609 12.7876 28.0397 12.7876 27.3441C12.7876 26.6485 13.2183 26.1273 13.6894 25.8193C14.1679 25.5064 14.7799 25.3399 15.4138 25.3399C16.0477 25.3399 16.6597 25.5064 17.1382 25.8193C17.6094 26.1273 18.04 26.6485 18.04 27.3441C18.04 28.0397 17.6094 28.5609 17.1382 28.869ZM7.74887 24.7924C7.28949 24.5563 6.88818 24.1531 6.6058 23.664C6.32342 23.1749 6.17488 22.6258 6.2001 22.1099C6.22483 21.6043 6.43368 21.0103 6.9997 20.6835C7.56573 20.3567 8.18458 20.4728 8.63482 20.7042C9.0942 20.9403 9.49552 21.3435 9.77789 21.8326C10.0603 22.3217 10.2088 22.8709 10.1836 23.3868C10.1589 23.8924 9.95002 24.4864 9.38399 24.8132C8.81797 25.14 8.19912 25.0238 7.74887 24.7924ZM22.9841 9.64186C22.6186 9.87839 22.1632 9.99757 21.7028 9.99757C21.2424 9.99757 20.7871 9.87839 20.4215 9.64186C20.0643 9.41069 19.6986 8.99324 19.6986 8.40805C19.6986 7.82286 20.0643 7.4054 20.4215 7.17423C20.7871 6.93771 21.2424 6.81852 21.7028 6.81852C22.1632 6.81852 22.6186 6.93771 22.9841 7.17423C23.3414 7.4054 23.707 7.82286 23.707 8.40805C23.707 8.99324 23.3414 9.41069 22.9841 9.64186ZM14.2551 6.35711C14.1118 6.89169 13.3233 7.14487 12.4937 6.9226C11.6642 6.70033 11.1079 6.08678 11.2511 5.55219C11.3943 5.01761 12.1829 4.76443 13.0125 4.9867C13.842 5.20897 14.3983 5.82252 14.2551 6.35711ZM7.83259 12.7408C7.96101 13.2201 7.45243 13.7728 6.69664 13.9753C5.94085 14.1778 5.22406 13.9535 5.09564 13.4742C4.96721 12.9949 5.47579 12.4422 6.23158 12.2397C6.98737 12.0372 7.70416 12.2615 7.83259 12.7408ZM29.4777 18.3599C30.2219 18.3599 30.8253 17.9731 30.8253 17.496C30.8253 17.0189 30.2219 16.6321 29.4777 16.6321C28.7334 16.6321 28.13 17.0189 28.13 17.496C28.13 17.9731 28.7334 18.3599 29.4777 18.3599ZM23.9611 26.6691C23.4265 26.5259 23.1733 25.7373 23.3956 24.9078C23.6179 24.0783 24.2314 23.5219 24.766 23.6652C25.3006 23.8084 25.5538 24.597 25.3315 25.4265C25.1092 26.256 24.4957 26.8124 23.9611 26.6691ZM15.4138 28.519C16.4062 28.519 17.2107 27.993 17.2107 27.3441C17.2107 26.6953 16.4062 26.1693 15.4138 26.1693C14.4214 26.1693 13.617 26.6953 13.617 27.3441C13.617 27.993 14.4214 28.519 15.4138 28.519ZM8.96933 24.095C8.49004 24.3717 7.7534 23.9931 7.32401 23.2494C6.89462 22.5056 6.93507 21.6784 7.41436 21.4017C7.89366 21.125 8.63029 21.5035 9.05968 22.2473C9.48908 22.991 9.44863 23.8182 8.96933 24.095ZM21.7028 9.16825C22.3517 9.16825 22.8777 8.8279 22.8777 8.40805C22.8777 7.9882 22.3517 7.64784 21.7028 7.64784C21.0539 7.64784 20.5279 7.9882 20.5279 8.40805C20.5279 8.8279 21.0539 9.16825 21.7028 9.16825Z" fill="black"/>
<path fill-rule="evenodd" clip-rule="evenodd" d="M12.1658 13.7642C12.3948 13.7642 12.5804 13.9498 12.5804 14.1788V16.0102C12.5804 16.2392 12.3948 16.4249 12.1658 16.4249C11.9367 16.4249 11.7511 16.2392 11.7511 16.0102V14.1788C11.7511 13.9498 11.9367 13.7642 12.1658 13.7642ZM22.1176 13.7642C22.3466 13.7642 22.5322 13.9498 22.5322 14.1788V16.0102C22.5322 16.2392 22.3466 16.4249 22.1176 16.4249C21.8886 16.4249 21.7029 16.2392 21.7029 16.0102V14.1788C21.7029 13.9498 21.8886 13.7642 22.1176 13.7642ZM19.4182 16.1205C19.5481 16.3091 19.5006 16.5673 19.312 16.6973C18.5759 17.2043 17.9266 17.5234 17.2301 17.5305C16.5306 17.5376 15.8687 17.2296 15.1067 16.6953C14.9192 16.5638 14.8738 16.3052 15.0053 16.1177C15.1368 15.9302 15.3954 15.8848 15.5829 16.0163C16.299 16.5185 16.7842 16.7057 17.2217 16.7012C17.6622 16.6968 18.1398 16.4976 18.8415 16.0143C19.0301 15.8844 19.2883 15.932 19.4182 16.1205Z" fill="black"/>
<defs>
<filter id="filter0_i_125_1657" x="0.50946" y="0" width="33.3334" height="33.3334" filterUnits="userSpaceOnUse" color-interpolation-filters="sRGB">
<feFlood flood-opacity="0" result="BackgroundImageFix"/>
<feBlend mode="normal" in="SourceGraphic" in2="BackgroundImageFix" result="shape"/>
<feColorMatrix in="SourceAlpha" type="matrix" values="0 0 0 0 0 0 0 0 0 0 0 0 0 0 0 0 0 0 127 0" result="hardAlpha"/>
<feOffset dx="4"/>
<feComposite in2="hardAlpha" operator="arithmetic" k2="-1" k3="1"/>
<feColorMatrix type="matrix" values="0 0 0 0 0 0 0 0 0 0 0 0 0 0 0 0 0 0 0.2 0"/>
<feBlend mode="normal" in2="shape" result="effect1_innerShadow_125_1657"/>
</filter>
</defs>
</svg>
