<svg width="15" height="14" viewBox="0 0 15 14" fill="none" xmlns="http://www.w3.org/2000/svg">
<path fill-rule="evenodd" clip-rule="evenodd" d="M1.25762 0H3.77681V1.15005V7.66702V8.81707L1.25762 8.81709C1.10344 8.81709 0.95557 8.7565 0.846544 8.64866C0.737519 8.54083 0.67627 8.39457 0.67627 8.24206V0.575026C0.67627 0.257447 0.936549 0 1.25762 0ZM4.93951 8.02933V9.79649L7.94406 13.2636C8.46951 13.87 9.29616 14.1307 10.0795 13.937L10.1163 13.9279C11.5464 13.5742 12.1906 11.926 11.373 10.7129L10.0952 8.81709H12.5439C13.889 8.81709 14.8979 7.59987 14.6342 6.29518L13.704 1.69496C13.5047 0.709404 12.6299 0 11.6137 0H4.93951V1.15005V8.02933Z" fill="#FF6766"/>
</svg>
