<svg width="21" height="21" viewBox="0 0 21 21" fill="none" xmlns="http://www.w3.org/2000/svg">
<path fill-rule="evenodd" clip-rule="evenodd" d="M13.6816 1.76804C13.1475 1.6361 12.5841 1.81384 12.2259 2.22719L6.39486 8.95601V19.2749H16.4062C17.099 19.2749 17.6955 18.7913 17.8314 18.1192L19.2266 11.2189C19.4065 10.3294 18.7186 9.49945 17.8014 9.49945H12.4991C12.1775 9.49945 11.882 9.32437 11.7302 9.0439C11.5785 8.76344 11.5951 8.42313 11.7735 8.15845L14.5939 3.97388C14.594 3.97387 14.594 3.97385 14.594 3.97384C15.1514 3.14665 14.7121 2.02289 13.7371 1.78178L13.6819 1.76811C13.6819 1.76811 13.6819 1.7681 13.6818 1.7681C13.6818 1.76808 13.6817 1.76806 13.6816 1.76804ZM4.65081 19.2749V9.49947L1.74405 9.49946V19.2749H4.65081ZM5.12176 7.77439L10.9017 1.10453C11.6899 0.194989 12.9298 -0.195995 14.1048 0.0945279L14.1601 0.108207C16.3053 0.638664 17.2715 3.11099 16.0451 4.93071L16.0451 4.93075L14.1285 7.77437H17.8014C19.8192 7.77437 21.3325 9.60019 20.9368 11.5572L19.5416 18.4576C19.2426 19.9359 17.9304 21 16.4062 21H0.872027C0.39042 21 0 20.6138 0 20.1375V8.63691C0 8.40815 0.0918746 8.18876 0.255412 8.027C0.41895 7.86524 0.640755 7.77437 0.872031 7.77437L5.12176 7.77439Z" fill="black" fill-opacity="0.5"/>
</svg>
