<svg width="15" height="14" viewBox="0 0 15 14" fill="none" xmlns="http://www.w3.org/2000/svg">
<path fill-rule="evenodd" clip-rule="evenodd" d="M9.79735 1.1787C9.44129 1.09073 9.06564 1.20923 8.82685 1.48479L4.93951 5.97067V12.8499H11.6137C12.0756 12.8499 12.4733 12.5275 12.5639 12.0795L13.494 7.4793C13.6139 6.88625 13.1553 6.33297 12.5439 6.33297H9.00897C8.79457 6.33297 8.59757 6.21625 8.49641 6.02927C8.39524 5.84229 8.40633 5.61542 8.52526 5.43897L10.4056 2.64926C10.4056 2.64925 10.4056 2.64924 10.4056 2.64923C10.7772 2.09777 10.4844 1.34859 9.83433 1.18785L9.79753 1.17874C9.79752 1.17874 9.79751 1.17874 9.7975 1.17873C9.79745 1.17872 9.7974 1.17871 9.79735 1.1787ZM3.77681 12.8499V6.33298L1.83897 6.33297V12.8499H3.77681ZM4.09078 5.18293L7.94406 0.736351C8.46951 0.129993 9.29616 -0.130663 10.0795 0.0630186L10.1163 0.0721382C11.5464 0.425776 12.1906 2.07399 11.373 3.28714L11.373 3.28717L10.0952 5.18291H12.5439C13.889 5.18291 14.8979 6.40013 14.6342 7.70482L13.704 12.305C13.5047 13.2906 12.6299 14 11.6137 14H1.25762C0.936549 14 0.67627 13.7426 0.67627 13.425V5.75794C0.67627 5.60543 0.737519 5.45917 0.846544 5.35134C0.95557 5.2435 1.10344 5.18291 1.25762 5.18291L4.09078 5.18293Z" fill="black"/>
</svg>
