<svg width="120" height="120" viewBox="0 0 120 120" fill="none" xmlns="http://www.w3.org/2000/svg">
<g filter="url(#filter0_i_755_16303)">
<path d="M50.6582 5.60693C56.3957 2.11174 63.6043 2.11174 69.3418 5.60693L73.7475 8.29087C73.8027 8.32447 73.8295 8.39007 73.8137 8.45268C71.5684 17.335 79.879 25.267 88.6471 22.6103L89.8524 22.2451C89.9435 22.2175 90.0339 22.2902 90.0265 22.3852C89.3583 30.8822 98.3195 36.7804 105.86 32.8065L106.751 32.3369C106.828 32.2962 106.923 32.334 106.952 32.4166L110.949 44.103C111.417 45.4701 112.032 46.7822 112.784 48.0161L114.393 50.6582C117.888 56.3957 117.888 63.6043 114.393 69.3418C112.604 72.2789 111.696 75.6681 111.777 79.1063C111.935 85.8227 108.331 92.0655 102.435 95.2867C99.4168 96.9357 96.9357 99.4168 95.2867 102.435C92.0656 108.331 85.8227 111.935 79.1063 111.777C75.6681 111.696 72.2789 112.604 69.3418 114.393C63.6043 117.888 56.3957 117.888 50.6582 114.393C47.7211 112.604 44.3319 111.696 40.8937 111.777C34.1773 111.935 27.9344 108.331 24.7133 102.435C23.0643 99.4168 20.5832 96.9357 17.5651 95.2867C11.6695 92.0655 8.06514 85.8227 8.22334 79.1063C8.30433 75.6681 7.39619 72.2789 5.60693 69.3418C2.11174 63.6043 2.11174 56.3957 5.60693 50.6582C7.3962 47.7211 8.30433 44.3319 8.22334 40.8937C8.06514 34.1773 11.6695 27.9344 17.5651 24.7133C20.5832 23.0643 23.0643 20.5832 24.7133 17.5651C27.9344 11.6695 34.1773 8.06514 40.8937 8.22334C44.3319 8.30433 47.7211 7.3962 50.6582 5.60693Z" fill="#F7B779"/>
<path fill-rule="evenodd" clip-rule="evenodd" d="M104.468 30.1654L105.359 29.6957C107.058 28.8003 109.155 29.6333 109.776 31.4504L113.774 43.1367C114.171 44.2987 114.694 45.414 115.333 46.4629L116.943 49.105C121.019 55.7964 121.019 64.2036 116.943 70.895C115.451 73.3438 114.694 76.1694 114.761 79.036C114.946 86.8691 110.742 94.15 103.866 97.9067C101.35 99.2815 99.2815 101.35 97.9067 103.866C94.15 110.742 86.8691 114.946 79.036 114.761C76.1694 114.694 73.3438 115.451 70.895 116.943C64.2036 121.019 55.7964 121.019 49.105 116.943C46.6562 115.451 43.8306 114.694 40.964 114.761C33.1309 114.946 25.85 110.742 22.0933 103.866C20.7185 101.35 18.6499 99.2815 16.1336 97.9067C9.25772 94.15 5.05413 86.8691 5.23863 79.036C5.30615 76.1694 4.54901 73.3438 3.05724 70.895C-1.01908 64.2036 -1.01908 55.7964 3.05725 49.105C4.54901 46.6562 5.30615 43.8305 5.23863 40.964C5.05413 33.1309 9.25772 25.85 16.1336 22.0933C18.6499 20.7185 20.7185 18.6499 22.0933 16.1336C25.85 9.25772 33.1309 5.05413 40.964 5.23863C43.8306 5.30615 46.6562 4.54901 49.105 3.05725C55.7964 -1.01908 64.2036 -1.01908 70.895 3.05724L75.3008 5.74119C76.4742 6.45602 77.0449 7.85211 76.7082 9.18433C75.0321 15.815 81.236 21.7363 87.7814 19.753L88.9866 19.3878C91.0896 18.7507 93.1751 20.4285 93.0028 22.6192C92.519 28.7719 99.0078 33.0428 104.468 30.1654ZM90.1731 25.2675C91.343 31.5617 97.9581 35.5965 104.176 33.5265C104.177 33.5261 104.178 33.5257 104.18 33.5252C104.744 33.337 105.306 33.0984 105.86 32.8065L106.751 32.3369C106.828 32.2962 106.923 32.334 106.952 32.4166L110.949 44.103C111.417 45.4701 112.032 46.7822 112.784 48.0161L114.393 50.6582C117.888 56.3957 117.888 63.6043 114.393 69.3418C112.604 72.2789 111.696 75.6681 111.777 79.1063C111.935 85.8227 108.331 92.0655 102.435 95.2867C99.4168 96.9357 96.9357 99.4168 95.2867 102.435C92.0656 108.331 85.8227 111.935 79.1063 111.777C75.6681 111.696 72.2789 112.604 69.3418 114.393C63.6043 117.888 56.3957 117.888 50.6582 114.393C47.7211 112.604 44.3319 111.696 40.8937 111.777C34.1773 111.935 27.9344 108.331 24.7133 102.435C23.0643 99.4168 20.5832 96.9357 17.5651 95.2867C11.6695 92.0655 8.06514 85.8227 8.22334 79.1063C8.30433 75.6681 7.39619 72.2789 5.60693 69.3418C2.11174 63.6043 2.11174 56.3957 5.60693 50.6582C7.3962 47.7211 8.30433 44.3319 8.22334 40.8937C8.06514 34.1773 11.6695 27.9344 17.5651 24.7133C20.5832 23.0643 23.0643 20.5832 24.7133 17.5651C27.9344 11.6695 34.1773 8.06514 40.8937 8.22334C44.3319 8.30433 47.7211 7.3962 50.6582 5.60693C56.3957 2.11174 63.6043 2.11174 69.3418 5.60693L73.7475 8.29087C73.8027 8.32447 73.8295 8.39007 73.8137 8.45268C71.709 16.779 78.8799 24.2702 87.0083 22.9871C87.0396 22.9822 87.0709 22.9771 87.1023 22.9719C87.6142 22.8869 88.1299 22.767 88.6471 22.6103L89.8524 22.2451C89.9435 22.2175 90.0339 22.2902 90.0265 22.3852C90.017 22.5056 90.0094 22.6255 90.0038 22.7449C89.9636 23.598 90.0205 24.4233 90.1631 25.2134C90.1664 25.2314 90.1697 25.2495 90.1731 25.2675Z" fill="black"/>
</g>
<path d="M20.601 48.3769C21.0633 50.1023 19.2324 52.0921 16.5116 52.8211C13.7908 53.5501 11.2103 52.7424 10.748 51.017C10.2857 49.2916 12.1166 47.3019 14.8374 46.5728C17.5582 45.8438 20.1387 46.6515 20.601 48.3769Z" fill="#644D3A"/>
<path d="M49.4843 22.8857C48.9686 24.8102 46.1297 25.7216 43.1434 24.9215C40.1572 24.1213 38.1543 21.9125 38.67 19.988C39.1857 18.0635 42.0246 17.1521 45.0108 17.9523C47.9971 18.7524 50 20.9612 49.4843 22.8857Z" fill="#644D3A"/>
<path d="M109.137 62.9856C109.137 64.7032 106.965 66.0955 104.286 66.0955C101.606 66.0955 99.434 64.7032 99.434 62.9856C99.434 61.268 101.606 59.8757 104.286 59.8757C106.965 59.8757 109.137 61.268 109.137 62.9856Z" fill="#644D3A"/>
<path d="M84.4258 96.009C82.5014 95.4933 81.5899 92.6544 82.3901 89.6681C83.1903 86.6818 85.399 84.679 87.3235 85.1947C89.248 85.7103 90.1595 88.5492 89.3593 91.5355C88.5591 94.5218 86.3503 96.5246 84.4258 96.009Z" fill="#8B6B54"/>
<path d="M60.1244 98.4389C60.1244 100.775 57.2283 102.668 53.6558 102.668C50.0832 102.668 47.1871 100.775 47.1871 98.4389C47.1871 96.103 50.0832 94.2093 53.6558 94.2093C57.2283 94.2093 60.1244 96.103 60.1244 98.4389Z" fill="#644D3A"/>
<path d="M21.992 88.6383C20.2666 89.6344 17.6147 88.2715 16.0689 85.5941C14.5231 82.9167 14.6687 79.9386 16.3941 78.9424C18.1196 77.9462 20.7715 79.3092 22.3173 81.9866C23.8631 84.664 23.7175 87.6421 21.992 88.6383Z" fill="#8B6B54"/>
<path d="M80.5256 30.2691C80.5256 31.7805 78.632 33.0058 76.2961 33.0058C73.9602 33.0058 72.0666 31.7805 72.0666 30.2691C72.0666 28.7576 73.9602 27.5323 76.2961 27.5323C78.632 27.5323 80.5256 28.7576 80.5256 30.2691Z" fill="#8B6B54"/>
<path fill-rule="evenodd" clip-rule="evenodd" d="M21.947 52.9942C20.768 54.2755 19.1066 55.2166 17.2843 55.7049C15.4621 56.1932 13.5527 56.2088 11.891 55.6887C10.2708 55.1815 8.45247 53.9852 7.86418 51.7897C7.2759 49.5942 8.25246 47.649 9.40204 46.3997C10.581 45.1185 12.2424 44.1773 14.0647 43.689C15.8869 43.2008 17.7963 43.1851 19.458 43.7052C21.0782 44.2124 22.8965 45.4087 23.4848 47.6042C24.0731 49.7997 23.0965 51.7449 21.947 52.9942ZM48.153 27.768C46.3826 28.3364 44.3346 28.3315 42.3707 27.8053C40.4069 27.2791 38.6308 26.2593 37.3818 24.8818C36.1577 23.5318 35.1772 21.488 35.7862 19.2153C36.3952 16.9426 38.2661 15.6629 40.0013 15.1058C41.7717 14.5374 43.8197 14.5422 45.7836 15.0685C47.7474 15.5947 49.5235 16.6145 50.7725 17.9919C51.9966 19.3419 52.9771 21.3857 52.3681 23.6584C51.7591 25.9312 49.8882 27.2109 48.153 27.768ZM109.327 67.6981C107.9 68.6129 106.109 69.0811 104.286 69.0811C102.462 69.0811 100.671 68.6129 99.2438 67.6981C97.8496 66.8044 96.4485 65.2087 96.4485 62.9856C96.4485 60.7625 97.8496 59.1668 99.2438 58.2731C100.671 57.3583 102.462 56.8901 104.286 56.8901C106.109 56.8901 107.9 57.3583 109.327 58.2731C110.721 59.1668 112.123 60.7625 112.123 62.9856C112.123 65.2087 110.721 66.8044 109.327 67.6981ZM79.5436 94.6777C78.9752 92.9073 78.9801 90.8592 79.5063 88.8954C80.0325 86.9316 81.0523 85.1555 82.4297 83.9065C83.7798 82.6823 85.8235 81.7019 88.0962 82.3109C90.369 82.9198 91.6487 84.7908 92.2058 86.526C92.7742 88.2964 92.7693 90.3444 92.2431 92.3082C91.7169 94.2721 90.6971 96.0481 89.3197 97.2972C87.9696 98.5213 85.9259 99.5017 83.6531 98.8928C81.3804 98.2838 80.1007 96.4128 79.5436 94.6777ZM59.8636 103.928C58.141 105.055 55.9377 105.654 53.6558 105.654C51.3738 105.654 49.1705 105.055 47.4479 103.928C45.7517 102.819 44.2015 100.943 44.2015 98.4389C44.2015 95.9348 45.7517 94.0584 47.4479 92.9493C49.1705 91.823 51.3738 91.2238 53.6558 91.2238C55.9377 91.2238 58.141 91.823 59.8636 92.9493C61.5598 94.0584 63.11 95.9348 63.11 98.4389C63.11 100.943 61.5598 102.819 59.8636 103.928ZM17.5984 91.1492C15.9446 90.2992 14.4999 88.8476 13.4833 87.0869C12.4668 85.3262 11.932 83.3492 12.0228 81.492C12.1118 79.6718 12.8637 77.5333 14.9014 76.3569C16.939 75.1804 19.1669 75.5985 20.7878 76.4315C22.4416 77.2815 23.8863 78.7331 24.9028 80.4938C25.9194 82.2545 26.4542 84.2315 26.3633 86.0887C26.2743 87.9089 25.5225 90.0474 23.4848 91.2238C21.4471 92.4003 19.2192 91.9822 17.5984 91.1492ZM80.9087 34.7108C79.5928 35.5623 77.9537 35.9914 76.2961 35.9914C74.6385 35.9914 72.9994 35.5623 71.6835 34.7108C70.3973 33.8786 69.081 32.3758 69.081 30.2691C69.081 28.1624 70.3973 26.6596 71.6835 25.8273C72.9994 24.9759 74.6385 24.5468 76.2961 24.5468C77.9537 24.5468 79.5928 24.9759 80.9087 25.8273C82.1949 26.6596 83.5111 28.1624 83.5111 30.2691C83.5111 32.3758 82.1949 33.8786 80.9087 34.7108ZM49.4843 22.8857C48.9686 24.8102 46.1297 25.7216 43.1434 24.9215C40.1572 24.1213 38.1543 21.9125 38.67 19.988C39.1857 18.0635 42.0246 17.1521 45.0108 17.9523C47.9971 18.7524 50 20.9612 49.4843 22.8857ZM20.601 48.3769C21.0633 50.1023 19.2324 52.0921 16.5116 52.8211C13.7908 53.5501 11.2103 52.7424 10.748 51.017C10.2857 49.2916 12.1166 47.3019 14.8374 46.5728C17.5582 45.8438 20.1387 46.6515 20.601 48.3769ZM104.286 66.0955C106.965 66.0955 109.137 64.7032 109.137 62.9856C109.137 61.268 106.965 59.8757 104.286 59.8757C101.606 59.8757 99.434 61.268 99.434 62.9856C99.434 64.7032 101.606 66.0955 104.286 66.0955ZM84.4258 96.009C82.5014 95.4933 81.5899 92.6544 82.3901 89.6681C83.1903 86.6818 85.399 84.679 87.3235 85.1947C89.248 85.7103 90.1595 88.5492 89.3593 91.5355C88.5591 94.5218 86.3503 96.5246 84.4258 96.009ZM53.6558 102.668C57.2283 102.668 60.1244 100.775 60.1244 98.4389C60.1244 96.103 57.2283 94.2093 53.6558 94.2093C50.0832 94.2093 47.1871 96.103 47.1871 98.4389C47.1871 100.775 50.0832 102.668 53.6558 102.668ZM21.992 88.6383C20.2666 89.6344 17.6147 88.2715 16.0689 85.5941C14.5231 82.9167 14.6687 79.9386 16.3941 78.9424C18.1196 77.9462 20.7715 79.3092 22.3173 81.9866C23.8631 84.664 23.7175 87.6421 21.992 88.6383ZM76.2961 33.0058C78.632 33.0058 80.5256 31.7805 80.5256 30.2691C80.5256 28.7576 78.632 27.5323 76.2961 27.5323C73.9602 27.5323 72.0666 28.7576 72.0666 30.2691C72.0666 31.7805 73.9602 33.0058 76.2961 33.0058Z" fill="black"/>
<path d="M49.3989 77.3708L37.4047 61.3524H33.1113V77.3708H28.886V42.4711H33.1113V57.6034H34.9513L48.9219 42.4711H53.9649L39.858 57.8079L54.4419 77.3708H49.3989Z" fill="#8B6B54"/>
<path d="M66.9292 77.3708V42.4711H79.1278C81.5585 42.4711 83.5632 42.8915 85.142 43.7321C86.7208 44.5615 87.8964 45.6805 88.6687 47.0892C89.4411 48.4865 89.8273 50.0373 89.8273 51.7414C89.8273 53.241 89.5603 54.4793 89.0265 55.4563C88.504 56.4333 87.8112 57.2058 86.948 57.7738C86.0961 58.3419 85.1704 58.7622 84.1709 59.0349V59.3757C85.2386 59.4438 86.3119 59.8187 87.3909 60.5004C88.47 61.182 89.3729 62.159 90.0998 63.4314C90.8268 64.7038 91.1902 66.2602 91.1902 68.1006C91.1902 69.8501 90.7927 71.4236 89.9976 72.8209C89.2026 74.2183 87.9475 75.3259 86.2324 76.1439C84.5173 76.9619 82.2854 77.3708 79.5367 77.3708H66.9292ZM71.1544 73.6218H79.5367C82.2968 73.6218 84.2561 73.0879 85.4146 72.02C86.5845 70.9407 87.1694 69.6343 87.1694 68.1006C87.1694 66.9191 86.8684 65.8285 86.2665 64.8287C85.6645 63.8177 84.8069 63.0111 83.6938 62.4089C82.5807 61.7955 81.2632 61.4887 79.7412 61.4887H71.1544V73.6218ZM71.1544 57.8079H78.9916C80.2637 57.8079 81.4108 57.558 82.4331 57.0581C83.4667 56.5582 84.2845 55.8539 84.8864 54.945C85.4998 54.0362 85.8065 52.9683 85.8065 51.7414C85.8065 50.2077 85.2726 48.9069 84.205 47.839C83.1373 46.7597 81.4449 46.2201 79.1278 46.2201H71.1544V57.8079Z" fill="#8B6B54"/>
<path fill-rule="evenodd" clip-rule="evenodd" d="M47.9922 80.1816L35.9979 64.1631H35.922V80.1816H26.0753V39.6604H35.922V52.4085L47.6914 39.6604H60.3691L43.504 57.9959L60.0431 80.1816H47.9922ZM39.858 57.8079L53.9649 42.4711H48.9219L34.9513 57.6034H33.1113V42.4711H28.886V77.3708H33.1113V61.3524H37.4047L49.3989 77.3708H54.4419L39.858 57.8079ZM64.1184 80.1816V39.6604H79.1278C81.8583 39.6604 84.3522 40.1292 86.4557 41.2473C88.4632 42.3033 90.0653 43.792 91.131 45.7336C92.1473 47.5741 92.638 49.5963 92.638 51.7414C92.638 53.5509 92.319 55.2867 91.499 56.7931C91.0791 57.5759 90.5679 58.2845 89.9642 58.9056C90.9931 59.7651 91.8473 60.824 92.5404 62.0371C93.5645 63.8298 94.0009 65.8945 94.0009 68.1006C94.0009 70.2933 93.4977 72.3531 92.4406 74.2109C91.3127 76.1932 89.5793 77.6617 87.4423 78.6809C85.2193 79.7411 82.5311 80.1816 79.5367 80.1816H64.1184ZM86.948 57.7738C87.1378 57.6489 87.3194 57.5141 87.4928 57.3693C88.1077 56.8561 88.6189 56.2184 89.0265 55.4563C89.5603 54.4793 89.8273 53.241 89.8273 51.7414C89.8273 50.0373 89.4411 48.4865 88.6687 47.0892C87.8964 45.6805 86.7208 44.5615 85.142 43.7321C83.5632 42.8915 81.5585 42.4711 79.1278 42.4711H66.9292V77.3708H79.5367C82.2854 77.3708 84.5173 76.9619 86.2324 76.1439C87.9475 75.3259 89.2026 74.2183 89.9976 72.8209C90.7927 71.4236 91.1902 69.8501 91.1902 68.1006C91.1902 66.2602 90.8268 64.7038 90.0998 63.4314C89.425 62.2502 88.5984 61.3235 87.6201 60.6514C87.5446 60.5995 87.4682 60.5492 87.3909 60.5004C86.3438 59.8389 85.3021 59.4663 84.2657 59.3825C84.2341 59.38 84.2025 59.3777 84.1709 59.3757V59.0349C84.1783 59.0328 84.1856 59.0308 84.193 59.0288C84.4972 58.9451 84.7945 58.8476 85.0849 58.7365C85.7409 58.4855 86.3619 58.1646 86.948 57.7738ZM81.3602 57.4774C81.7319 57.3658 82.0896 57.2261 82.4331 57.0581C82.8043 56.8786 83.1476 56.6727 83.4632 56.4404C83.5528 56.3744 83.6402 56.3063 83.7254 56.236C84.1751 55.8651 84.5621 55.4347 84.8864 54.945C85.4998 54.0362 85.8065 52.9683 85.8065 51.7414C85.8065 50.2077 85.2726 48.9069 84.205 47.839C83.1373 46.7597 81.4449 46.2201 79.1278 46.2201H71.1544V57.8079H78.9916C79.8362 57.8079 80.6257 57.6977 81.3602 57.4774ZM73.9651 54.9972H78.9916C79.8867 54.9972 80.6039 54.8238 81.1984 54.5331L81.2039 54.5304L81.2094 54.5278C81.8139 54.2354 82.2348 53.8584 82.5431 53.3929L82.5498 53.3828L82.5566 53.3728C82.8199 52.9826 82.9957 52.4772 82.9957 51.7414C82.9957 50.9399 82.7488 50.3579 82.2173 49.8263L82.212 49.821L82.2068 49.8157C81.8887 49.4942 81.0825 49.0308 79.1278 49.0308H73.9651V54.9972ZM83.1128 62.1246C82.5715 61.891 81.9873 61.7218 81.3602 61.617C80.849 61.5315 80.3093 61.4887 79.7412 61.4887H71.1544V73.6218H79.5367C82.2968 73.6218 84.2561 73.0879 85.4146 72.02C86.5845 70.9407 87.1694 69.6343 87.1694 68.1006C87.1694 66.9191 86.8684 65.8285 86.2665 64.8287C85.6645 63.8177 84.8069 63.0111 83.6938 62.4089C83.506 62.3054 83.3123 62.2106 83.1128 62.1246ZM83.5096 69.9533C84.1267 69.3837 84.3587 68.8162 84.3587 68.1006C84.3587 67.4233 84.1936 66.835 83.8586 66.2786L83.855 66.2727L83.8514 66.2666C83.5284 65.7241 83.0586 65.2609 82.3565 64.8811L82.3468 64.8759L82.3372 64.8706C81.7144 64.5273 80.8822 64.2995 79.7412 64.2995H73.9651V70.8111H79.5367C82.0752 70.8111 83.1407 70.2932 83.5093 69.9536" fill="black"/>
<defs>
<filter id="filter0_i_755_16303" x="0" y="0" width="120" height="120" filterUnits="userSpaceOnUse" color-interpolation-filters="sRGB">
<feFlood flood-opacity="0" result="BackgroundImageFix"/>
<feBlend mode="normal" in="SourceGraphic" in2="BackgroundImageFix" result="shape"/>
<feColorMatrix in="SourceAlpha" type="matrix" values="0 0 0 0 0 0 0 0 0 0 0 0 0 0 0 0 0 0 127 0" result="hardAlpha"/>
<feOffset dx="14"/>
<feComposite in2="hardAlpha" operator="arithmetic" k2="-1" k3="1"/>
<feColorMatrix type="matrix" values="0 0 0 0 0 0 0 0 0 0 0 0 0 0 0 0 0 0 0.2 0"/>
<feBlend mode="normal" in2="shape" result="effect1_innerShadow_755_16303"/>
</filter>
</defs>
</svg>
