<svg width="79" height="88" viewBox="0 0 79 88" fill="none" xmlns="http://www.w3.org/2000/svg">
<path fill-rule="evenodd" clip-rule="evenodd" d="M39.3701 4.5249C37.9889 4.52487 36.6076 4.88213 35.3699 5.5967L21.8329 13.4123L39.3701 43.7874L5.36974 24.1526C4.67785 25.3495 4.2959 26.7256 4.2959 28.1561V43.7873L39.3701 43.7874L5.36974 63.422C6.06027 64.6166 7.05951 65.6329 8.2959 66.3467L21.8329 74.1623L39.3701 43.7874V83.0497C40.7513 83.0497 42.1324 82.6924 43.3699 81.9779L56.9069 74.1623L39.3701 43.7874L73.3701 63.422C74.062 62.225 74.444 60.849 74.444 59.4185V43.7874H39.3701L73.3701 24.1526C72.6796 22.9579 71.6803 21.9417 70.444 21.2279L56.9069 13.4123L39.3701 43.7874V4.5249Z" fill="#FF8483"/>
<path d="M56.9069 74.1623L70.444 66.3467C71.6803 65.6329 72.6796 64.6167 73.3701 63.422L39.3701 43.7874L56.9069 74.1623Z" fill="#FF6766"/>
<path d="M74.444 43.7874V28.1561C74.444 26.7256 74.062 25.3495 73.3701 24.1526L39.3701 43.7874H74.444Z" fill="#FF6766"/>
<path d="M43.3699 5.5967C42.1324 4.8822 40.7513 4.52494 39.3701 4.5249V43.7874L56.9069 13.4123L43.3699 5.5967Z" fill="#FF6766"/>
<path d="M21.8329 13.4123L8.2959 21.2279C7.05951 21.9417 6.06027 22.9579 5.36974 24.1526L39.3701 43.7874L21.8329 13.4123Z" fill="#FF6766"/>
<path d="M4.2959 43.7873V59.4185C4.2959 60.849 4.67785 62.225 5.36974 63.422L39.3701 43.7874L4.2959 43.7873Z" fill="#FF6766"/>
<path d="M35.3699 81.9779C36.6076 82.6925 37.9889 83.0497 39.3701 83.0497V43.7874L21.8329 74.1623L35.3699 81.9779Z" fill="#FF6766"/>
<path fill-rule="evenodd" clip-rule="evenodd" d="M45.3699 2.1326L72.444 17.7638C76.1568 19.9074 78.444 23.8689 78.444 28.1561V59.4185C78.444 63.7057 76.1568 67.6672 72.444 69.8108L45.3699 85.442C41.6571 87.5856 37.0827 87.5856 33.3699 85.442L6.2959 69.8108C2.58308 67.6672 0.295898 63.7057 0.295898 59.4185V28.1561C0.295898 23.8689 2.58309 19.9074 6.2959 17.7638L33.3699 2.1326C37.0827 -0.010996 41.6571 -0.010996 45.3699 2.1326ZM43.3699 5.5967C40.8947 4.16764 37.8451 4.16764 35.3699 5.5967L8.2959 21.2279C5.82069 22.657 4.2959 25.298 4.2959 28.1561V59.4185C4.2959 62.2766 5.82069 64.9176 8.2959 66.3467L35.3699 81.9779C37.8451 83.407 40.8947 83.407 43.3699 81.9779L70.444 66.3467C72.9192 64.9176 74.444 62.2766 74.444 59.4185V28.1561C74.444 25.298 72.9192 22.657 70.444 21.2279L43.3699 5.5967Z" fill="#FFC9B9"/>
<path fill-rule="evenodd" clip-rule="evenodd" d="M38.8701 5.54274C37.8302 5.61708 36.8035 5.92373 35.8699 6.46272L22.7659 14.0283L38.8701 41.9213V5.54274ZM38.0039 42.421L21.8999 14.5283L8.7959 22.0939C8.50804 22.2601 8.23488 22.445 7.9776 22.6466C7.50966 23.0133 7.09424 23.4351 6.73837 23.8999C6.65618 24.0073 6.57717 24.1169 6.50142 24.2287L38.0039 42.421ZM6.00093 25.0945C5.92439 25.2518 5.8537 25.4121 5.78906 25.575C5.57984 26.1022 5.43387 26.6569 5.35756 27.228C5.31678 27.5332 5.2959 27.8432 5.2959 28.1561V43.2873L37.5045 43.2873L6.00093 25.0945ZM37.5045 44.2873L5.2959 44.2873V59.4185C5.2959 60.4978 5.54431 61.5415 6.00093 62.4801L37.5045 44.2873ZM6.50142 63.3459C7.04312 64.1453 7.75173 64.8352 8.5955 65.3605C8.66148 65.4016 8.72828 65.4416 8.7959 65.4807L21.8999 73.0463L38.0039 45.1537L6.50142 63.3459ZM38.8701 45.6534L22.7659 73.5463L35.8699 81.1119C36.8035 81.6509 37.8302 81.9575 38.8701 82.0319V45.6534ZM39.8701 82.0318C40.9099 81.9574 41.9365 81.6508 42.8699 81.1119L55.9739 73.5463L39.8701 45.6534V82.0318ZM40.7363 45.1537L56.84 73.0463L69.944 65.4807C70.8763 64.9424 71.6544 64.2078 72.2384 63.3459L40.7363 45.1537ZM72.7389 62.4801C73.1955 61.5415 73.444 60.4978 73.444 59.4185V44.2874H41.2358L72.7389 62.4801ZM41.2357 43.2874H73.444V28.1561C73.444 27.0768 73.1955 26.0331 72.7389 25.0945L41.2357 43.2874ZM72.2384 24.2287C71.6544 23.3668 70.8763 22.6322 69.944 22.0939L56.84 14.5283L40.7363 42.421L72.2384 24.2287ZM39.8701 41.9213V5.54277C40.9099 5.61715 41.9365 5.92379 42.8699 6.46272L55.9739 14.0283L39.8701 41.9213ZM34.8699 4.73067C36.2623 3.92681 37.8164 3.52487 39.3701 3.5249C40.9237 3.52494 42.4777 3.92688 43.8699 4.73067L70.944 20.3619C72.3349 21.1649 73.4591 22.3083 74.2359 23.6521C75.0142 24.9986 75.444 26.5469 75.444 28.1561V59.4185C75.444 61.0277 75.0142 62.576 74.2359 63.9225C73.4591 65.2663 72.3349 66.4097 70.944 67.2127L43.8699 82.8439C42.4777 83.6477 40.9237 84.0497 39.3701 84.0497C37.8164 84.0497 36.2623 83.6478 34.8699 82.8439L7.7959 67.2127C6.405 66.4097 5.28071 65.2663 4.50397 63.9225C3.72569 62.576 3.2959 61.0277 3.2959 59.4185V28.1561C3.2959 27.7224 3.32711 27.2932 3.38795 26.8711C3.49642 26.1186 3.69907 25.3888 3.98687 24.6976C4.13661 24.338 4.3094 23.9887 4.50397 23.6521C4.71939 23.2794 4.96155 22.9222 5.22872 22.5833C5.68402 22.0057 6.21196 21.4817 6.80398 21.0258C7.11711 20.7847 7.44817 20.5626 7.7959 20.3619L34.8699 4.73067Z" fill="#FFC9B9"/>
<path d="M29.7959 4.5249L30.0458 6.14865C30.4586 8.83168 32.5556 10.9791 35.2959 11.5249C32.5556 12.0708 30.4586 14.2181 30.0458 16.9012L29.7959 18.5249L29.546 16.9012C29.1332 14.2181 27.0362 12.0708 24.2959 11.5249C27.0362 10.9791 29.1332 8.83168 29.546 6.14864L29.7959 4.5249Z" fill="#DB4443"/>
<path d="M62.2959 50.5249L62.6139 52.6126C63.1393 56.0622 65.8083 58.8231 69.2959 59.5249C65.8083 60.2267 63.1393 62.9876 62.6139 66.4372L62.2959 68.5249L61.9779 66.4372C61.4525 62.9876 58.7835 60.2267 55.2959 59.5249C58.7835 58.8231 61.4525 56.0622 61.9779 52.6126L62.2959 50.5249Z" fill="#DB4443"/>
<path d="M17.7959 63.5249L18.0003 64.9167C18.3381 67.2164 20.0538 69.057 22.2959 69.5249C20.0538 69.9928 18.3381 71.8334 18.0003 74.1331L17.7959 75.5249L17.5915 74.1331C17.2537 71.8334 15.538 69.9928 13.2959 69.5249C15.538 69.057 17.2537 67.2164 17.5915 64.9167L17.7959 63.5249Z" fill="#DB4443"/>
<path d="M66.7959 23.5249L66.9095 24.3368C67.0971 25.6783 68.0503 26.752 69.2959 27.0249C68.0503 27.2978 67.0971 28.3715 66.9095 29.713L66.7959 30.5249L66.6823 29.713C66.4947 28.3715 65.5415 27.2978 64.2959 27.0249C65.5415 26.752 66.4947 25.6783 66.6823 24.3368L66.7959 23.5249Z" fill="#DB4443"/>
<path d="M57.7959 26.5249L57.9095 27.3368C58.0971 28.6783 59.0503 29.752 60.2959 30.0249C59.0503 30.2978 58.0971 31.3715 57.9095 32.713L57.7959 33.5249L57.6823 32.713C57.4947 31.3715 56.5415 30.2978 55.2959 30.0249C56.5415 29.752 57.4947 28.6783 57.6823 27.3368L57.7959 26.5249Z" fill="#DB4443"/>
<path d="M63.2959 31.5249L63.3868 32.2208C63.5369 33.3707 64.2994 34.291 65.2959 34.5249C64.2994 34.7588 63.5369 35.6791 63.3868 36.829L63.2959 37.5249L63.205 36.829C63.0549 35.6791 62.2924 34.7588 61.2959 34.5249C62.2924 34.291 63.0549 33.3707 63.205 32.2208L63.2959 31.5249Z" fill="#DB4443"/>
<path d="M13.7959 34.5249L14.0003 35.9167C14.3381 38.2164 16.0538 40.057 18.2959 40.5249C16.0538 40.9928 14.3381 42.8334 14.0003 45.1331L13.7959 46.5249L13.5915 45.1331C13.2537 42.8334 11.538 40.9928 9.2959 40.5249C11.538 40.057 13.2537 38.2164 13.5915 35.9167L13.7959 34.5249Z" fill="#DB4443"/>
<g filter="url(#filter0_d_174_4303)">
<path fill-rule="evenodd" clip-rule="evenodd" d="M29.1007 28.1004C34.5679 22.6332 43.4321 22.6332 48.8994 28.1004C53.6324 32.8335 54.353 40.2548 50.6188 45.8099L39 63.0947L27.3812 45.8099C23.6471 40.2548 24.3676 32.8335 29.1007 28.1004ZM46.071 30.9289C42.1658 27.0237 35.8343 27.0237 31.9291 30.9289C28.5484 34.3096 28.0337 39.6105 30.7009 43.5784L39 55.9247L47.2991 43.5784C49.9664 39.6105 49.4517 34.3096 46.071 30.9289Z" fill="#FFC9B9"/>
<path d="M45 38C45 41.3137 42.3137 44 39 44C35.6863 44 33 41.3137 33 38C33 34.6863 35.6863 32 39 32C42.3137 32 45 34.6863 45 38Z" fill="#FFC9B9"/>
<path fill-rule="evenodd" clip-rule="evenodd" d="M31.9291 30.9289C35.8343 27.0237 42.1658 27.0237 46.071 30.9289C49.4517 34.3096 49.9664 39.6105 47.2991 43.5784L39 55.9247L30.7009 43.5784C28.0337 39.6105 28.5484 34.3096 31.9291 30.9289ZM39 44C42.3137 44 45 41.3137 45 38C45 34.6863 42.3137 32 39 32C35.6863 32 33 34.6863 33 38C33 41.3137 35.6863 44 39 44Z" fill="#FF6766"/>
</g>
<defs>
<filter id="filter0_d_174_4303" x="21" y="20" width="36" height="47.0947" filterUnits="userSpaceOnUse" color-interpolation-filters="sRGB">
<feFlood flood-opacity="0" result="BackgroundImageFix"/>
<feColorMatrix in="SourceAlpha" type="matrix" values="0 0 0 0 0 0 0 0 0 0 0 0 0 0 0 0 0 0 127 0" result="hardAlpha"/>
<feOffset/>
<feGaussianBlur stdDeviation="2"/>
<feComposite in2="hardAlpha" operator="out"/>
<feColorMatrix type="matrix" values="0 0 0 0 0 0 0 0 0 0 0 0 0 0 0 0 0 0 0.25 0"/>
<feBlend mode="normal" in2="BackgroundImageFix" result="effect1_dropShadow_174_4303"/>
<feBlend mode="normal" in="SourceGraphic" in2="effect1_dropShadow_174_4303" result="shape"/>
</filter>
</defs>
</svg>
