<svg width="79" height="88" viewBox="0 0 79 88" fill="none" xmlns="http://www.w3.org/2000/svg">
<path fill-rule="evenodd" clip-rule="evenodd" d="M39.2222 4.5249C37.8409 4.52487 36.4596 4.88213 35.222 5.5967L21.685 13.4123L39.2222 43.7874L5.22179 24.1526C4.5299 25.3495 4.14795 26.7256 4.14795 28.1561V43.7873L39.2222 43.7874L5.22179 63.422C5.91232 64.6166 6.91156 65.6329 8.14795 66.3467L21.685 74.1623L39.2222 43.7874V83.0497C40.6033 83.0497 41.9844 82.6924 43.222 81.9779L56.759 74.1623L39.2222 43.7874L73.2222 63.422C73.9141 62.225 74.296 60.849 74.296 59.4185V43.7874H39.2222L73.2222 24.1526C72.5316 22.9579 71.5324 21.9417 70.296 21.2279L56.759 13.4123L39.2222 43.7874V4.5249Z" fill="#FFD1A5"/>
<path d="M56.759 74.1623L70.296 66.3467C71.5324 65.6329 72.5316 64.6167 73.2222 63.422L39.2222 43.7874L56.759 74.1623Z" fill="#F7B779"/>
<path d="M74.296 43.7874V28.1561C74.296 26.7256 73.9141 25.3495 73.2222 24.1526L39.2222 43.7874H74.296Z" fill="#F7B779"/>
<path d="M43.222 5.5967C41.9844 4.8822 40.6033 4.52494 39.2222 4.5249V43.7874L56.759 13.4123L43.222 5.5967Z" fill="#F7B779"/>
<path d="M21.685 13.4123L8.14795 21.2279C6.91156 21.9417 5.91232 22.9579 5.22179 24.1526L39.2222 43.7874L21.685 13.4123Z" fill="#F7B779"/>
<path d="M4.14795 43.7873V59.4185C4.14795 60.849 4.5299 62.225 5.22179 63.422L39.2222 43.7874L4.14795 43.7873Z" fill="#F7B779"/>
<path d="M35.222 81.9779C36.4596 82.6925 37.8409 83.0497 39.2222 83.0497V43.7874L21.685 74.1623L35.222 81.9779Z" fill="#F7B779"/>
<path fill-rule="evenodd" clip-rule="evenodd" d="M45.222 2.1326L72.296 17.7638C76.0088 19.9074 78.296 23.8689 78.296 28.1561V59.4185C78.296 63.7057 76.0088 67.6672 72.296 69.8108L45.222 85.442C41.5092 87.5856 36.9348 87.5856 33.222 85.442L6.14795 69.8108C2.43514 67.6672 0.147949 63.7057 0.147949 59.4185V28.1561C0.147949 23.8689 2.43514 19.9074 6.14795 17.7638L33.222 2.1326C36.9348 -0.010996 41.5092 -0.010996 45.222 2.1326ZM43.222 5.5967C40.7468 4.16764 37.6972 4.16764 35.222 5.5967L8.14795 21.2279C5.67274 22.657 4.14795 25.298 4.14795 28.1561V59.4185C4.14795 62.2766 5.67274 64.9176 8.14795 66.3467L35.222 81.9779C37.6972 83.407 40.7468 83.407 43.222 81.9779L70.296 66.3467C72.7712 64.9176 74.296 62.2766 74.296 59.4185V28.1561C74.296 25.298 72.7712 22.657 70.296 21.2279L43.222 5.5967Z" fill="#DDE5B6"/>
<path d="M34.6479 9.5249L34.8978 11.1486C35.3107 13.8317 37.4077 15.9791 40.1479 16.5249C37.4077 17.0708 35.3107 19.2181 34.8978 21.9012L34.6479 23.5249L34.3981 21.9012C33.9852 19.2181 31.8882 17.0708 29.1479 16.5249C31.8882 15.9791 33.9852 13.8317 34.3981 11.1486L34.6479 9.5249Z" fill="#26F42D"/>
<path d="M62.1479 50.5249L62.4659 52.6126C62.9914 56.0622 65.6603 58.8231 69.1479 59.5249C65.6603 60.2267 62.9914 62.9876 62.4659 66.4372L62.1479 68.5249L61.83 66.4372C61.3045 62.9876 58.6356 60.2267 55.1479 59.5249C58.6356 58.8231 61.3045 56.0622 61.83 52.6126L62.1479 50.5249Z" fill="#26F42D"/>
<path d="M19.6479 56.5249L19.8524 57.9167C20.1902 60.2164 21.9059 62.057 24.1479 62.5249C21.9059 62.9928 20.1902 64.8334 19.8524 67.1331L19.6479 68.5249L19.4435 67.1331C19.1057 64.8334 17.39 62.9928 15.1479 62.5249C17.39 62.057 19.1057 60.2164 19.4435 57.9167L19.6479 56.5249Z" fill="#26F42D"/>
<g filter="url(#filter0_d_174_4299)">
<path fill-rule="evenodd" clip-rule="evenodd" d="M29.1007 28.1004C34.5679 22.6332 43.4321 22.6332 48.8994 28.1004C53.6324 32.8335 54.353 40.2548 50.6188 45.8099L39 63.0947L27.3812 45.8099C23.6471 40.2548 24.3676 32.8335 29.1007 28.1004ZM46.071 30.9289C42.1658 27.0237 35.8343 27.0237 31.9291 30.9289C28.5484 34.3096 28.0337 39.6105 30.7009 43.5784L39 55.9247L47.2991 43.5784C49.9664 39.6105 49.4517 34.3096 46.071 30.9289Z" fill="#DDE5B6"/>
<path d="M45 38C45 41.3137 42.3137 44 39 44C35.6863 44 33 41.3137 33 38C33 34.6863 35.6863 32 39 32C42.3137 32 45 34.6863 45 38Z" fill="#DDE5B6"/>
<path fill-rule="evenodd" clip-rule="evenodd" d="M31.9291 30.9289C35.8343 27.0237 42.1658 27.0237 46.071 30.9289C49.4517 34.3096 49.9664 39.6105 47.2991 43.5784L39 55.9247L30.7009 43.5784C28.0337 39.6105 28.5484 34.3096 31.9291 30.9289ZM39 44C42.3137 44 45 41.3137 45 38C45 34.6863 42.3137 32 39 32C35.6863 32 33 34.6863 33 38C33 41.3137 35.6863 44 39 44Z" fill="#F7B779"/>
</g>
<defs>
<filter id="filter0_d_174_4299" x="21" y="20" width="36" height="47.0947" filterUnits="userSpaceOnUse" color-interpolation-filters="sRGB">
<feFlood flood-opacity="0" result="BackgroundImageFix"/>
<feColorMatrix in="SourceAlpha" type="matrix" values="0 0 0 0 0 0 0 0 0 0 0 0 0 0 0 0 0 0 127 0" result="hardAlpha"/>
<feOffset/>
<feGaussianBlur stdDeviation="2"/>
<feComposite in2="hardAlpha" operator="out"/>
<feColorMatrix type="matrix" values="0 0 0 0 0 0 0 0 0 0 0 0 0 0 0 0 0 0 0.25 0"/>
<feBlend mode="normal" in2="BackgroundImageFix" result="effect1_dropShadow_174_4299"/>
<feBlend mode="normal" in="SourceGraphic" in2="effect1_dropShadow_174_4299" result="shape"/>
</filter>
</defs>
</svg>
