<svg width="79" height="88" viewBox="0 0 79 88" fill="none" xmlns="http://www.w3.org/2000/svg">
<path fill-rule="evenodd" clip-rule="evenodd" d="M39.0742 4.5249C37.693 4.52487 36.3117 4.88213 35.074 5.5967L21.537 13.4123L39.0742 43.7874L5.07384 24.1526C4.38195 25.3495 4 26.7256 4 28.1561V43.7873L39.0742 43.7874L5.07384 63.422C5.76437 64.6166 6.76361 65.6329 8 66.3467L21.537 74.1623L39.0742 43.7874V83.0497C40.4554 83.0497 41.8365 82.6924 43.074 81.9779L56.611 74.1623L39.0742 43.7874L73.0742 63.422C73.7661 62.225 74.1481 60.849 74.1481 59.4185V43.7874H39.0742L73.0742 24.1526C72.3837 22.9579 71.3844 21.9417 70.1481 21.2279L56.611 13.4123L39.0742 43.7874V4.5249Z" fill="#F1F1F1"/>
<path d="M56.611 74.1623L70.1481 66.3467C71.3844 65.6329 72.3837 64.6167 73.0742 63.422L39.0742 43.7874L56.611 74.1623Z" fill="#D9D9D9"/>
<path d="M74.1481 43.7874V28.1561C74.1481 26.7256 73.7661 25.3495 73.0742 24.1526L39.0742 43.7874H74.1481Z" fill="#D9D9D9"/>
<path d="M43.074 5.5967C41.8365 4.8822 40.4554 4.52494 39.0742 4.5249V43.7874L56.611 13.4123L43.074 5.5967Z" fill="#D9D9D9"/>
<path d="M21.537 13.4123L8 21.2279C6.76362 21.9417 5.76437 22.9579 5.07384 24.1526L39.0742 43.7874L21.537 13.4123Z" fill="#D9D9D9"/>
<path d="M4 43.7873V59.4185C4 60.849 4.38195 62.225 5.07384 63.422L39.0742 43.7874L4 43.7873Z" fill="#D9D9D9"/>
<path d="M35.074 81.9779C36.3117 82.6925 37.693 83.0497 39.0742 83.0497V43.7874L21.537 74.1623L35.074 81.9779Z" fill="#D9D9D9"/>
<path fill-rule="evenodd" clip-rule="evenodd" d="M45.074 2.1326L72.1481 17.7638C75.8609 19.9074 78.1481 23.8689 78.1481 28.1561V59.4185C78.1481 63.7057 75.8609 67.6672 72.1481 69.8108L45.074 85.442C41.3612 87.5856 36.7868 87.5856 33.074 85.442L6 69.8108C2.28719 67.6672 0 63.7057 0 59.4185V28.1561C0 23.8689 2.28719 19.9074 6 17.7638L33.074 2.1326C36.7868 -0.010996 41.3612 -0.010996 45.074 2.1326ZM43.074 5.5967C40.5988 4.16764 37.5492 4.16764 35.074 5.5967L8 21.2279C5.52479 22.657 4 25.298 4 28.1561V59.4185C4 62.2766 5.52479 64.9176 8 66.3467L35.074 81.9779C37.5492 83.407 40.5988 83.407 43.074 81.9779L70.1481 66.3467C72.6233 64.9176 74.1481 62.2766 74.1481 59.4185V28.1561C74.1481 25.298 72.6233 22.657 70.1481 21.2279L43.074 5.5967Z" fill="white"/>
<g filter="url(#filter0_d_174_4295)">
<path fill-rule="evenodd" clip-rule="evenodd" d="M29.1007 29.1004C34.5679 23.6332 43.4321 23.6332 48.8994 29.1004C53.6324 33.8335 54.353 41.2548 50.6188 46.8099L39 64.0947L27.3812 46.8099C23.6471 41.2548 24.3676 33.8335 29.1007 29.1004ZM46.071 31.9289C42.1658 28.0237 35.8343 28.0237 31.9291 31.9289C28.5484 35.3096 28.0337 40.6105 30.7009 44.5784L39 56.9247L47.2991 44.5784C49.9664 40.6105 49.4517 35.3096 46.071 31.9289Z" fill="white"/>
<path d="M45 39C45 42.3137 42.3137 45 39 45C35.6863 45 33 42.3137 33 39C33 35.6863 35.6863 33 39 33C42.3137 33 45 35.6863 45 39Z" fill="white"/>
<path fill-rule="evenodd" clip-rule="evenodd" d="M31.9291 31.9289C35.8343 28.0237 42.1658 28.0237 46.071 31.9289C49.4517 35.3096 49.9664 40.6105 47.2991 44.5784L39 56.9247L30.7009 44.5784C28.0337 40.6105 28.5484 35.3096 31.9291 31.9289ZM39 45C42.3137 45 45 42.3137 45 39C45 35.6863 42.3137 33 39 33C35.6863 33 33 35.6863 33 39C33 42.3137 35.6863 45 39 45Z" fill="#D9D9D9"/>
</g>
<defs>
<filter id="filter0_d_174_4295" x="21" y="21" width="36" height="47.0947" filterUnits="userSpaceOnUse" color-interpolation-filters="sRGB">
<feFlood flood-opacity="0" result="BackgroundImageFix"/>
<feColorMatrix in="SourceAlpha" type="matrix" values="0 0 0 0 0 0 0 0 0 0 0 0 0 0 0 0 0 0 127 0" result="hardAlpha"/>
<feOffset/>
<feGaussianBlur stdDeviation="2"/>
<feComposite in2="hardAlpha" operator="out"/>
<feColorMatrix type="matrix" values="0 0 0 0 0 0 0 0 0 0 0 0 0 0 0 0 0 0 0.25 0"/>
<feBlend mode="normal" in2="BackgroundImageFix" result="effect1_dropShadow_174_4295"/>
<feBlend mode="normal" in="SourceGraphic" in2="effect1_dropShadow_174_4295" result="shape"/>
</filter>
</defs>
</svg>
