<svg width="26" height="25" viewBox="0 0 26 25" fill="none" xmlns="http://www.w3.org/2000/svg">
<path fill-rule="evenodd" clip-rule="evenodd" d="M22.3381 4.97628C23.1652 4.97628 23.8838 5.66024 23.8838 6.56296V19.437C23.8838 20.3398 23.1652 21.0237 22.3381 21.0237H4.46173C3.63464 21.0237 2.91603 20.3398 2.91603 19.437V6.56296C2.91603 5.66024 3.63464 4.97628 4.46173 4.97628H22.3381ZM25.8999 6.56296C25.8999 4.62162 24.3318 3 22.3381 3H4.46173C2.46801 3 0.899902 4.62162 0.899902 6.56296V19.437C0.899902 21.3784 2.46801 23 4.46173 23H22.3381C24.3318 23 25.8999 21.3784 25.8999 19.437V6.56296Z" fill="black"/>
<path fill-rule="evenodd" clip-rule="evenodd" d="M1.8617 5.65632C1.53207 6.09612 1.62857 6.71459 2.07723 7.0377L10.3897 13.0242C12.175 14.3098 14.6248 14.3098 16.41 13.0242L24.7225 7.03777C25.1712 6.71466 25.2677 6.09619 24.9381 5.65639C24.6085 5.21659 23.9775 5.122 23.5289 5.44511L15.2164 11.4315C15.2164 11.4315 15.2164 11.4315 15.2164 11.4315C14.1413 12.2057 12.6585 12.2057 11.5834 11.4315C11.5834 11.4315 11.5834 11.4315 11.5834 11.4315L3.27094 5.44505C2.82227 5.12193 2.19133 5.21652 1.8617 5.65632Z" fill="black"/>
</svg>
