<svg width="32" height="28" viewBox="0 0 32 28" fill="none" xmlns="http://www.w3.org/2000/svg">
<path fill-rule="evenodd" clip-rule="evenodd" d="M4.0817 12.3611C11.5003 9.03354 16.4472 6.83983 18.9224 5.77994C25.9895 2.75374 27.458 2.22806 28.4151 2.2107C28.6257 2.20688 29.0964 2.2606 29.4013 2.5153C29.6587 2.73036 29.7295 3.02089 29.7634 3.22479C29.7973 3.4287 29.8395 3.8932 29.806 4.25615C29.423 8.39879 27.7659 18.4519 26.9229 23.0917C26.5661 25.055 25.8637 25.7133 25.1837 25.7777C23.7059 25.9177 22.5837 24.7722 21.1524 23.8063C18.9127 22.2948 17.6474 21.3539 15.4733 19.8789C12.9608 18.1744 14.5895 17.2375 16.0214 15.7065C16.3961 15.3058 22.9074 9.20854 23.0334 8.65542C23.0492 8.58625 23.0638 8.32839 22.915 8.19223C22.7662 8.05607 22.5466 8.10263 22.3881 8.13966C22.1635 8.19215 18.5855 10.6269 11.654 15.4438C10.6384 16.1618 9.71852 16.5116 8.89432 16.4933C7.9857 16.4731 6.23787 15.9644 4.93855 15.5295C3.34487 14.9962 2.07825 14.7142 2.18854 13.8085C2.24599 13.3367 2.87704 12.8542 4.0817 12.3611Z" fill="#F7B779"/>
<path fill-rule="evenodd" clip-rule="evenodd" d="M3.22983 10.3257C10.6282 7.00733 15.5815 4.81069 18.073 3.74381C21.5985 2.23415 23.7793 1.32568 25.2052 0.792989C26.5925 0.274698 27.4993 0.0164371 28.3761 0.000535917C28.6561 -0.00454253 29.0132 0.0258609 29.3875 0.117926C29.7489 0.206799 30.2902 0.392834 30.7893 0.809765C31.6772 1.55153 31.8592 2.52245 31.915 2.85766C31.9695 3.18576 32.0347 3.85195 31.9783 4.46228C31.5851 8.71577 29.9103 18.8597 29.0686 23.4919C28.6779 25.6421 27.6466 27.7645 25.3869 27.9786C23.9936 28.1106 22.8665 27.6093 22.0323 27.1048C21.621 26.856 21.2328 26.5763 20.9013 26.3338C20.8398 26.2889 20.7801 26.2451 20.7219 26.2023C20.446 25.9999 20.2019 25.8209 19.9429 25.646C18.806 24.8788 17.9165 24.2564 17.0468 23.6467L16.9344 23.5679C16.1038 22.9856 15.2843 22.4111 14.2593 21.7157C13.5151 21.2108 12.7852 20.5778 12.357 19.7335C12.0312 19.0911 11.9345 18.439 12.0049 17.826C11.0254 18.3747 9.96269 18.7281 8.84643 18.7033C8.12304 18.6872 7.24998 18.4963 6.52422 18.309C5.74696 18.1083 4.93412 17.856 4.25424 17.6285C4.12748 17.5861 3.98597 17.5405 3.83521 17.4919C3.2419 17.3007 2.5054 17.0634 1.96104 16.792C1.59141 16.6076 1.06375 16.2967 0.64444 15.7661C0.158292 15.151 -0.0783012 14.3709 0.0231388 13.5378C0.160506 12.4098 0.909001 11.6966 1.39067 11.3283C1.91582 10.9268 2.56057 10.6017 3.22983 10.3257ZM4.0817 12.3611C11.5003 9.03354 16.4472 6.83983 18.9224 5.77994C25.9895 2.75374 27.458 2.22806 28.4151 2.2107C28.6257 2.20688 29.0964 2.2606 29.4013 2.5153C29.6587 2.73036 29.7295 3.02089 29.7634 3.22479C29.7973 3.4287 29.8395 3.8932 29.806 4.25615C29.423 8.39879 27.7659 18.4519 26.9229 23.0917C26.5661 25.055 25.8637 25.7133 25.1837 25.7777C24.0135 25.8885 23.0662 25.1933 22.0119 24.4195C21.7348 24.2161 21.4503 24.0073 21.1524 23.8063C19.9832 23.0173 19.0796 22.3837 18.1736 21.7485C17.344 21.1669 16.5125 20.5839 15.4733 19.8789C13.3108 18.4119 14.2161 17.5135 15.4232 16.3155C15.6186 16.1216 15.8219 15.9198 16.0214 15.7065C16.1105 15.6112 16.5461 15.1942 17.1603 14.6064C17.4897 14.2911 17.8704 13.9267 18.2766 13.5364C19.4446 12.4141 20.8227 11.0779 21.7945 10.0812C22.129 9.73814 22.4154 9.4353 22.6284 9.19527C22.8685 8.92478 23.0155 8.73406 23.0334 8.65542C23.0492 8.58625 23.0638 8.32839 22.915 8.19223C22.7662 8.05607 22.5466 8.10263 22.3881 8.13966C22.3477 8.14912 22.1984 8.23583 21.9405 8.3998C21.7017 8.55156 21.3698 8.76949 20.9448 9.05359C20.0293 9.66548 18.6818 10.5843 16.9022 11.8101C15.4432 12.8151 13.6938 14.0263 11.654 15.4438C10.6384 16.1618 9.71852 16.5116 8.89432 16.4933C7.9857 16.4731 6.23787 15.9644 4.93855 15.5295C4.74772 15.4657 4.5616 15.4054 4.38196 15.3473C3.06129 14.9198 2.09145 14.6058 2.18854 13.8085C2.24599 13.3367 2.87704 12.8542 4.0817 12.3611Z" fill="black"/>
</svg>
