<svg width="32" height="32" viewBox="0 0 32 32" fill="none" xmlns="http://www.w3.org/2000/svg">
<path fill-rule="evenodd" clip-rule="evenodd" d="M32 16C32 24.8366 24.8366 32 16 32C7.16344 32 0 24.8366 0 16C0 7.16344 7.16344 0 16 0C24.8366 0 32 7.16344 32 16ZM16.5733 11.8119C15.0171 12.4592 11.9068 13.7989 7.24248 15.8311C6.48506 16.1323 6.0883 16.427 6.05218 16.7151C5.99114 17.202 6.60091 17.3937 7.43126 17.6548C7.5442 17.6904 7.66123 17.7272 7.7812 17.7662C8.59814 18.0317 9.69706 18.3424 10.2683 18.3547C10.7865 18.3659 11.3649 18.1523 12.0035 17.7138C16.3615 14.772 18.6111 13.2851 18.7524 13.253C18.852 13.2304 18.9901 13.202 19.0836 13.2851C19.1772 13.3683 19.168 13.5258 19.1581 13.568C19.0977 13.8255 16.7041 16.0508 15.4655 17.2024C15.0793 17.5614 14.8054 17.816 14.7494 17.8742C14.624 18.0045 14.4961 18.1277 14.3733 18.2461C13.6143 18.9778 13.0452 19.5264 14.4048 20.4224C15.0581 20.853 15.581 21.209 16.1025 21.5642C16.6722 21.9521 17.2403 22.339 17.9754 22.8209C18.1627 22.9437 18.3416 23.0712 18.5158 23.1954C19.1787 23.668 19.7743 24.0926 20.5101 24.0249C20.9376 23.9855 21.3792 23.5835 21.6035 22.3845C22.1336 19.5509 23.1755 13.4113 23.4162 10.8813C23.4373 10.6596 23.4108 10.376 23.3895 10.2514C23.3682 10.1269 23.3236 9.94948 23.1618 9.81814C22.9701 9.66259 22.6741 9.62978 22.5418 9.63212C21.94 9.64272 21.0167 9.96376 16.5733 11.8119Z" fill="black"/>
</svg>
