<svg width="32" height="32" viewBox="0 0 32 32" fill="none" xmlns="http://www.w3.org/2000/svg">
<path fill-rule="evenodd" clip-rule="evenodd" d="M6.89068 18.5167C6.95953 18.5398 7.02903 18.556 7.09846 18.566C7.17418 18.743 7.27201 18.9716 7.38615 19.2391C7.66468 19.8918 8.03999 20.7747 8.42739 21.6956C9.21742 23.5738 10.0143 25.5098 10.1903 26.064C10.4082 26.7491 10.6385 27.2148 10.8899 27.5329C11.0199 27.6973 11.1703 27.8408 11.3462 27.9496C11.4348 28.0043 11.5283 28.0492 11.626 28.0826C11.6303 28.0842 11.6346 28.0856 11.6389 28.087C12.1423 28.2758 12.6012 28.1972 12.8886 28.101C13.0423 28.0495 13.1667 27.9874 13.2549 27.9371C13.2998 27.9113 13.3378 27.8874 13.3681 27.8671L13.3752 27.8624L17.8209 25.1077L22.9561 29.0194C23.0318 29.0771 23.1145 29.1256 23.202 29.1635C23.8189 29.431 24.4163 29.5243 24.9782 29.448C25.5393 29.3719 25.9846 29.1378 26.3162 28.8741C26.6409 28.616 26.8611 28.3269 26.9981 28.1121C27.0681 28.0024 27.1207 27.9054 27.1578 27.8311C27.1764 27.7938 27.1913 27.7616 27.2029 27.7358L27.2177 27.7017L27.2234 27.6883L27.2257 27.6826L27.2267 27.68L27.2278 27.6775C27.2547 27.6104 27.2755 27.541 27.2896 27.4702L31.9775 3.98604C31.9925 3.91094 32 3.83454 32 3.75797C32 3.07025 31.7392 2.41631 31.126 2.01949C30.6019 1.68033 30.018 1.66573 29.6491 1.69355C29.251 1.72357 28.8834 1.82121 28.6367 1.89922C28.5084 1.93983 28.4006 1.97899 28.3231 2.00888C28.2841 2.0239 28.2521 2.03679 28.2282 2.04662L28.2105 2.05409L1.9195 12.3017L1.9161 12.303C1.89935 12.309 1.87783 12.317 1.85227 12.3269C1.80137 12.3466 1.73314 12.3742 1.65347 12.4102C1.49809 12.4802 1.2801 12.5894 1.0564 12.7417C0.69903 12.9849 -0.122854 13.6509 0.0155399 14.7501C0.12595 15.6271 0.730585 16.1657 1.09897 16.4246C1.30124 16.5669 1.49342 16.6685 1.63337 16.7347C1.69829 16.7654 1.83309 16.8198 1.89158 16.8435L1.90635 16.8494L6.89068 18.5167ZM29.1305 4.21285L29.1269 4.21445C29.1137 4.22011 29.1006 4.22551 29.0873 4.2307L2.76444 14.4908C2.7507 14.4961 2.73685 14.5013 2.72292 14.5061L2.70827 14.5116C2.69142 14.5181 2.66308 14.5295 2.6275 14.5455C2.60732 14.5546 2.58625 14.5646 2.56478 14.5752C2.59428 14.5918 2.62251 14.606 2.6476 14.6179C2.67168 14.6293 2.69006 14.6371 2.70011 14.6411L7.64351 16.2948C7.73399 16.3251 7.81833 16.3651 7.89576 16.4135L24.2186 6.91931L24.2339 6.91034C24.2457 6.90335 24.2614 6.89438 24.2801 6.88386C24.3172 6.86299 24.3682 6.83522 24.4289 6.80451C24.5422 6.74723 24.7236 6.66218 24.9277 6.59948C25.0698 6.55582 25.489 6.43284 25.9422 6.57727C26.2219 6.6664 26.5114 6.85804 26.6999 7.18267C26.7933 7.34395 26.8432 7.50596 26.8674 7.65427C26.9316 7.8879 26.9214 8.11861 26.8712 8.31778C26.763 8.74683 26.4597 9.08149 26.1836 9.33747C25.947 9.55693 22.8869 12.4888 19.8681 15.3831C18.3626 16.8263 16.8726 18.2555 15.7588 19.3236L15.0273 20.0254L24.2639 27.0615C24.4758 27.1369 24.601 27.1331 24.6589 27.1251C24.728 27.1158 24.7844 27.0893 24.8422 27.0435C24.9067 26.9923 24.9631 26.9229 25.0053 26.8568L25.007 26.8541L29.5538 4.07713C29.4863 4.09324 29.4181 4.11243 29.3523 4.13322C29.2779 4.15678 29.2164 4.17922 29.1758 4.1949C29.1555 4.20266 29.1411 4.20856 29.1332 4.21181L29.1305 4.21285ZM15.8208 23.5841L13.978 22.1802L13.5316 25.0025L15.8208 23.5841ZM12.2876 19.3947L14.12 17.6369C15.2339 16.5686 16.7242 15.1394 18.2298 13.6959L19.7596 12.2295L9.50344 18.195L9.55846 18.3239C9.83799 18.979 10.215 19.8656 10.6044 20.7915C10.8956 21.4838 11.2002 22.2127 11.4775 22.8876L11.9227 20.0737C11.9656 19.8023 12.099 19.5676 12.2876 19.3947Z" fill="black"/>
<path d="M29.1305 4.21285L29.1269 4.21445C29.1137 4.22011 29.1006 4.22551 29.0873 4.2307L2.76444 14.4908C2.7507 14.4961 2.73685 14.5013 2.72292 14.5061L2.70827 14.5116C2.69142 14.5181 2.66308 14.5295 2.6275 14.5455C2.60732 14.5546 2.58625 14.5646 2.56478 14.5752C2.59428 14.5918 2.62251 14.606 2.6476 14.6179C2.67168 14.6293 2.69006 14.6371 2.70011 14.6411L7.64351 16.2948C7.73399 16.3251 7.81833 16.3651 7.89576 16.4135L24.2186 6.91931L24.2339 6.91034C24.2457 6.90335 24.2614 6.89438 24.2801 6.88386C24.3172 6.86299 24.3682 6.83522 24.4289 6.80451C24.5422 6.74723 24.7236 6.66218 24.9277 6.59948C25.0698 6.55582 25.489 6.43284 25.9422 6.57727C26.2219 6.6664 26.5114 6.85804 26.6999 7.18267C26.7933 7.34395 26.8432 7.50596 26.8674 7.65427C26.9316 7.8879 26.9214 8.11861 26.8712 8.31778C26.763 8.74683 26.4597 9.08149 26.1836 9.33747C25.947 9.55693 22.8869 12.4888 19.8681 15.3831C18.3626 16.8263 16.8726 18.2555 15.7588 19.3236L15.0273 20.0254L24.2639 27.0615C24.4758 27.1369 24.601 27.1331 24.6589 27.1251C24.728 27.1158 24.7844 27.0893 24.8422 27.0435C24.9067 26.9923 24.9631 26.9229 25.0053 26.8568L25.007 26.8541L29.5538 4.07713C29.4863 4.09324 29.4181 4.11243 29.3523 4.13322C29.2779 4.15678 29.2164 4.17922 29.1758 4.1949C29.1555 4.20266 29.1411 4.20856 29.1332 4.21181L29.1305 4.21285Z" fill="white"/>
<path d="M12.2876 19.3947L14.12 17.6369C15.2339 16.5686 16.7242 15.1394 18.2298 13.6959L19.7596 12.2295L9.50344 18.195L9.55846 18.3239C9.83799 18.979 10.215 19.8656 10.6044 20.7915C10.8956 21.4838 11.2002 22.2127 11.4775 22.8876L11.9227 20.0737C11.9656 19.8023 12.099 19.5676 12.2876 19.3947Z" fill="white"/>
<path d="M15.8208 23.5841L13.978 22.1802L13.5316 25.0025L15.8208 23.5841Z" fill="white"/>
</svg>
