<svg width="21" height="21" viewBox="0 0 21 21" fill="none" xmlns="http://www.w3.org/2000/svg">
<mask id="mask0_90_832" style="mask-type:luminance" maskUnits="userSpaceOnUse" x="0" y="0" width="21" height="21">
<path d="M20.8961 0H0.104004V20.7921H20.8961V0Z" fill="white"/>
</mask>
<g mask="url(#mask0_90_832)">
<path fill-rule="evenodd" clip-rule="evenodd" d="M1.56557 1.46157C0.104004 2.92314 0.104004 5.27549 0.104004 9.9802V10.8119C0.104004 15.5166 0.104004 17.8689 1.56557 19.3305C3.02714 20.7921 5.3795 20.7921 10.0842 20.7921H10.9159C15.6206 20.7921 17.9729 20.7921 19.4345 19.3305C20.8961 17.8689 20.8961 15.5166 20.8961 10.8119V9.9802C20.8961 5.27549 20.8961 2.92314 19.4345 1.46157C17.9729 0 15.6206 0 10.9159 0H10.0842C5.3795 0 3.02714 0 1.56557 1.46157ZM3.61271 6.32431C3.72532 11.7302 6.42827 14.979 11.1671 14.979H11.4358V11.8862C13.1771 12.0594 14.4938 13.333 15.0223 14.979H17.4828C16.807 12.5186 15.0309 11.1584 13.922 10.6386C15.0309 9.99756 16.5904 8.43815 16.9629 6.32431H14.7277C14.2425 8.03965 12.8046 9.59904 11.4358 9.74631V6.32431H9.20052V12.3193C7.81439 11.9728 6.06443 10.2921 5.98646 6.32431H3.61271Z" fill="black"/>
</g>
</svg>
