<svg width="32" height="32" viewBox="0 0 32 32" fill="none" xmlns="http://www.w3.org/2000/svg">
<path fill-rule="evenodd" clip-rule="evenodd" d="M16.0009 0C7.16505 0 0 7.16316 0 16.0009C0 22.5507 3.94003 28.1804 9.57912 30.6547C9.53396 29.5389 9.57159 28.1954 9.85571 26.9799C10.1643 25.6817 11.9141 18.2626 11.9141 18.2626C11.9141 18.2626 11.4042 17.2409 11.4042 15.73C11.4042 13.3592 12.7797 11.5886 14.49 11.5886C15.9445 11.5886 16.6482 12.6818 16.6482 13.9914C16.6482 15.4534 15.715 17.6417 15.2351 19.6681C14.8344 21.3672 16.0856 22.7502 17.7602 22.7502C20.7914 22.7502 22.8329 18.8572 22.8329 14.2436C22.8329 10.7382 20.4716 8.11336 16.1759 8.11336C11.3233 8.11336 8.29964 11.7316 8.29964 15.7733C8.29964 17.1694 8.70983 18.1516 9.35333 18.9117C9.65062 19.2636 9.69014 19.4028 9.58289 19.8055C9.50762 20.0971 9.33075 20.8084 9.25737 21.0887C9.15012 21.4933 8.82273 21.64 8.4577 21.4895C6.22051 20.5769 5.17999 18.129 5.17999 15.3763C5.17999 10.8323 9.01276 5.37944 16.6143 5.37944C22.7238 5.37944 26.7448 9.80303 26.7448 14.5465C26.7448 20.8234 23.2563 25.5123 18.1102 25.5123C16.3848 25.5123 14.7591 24.5791 14.2021 23.5197C14.2021 23.5197 13.2726 27.2057 13.077 27.917C12.7383 29.1494 12.0741 30.3837 11.4663 31.3433C12.9057 31.7686 14.4261 32 16.0009 32C24.8368 32 32 24.8368 32 16.0009C32 7.16316 24.8368 0 16.0009 0Z" fill="#DB4443"/>
<path d="M9.85571 26.9799C9.57159 28.1954 9.53396 29.5389 9.57912 30.6547L11.4663 31.3433C12.0741 30.3837 12.7383 29.1494 13.077 27.917C13.2726 27.2057 14.2021 23.5197 14.2021 23.5197C14.7591 24.5791 16.3848 25.5123 18.1102 25.5123C23.2563 25.5123 26.7448 20.8234 26.7448 14.5465C26.7448 9.80303 22.7238 5.37944 16.6143 5.37944C9.01276 5.37944 5.17999 10.8323 5.17999 15.3763C5.17999 18.129 6.22051 20.5769 8.4577 21.4895C8.82273 21.64 9.15012 21.4933 9.25737 21.0887C9.33075 20.8084 9.50762 20.0971 9.58289 19.8055C9.69014 19.4028 9.65062 19.2636 9.35333 18.9117C8.70983 18.1516 8.29964 17.1694 8.29964 15.7733C8.29964 11.7316 11.3233 8.11336 16.1759 8.11336C20.4716 8.11336 22.8329 10.7382 22.8329 14.2436C22.8329 18.8572 20.7914 22.7502 17.7602 22.7502C16.0856 22.7502 14.8344 21.3672 15.2351 19.6681C15.715 17.6417 16.6482 15.4534 16.6482 13.9914C16.6482 12.6818 15.9445 11.5886 14.49 11.5886C12.7797 11.5886 11.4042 13.3592 11.4042 15.73C11.4042 17.2409 11.9141 18.2626 11.9141 18.2626C11.9141 18.2626 10.1643 25.6817 9.85571 26.9799Z" fill="white"/>
</svg>
