<svg width="32" height="32" viewBox="0 0 32 32" fill="none" xmlns="http://www.w3.org/2000/svg">
<mask id="mask0_125_2646" style="mask-type:luminance" maskUnits="userSpaceOnUse" x="0" y="0" width="32" height="32">
<path d="M31.8416 0H0.158447V32H31.8416V0Z" fill="white"/>
</mask>
<g mask="url(#mask0_125_2646)">
<path d="M0.158447 15.36C0.158447 8.11923 0.158447 4.49885 2.3856 2.24942C4.61275 0 8.19729 0 15.3664 0H16.6337C23.8028 0 27.3873 0 29.6145 2.24942C31.8416 4.49885 31.8416 8.11923 31.8416 15.36V16.64C31.8416 23.8808 31.8416 27.5012 29.6145 29.7506C27.3873 32 23.8028 32 16.6337 32H15.3664C8.19729 32 4.61275 32 2.3856 29.7506C0.158447 27.5012 0.158447 23.8808 0.158447 16.64V15.36Z" fill="#0077FF"/>
<path d="M17.0167 23.0535C9.79553 23.0535 5.67675 18.0535 5.50513 9.73346H9.1223C9.24111 15.8401 11.9077 18.4268 14.0199 18.9601V9.73346H17.426V15.0001C19.5118 14.7734 21.7029 12.3735 22.4422 9.73346H25.8483C25.2806 12.9868 22.9044 15.3868 21.2146 16.3734C22.9044 17.1734 25.6108 19.2668 26.6405 23.0535H22.8912C22.0859 20.5201 20.0794 18.5601 17.426 18.2934V23.0535H17.0167Z" fill="white"/>
</g>
</svg>
