<svg width="41" height="41" viewBox="0 0 41 41" fill="none" xmlns="http://www.w3.org/2000/svg">
<path d="M10.6568 9.92995V15.379L0 11.2776L5.03965 7.68704L10.6568 9.92995Z" fill="#A1B9DE"/>
<path d="M21.3142 32.8978L10.6582 36.9981V15.3773L21.3142 11.277V32.8978Z" fill="white"/>
<path d="M21.3142 32.8978L10.6582 36.9981V26.3107L21.3142 22.2105V32.8978Z" fill="#72C7E8"/>
<path d="M15.6953 3.58914L5.03931 7.68942L10.6581 15.3773L21.3142 11.277L15.6953 3.58914Z" fill="#ABDDF2"/>
<path d="M15.6964 0V3.59052L5.03955 7.68704V4.10136L15.1778 0.199453L15.6964 0Z" fill="white"/>
<path d="M10.6568 15.379V37L1.41993 33.4436L0 32.8986V11.2776L10.6568 15.379Z" fill="white"/>
<path d="M10.6568 26.3111V37L1.41993 33.4436L0 32.8986V22.2097L10.6568 26.3111Z" fill="#4BAEE2"/>
<path d="M13.8425 18.5316L13.1068 20.8378L12.3674 19.096L11.8193 19.3004V23.0563L12.3748 22.8423V20.6578L12.9192 21.8692L13.2944 21.7281L13.8352 20.0982V22.2827L14.3907 22.0736V18.3225L13.8425 18.5316Z" fill="#EF899D"/>
<path d="M15.0527 18.0694V21.8205L15.6045 21.6065V17.8555L15.0527 18.0694Z" fill="#EF899D"/>
<path d="M16.8187 20.4875V17.3932L16.2668 17.6024V21.3535L18.1061 20.6529V19.9961L16.8187 20.4875Z" fill="#EF899D"/>
<path d="M19.526 17.8506L20.4641 15.9969L19.7909 16.2547L18.794 18.2737V16.6391L18.2385 16.8482V20.5993L18.794 20.3901V19.2614L19.1582 18.5413L19.8865 19.9717L20.5339 19.7235L19.526 17.8506Z" fill="#EF899D"/>
<path d="M37.0794 16.6012C36.1857 15.7607 35.2215 15.2583 34.2942 15.2583C31.2473 15.2583 27.7942 20.6292 27.7942 25.876C27.7942 26.4208 27.837 26.9372 27.9036 27.4357C28.4772 31.7347 31.3816 34.2583 34.2942 34.2583C37.5442 34.2583 40.7942 31.1228 40.7942 25.876C40.7942 22.2263 39.1226 18.5213 37.0794 16.6012Z" fill="#F7DECE"/>
<path d="M37.0794 16.6012C38.6546 18.5677 39.8463 21.6407 39.8463 24.6779C39.8463 29.7123 36.7739 32.721 33.7016 32.721C31.2419 32.721 28.786 30.788 27.9031 27.4351C28.4772 31.7347 31.3816 34.2583 34.2942 34.2583C37.5442 34.2583 40.7942 31.1228 40.7942 25.876C40.7942 22.2263 39.1226 18.5213 37.0794 16.6012Z" fill="#E0AA94"/>
<path d="M33.2813 29.3562C33.5688 34.8906 28.5734 39.5625 22.5359 39.5625C16.4984 39.5625 11.1438 34.6031 11.7547 29.1047C12.6172 21.3781 18.3313 20.875 22.5359 20.875C25.0875 20.875 32.6344 18.6469 33.2813 29.3562Z" fill="#EF4D3C"/>
<path d="M14.9531 27.7031C17.1812 24.2531 20.9906 25.2594 21.9969 23.9656C21.9969 26.4453 23.7937 25.2234 24.6922 26.3375C25.8422 27.775 26.2734 30.3266 27.6391 30.8297C26.3094 27.9906 28.4656 28.0984 25.4469 24.2891C27.0641 25.2953 27.8906 24.2891 30.0828 25.1875C28.1781 22.1687 25.1953 23.0312 25.1953 23.0312C25.1953 23.0312 27.0641 21.3062 28.6453 22.2047C26.9922 19.7609 22.2125 22.8516 22.2125 22.8516C22.2125 22.8516 20.2359 19.4734 15.9953 23.0312C18.475 22.025 21.2062 23.0312 21.2062 23.0312C21.2062 23.0312 16.7141 21.9172 14.9531 27.7031Z" fill="#8CC63E"/>
<path d="M14.9531 27.7031C14.9531 27.7031 17.5766 22.8516 22.1047 23.2828C18.1156 21.45 14.9531 25.3312 14.9531 27.7031Z" fill="#64892F"/>
<path d="M15.9954 23.0312C15.9954 23.0312 19.3016 20.5516 22.2125 23.0312C21.35 20.0125 16.9297 21.4141 15.9954 23.0312Z" fill="#64892F"/>
<path d="M22.9312 23.3547C27.3155 25.3672 25.8421 27.6672 27.639 30.9016C26.4171 28.2063 29.4358 23.3547 22.9312 23.3547Z" fill="#64892F"/>
<path d="M21.2063 23.0312C21.2063 23.0312 22.2125 21.5219 22.5719 19.6531C22.6079 19.4016 23.686 19.4375 23.65 19.6891C23.2907 22.0969 24.261 23.4266 24.261 23.4266C24.261 23.4266 23.5063 23.6781 22.5719 23.6781C21.6375 23.7141 21.2063 23.0312 21.2063 23.0312Z" fill="#64892F"/>
<path d="M23.1108 19.8687C23.4086 19.8687 23.6499 19.7722 23.6499 19.6531C23.6499 19.534 23.4086 19.4375 23.1108 19.4375C22.8131 19.4375 22.5718 19.534 22.5718 19.6531C22.5718 19.7722 22.8131 19.8687 23.1108 19.8687Z" fill="#8CC63E"/>
</svg>
