<svg width="38" height="54" viewBox="0 0 38 54" fill="none" xmlns="http://www.w3.org/2000/svg">
<path d="M26.7988 4.29354C24.2321 1.95399 21.4632 0.555542 18.8001 0.555542C10.0501 0.555542 0.133423 15.506 0.133423 30.1111C0.133423 31.6278 0.256312 33.0651 0.447645 34.4527C2.09498 46.4195 10.4359 53.4444 18.8001 53.4444C28.1334 53.4444 37.4668 44.7162 37.4668 30.1111C37.4668 19.9518 32.6663 9.63843 26.7988 4.29354Z" fill="#F7DECE"/>
<path d="M26.7988 4.29354C31.3223 9.76754 34.7445 18.3215 34.7445 26.776C34.7445 40.79 25.9214 49.1651 17.0983 49.1651C10.0345 49.1651 2.98164 43.7844 0.446089 34.4511C2.09498 46.4195 10.4359 53.4444 18.8001 53.4444C28.1334 53.4444 37.4668 44.7162 37.4668 30.1111C37.4668 19.9518 32.6663 9.63843 26.7988 4.29354Z" fill="#E0AA94"/>
</svg>
