<svg width="39" height="60" viewBox="0 0 39 60" fill="none" xmlns="http://www.w3.org/2000/svg">
<path d="M20.2995 0.00936119C17.7401 -0.0718596 15.1914 0.37444 12.812 1.32049C10.4325 2.26654 8.27317 3.69211 6.46829 5.50851C4.59622 7.25292 3.11011 9.36995 2.10561 11.7234C1.1011 14.0768 0.600443 16.6145 0.635866 19.173C0.635866 20.2779 1.07478 21.3376 1.85606 22.1189C2.63734 22.9001 3.69699 23.3391 4.80189 23.3391C5.90678 23.3391 6.96643 22.9001 7.74771 22.1189C8.52899 21.3376 8.96789 20.2779 8.96789 19.173C8.96574 17.7101 9.25993 16.262 9.83273 14.9159C10.4055 13.5698 11.2451 12.3537 12.3007 11.3409C13.324 10.3212 14.5497 9.52736 15.8987 9.0107C17.2478 8.49404 18.6902 8.26603 20.1328 8.3414C22.8231 8.39463 25.3973 9.44734 27.354 11.2945C29.3107 13.1416 30.5098 15.651 30.7178 18.3338C30.9257 21.0166 30.1277 23.6807 28.479 25.8074C26.8304 27.934 24.4492 29.3708 21.7992 29.838C20.063 30.1177 18.4852 31.012 17.3533 32.3579C16.2215 33.7039 15.6111 35.4118 15.6335 37.1702V42.5027C15.6335 43.6076 16.0724 44.6673 16.8537 45.4485C17.635 46.2298 18.6946 46.6688 19.7995 46.6688C20.9044 46.6688 21.9641 46.2298 22.7454 45.4485C23.5266 44.6673 23.9656 43.6076 23.9656 42.5027V37.8368C28.2828 36.8445 32.1282 34.3996 34.8583 30.9111C37.5885 27.4226 39.0376 23.1023 38.9632 18.6731C38.7586 13.7888 36.7265 9.15957 33.2698 5.7028C29.813 2.24604 25.1838 0.213991 20.2995 0.00936119Z" fill="#F7B779"/>
<path d="M23.9645 55.8339C23.9645 58.1348 22.0993 60 19.7985 60C17.4976 60 15.6324 58.1348 15.6324 55.8339C15.6324 53.5331 17.4976 51.6679 19.7985 51.6679C22.0993 51.6679 23.9645 53.5331 23.9645 55.8339Z" fill="#F7B779"/>
</svg>
