<svg width="87" height="149" viewBox="0 0 87 149" fill="none" xmlns="http://www.w3.org/2000/svg">
<path d="M35.2584 115.732C31.3409 111.814 26.6456 109.258 22.1268 108.384C17.6253 107.512 13.0072 108.284 9.80253 111.489C6.59786 114.694 5.82606 119.312 6.69732 123.813C7.57191 128.332 10.1277 133.027 14.0452 136.945C17.9627 140.862 22.658 143.418 27.1767 144.293C31.6782 145.164 36.2963 144.392 39.501 141.187C42.7057 137.983 43.4775 133.365 42.6062 128.863C41.7316 124.344 39.1759 119.649 35.2584 115.732Z" fill="#644D3A" stroke="black" stroke-width="5"/>
<path d="M62.5628 64.7916C58.7636 66.985 55.826 70.0633 54.2109 73.3815C52.6034 76.684 52.2058 80.4998 54.0822 83.7499C55.9586 86.9999 59.462 88.5635 63.1258 88.8226C66.807 89.083 70.9417 88.0781 74.7408 85.8846C78.54 83.6912 81.4776 80.6129 83.0927 77.2947C84.7002 73.9922 85.0978 70.1764 83.2214 66.9263C81.345 63.6763 77.8416 62.1128 74.1778 61.8536C70.4966 61.5932 66.3619 62.5982 62.5628 64.7916Z" fill="#644D3A" stroke="black" stroke-width="5"/>
<path d="M37.1382 30.7553C38.7908 24.5876 38.6309 18.4445 36.9109 13.462C35.1965 8.49614 31.8084 4.41794 26.8791 3.09716C21.9499 1.77637 16.9766 3.61411 13.0089 7.05752C9.02809 10.5124 5.8181 15.7526 4.16546 21.9203C2.51282 28.0881 2.67267 34.2312 4.39274 39.2137C6.10709 44.1795 9.49525 48.2577 14.4245 49.5785C19.3537 50.8993 24.3271 49.0616 28.2947 45.6182C32.2755 42.1632 35.4855 36.9231 37.1382 30.7553Z" fill="#8B6B54" stroke="black" stroke-width="5"/>
</svg>
