<svg width="889" height="889" viewBox="0 0 889 889" fill="none" xmlns="http://www.w3.org/2000/svg">
<path d="M857.624 444.5C857.624 672.662 672.662 857.624 444.5 857.624C216.338 857.624 31.3765 672.662 31.3765 444.5C31.3765 216.338 216.338 31.3765 444.5 31.3765C672.662 31.3765 857.624 216.338 857.624 444.5ZM123.68 444.5C123.68 621.684 267.316 765.32 444.5 765.32C621.684 765.32 765.32 621.684 765.32 444.5C765.32 267.316 621.684 123.68 444.5 123.68C267.316 123.68 123.68 267.316 123.68 444.5Z" fill="#FF6766"/>
<path d="M889 444.5C889 689.991 689.991 889 444.5 889C199.009 889 0 689.991 0 444.5C0 199.009 199.009 0 444.5 0C689.991 0 889 199.009 889 444.5ZM13.3616 444.5C13.3616 682.611 206.389 875.638 444.5 875.638C682.611 875.638 875.638 682.611 875.638 444.5C875.638 206.389 682.611 13.3616 444.5 13.3616C206.389 13.3616 13.3616 206.389 13.3616 444.5Z" fill="#FF6766"/>
</svg>
