<svg width="1440" height="43" viewBox="0 0 1440 43" fill="none" xmlns="http://www.w3.org/2000/svg">
<g clip-path="url(#clip0_205_9211)">
<path d="M0.609208 41.3707C0.14521 41.5769 -0.391617 41.5344 -0.81737 41.2577C-1.24312 40.9811 -1.5 40.5078 -1.5 40V0C-1.5 -0.828426 -0.828427 -1.5 0 -1.5H1440C1440.83 -1.5 1441.5 -0.828426 1441.5 0V40C1441.5 40.5078 1441.24 40.9811 1440.82 41.2577C1440.39 41.5344 1439.85 41.5769 1439.39 41.3707L1381.88 15.8112C1361.58 6.79014 1338.42 6.79015 1318.12 15.8112L1293.1 26.9302C1272.03 36.296 1247.97 36.296 1226.9 26.9302L1201.88 15.8112C1181.58 6.79014 1158.42 6.79015 1138.12 15.8112L1113.1 26.9302C1092.03 36.296 1067.97 36.296 1046.9 26.9302L1021.88 15.8112C1001.58 6.79014 978.415 6.79015 958.118 15.8112L933.1 26.9302C912.027 36.296 887.973 36.296 866.9 26.9302L841.882 15.8112C821.584 6.79014 798.415 6.79015 778.118 15.8112L753.1 26.9302C732.027 36.296 707.973 36.296 686.9 26.9302L661.882 15.8112C641.584 6.79014 618.415 6.79015 598.118 15.8112L573.1 26.9302C552.027 36.296 527.973 36.296 506.9 26.9302L481.882 15.8112C461.585 6.79014 438.415 6.79015 418.118 15.8112L393.1 26.9302C372.027 36.296 347.973 36.296 326.9 26.9302L301.882 15.8112C281.585 6.79014 258.415 6.79015 238.118 15.8112L213.1 26.9302C192.027 36.296 167.973 36.296 146.9 26.9302L121.882 15.8112C101.584 6.79014 78.4155 6.79015 58.1181 15.8112L0.609208 41.3707Z" fill="#DDE5B6" stroke="black" stroke-width="3" stroke-linejoin="round"/>
</g>
<defs>
<clipPath id="clip0_205_9211">
<rect width="1440" height="43" fill="white"/>
</clipPath>
</defs>
</svg>
