<svg width="31" height="30" viewBox="0 0 31 30" fill="none" xmlns="http://www.w3.org/2000/svg">
<g clip-path="url(#clip0_98_924)">
<path d="M11.614 13.9535C11.036 13.9535 10.5675 14.422 10.5675 15C10.5675 15.578 11.036 16.0465 11.614 16.0465H19.9861C20.564 16.0465 21.0326 15.578 21.0326 15C21.0326 14.422 20.564 13.9535 19.9861 13.9535H11.614Z" fill="black"/>
<path fill-rule="evenodd" clip-rule="evenodd" d="M15.8 0C7.51578 0 0.800049 6.71573 0.800049 15C0.800049 23.2843 7.51578 30 15.8 30C24.0844 30 30.8 23.2843 30.8 15C30.8 6.71573 24.0844 0 15.8 0ZM2.89307 15C2.89307 7.87168 8.67173 2.09302 15.8 2.09302C22.9283 2.09302 28.707 7.87168 28.707 15C28.707 22.1283 22.9283 27.907 15.8 27.907C8.67173 27.907 2.89307 22.1283 2.89307 15Z" fill="black"/>
</g>
<defs>
<clipPath id="clip0_98_924">
<rect width="30" height="30" fill="white" transform="translate(0.800049)"/>
</clipPath>
</defs>
</svg>
