<svg width="31" height="30" viewBox="0 0 31 30" fill="none" xmlns="http://www.w3.org/2000/svg">
<g clip-path="url(#clip0_62_163)">
<path d="M16.8466 10.814C16.8466 10.236 16.378 9.76744 15.8 9.76744C15.2221 9.76744 14.7535 10.236 14.7535 10.814V13.9535H11.614C11.036 13.9535 10.5675 14.422 10.5675 15C10.5675 15.578 11.036 16.0465 11.614 16.0465H14.7535V19.186C14.7535 19.764 15.2221 20.2326 15.8 20.2326C16.378 20.2326 16.8466 19.764 16.8466 19.186V16.0465H19.9861C20.564 16.0465 21.0326 15.578 21.0326 15C21.0326 14.422 20.564 13.9535 19.9861 13.9535H16.8466V10.814Z" fill="black"/>
<path fill-rule="evenodd" clip-rule="evenodd" d="M15.8 0C7.51578 0 0.800049 6.71573 0.800049 15C0.800049 23.2843 7.51578 30 15.8 30C24.0844 30 30.8 23.2843 30.8 15C30.8 6.71573 24.0844 0 15.8 0ZM2.89307 15C2.89307 7.87168 8.67173 2.09302 15.8 2.09302C22.9283 2.09302 28.707 7.87168 28.707 15C28.707 22.1283 22.9283 27.907 15.8 27.907C8.67173 27.907 2.89307 22.1283 2.89307 15Z" fill="black"/>
<path fill-rule="evenodd" clip-rule="evenodd" d="M2.89307 15C2.89307 7.87168 8.67173 2.09302 15.8 2.09302C22.9283 2.09302 28.707 7.87168 28.707 15C28.707 22.1283 22.9283 27.907 15.8 27.907C8.67173 27.907 2.89307 22.1283 2.89307 15ZM15.8 9.76744C16.378 9.76744 16.8466 10.236 16.8466 10.814V13.9535H19.9861C20.564 13.9535 21.0326 14.422 21.0326 15C21.0326 15.578 20.564 16.0465 19.9861 16.0465H16.8466V19.186C16.8466 19.764 16.378 20.2326 15.8 20.2326C15.2221 20.2326 14.7535 19.764 14.7535 19.186V16.0465H11.614C11.036 16.0465 10.5675 15.578 10.5675 15C10.5675 14.422 11.036 13.9535 11.614 13.9535H14.7535V10.814C14.7535 10.236 15.2221 9.76744 15.8 9.76744Z" fill="#F7B779"/>
</g>
<defs>
<clipPath id="clip0_62_163">
<rect width="30" height="30" fill="white" transform="translate(0.800049)"/>
</clipPath>
</defs>
</svg>
