<svg width="71" height="37" viewBox="0 0 71 37" fill="none" xmlns="http://www.w3.org/2000/svg">
<path fill-rule="evenodd" clip-rule="evenodd" d="M0 6.9012C0 6.29265 0.49333 5.79932 1.10188 5.79932H2.18927V6.9012H2.20377V8.06108H0V6.9012ZM4.36404 5.79932H6.53881V8.00308H4.36404V5.79932ZM8.71358 5.79932H10.8883V8.00308H8.71358V5.79932ZM13.0631 5.79932H15.2379V8.00308H13.0631V5.79932ZM17.4127 5.79932H19.5874V8.00308H17.4127V5.79932ZM21.7622 5.79932H23.937V8.00308H21.7622V5.79932ZM26.1117 5.79932H28.2865V8.00308H26.1117V5.79932ZM30.4613 5.79932H32.636V8.00308H30.4613V5.79932ZM34.8108 5.79932H35.8982C36.5068 5.79932 37.0001 6.29265 37.0001 6.9012V8.06108H34.7963V6.9012H34.8108V5.79932ZM37.0001 10.3808V12.7006H34.7963V10.3808H37.0001ZM0 12.7006V10.3808H2.20377V12.7006H0ZM0 17.3401V15.0203H2.20377V17.3401H0ZM37.0001 15.0203V17.3401H34.7963V15.0203H37.0001ZM0 21.9796V19.6598H2.20377V21.9796H0ZM37.0001 19.6598V21.9796H34.7963V19.6598H37.0001ZM0 26.6191V24.2994H2.20377V26.6191H0ZM37.0001 24.2994V26.6191H34.7963V24.2994H37.0001ZM0 30.0987V28.9389H2.20377V30.0987H2.18927V31.2006H1.10188C0.49333 31.2006 0 30.7073 0 30.0987ZM37.0001 28.9389V30.0987C37.0001 30.7073 36.5068 31.2006 35.8982 31.2006H34.8108V30.0987H34.7963V28.9389H37.0001ZM6.53881 31.2006H4.36404V28.9969H6.53881V31.2006ZM10.8883 31.2006H8.71358V28.9969H10.8883V31.2006ZM15.2379 31.2006H13.0631V28.9969H15.2379V31.2006ZM19.5874 31.2006H17.4127V28.9969H19.5874V31.2006ZM23.937 31.2006H21.7622V28.9969H23.937V31.2006ZM28.2865 31.2006H26.1117V28.9969H28.2865V31.2006ZM32.636 31.2006H30.4613V28.9969H32.636V31.2006Z" fill="#95CF00"/>
<path d="M9.41319 18.124C9.00232 17.7139 9.00232 17.0445 9.41319 16.6344C9.81817 16.2302 10.4704 16.2302 10.8754 16.6344L16.565 22.3133L26.1247 12.7718C26.5297 12.3676 27.1819 12.3676 27.5869 12.7718C27.9978 13.1819 27.9978 13.8512 27.5869 14.2613L17.6191 24.2102C17.0352 24.793 16.0949 24.793 15.511 24.2102L9.41319 18.124Z" fill="#95CF00"/>
<path fill-rule="evenodd" clip-rule="evenodd" d="M69.2994 1.014e-06C69.908 1.0406e-06 70.4013 0.493331 70.4013 1.10188V2.18927H69.2994V2.20377H68.1396V9.63297e-07L69.2994 1.014e-06ZM70.4013 4.36404V6.53881H68.1975V4.36404H70.4013ZM70.4013 8.71358V10.8883H68.1975V8.71358H70.4013ZM70.4013 13.0631V15.2379H68.1975V13.0631H70.4013ZM70.4013 17.4127V19.5874H68.1975V17.4127H70.4013ZM70.4013 21.7622V23.937H68.1975V21.7622H70.4013ZM70.4013 26.1117V28.2865H68.1975V26.1117H70.4013ZM70.4013 30.4613V32.636H68.1975V30.4613H70.4013ZM70.4013 34.8108V35.8982C70.4013 36.5068 69.908 37.0001 69.2994 37.0001H68.1396V34.7963H69.2994V34.8108H70.4013ZM65.8198 37.0001H63.5V34.7963H65.8198V37.0001ZM63.5 7.60498e-07L65.8198 8.61897e-07V2.20377L63.5 2.20377V7.60498e-07ZM58.8605 5.57698e-07L61.1803 6.59098e-07V2.20377H58.8605V5.57698e-07ZM61.1803 37.0001H58.8605V34.7963H61.1803L61.1803 37.0001ZM54.221 3.54899e-07L56.5408 4.56299e-07V2.20377H54.221V3.54899e-07ZM56.5408 37.0001H54.221V34.7963H56.5408V37.0001ZM49.5815 1.52099e-07L51.9013 2.53499e-07L51.9013 2.20377H49.5815L49.5815 1.52099e-07ZM51.9013 37.0001H49.5815V34.7963H51.9013V37.0001ZM46.1019 0L47.2618 5.06998e-08V2.20377H46.1019V2.18927H45L45 1.10188C45 0.49333 45.4933 -2.66007e-08 46.1019 0ZM47.2618 37.0001H46.1019C45.4933 37.0001 45 36.5068 45 35.8982L45 34.8108H46.1019V34.7963H47.2618V37.0001ZM45 6.53881L45 4.36404H47.2038V6.53881H45ZM45 10.8883L45 8.71358H47.2038V10.8883H45ZM45 15.2379L45 13.0631H47.2038V15.2379H45ZM45 19.5874L45 17.4127H47.2038L47.2038 19.5874H45ZM45 23.937L45 21.7622H47.2038L47.2038 23.937H45ZM45 28.2865L45 26.1117H47.2038V28.2865H45ZM45 32.636L45 30.4613H47.2038V32.636H45Z" fill="#FF6766"/>
<path d="M58.9969 18.5L63.0259 14.471C63.4159 14.0811 63.4159 13.4488 63.0259 13.0588C62.636 12.6688 62.0037 12.6688 61.6137 13.0588L57.5847 17.0878L53.5557 13.0588C53.1657 12.6688 52.5334 12.6688 52.1435 13.0588C51.7535 13.4488 51.7535 14.0811 52.1435 14.471L56.1725 18.5L52.1435 22.529C51.7535 22.919 51.7535 23.5513 52.1435 23.9413C52.5334 24.3313 53.1657 24.3313 53.5557 23.9413L57.5847 19.9123L61.6137 23.9413C62.0037 24.3313 62.636 24.3313 63.0259 23.9413C63.4159 23.5513 63.4159 22.919 63.0259 22.529L58.9969 18.5Z" fill="#FF6766"/>
</svg>
