<svg width="45" height="44" viewBox="0 0 45 44" fill="none" xmlns="http://www.w3.org/2000/svg">
<path d="M27.8541 22L42.273 7.58108C43.6687 6.18544 43.6687 3.92267 42.273 2.52703C40.8774 1.13139 38.6146 1.13139 37.219 2.52702L22.8 16.9459L8.38113 2.52703C6.9855 1.13139 4.72272 1.13139 3.32708 2.52703C1.93144 3.92267 1.93145 6.18545 3.32708 7.58109L17.746 22L3.32707 36.4189C1.93144 37.8146 1.93144 40.0773 3.32707 41.473C4.72271 42.8686 6.98549 42.8686 8.38113 41.473L22.8 27.0541L37.219 41.473C38.6146 42.8686 40.8774 42.8686 42.273 41.473C43.6687 40.0773 43.6687 37.8146 42.273 36.4189L27.8541 22Z" fill="white"/>
</svg>
