<svg width="39" height="26" viewBox="0 0 39 26" fill="none" xmlns="http://www.w3.org/2000/svg">
<path d="M21.8857 8.36914V17.5635C21.8857 17.723 21.4141 17.8027 20.4707 17.8027C19.5182 17.8027 19.042 17.723 19.042 17.5635V10.666L17.5312 10.6797C17.2533 10.6797 17.1143 10.2308 17.1143 9.33301C17.1143 9.00944 17.1462 8.71094 17.21 8.4375C17.2646 8.14583 17.3672 8 17.5176 8H21.3525C21.512 8 21.6396 8.03418 21.7354 8.10254C21.8356 8.1709 21.8857 8.25977 21.8857 8.36914Z" fill="#95CF00"/>
<path d="M0 24V22.167H2V26L1.7959 25.9893C0.854346 25.8938 0.1062 25.1457 0.0107422 24.2041L0 24ZM4.1875 24V26H2V24H4.1875ZM12.9375 24V26H8.5625V24H12.9375ZM21.6875 24V26H17.3125V24H21.6875ZM30.4375 24V26H26.0625V24H30.4375ZM37 24V26H34.8125V24H37ZM38.9893 24.2041C38.8938 25.1457 38.1457 25.8938 37.2041 25.9893L37 26V22.167H39V24L38.9893 24.2041ZM2 14.833V18.5H0V14.833H2ZM39 14.833V18.5H37V14.833H39ZM2 7.5V11.167H0V7.5H2ZM39 7.5V11.167H37V7.5H39ZM0 2C0 0.964349 0.787223 0.113005 1.7959 0.0107422L2 0H4.1875V2H2V3.83301H0V2ZM39 3.83301H37V2H34.8125V0H37L37.2041 0.0107422C38.2128 0.113005 39 0.96435 39 2V3.83301ZM12.9375 0V2H8.5625V0H12.9375ZM21.6875 0V2H17.3125V0H21.6875ZM30.4375 0V2H26.0625V0H30.4375Z" fill="#95CF00"/>
</svg>
