<svg width="39" height="26" viewBox="0 0 39 26" fill="none" xmlns="http://www.w3.org/2000/svg">
<path d="M21.4653 17.9531H16.8169C16.4797 17.9531 16.2495 17.6364 16.1265 17.0029C16.008 16.3558 16.0034 15.9775 16.1128 15.8682C18.2046 13.708 19.2505 12.2428 19.2505 11.4727C19.2505 10.9486 18.9702 10.6865 18.4097 10.6865C18.1317 10.6865 17.8423 10.7412 17.5415 10.8506C17.2453 10.9554 17.0083 11.0785 16.8306 11.2197C16.4569 10.7777 16.2039 10.3151 16.0718 9.83203C15.9761 9.51758 15.9761 9.24186 16.0718 9.00488C16.1401 8.76335 16.491 8.53548 17.1245 8.32129C17.7443 8.1071 18.3983 8 19.0864 8C21.1737 8 22.2173 8.92741 22.2173 10.7822C22.2173 11.6071 21.937 12.4388 21.3765 13.2773C20.8159 14.1296 20.1642 14.8633 19.4214 15.4785L22.2446 15.3623C22.3039 15.8363 22.3267 16.2669 22.313 16.6543C22.2993 17.0371 22.2264 17.3447 22.0942 17.5771C21.9393 17.8278 21.7297 17.9531 21.4653 17.9531Z" fill="#95CF00"/>
<path d="M0 24V22.167H2V26L1.7959 25.9893C0.854346 25.8938 0.1062 25.1457 0.0107422 24.2041L0 24ZM4.1875 24V26H2V24H4.1875ZM12.9375 24V26H8.5625V24H12.9375ZM21.6875 24V26H17.3125V24H21.6875ZM30.4375 24V26H26.0625V24H30.4375ZM37 24V26H34.8125V24H37ZM38.9893 24.2041C38.8938 25.1457 38.1457 25.8938 37.2041 25.9893L37 26V22.167H39V24L38.9893 24.2041ZM2 14.833V18.5H0V14.833H2ZM39 14.833V18.5H37V14.833H39ZM2 7.5V11.167H0V7.5H2ZM39 7.5V11.167H37V7.5H39ZM0 2C0 0.964349 0.787223 0.113005 1.7959 0.0107422L2 0H4.1875V2H2V3.83301H0V2ZM39 3.83301H37V2H34.8125V0H37L37.2041 0.0107422C38.2128 0.113005 39 0.96435 39 2V3.83301ZM12.9375 0V2H8.5625V0H12.9375ZM21.6875 0V2H17.3125V0H21.6875ZM30.4375 0V2H26.0625V0H30.4375Z" fill="#95CF00"/>
</svg>
