<svg width="39" height="26" viewBox="0 0 39 26" fill="none" xmlns="http://www.w3.org/2000/svg">
<path d="M16 17.0166C16 16.7796 16.0592 16.4971 16.1777 16.1689C16.3008 15.8408 16.4329 15.5583 16.5742 15.3213C16.6973 15.1253 16.7679 15.0273 16.7861 15.0273C17.3467 15.3555 17.9163 15.5195 18.4951 15.5195C18.8734 15.5195 19.1742 15.4443 19.3975 15.2939C19.6253 15.139 19.7393 14.9294 19.7393 14.665C19.7393 14.4144 19.6436 14.2503 19.4521 14.1729C19.2653 14.0954 18.9212 14.0407 18.4199 14.0088H17.9209C17.807 14.0088 17.7021 13.8675 17.6064 13.585C17.5062 13.307 17.4561 13.0404 17.4561 12.7852C17.4561 12.3522 17.5859 12.1289 17.8457 12.1152L18.2559 12.1016C18.5156 12.1016 18.7799 12.0264 19.0488 11.876C19.3223 11.7347 19.459 11.5524 19.459 11.3291C19.459 10.9372 19.1081 10.7412 18.4062 10.7412C17.8776 10.7412 17.374 10.8438 16.8955 11.0488C16.6768 10.6523 16.515 10.3174 16.4102 10.0439C16.3099 9.76595 16.262 9.51302 16.2666 9.28516C16.2757 9.05729 16.3532 8.86816 16.499 8.71777C16.6449 8.56283 16.8659 8.43066 17.1621 8.32129C17.7546 8.1071 18.4974 8 19.3906 8C20.2839 8 20.9811 8.18685 21.4824 8.56055C21.9883 8.92969 22.2412 9.43783 22.2412 10.085C22.2412 11.2152 21.7559 12.0833 20.7852 12.6895C21.9609 13.168 22.5488 13.9746 22.5488 15.1094C22.5488 16.0163 22.2321 16.7386 21.5986 17.2764C20.9652 17.8096 20.0742 18.0762 18.9258 18.0762C18.151 18.0762 17.4788 17.9691 16.9092 17.7549C16.3031 17.5407 16 17.2946 16 17.0166Z" fill="#95CF00"/>
<path d="M0 24V22.167H2V26L1.7959 25.9893C0.854346 25.8938 0.1062 25.1457 0.0107422 24.2041L0 24ZM4.1875 24V26H2V24H4.1875ZM12.9375 24V26H8.5625V24H12.9375ZM21.6875 24V26H17.3125V24H21.6875ZM30.4375 24V26H26.0625V24H30.4375ZM37 24V26H34.8125V24H37ZM38.9893 24.2041C38.8938 25.1457 38.1457 25.8938 37.2041 25.9893L37 26V22.167H39V24L38.9893 24.2041ZM2 14.833V18.5H0V14.833H2ZM39 14.833V18.5H37V14.833H39ZM2 7.5V11.167H0V7.5H2ZM39 7.5V11.167H37V7.5H39ZM0 2C0 0.964349 0.787223 0.113005 1.7959 0.0107422L2 0H4.1875V2H2V3.83301H0V2ZM39 3.83301H37V2H34.8125V0H37L37.2041 0.0107422C38.2128 0.113005 39 0.96435 39 2V3.83301ZM12.9375 0V2H8.5625V0H12.9375ZM21.6875 0V2H17.3125V0H21.6875ZM30.4375 0V2H26.0625V0H30.4375Z" fill="#95CF00"/>
</svg>
