<svg width="39" height="26" viewBox="0 0 39 26" fill="none" xmlns="http://www.w3.org/2000/svg">
<path d="M0 24V22.167H2V26L1.7959 25.9893C0.854346 25.8938 0.1062 25.1457 0.0107422 24.2041L0 24ZM4.1875 24V26H2V24H4.1875ZM12.9375 24V26H8.5625V24H12.9375ZM21.6875 24V26H17.3125V24H21.6875ZM30.4375 24V26H26.0625V24H30.4375ZM37 24V26H34.8125V24H37ZM38.9893 24.2041C38.8938 25.1457 38.1457 25.8938 37.2041 25.9893L37 26V22.167H39V24L38.9893 24.2041ZM2 14.833V18.5H0V14.833H2ZM39 14.833V18.5H37V14.833H39ZM2 7.5V11.167H0V7.5H2ZM39 7.5V11.167H37V7.5H39ZM0 2C0 0.964349 0.787223 0.113005 1.7959 0.0107422L2 0H4.1875V2H2V3.83301H0V2ZM39 3.83301H37V2H34.8125V0H37L37.2041 0.0107422C38.2128 0.113005 39 0.96435 39 2V3.83301ZM12.9375 0V2H8.5625V0H12.9375ZM21.6875 0V2H17.3125V0H21.6875ZM30.4375 0V2H26.0625V0H30.4375Z" fill="#FF6766"/>
<path d="M18.9999 11.3919L14.4121 6.80406C13.968 6.35999 13.2481 6.35999 12.804 6.80406C12.3599 7.24813 12.3599 7.9681 12.804 8.41217L17.3918 13L12.804 17.5878C12.3599 18.0319 12.3599 18.7519 12.804 19.1959C13.2481 19.64 13.968 19.64 14.4121 19.196L18.9999 14.6081L23.5878 19.196C24.0318 19.64 24.7518 19.64 25.1959 19.196C25.64 18.7519 25.64 18.0319 25.1959 17.5878L20.6081 13L25.1959 8.41217C25.64 7.9681 25.64 7.24813 25.1959 6.80406C24.7518 6.35999 24.0318 6.35999 23.5878 6.80406L18.9999 11.3919Z" fill="#FF6766"/>
</svg>
