<svg width="39" height="26" viewBox="0 0 39 26" fill="none" xmlns="http://www.w3.org/2000/svg">
<path d="M11.3772 11.5629C11.3772 12.2871 11.7686 12.8743 12.2514 12.8743C12.7343 12.8743 13.1257 12.2871 13.1257 11.5629C13.1257 10.8386 12.7343 10.2514 12.2514 10.2514C11.7686 10.2514 11.3772 10.8386 11.3772 11.5629Z" fill="#FF6766"/>
<path d="M15.7486 12.8743C15.2657 12.8743 14.8743 12.2871 14.8743 11.5629C14.8743 10.8386 15.2657 10.2514 15.7486 10.2514C16.2314 10.2514 16.6228 10.8386 16.6228 11.5629C16.6228 12.2871 16.2314 12.8743 15.7486 12.8743Z" fill="#FF6766"/>
<path fill-rule="evenodd" clip-rule="evenodd" d="M15.3276 7.4884L14.975 7.27361C14.3762 6.9088 13.6238 6.9088 13.025 7.27361C12.8614 7.37324 12.6727 7.42381 12.4812 7.4193C11.7802 7.40279 11.1286 7.77899 10.7924 8.39434C10.7006 8.56241 10.5624 8.70057 10.3943 8.79239C9.77899 9.1286 9.40279 9.7802 9.4193 10.4812C9.42381 10.6727 9.37324 10.8614 9.27361 11.025C8.9088 11.6238 8.9088 12.3762 9.27361 12.975C9.37324 13.1386 9.42381 13.3273 9.4193 13.5188C9.40279 14.2198 9.77899 14.8714 10.3943 15.2076C10.5624 15.2994 10.7006 15.4376 10.7924 15.6057C11.1286 16.221 11.7802 16.5972 12.4812 16.5807C12.6727 16.5762 12.8614 16.6268 13.025 16.7264C13.6238 17.0912 14.3762 17.0912 14.975 16.7264C15.1386 16.6268 15.3273 16.5762 15.5188 16.5807C16.2198 16.5972 16.8714 16.221 17.2076 15.6057C17.2994 15.4376 17.4376 15.2994 17.6057 15.2076C18.221 14.8714 18.5972 14.2198 18.5807 13.5188C18.5762 13.3273 18.6268 13.1386 18.7264 12.975C19.0912 12.3762 19.0912 11.6238 18.7264 11.025L18.6097 10.8333C18.558 10.7485 18.5157 10.6583 18.4836 10.5643L18.1711 9.65103C18.082 9.39045 17.7813 9.271 17.5377 9.3994L17.4663 9.43699C17.1675 9.59449 16.8123 9.36072 16.8388 9.02396C16.8635 8.7095 16.5642 8.46866 16.2623 8.56012L16.1659 8.58935C15.7896 8.70336 15.433 8.36297 15.5293 7.9818C15.5776 7.7909 15.4958 7.59084 15.3276 7.4884ZM18.0699 10.7058L17.7575 9.79251C17.7553 9.7859 17.7476 9.78286 17.7415 9.78612L17.6701 9.82371C17.5821 9.87008 17.4917 9.89966 17.4017 9.91424C17.0126 9.9772 16.6297 9.76057 16.4735 9.40966L16.4726 9.40759C16.421 9.29089 16.3946 9.15941 16.4012 9.01848C16.4017 9.00892 16.4023 8.99933 16.403 8.98969C16.4036 8.98209 16.3964 8.97627 16.3891 8.97848L16.2926 9.00771C16.1831 9.04089 16.0745 9.05343 15.9698 9.04826L15.9631 9.0479C15.4003 9.01597 14.9545 8.47219 15.1055 7.87467C15.1068 7.86966 15.1046 7.86441 15.1002 7.86172L14.7476 7.64693C14.2885 7.36721 13.7115 7.36721 13.2524 7.64693C13.0173 7.79012 12.7461 7.8628 12.4709 7.85632C11.9334 7.84366 11.4338 8.13211 11.176 8.60394C11.044 8.84548 10.8455 9.04404 10.6039 9.17601C10.1321 9.4338 9.84366 9.93341 9.85632 10.4709C9.8628 10.7461 9.79012 11.0173 9.64693 11.2524C9.36721 11.7115 9.36721 12.2885 9.64693 12.7476C9.79012 12.9827 9.8628 13.2539 9.85632 13.5291C9.84366 14.0666 10.1321 14.5662 10.6039 14.824C10.8455 14.956 11.044 15.1545 11.176 15.3961C11.4338 15.8679 11.9334 16.1563 12.4709 16.1437C12.7461 16.1372 13.0173 16.2099 13.2524 16.3531C13.7115 16.6328 14.2885 16.6328 14.7476 16.3531C14.9827 16.2099 15.2539 16.1372 15.5291 16.1437C16.0666 16.1563 16.5662 15.8679 16.824 15.3961C16.956 15.1545 17.1545 14.956 17.3961 14.824C17.8679 14.5662 18.1563 14.0666 18.1437 13.5291C18.1372 13.2539 18.2099 12.9827 18.3531 12.7476C18.6328 12.2885 18.6328 11.7115 18.3531 11.2524L18.2363 11.0607C18.1682 10.9488 18.1124 10.8298 18.0699 10.7058Z" fill="#FF6766"/>
<path d="M15.2011 14.0555C15.2722 14.153 15.2507 14.2898 15.1532 14.3609C15.0556 14.4319 14.9189 14.4105 14.8478 14.3129C14.6995 14.1094 14.4182 13.9922 14.1022 13.9942C13.7866 13.9963 13.489 14.1175 13.3223 14.3222C13.2461 14.4158 13.1084 14.4299 13.0148 14.3537C12.9212 14.2775 12.9071 14.1398 12.9833 14.0462C13.2527 13.7155 13.6891 13.5597 14.0994 13.5571C14.5092 13.5545 14.9457 13.705 15.2011 14.0555Z" fill="#FF6766"/>
<path d="M6.34032 7.76296C6.70246 8.3902 7.33501 8.70297 7.75317 8.46154C8.17133 8.22012 8.21675 7.51593 7.85461 6.88869C7.49247 6.26145 6.85992 5.94868 6.44176 6.19011C6.0236 6.43153 5.97818 7.13572 6.34032 7.76296Z" fill="#FF6766"/>
<path d="M10.7817 6.71299C10.3636 6.95441 9.73103 6.64165 9.3689 6.01441C9.00676 5.38717 9.05218 4.68298 9.47034 4.44156C9.8885 4.20013 10.5211 4.5129 10.8832 5.14014C11.2453 5.76738 11.1999 6.47157 10.7817 6.71299Z" fill="#FF6766"/>
<path fill-rule="evenodd" clip-rule="evenodd" d="M7.72429 2.25915L7.31154 2.24942C6.61052 2.23291 5.95892 2.60911 5.62271 3.22447C5.53089 3.39253 5.39273 3.53069 5.22467 3.62251C4.60931 3.95872 4.23311 4.61032 4.24962 5.31134C4.25413 5.5028 4.20356 5.69152 4.10393 5.85508C3.73912 6.45392 3.73912 7.20632 4.10393 7.80516C4.20356 7.96872 4.25413 8.15745 4.24962 8.34891C4.23311 9.04993 4.60931 9.70152 5.22467 10.0377C5.39273 10.1296 5.53089 10.2677 5.62271 10.4358C5.95892 11.0511 6.61052 11.4273 7.31154 11.4108C7.503 11.4063 7.69173 11.4569 7.85528 11.5565C8.45412 11.9213 9.20652 11.9213 9.80537 11.5565C9.96892 11.4569 10.1576 11.4063 10.3491 11.4108C11.0501 11.4273 11.7017 11.0511 12.0379 10.4358C12.1298 10.2677 12.2679 10.1296 12.436 10.0377C13.0513 9.70152 13.4275 9.04992 13.411 8.34891C13.4065 8.15745 13.4571 7.96872 13.5567 7.80516C13.9215 7.20632 13.9215 6.45392 13.5567 5.85508C13.4571 5.69152 13.4065 5.5028 13.411 5.31134C13.4275 4.61032 13.0513 3.95872 12.436 3.62251L12.2391 3.51493C12.1519 3.4673 12.0702 3.41033 11.9954 3.34502L11.2682 2.71028C11.0607 2.52918 10.7405 2.5761 10.5937 2.80911L10.5507 2.87733C10.3707 3.16314 9.94623 3.13828 9.80078 2.83339C9.66497 2.5487 9.2853 2.4898 9.06961 2.71994L9.00069 2.79348C8.73184 3.08035 8.25279 2.96388 8.14565 2.5856C8.09199 2.39615 7.92114 2.26378 7.72429 2.25915ZM11.7079 3.67435L10.9807 3.03961C10.9754 3.03501 10.9673 3.0362 10.9636 3.04212L10.9206 3.11033C10.8676 3.19448 10.8041 3.2653 10.7334 3.32297C10.428 3.57201 9.98797 3.57588 9.67728 3.35006L9.67546 3.34873C9.57246 3.27344 9.48377 3.17282 9.41906 3.04744C9.41468 3.03895 9.4104 3.03033 9.40624 3.02161C9.40296 3.01473 9.39378 3.0133 9.38857 3.01887L9.31965 3.0924C9.24139 3.1759 9.15359 3.24108 9.06036 3.28893L9.05433 3.292C8.55101 3.54572 7.89301 3.29771 7.72505 2.70473C7.72365 2.69976 7.71916 2.69628 7.714 2.69616L7.30124 2.68644C6.76373 2.67378 6.26412 2.96223 6.00633 3.43406C5.87436 3.6756 5.6758 3.87416 5.43426 4.00613C4.96243 4.26392 4.67398 4.76353 4.68664 5.30104C4.69312 5.57621 4.62044 5.84744 4.47725 6.0825C4.19753 6.54167 4.19753 7.11857 4.47725 7.57774C4.62044 7.8128 4.69312 8.08404 4.68664 8.3592C4.67398 8.89671 4.96243 9.39632 5.43426 9.65412C5.6758 9.78608 5.87436 9.98464 6.00633 10.2262C6.26412 10.698 6.76373 10.9865 7.30124 10.9738C7.57641 10.9673 7.84764 11.04 8.0827 11.1832C8.54187 11.4629 9.11877 11.4629 9.57794 11.1832C9.813 11.04 10.0842 10.9673 10.3594 10.9738C10.8969 10.9865 11.3965 10.698 11.6543 10.2262C11.7863 9.98464 11.9848 9.78608 12.2264 9.65411C12.6982 9.39632 12.9867 8.89671 12.974 8.3592C12.9675 8.08404 13.0402 7.8128 13.1834 7.57774C13.4631 7.11857 13.4631 6.54167 13.1834 6.0825C13.0402 5.84744 12.9675 5.57621 12.974 5.30104C12.9867 4.76353 12.6982 4.26392 12.2264 4.00613L12.0295 3.89854C11.9145 3.8357 11.8066 3.76053 11.7079 3.67435Z" fill="#FF6766"/>
<path d="M10.8982 8.00968C11.0086 8.05862 11.0584 8.18775 11.0094 8.2981C10.9605 8.40844 10.8314 8.45822 10.721 8.40927C10.4908 8.30717 10.1886 8.34633 9.91592 8.5061C9.64362 8.66565 9.44655 8.91943 9.40452 9.18009C9.3853 9.29926 9.27312 9.38029 9.15394 9.36108C9.03477 9.34186 8.95374 9.22967 8.97296 9.1105C9.04086 8.68943 9.34093 8.33635 9.69494 8.12893C10.0486 7.92175 10.5018 7.83385 10.8982 8.00968Z" fill="#FF6766"/>
<path d="M9.88313 20.5202C10.2453 19.8929 10.1998 19.1888 9.78169 18.9473C9.36353 18.7059 8.73098 19.0187 8.36884 19.6459C8.0067 20.2731 8.05212 20.9773 8.47028 21.2188C8.88844 21.4602 9.52099 21.1474 9.88313 20.5202Z" fill="#FF6766"/>
<path d="M6.75311 17.1988C7.17127 17.4402 7.21669 18.1444 6.85455 18.7716C6.49241 19.3989 5.85986 19.7116 5.4417 19.4702C5.02354 19.2288 4.97812 18.5246 5.34026 17.8974C5.7024 17.2701 6.33495 16.9574 6.75311 17.1988Z" fill="#FF6766"/>
<path fill-rule="evenodd" clip-rule="evenodd" d="M4.4247 22.0735L4.62266 22.4359C4.95886 23.0512 5.61046 23.4274 6.31148 23.4109C6.50294 23.4064 6.69167 23.457 6.85522 23.5566C7.45406 23.9214 8.20646 23.9214 8.80531 23.5566C8.96886 23.457 9.15759 23.4064 9.34905 23.4109C10.0501 23.4274 10.7017 23.0512 11.0379 22.4359C11.1297 22.2678 11.2679 22.1296 11.4359 22.0378C12.0513 21.7016 12.4275 21.05 12.411 20.349C12.4065 20.1575 12.457 19.9688 12.5567 19.8052C12.9215 19.2064 12.9215 18.454 12.5567 17.8552C12.457 17.6916 12.4065 17.5029 12.411 17.3114C12.4275 16.6104 12.0513 15.9588 11.4359 15.6226C11.2679 15.5308 11.1297 15.3926 11.0379 15.2245C10.7017 14.6092 10.0501 14.233 9.34905 14.2495C9.15759 14.254 8.96886 14.2034 8.80531 14.1038C8.20646 13.739 7.45406 13.739 6.85522 14.1038C6.69167 14.2034 6.50294 14.254 6.31148 14.2495C5.61046 14.233 4.95887 14.6092 4.62266 15.2245C4.53083 15.3926 4.39267 15.5308 4.22461 15.6226C3.60925 15.9588 3.23305 16.6104 3.24957 17.3114L3.25485 17.5357C3.25719 17.635 3.24871 17.7343 3.22956 17.8318L3.04346 18.7789C2.99036 19.0491 3.19108 19.3029 3.46627 19.3136L3.54683 19.3167C3.88438 19.3297 4.07508 19.7097 3.88376 19.9881C3.70512 20.2481 3.84394 20.6063 4.1511 20.6781L4.24924 20.701C4.63211 20.7904 4.77077 21.2635 4.49674 21.5454C4.3595 21.6866 4.33029 21.9007 4.4247 22.0735ZM3.6585 17.916L3.4724 18.8632C3.47105 18.87 3.47614 18.8765 3.48312 18.8767L3.56368 18.8799C3.66307 18.8837 3.75616 18.9033 3.84146 18.9357C4.20984 19.0757 4.43319 19.4548 4.39296 19.8367L4.39272 19.839C4.37902 19.9658 4.33623 20.0929 4.26 20.2117C4.25483 20.2197 4.24951 20.2277 4.24404 20.2357C4.23972 20.242 4.24307 20.2506 4.2505 20.2524L4.34864 20.2753C4.46008 20.3013 4.56043 20.3448 4.64848 20.4016L4.65415 20.4053C5.12554 20.7143 5.23977 21.4081 4.8102 21.8501C4.8066 21.8538 4.80583 21.8594 4.80831 21.8639L5.00627 22.2263C5.26406 22.6981 5.76367 22.9865 6.30118 22.9739C6.57635 22.9674 6.84759 23.0401 7.08264 23.1833C7.54181 23.463 8.11872 23.463 8.57788 23.1833C8.81294 23.0401 9.08418 22.9674 9.35934 22.9739C9.89685 22.9865 10.3965 22.6981 10.6543 22.2263C10.7862 21.9847 10.9848 21.7862 11.2263 21.6542C11.6982 21.3964 11.9866 20.8968 11.9739 20.3593C11.9675 20.0841 12.0401 19.8129 12.1833 19.5778C12.4631 19.1187 12.4631 18.5417 12.1833 18.0826C12.0401 17.8475 11.9675 17.5763 11.9739 17.3011C11.9866 16.7636 11.6982 16.264 11.2263 16.0062C10.9848 15.8742 10.7862 15.6757 10.6543 15.4341C10.3965 14.9623 9.89685 14.6739 9.35934 14.6865C9.08418 14.693 8.81294 14.6203 8.57788 14.4771C8.11872 14.1974 7.54181 14.1974 7.08264 14.4771C6.84759 14.6203 6.57635 14.693 6.30118 14.6865C5.76367 14.6739 5.26406 14.9623 5.00627 15.4341C4.8743 15.6757 4.67574 15.8742 4.4342 16.0062C3.96238 16.264 3.67392 16.7636 3.68658 17.3011L3.69187 17.5254C3.69495 17.6565 3.68376 17.7874 3.6585 17.916Z" fill="#FF6766"/>
<path d="M7.81783 16.4495C7.80504 16.3295 7.89198 16.2218 8.01202 16.2091C8.13205 16.1963 8.23972 16.2832 8.25251 16.4032C8.27918 16.6536 8.46419 16.8958 8.7389 17.0521C9.01323 17.2081 9.33154 17.2519 9.5783 17.1579C9.69111 17.115 9.81738 17.1716 9.86032 17.2845C9.90327 17.3973 9.84663 17.5235 9.73381 17.5665C9.33521 17.7182 8.87939 17.6349 8.52276 17.432C8.16652 17.2294 7.86377 16.8808 7.81783 16.4495Z" fill="#FF6766"/>
<path d="M0 24V22.167H2V26L1.7959 25.9893C0.854346 25.8938 0.1062 25.1457 0.0107422 24.2041L0 24ZM4.1875 24V26H2V24H4.1875ZM12.9375 24V26H8.5625V24H12.9375ZM21.6875 24V26H17.3125V24H21.6875ZM30.4375 24V26H26.0625V24H30.4375ZM37 24V26H34.8125V24H37ZM38.9893 24.2041C38.8938 25.1457 38.1457 25.8938 37.2041 25.9893L37 26V22.167H39V24L38.9893 24.2041ZM2 14.833V18.5H0V14.833H2ZM39 14.833V18.5H37V14.833H39ZM2 7.5V11.167H0V7.5H2ZM39 7.5V11.167H37V7.5H39ZM0 2C0 0.964349 0.787223 0.113005 1.7959 0.0107422L2 0H4.1875V2H2V3.83301H0V2ZM39 3.83301H37V2H34.8125V0H37L37.2041 0.0107422C38.2128 0.113005 39 0.96435 39 2V3.83301ZM12.9375 0V2H8.5625V0H12.9375ZM21.6875 0V2H17.3125V0H21.6875ZM30.4375 0V2H26.0625V0H30.4375Z" fill="#FF6766"/>
<path d="M24.9999 11.3919L20.4121 6.80406C19.968 6.35999 19.2481 6.35999 18.804 6.80406C18.3599 7.24813 18.3599 7.9681 18.804 8.41217L23.3918 13L18.804 17.5878C18.3599 18.0319 18.3599 18.7519 18.804 19.1959C19.2481 19.64 19.968 19.64 20.4121 19.196L24.9999 14.6081L29.5878 19.196C30.0318 19.64 30.7518 19.64 31.1959 19.196C31.64 18.7519 31.64 18.0319 31.1959 17.5878L26.6081 13L31.1959 8.41217C31.64 7.9681 31.64 7.24813 31.1959 6.80406C30.7518 6.35999 30.0318 6.35999 29.5878 6.80406L24.9999 11.3919Z" fill="#FF6766"/>
</svg>
