<svg width="39" height="26" viewBox="0 0 39 26" fill="none" xmlns="http://www.w3.org/2000/svg">
<path d="M6.37717 12.5628C6.37717 13.2871 6.7686 13.8742 7.25145 13.8742C7.7343 13.8742 8.12572 13.2871 8.12572 12.5628C8.12572 11.8385 7.7343 11.2514 7.25145 11.2514C6.7686 11.2514 6.37717 11.8385 6.37717 12.5628Z" fill="#95CF00"/>
<path d="M10.7486 13.8742C10.2657 13.8742 9.87428 13.2871 9.87428 12.5628C9.87428 11.8385 10.2657 11.2514 10.7486 11.2514C11.2314 11.2514 11.6228 11.8385 11.6228 12.5628C11.6228 13.2871 11.2314 13.8742 10.7486 13.8742Z" fill="#95CF00"/>
<path d="M7.95721 14.7695C7.88612 14.6719 7.90758 14.5352 8.00513 14.4641C8.10269 14.393 8.23941 14.4145 8.3105 14.5121C8.4588 14.7156 8.74009 14.8328 9.05613 14.8307C9.37173 14.8287 9.66929 14.7075 9.83602 14.5028C9.91225 14.4092 10.0499 14.3951 10.1435 14.4713C10.2371 14.5475 10.2512 14.6852 10.175 14.7788C9.90563 15.1095 9.46921 15.2653 9.05893 15.2679C8.64909 15.2705 8.2126 15.12 7.95721 14.7695Z" fill="#95CF00"/>
<path fill-rule="evenodd" clip-rule="evenodd" d="M10.3276 8.48834L9.97504 8.27355C9.3762 7.90874 8.6238 7.90874 8.02496 8.27355C7.8614 8.37318 7.67268 8.42375 7.48122 8.41924C6.7802 8.40273 6.1286 8.77893 5.79239 9.39428C5.70057 9.56235 5.56241 9.70051 5.39434 9.79233C4.77899 10.1285 4.40279 10.7801 4.4193 11.4812C4.42381 11.6726 4.37324 11.8613 4.27361 12.0249C3.9088 12.6237 3.9088 13.3761 4.27361 13.975C4.37324 14.1385 4.42381 14.3273 4.4193 14.5187C4.40279 15.2197 4.77899 15.8713 5.39434 16.2075C5.56241 16.2994 5.70057 16.4375 5.79239 16.6056C6.1286 17.2209 6.7802 17.5971 7.48122 17.5806C7.67268 17.5761 7.8614 17.6267 8.02496 17.7263C8.6238 18.0911 9.3762 18.0911 9.97504 17.7263C10.1386 17.6267 10.3273 17.5761 10.5188 17.5806C11.2198 17.5971 11.8714 17.2209 12.2076 16.6056C12.2994 16.4375 12.4376 16.2994 12.6057 16.2075C13.221 15.8713 13.5972 15.2197 13.5807 14.5187C13.5762 14.3273 13.6268 14.1385 13.7264 13.975C14.0912 13.3761 14.0912 12.6237 13.7264 12.0249L13.6097 11.8333C13.558 11.7484 13.5157 11.6582 13.4836 11.5643L13.1711 10.651C13.082 10.3904 12.7813 10.2709 12.5377 10.3993L12.4663 10.4369C12.1675 10.5944 11.8123 10.3607 11.8388 10.0239C11.8635 9.70944 11.5642 9.4686 11.2623 9.56006L11.1659 9.58929C10.7896 9.7033 10.433 9.36291 10.5293 8.98174C10.5776 8.79084 10.4958 8.59078 10.3276 8.48834ZM13.0699 11.7057L12.7575 10.7924C12.7553 10.7858 12.7476 10.7828 12.7415 10.7861L12.6701 10.8236C12.5821 10.87 12.4917 10.8996 12.4017 10.9142C12.0126 10.9771 11.6297 10.7605 11.4735 10.4096L11.4726 10.4075C11.421 10.2908 11.3946 10.1593 11.4012 10.0184C11.4017 10.0089 11.4023 9.99927 11.403 9.98963C11.4036 9.98203 11.3964 9.97621 11.3891 9.97842L11.2926 10.0076C11.1831 10.0408 11.0745 10.0534 10.9698 10.0482L10.9631 10.0478C10.4003 10.0159 9.95447 9.47213 10.1055 8.87461C10.1068 8.8696 10.1046 8.86435 10.1002 8.86166L9.74762 8.64687C9.28845 8.36715 8.71155 8.36715 8.25238 8.64687C8.01732 8.79006 7.74609 8.86274 7.47092 8.85626C6.93341 8.8436 6.4338 9.13205 6.17601 9.60388C6.04404 9.84542 5.84548 10.044 5.60394 10.1759C5.13211 10.4337 4.84366 10.9333 4.85632 11.4709C4.8628 11.746 4.79012 12.0173 4.64693 12.2523C4.36721 12.7115 4.36721 13.2884 4.64693 13.7476C4.79012 13.9826 4.8628 14.2539 4.85632 14.529C4.84366 15.0665 5.13211 15.5661 5.60394 15.8239C5.84548 15.9559 6.04404 16.1545 6.17601 16.396C6.4338 16.8678 6.93341 17.1563 7.47092 17.1436C7.74609 17.1371 8.01732 17.2098 8.25238 17.353C8.71155 17.6327 9.28845 17.6327 9.74762 17.353C9.98268 17.2098 10.2539 17.1371 10.5291 17.1436C11.0666 17.1563 11.5662 16.8678 11.824 16.396C11.956 16.1545 12.1545 15.9559 12.3961 15.8239C12.8679 15.5661 13.1563 15.0665 13.1437 14.529C13.1372 14.2539 13.2099 13.9826 13.3531 13.7476C13.6328 13.2884 13.6328 12.7115 13.3531 12.2523L13.2363 12.0607C13.1682 11.9488 13.1124 11.8297 13.0699 11.7057Z" fill="#95CF00"/>
<path d="M0 24V22.167H2V26L1.7959 25.9893C0.854346 25.8938 0.1062 25.1457 0.0107422 24.2041L0 24ZM4.1875 24V26H2V24H4.1875ZM12.9375 24V26H8.5625V24H12.9375ZM21.6875 24V26H17.3125V24H21.6875ZM30.4375 24V26H26.0625V24H30.4375ZM37 24V26H34.8125V24H37ZM38.9893 24.2041C38.8938 25.1457 38.1457 25.8938 37.2041 25.9893L37 26V22.167H39V24L38.9893 24.2041ZM2 14.833V18.5H0V14.833H2ZM39 14.833V18.5H37V14.833H39ZM2 7.5V11.167H0V7.5H2ZM39 7.5V11.167H37V7.5H39ZM0 2C0 0.964349 0.787223 0.113005 1.7959 0.0107422L2 0H4.1875V2H2V3.83301H0V2ZM39 3.83301H37V2H34.8125V0H37L37.2041 0.0107422C38.2128 0.113005 39 0.96435 39 2V3.83301ZM12.9375 0V2H8.5625V0H12.9375ZM21.6875 0V2H17.3125V0H21.6875ZM30.4375 0V2H26.0625V0H30.4375Z" fill="#95CF00"/>
<path d="M16.2952 12.5724C15.9016 12.1683 15.9016 11.5088 16.2952 11.1047C16.6831 10.7064 17.308 10.7064 17.6959 11.1047L23.1464 16.7003L32.3041 7.29871C32.692 6.90043 33.3168 6.90043 33.7048 7.29871C34.0984 7.70279 34.0984 8.36234 33.7048 8.76641L24.1561 18.5693C23.5968 19.1436 22.6959 19.1436 22.1366 18.5693L16.2952 12.5724Z" fill="#95CF00"/>
</svg>
