<svg width="39" height="26" viewBox="0 0 39 26" fill="none" xmlns="http://www.w3.org/2000/svg">
<path d="M10.7715 8.36914V17.5635C10.7715 17.723 10.2998 17.8027 9.35645 17.8027C8.40397 17.8027 7.92773 17.723 7.92773 17.5635V10.666L6.41699 10.6797C6.139 10.6797 6 10.2308 6 9.33301C6 9.00944 6.0319 8.71094 6.0957 8.4375C6.15039 8.14583 6.25293 8 6.40332 8H10.2383C10.3978 8 10.5254 8.03418 10.6211 8.10254C10.7214 8.1709 10.7715 8.25977 10.7715 8.36914Z" fill="#95CF00"/>
<path d="M0 24V22.167H2V26L1.7959 25.9893C0.854346 25.8938 0.1062 25.1457 0.0107422 24.2041L0 24ZM4.1875 24V26H2V24H4.1875ZM12.9375 24V26H8.5625V24H12.9375ZM21.6875 24V26H17.3125V24H21.6875ZM30.4375 24V26H26.0625V24H30.4375ZM37 24V26H34.8125V24H37ZM38.9893 24.2041C38.8938 25.1457 38.1457 25.8938 37.2041 25.9893L37 26V22.167H39V24L38.9893 24.2041ZM2 14.833V18.5H0V14.833H2ZM39 14.833V18.5H37V14.833H39ZM2 7.5V11.167H0V7.5H2ZM39 7.5V11.167H37V7.5H39ZM0 2C0 0.964349 0.787223 0.113005 1.7959 0.0107422L2 0H4.1875V2H2V3.83301H0V2ZM39 3.83301H37V2H34.8125V0H37L37.2041 0.0107422C38.2128 0.113005 39 0.96435 39 2V3.83301ZM12.9375 0V2H8.5625V0H12.9375ZM21.6875 0V2H17.3125V0H21.6875ZM30.4375 0V2H26.0625V0H30.4375Z" fill="#95CF00"/>
<path d="M16.2952 12.5724C15.9016 12.1683 15.9016 11.5088 16.2952 11.1047C16.6831 10.7064 17.308 10.7064 17.6959 11.1047L23.1464 16.7003L32.3041 7.29871C32.692 6.90043 33.3168 6.90043 33.7048 7.29871C34.0984 7.70279 34.0984 8.36234 33.7048 8.76641L24.1561 18.5693C23.5968 19.1436 22.6959 19.1436 22.1366 18.5693L16.2952 12.5724Z" fill="#95CF00"/>
</svg>
