<svg width="33" height="32" viewBox="0 0 33 32" fill="none" xmlns="http://www.w3.org/2000/svg">
<path d="M15.6803 1.36191C16.0374 0.212698 17.5627 0.212697 17.9198 1.36191L20.5456 9.813C20.8316 10.7338 21.6614 11.3782 22.6203 11.3782H31.1174C31.6755 11.3782 32.0827 11.743 32.2372 12.2401C32.392 12.7386 32.269 13.3024 31.8021 13.6572L24.9277 18.8803C24.1661 19.459 23.8575 20.4726 24.1426 21.3903L26.7684 29.8414C26.9525 30.434 26.7237 30.9619 26.3333 31.2585C25.9463 31.5526 25.4228 31.6071 24.964 31.2585L18.0897 26.0354C17.3223 25.4524 16.2778 25.4524 15.5104 26.0354L8.63608 31.2585C8.1773 31.6071 7.6538 31.5526 7.26678 31.2585C6.87645 30.9619 6.64757 30.434 6.8317 29.8414L9.45746 21.3903C9.74259 20.4726 9.43403 19.459 8.67238 18.8803L1.79804 13.6572C1.33113 13.3024 1.20807 12.7386 1.36295 12.2401C1.5174 11.743 1.92464 11.3782 2.48268 11.3782H10.9798C11.9387 11.3782 12.7685 10.7338 13.0545 9.813L15.6803 1.36191Z" stroke="#F7B779"/>
</svg>
