<svg width="22" height="21" viewBox="0 0 22 21" fill="none" xmlns="http://www.w3.org/2000/svg">
<path d="M10.0963 0.944749C10.2805 0.351751 11.0534 0.35175 11.2377 0.944749L12.9608 6.49078C13.1697 7.16284 13.7778 7.63882 14.4865 7.63882H20.0628C20.3412 7.63882 20.5505 7.81651 20.6335 8.08357C20.7169 8.35198 20.6488 8.64281 20.4081 8.82568L15.8968 12.2533C15.3375 12.6783 15.1136 13.4195 15.3214 14.0884L17.0446 19.6344C17.1423 19.9489 17.0224 20.2221 16.8192 20.3765C16.6193 20.5284 16.3611 20.5532 16.1286 20.3765L11.6173 16.9489C11.0522 16.5196 10.2818 16.5196 9.7167 16.9489L5.20541 20.3765C4.97284 20.5532 4.71464 20.5284 4.51477 20.3765C4.31157 20.2222 4.19168 19.9489 4.2894 19.6344L6.01256 14.0884C6.2204 13.4195 5.9965 12.6783 5.43719 12.2533L0.925902 8.82568C0.685213 8.64281 0.617135 8.35198 0.70053 8.08357C0.783504 7.81651 0.992797 7.63882 1.27122 7.63882H6.84748C7.55621 7.63882 8.16433 7.16284 8.37314 6.49078L10.0963 0.944749Z" stroke="black" stroke-opacity="0.5"/>
</svg>
