<svg width="33" height="33" viewBox="0 0 33 33" fill="none" xmlns="http://www.w3.org/2000/svg">
<path d="M15.3803 2.0289C15.7373 0.879689 17.2627 0.87969 17.6197 2.0289L20.2455 10.48C20.5316 11.4008 21.3614 12.0452 22.3202 12.0452H30.8174C31.3754 12.0452 31.7826 12.41 31.9371 12.9071C32.092 13.4056 31.9689 13.9694 31.502 14.3242L24.6277 19.5473C23.866 20.1259 23.5575 21.1396 23.8426 22.0573L26.4684 30.5084C26.6525 31.101 26.4236 31.6289 26.0333 31.9255C25.6462 32.2195 25.1228 32.2741 24.664 31.9255L17.7896 26.7024C17.0222 26.1194 15.9778 26.1194 15.2104 26.7024L8.33603 31.9255C7.87725 32.2741 7.35375 32.2195 6.96674 31.9255C6.5764 31.6289 6.34752 31.101 6.53165 30.5084L9.15741 22.0573C9.44254 21.1396 9.13398 20.1259 8.37234 19.5473L1.49799 14.3242C1.03108 13.9694 0.908023 13.4056 1.0629 12.9071C1.21736 12.41 1.62459 12.0452 2.18264 12.0452H10.6798C11.6386 12.0452 12.4684 11.4008 12.7545 10.48L15.3803 2.0289Z" fill="#F7B779" fill-opacity="0.5" stroke="#F7B779"/>
</svg>
