<svg width="66" height="67" viewBox="0 0 66 67" fill="none" xmlns="http://www.w3.org/2000/svg">
<path fill-rule="evenodd" clip-rule="evenodd" d="M3.99121 0.484224H62.0314C64.2232 0.484224 66 2.26152 66 4.45392V62.5108C66 64.7032 64.2232 66.4805 62.0314 66.4805H3.99121C1.79943 66.4805 0.0226477 64.7032 0.0226477 62.5108V4.45392C0.0226477 2.26152 1.79943 0.484224 3.99121 0.484224ZM62.0314 1.72476H3.99121C2.48436 1.72476 1.26282 2.94665 1.26282 4.45392V62.5108C1.26282 64.018 2.48436 65.2399 3.99121 65.2399H62.0314C63.5383 65.2399 64.7598 64.018 64.7598 62.5108V4.45392C64.7598 2.94665 63.5383 1.72476 62.0314 1.72476Z" fill="#4C956C"/>
<path d="M59.4726 10.9189C62.2101 9.78559 64.4301 7.99053 65.7828 5.94398C65.8496 5.84286 65.9145 5.7408 65.9774 5.63788V4.45017C65.9774 3.9866 65.8979 3.54159 65.7519 3.12802C65.0117 5.72505 62.5101 8.31881 58.9984 9.77261C53.9191 11.8754 48.6501 10.797 47.2297 7.36412C46.335 5.20148 47.181 2.6203 49.1995 0.480469H47.5659C47.3898 0.706485 47.2245 0.936373 47.0704 1.16952C45.7225 3.20881 45.1687 5.62674 46.0838 7.83851C46.999 10.0503 49.099 11.3696 51.4934 11.8596C53.8963 12.3514 56.7352 12.0521 59.4726 10.9189Z" fill="#4C956C"/>
<path d="M0 9.00707C0.457803 9.45189 1.01741 9.79316 1.68102 9.97103C3.16246 10.3681 4.60211 9.80066 5.68824 8.85775C6.78094 7.90915 7.63664 6.49596 8.07425 4.86229C8.48328 3.33536 8.47972 1.79257 8.092 0.480469H6.78468C7.20959 1.60452 7.27407 3.05642 6.87634 4.54121C6.11192 7.39488 3.9296 9.28942 2.002 8.77277C1.08708 8.52754 0.393986 7.7832 0 6.76364V9.00707Z" fill="#4C956C"/>
<path d="M17.1706 66.4767C17.5493 66.0544 17.8897 65.6155 18.1879 65.1643C19.5358 63.125 20.0895 60.7071 19.1744 58.4953C18.2593 56.2835 16.1593 54.9643 13.7649 54.4742C11.3619 53.9825 8.52303 54.2817 5.7856 55.415C3.37707 56.4121 1.3691 57.9215 0 59.6638V61.9518C1.08142 59.8003 3.31563 57.7801 6.25986 56.5612C11.3391 54.4585 16.6081 55.5368 18.0285 58.9697C19.0121 61.347 17.8921 64.2301 15.4235 66.4767H17.1706Z" fill="#4C956C"/>
<path d="M65.9774 58.2337C65.439 57.3543 64.642 56.6482 63.5772 56.3628C62.0958 55.9657 60.6561 56.5332 59.57 57.4761C58.4773 58.4247 57.6216 59.8379 57.184 61.4715C56.7464 63.1052 56.781 64.757 57.2532 66.1251C57.2941 66.2436 57.3387 66.3609 57.3871 66.4767H58.7656C58.0919 65.2996 57.9059 63.5696 58.3819 61.7926C59.1463 58.9389 61.3286 57.0444 63.2562 57.5611C65.1839 58.0777 66.1268 60.8099 65.3624 63.6636C65.1811 64.3402 64.9202 64.9628 64.6018 65.5122C65.4442 64.7843 65.9774 63.7079 65.9774 62.507V58.2337Z" fill="#4C956C"/>
<path fill-rule="evenodd" clip-rule="evenodd" d="M11.3159 38.3283C10.6645 37.2054 9.74147 36.3183 8.71895 35.8233C7.70425 35.332 6.45435 35.1771 5.35748 35.8138C4.26061 36.4504 3.77484 37.6128 3.69776 38.7378C3.62009 39.8714 3.93204 41.1132 4.58341 42.2361C5.23477 43.3589 6.1578 44.246 7.18032 44.7411C8.19501 45.2324 9.44492 45.3872 10.5418 44.7506C11.6387 44.1139 12.1244 42.9516 12.2015 41.8266C12.2792 40.6929 11.9672 39.4511 11.3159 38.3283ZM5.97992 36.8867C7.24661 36.1515 9.15535 37.0756 10.2432 38.9509C11.331 40.8261 11.1861 42.9424 9.91935 43.6776C8.65265 44.4129 6.74392 43.4887 5.65607 41.6134C4.56822 39.7382 4.71321 37.622 5.97992 36.8867Z" fill="#4C956C"/>
<path fill-rule="evenodd" clip-rule="evenodd" d="M19.0717 7.9369C18.917 8.73632 18.4786 9.51685 17.8488 10.1468C17.2189 10.7769 16.4386 11.2154 15.6394 11.3701C14.8488 11.5232 13.8938 11.4114 13.1916 10.7089C12.4893 10.0065 12.3776 9.05125 12.5306 8.26036C12.6853 7.46094 13.1237 6.68041 13.7535 6.05041C14.3833 5.42041 15.1636 4.98188 15.9628 4.82715C16.7535 4.67408 17.7085 4.7859 18.4107 5.48832C19.1129 6.19074 19.2247 7.14601 19.0717 7.9369ZM16.9718 9.26966C17.9287 8.31248 18.1803 7.01225 17.5338 6.36551C16.8872 5.71876 15.5873 5.97042 14.6304 6.9276C13.6735 7.88478 13.4219 9.18501 14.0685 9.83176C14.7151 10.4785 16.0149 10.2268 16.9718 9.26966Z" fill="#4C956C"/>
<path fill-rule="evenodd" clip-rule="evenodd" d="M8.06112 24.5468C9.13298 24.5468 10.1584 24.2534 10.9508 23.7144C11.7367 23.1798 12.4017 22.3121 12.4017 21.1974C12.4017 20.0826 11.7367 19.2149 10.9508 18.6803C10.1584 18.1413 9.13298 17.8479 8.06112 17.8479C6.98927 17.8479 5.96387 18.1413 5.17142 18.6803C4.38552 19.2149 3.72051 20.0826 3.72051 21.1974C3.72051 22.3121 4.38552 23.1798 5.17142 23.7144C5.96387 24.2534 6.98927 24.5468 8.06112 24.5468ZM11.1616 21.1974C11.1616 22.3621 9.77345 23.3063 8.06112 23.3063C6.3488 23.3063 4.96068 22.3621 4.96068 21.1974C4.96068 20.0326 6.3488 19.0885 8.06112 19.0885C9.77345 19.0885 11.1616 20.0326 11.1616 21.1974Z" fill="#4C956C"/>
<path fill-rule="evenodd" clip-rule="evenodd" d="M56.5393 30.5106C55.5168 30.0155 54.5937 29.1284 53.9424 28.0056C53.291 26.8827 52.9791 25.6409 53.0567 24.5073C53.1338 23.3823 53.6196 22.2199 54.7165 21.5832C55.8133 20.9466 57.0632 21.1015 58.0779 21.5928C59.1004 22.0878 60.0235 22.9749 60.6748 24.0978C61.3262 25.2206 61.6381 26.4624 61.5605 27.5961C61.4834 28.7211 60.9976 29.8834 59.9008 30.5201C58.8039 31.1567 57.554 31.0019 56.5393 30.5106ZM55.015 27.3829C56.1029 29.2582 58.0116 30.1824 59.2783 29.4471C60.545 28.7119 60.69 26.5956 59.6022 24.7204C58.5143 22.8451 56.6056 21.921 55.3389 22.6562C54.0722 23.3915 53.9272 25.5077 55.015 27.3829Z" fill="#4C956C"/>
<path fill-rule="evenodd" clip-rule="evenodd" d="M47.4095 56.187C46.7797 56.817 46.3413 57.5975 46.1866 58.3969C46.0335 59.1878 46.1453 60.1431 46.8475 60.8455C47.5498 61.5479 48.5048 61.6598 49.2954 61.5067C50.0946 61.3519 50.8749 60.9134 51.5047 60.2834C52.1346 59.6534 52.573 58.8729 52.7277 58.0735C52.8807 57.2826 52.7689 56.3273 52.0667 55.6249C51.3645 54.9225 50.4095 54.8106 49.6188 54.9637C48.8196 55.1185 48.0393 55.557 47.4095 56.187ZM47.7245 59.9683C47.0779 59.3216 47.3295 58.0213 48.2864 57.0642C49.2433 56.107 50.5432 55.8553 51.1897 56.5021C51.8363 57.1488 51.5847 58.4491 50.6278 59.4062C49.6709 60.3634 48.371 60.6151 47.7245 59.9683Z" fill="#4C956C"/>
<path fill-rule="evenodd" clip-rule="evenodd" d="M54.3074 42.6194C55.0999 42.0804 56.1253 41.787 57.1971 41.787C58.269 41.787 59.2944 42.0804 60.0868 42.6194C60.8727 43.154 61.5377 44.0217 61.5377 45.1365C61.5377 46.2512 60.8727 47.119 60.0868 47.6535C59.2944 48.1925 58.269 48.4859 57.1971 48.4859C56.1253 48.4859 55.0999 48.1925 54.3074 47.6535C53.5215 47.119 52.8565 46.2512 52.8565 45.1365C52.8565 44.0217 53.5215 43.154 54.3074 42.6194ZM57.1971 43.0276C55.4848 43.0276 54.0967 43.9718 54.0967 45.1365C54.0967 46.3012 55.4848 47.2454 57.1971 47.2454C58.9095 47.2454 60.2976 46.3012 60.2976 45.1365C60.2976 43.9718 58.9095 43.0276 57.1971 43.0276Z" fill="#4C956C"/>
<path fill-rule="evenodd" clip-rule="evenodd" d="M22.6871 30.4927C22.3084 30.9044 21.7747 31.2068 21.1893 31.3637C20.6039 31.5206 19.9905 31.5257 19.4567 31.3585C18.9362 31.1956 18.3521 30.8111 18.1631 30.1056C17.9741 29.4001 18.2878 28.775 18.6571 28.3736C19.0359 27.9619 19.5696 27.6594 20.155 27.5025C20.7404 27.3456 21.3538 27.3406 21.8876 27.5077C22.4081 27.6707 22.9922 28.0551 23.1812 28.7606C23.3702 29.4662 23.0564 30.0912 22.6871 30.4927ZM22.2548 29.0089C22.4033 29.5634 21.8151 30.2028 20.941 30.437C20.067 30.6713 19.238 30.4118 19.0895 29.8573C18.941 29.3029 19.5291 28.6635 20.4032 28.4292C21.2773 28.195 22.1062 28.4545 22.2548 29.0089Z" fill="#4C956C"/>
<path fill-rule="evenodd" clip-rule="evenodd" d="M29.2547 23.193C28.6859 23.3756 28.028 23.374 27.3971 23.205C26.7662 23.0359 26.1957 22.7082 25.7944 22.2655C25.4012 21.8317 25.0862 21.175 25.2818 20.4447C25.4775 19.7143 26.0785 19.3031 26.6359 19.1241C27.2047 18.9414 27.8626 18.943 28.4935 19.1121C29.1244 19.2812 29.6949 19.6089 30.0962 20.0515C30.4894 20.4853 30.8044 21.1421 30.6087 21.8724C30.4131 22.6027 29.8121 23.014 29.2547 23.193ZM29.6823 21.6241C29.5167 22.2425 28.6047 22.5354 27.6453 22.2783C26.686 22.0211 26.0426 21.3114 26.2083 20.693C26.3739 20.0745 27.2859 19.7817 28.2452 20.0388C29.2046 20.2959 29.848 21.0057 29.6823 21.6241Z" fill="#4C956C"/>
<path fill-rule="evenodd" clip-rule="evenodd" d="M48.9068 36.0242C48.4484 36.3181 47.8731 36.4686 47.2872 36.4686C46.7012 36.4686 46.126 36.3181 45.6675 36.0242C45.2196 35.737 44.7695 35.2242 44.7695 34.5098C44.7695 33.7955 45.2196 33.2827 45.6675 32.9955C46.126 32.7015 46.7012 32.5511 47.2872 32.5511C47.8731 32.5511 48.4484 32.7015 48.9068 32.9955C49.3547 33.2827 49.8048 33.7955 49.8048 34.5098C49.8048 35.2242 49.3547 35.737 48.9068 36.0242ZM47.2872 35.5092C48.1479 35.5092 48.8457 35.0618 48.8457 34.5098C48.8457 33.9579 48.1479 33.5105 47.2872 33.5105C46.4264 33.5105 45.7286 33.9579 45.7286 34.5098C45.7286 35.0618 46.4264 35.5092 47.2872 35.5092Z" fill="#4C956C"/>
<path fill-rule="evenodd" clip-rule="evenodd" d="M39.3388 44.6938C39.1562 44.1249 39.1578 43.4668 39.3269 42.8357C39.4959 42.2046 39.8235 41.6339 40.266 41.2326C40.6997 40.8392 41.3563 40.5241 42.0864 40.7198C42.8165 40.9155 43.2276 41.5167 43.4066 42.0743C43.5892 42.6432 43.5876 43.3013 43.4185 43.9324C43.2495 44.5634 42.9219 45.1342 42.4794 45.5355C42.0457 45.9289 41.3891 46.244 40.659 46.0483C39.9289 45.8526 39.5178 45.2514 39.3388 44.6938ZM40.9073 45.1216C40.289 44.9559 39.9962 44.0436 40.2533 43.084C40.5103 42.1244 41.2199 41.4808 41.8381 41.6465C42.4564 41.8122 42.7492 42.7245 42.4921 43.6841C42.2351 44.6437 41.5255 45.2873 40.9073 45.1216Z" fill="#4C956C"/>
<path fill-rule="evenodd" clip-rule="evenodd" d="M33.0167 47.6664C32.4633 48.0284 31.7555 48.2209 31.0224 48.2209C30.2893 48.2209 29.5815 48.0284 29.0281 47.6664C28.4833 47.31 27.9853 46.7071 27.9853 45.9024C27.9853 45.0977 28.4833 44.4948 29.0281 44.1384C29.5815 43.7765 30.2893 43.5839 31.0224 43.5839C31.7555 43.5839 32.4633 43.7765 33.0167 44.1384C33.5616 44.4948 34.0596 45.0977 34.0596 45.9024C34.0596 46.7071 33.5616 47.31 33.0167 47.6664ZM31.0224 47.2615C32.1701 47.2615 33.1005 46.653 33.1005 45.9024C33.1005 45.1518 32.1701 44.5433 31.0224 44.5433C29.8747 44.5433 28.9444 45.1518 28.9444 45.9024C28.9444 46.653 29.8747 47.2615 31.0224 47.2615Z" fill="#4C956C"/>
<path fill-rule="evenodd" clip-rule="evenodd" d="M22.1579 42.9506C21.6267 42.6774 21.1626 42.211 20.836 41.6452C20.5094 41.0794 20.3376 40.4441 20.3668 39.8473C20.3954 39.2624 20.6369 38.5752 21.2915 38.1972C21.9461 37.8192 22.6618 37.9535 23.1825 38.2212C23.7138 38.4943 24.1779 38.9608 24.5045 39.5266C24.8311 40.0924 25.0029 40.7276 24.9737 41.3244C24.9451 41.9093 24.7036 42.5965 24.0489 42.9745C23.3943 43.3526 22.6786 43.2182 22.1579 42.9506ZM23.5694 42.1437C23.0151 42.4638 22.1632 42.0259 21.6666 41.1655C21.17 40.3051 21.2168 39.3482 21.7711 39.028C22.3254 38.7079 23.1773 39.1459 23.6739 40.0062C24.1705 40.8666 24.1237 41.8236 23.5694 42.1437Z" fill="#4C956C"/>
<path fill-rule="evenodd" clip-rule="evenodd" d="M39.7774 25.424C39.3546 25.6976 38.8281 25.8355 38.2956 25.8355C37.7631 25.8355 37.2365 25.6976 36.8138 25.424C36.4006 25.1566 35.9778 24.6736 35.9778 23.9967C35.9778 23.3197 36.4006 22.8368 36.8138 22.5694C37.2365 22.2957 37.7631 22.1579 38.2956 22.1579C38.8281 22.1579 39.3546 22.2957 39.7774 22.5694C40.1906 22.8368 40.6134 23.3197 40.6134 23.9967C40.6134 24.6736 40.1906 25.1566 39.7774 25.424ZM38.2956 24.8761C39.046 24.8761 39.6543 24.4824 39.6543 23.9967C39.6543 23.511 39.046 23.1172 38.2956 23.1172C37.5452 23.1172 36.9369 23.511 36.9369 23.9967C36.9369 24.4824 37.5452 24.8761 38.2956 24.8761Z" fill="#4C956C"/>
<path d="M27.7455 30.6722C27.7455 30.4073 27.5308 30.1926 27.2659 30.1926C27.0011 30.1926 26.7864 30.4073 26.7864 30.6722V32.7909C26.7864 33.0558 27.0011 33.2705 27.2659 33.2705C27.5308 33.2705 27.7455 33.0558 27.7455 32.7909V30.6722Z" fill="#4C956C"/>
<path d="M39.2547 30.6722C39.2547 30.4073 39.04 30.1926 38.7751 30.1926C38.5103 30.1926 38.2956 30.4073 38.2956 30.6722V32.7909C38.2956 33.0558 38.5103 33.2705 38.7751 33.2705C39.04 33.2705 39.2547 33.0558 39.2547 32.7909V30.6722Z" fill="#4C956C"/>
<path d="M35.5305 33.5856C35.7486 33.4353 35.8036 33.1367 35.6534 32.9185C35.5031 32.7003 35.2045 32.6453 34.9864 32.7956C34.1749 33.3547 33.6226 33.5851 33.1131 33.5902C32.6072 33.5954 32.046 33.3788 31.2178 32.7979C31.001 32.6457 30.7019 32.6983 30.5499 32.9152C30.3978 33.1321 30.4503 33.4312 30.6671 33.5833C31.5484 34.2015 32.3139 34.5578 33.1229 34.5496C33.9284 34.5414 34.6793 34.1722 35.5305 33.5856Z" fill="#4C956C"/>
<path fill-rule="evenodd" clip-rule="evenodd" d="M47.6319 23.8124L47.3457 23.9634C45.5917 24.888 43.5072 23.5156 43.6626 21.5385C43.7179 20.8345 43.048 20.2954 42.3724 20.5001L41.9852 20.6175C39.8825 21.2548 37.8895 19.352 38.4279 17.2213C38.5361 16.7932 38.3528 16.3446 37.9758 16.1149L36.5605 15.2524C34.4109 13.9425 31.7101 13.9425 29.5605 15.2524C28.7738 15.7318 27.8661 15.9751 26.9452 15.9534C24.4288 15.8941 22.0898 17.2449 20.883 19.4544C20.4413 20.263 19.7768 20.9277 18.9685 21.3695C16.7596 22.5767 15.4092 24.9163 15.4685 27.4334C15.4901 28.3545 15.2469 29.2626 14.7677 30.0494C13.4582 32.1997 13.4582 34.9012 14.7677 37.0515C15.2469 37.8383 15.4901 38.7463 15.4685 39.6675C15.4092 42.1846 16.7596 44.5242 18.9685 45.7314C19.7768 46.1732 20.4413 46.8379 20.883 47.6465C22.0898 49.856 24.4288 51.2068 26.9452 51.1475C27.8661 51.1258 28.7738 51.3691 29.5605 51.8485C31.7101 53.1584 34.4109 53.1584 36.5605 51.8485C37.3471 51.3691 38.2549 51.1258 39.1758 51.1475C41.6921 51.2068 44.0311 49.856 45.238 47.6465C45.6796 46.8379 46.3441 46.1732 47.1525 45.7314C49.3614 44.5242 50.7118 42.1846 50.6525 39.6675C50.6308 38.7463 50.874 37.8383 51.3533 37.0515C52.6628 34.9012 52.6628 32.1997 51.3533 30.0494L50.8362 29.2004C50.6309 28.8634 50.463 28.505 50.3353 28.1316L49.0511 24.3763C48.8514 23.7924 48.1777 23.5247 47.6319 23.8124ZM47.2519 25.0434C45.2545 25.7086 43.1294 24.4121 42.7535 22.3895L42.7504 22.3721C42.7045 22.1182 42.6862 21.853 42.6992 21.5789C42.701 21.5405 42.7034 21.502 42.7064 21.4633C42.7088 21.4328 42.6798 21.4094 42.6505 21.4183L42.2633 21.5356C42.0972 21.586 41.9315 21.6245 41.767 21.6518C41.757 21.6535 41.7469 21.6551 41.7369 21.6567C39.1256 22.069 36.822 19.6618 37.4981 16.9862C37.5032 16.9661 37.4946 16.945 37.4769 16.9342L36.0615 16.0717C34.2184 14.9486 31.9026 14.9486 30.0595 16.0717C29.1159 16.6467 28.0271 16.9385 26.9226 16.9125C24.765 16.8617 22.7595 18.0199 21.7247 19.9144C21.1949 20.8842 20.3979 21.6815 19.4283 22.2114C17.5343 23.2465 16.3765 25.2526 16.4273 27.4108C16.4533 28.5157 16.1616 29.6047 15.5868 30.5486C14.4639 32.3922 14.4639 34.7087 15.5868 36.5523C16.1616 37.4962 16.4533 38.5852 16.4273 39.6901C16.3765 41.8483 17.5343 43.8544 19.4283 44.8895C20.3979 45.4194 21.1949 46.2167 21.7247 47.1865C22.7595 49.081 24.765 50.2392 26.9226 50.1884C28.0271 50.1624 29.1159 50.4542 30.0595 51.0292C31.9026 52.1523 34.2184 52.1523 36.0615 51.0292C37.0051 50.4542 38.0938 50.1624 39.1984 50.1884C41.356 50.2392 43.3615 49.081 44.3963 47.1865C44.926 46.2167 45.7231 45.4194 46.6926 44.8895C48.5866 43.8544 49.7445 41.8483 49.6937 39.6901C49.6676 38.5852 49.9594 37.4962 50.5342 36.5523C51.657 34.7087 51.657 32.3922 50.5342 30.5486L50.0171 29.6995C49.7756 29.303 49.578 28.8814 49.4278 28.4421L48.1436 24.6868C48.1346 24.6602 48.1039 24.6481 48.0791 24.6612L47.7928 24.8121C47.6149 24.9059 47.4346 24.9825 47.2531 25.043L47.2519 25.0434Z" fill="#4C956C"/>
</svg>
