<svg width="55" height="64" viewBox="0 0 55 64" fill="none" xmlns="http://www.w3.org/2000/svg">
<path d="M10.1378 41.0734C10.1378 44.1274 11.8071 46.6032 13.8663 46.6032C15.9254 46.6032 17.5947 44.1274 17.5947 41.0734C17.5947 38.0193 15.9254 35.5436 13.8663 35.5436C11.8071 35.5436 10.1378 38.0193 10.1378 41.0734Z" fill="black"/>
<path d="M28.7801 46.6032C26.721 46.6032 25.0517 44.1274 25.0517 41.0734C25.0517 38.0193 26.721 35.5436 28.7801 35.5436C30.8393 35.5436 32.5086 38.0193 32.5086 41.0734C32.5086 44.1274 30.8393 46.6032 28.7801 46.6032Z" fill="black"/>
<path d="M16.8761 50.3783C16.5729 49.9669 16.6644 49.3904 17.0805 49.0907C17.4965 48.7909 18.0796 48.8814 18.3827 49.2928C19.0152 50.1509 20.2148 50.6451 21.5626 50.6366C22.9085 50.628 24.1775 50.1168 24.8885 49.2535C25.2136 48.8588 25.8007 48.7995 26.1999 49.1209C26.599 49.4423 26.6591 50.0229 26.334 50.4175C25.1854 51.812 23.3242 52.4687 21.5745 52.4798C19.8267 52.4908 17.9652 51.8561 16.8761 50.3783Z" fill="black"/>
<path fill-rule="evenodd" clip-rule="evenodd" d="M26.9851 23.8927L25.4814 22.987C22.9276 21.4487 19.7189 21.4487 17.165 22.987C16.4675 23.4071 15.6626 23.6204 14.8461 23.6013C11.8565 23.5317 9.07772 25.118 7.64391 27.7128C7.25231 28.4214 6.66311 29.004 5.94638 29.3912C3.32211 30.8089 1.71775 33.5565 1.78817 36.5124C1.80741 37.3197 1.59174 38.1155 1.16683 38.8052C-0.388945 41.3303 -0.388945 44.5029 1.16683 47.0281C1.59174 47.7177 1.80741 48.5135 1.78817 49.3209C1.71775 52.2768 3.32211 55.0244 5.94638 56.4421C6.66311 56.8293 7.25231 57.4118 7.64391 58.1205C9.07772 60.7153 11.8565 62.3016 14.8461 62.2319C15.6626 62.2129 16.4675 62.4262 17.165 62.8463C19.7189 64.3846 22.9276 64.3846 25.4814 62.8463C26.1789 62.4262 26.9838 62.2129 27.8003 62.2319C30.7899 62.3016 33.5687 60.7153 35.0025 58.1205C35.3941 57.4118 35.9833 56.8293 36.7 56.4421C39.3243 55.0244 40.9286 52.2768 40.8582 49.3209C40.839 48.5135 41.0547 47.7177 41.4796 47.0281C43.0353 44.5029 43.0353 41.3303 41.4796 38.8052L40.9817 37.9972C40.7613 37.6395 40.581 37.2591 40.4439 36.8629L39.1116 33.0118C38.7315 31.913 37.449 31.4094 36.41 31.9508L36.1059 32.1093C34.8314 32.7734 33.3168 31.7877 33.4297 30.3676C33.5351 29.0417 32.2585 28.0261 30.9712 28.4118L30.5598 28.535C28.9552 29.0158 27.4343 27.5805 27.8452 25.9732C28.051 25.1683 27.7022 24.3247 26.9851 23.8927ZM38.68 37.4594L37.3477 33.6084C37.3381 33.5805 37.3055 33.5677 37.2792 33.5814L36.975 33.7399C36.5998 33.9355 36.2142 34.0602 35.83 34.1217C34.171 34.3872 32.5378 33.4737 31.8719 31.994L31.868 31.9853C31.6481 31.4932 31.5351 30.9388 31.5635 30.3445C31.5654 30.3042 31.568 30.2638 31.5712 30.2231C31.5737 30.1911 31.5429 30.1666 31.5118 30.1759L31.1004 30.2991C30.6334 30.439 30.1701 30.4919 29.7238 30.4701L29.6949 30.4686C27.295 30.334 25.3937 28.041 26.0378 25.5215C26.0432 25.5004 26.034 25.4782 26.0152 25.4669L24.5115 24.5612C22.5534 23.3817 20.0931 23.3817 18.1349 24.5612C17.1324 25.165 15.9757 25.4714 14.8022 25.4441C12.5099 25.3907 10.3793 26.607 9.27988 28.5966C8.71708 29.6151 7.8703 30.4523 6.84022 31.0088C4.82804 32.0958 3.5979 34.2025 3.65189 36.469C3.67953 37.6293 3.36959 38.773 2.75891 39.7642C1.56601 41.7003 1.56601 44.1329 2.75891 46.0691C3.36959 47.0603 3.67953 48.204 3.65189 49.3643C3.5979 51.6308 4.82804 53.7375 6.84022 54.8245C7.8703 55.381 8.71708 56.2182 9.27988 57.2367C10.3793 59.2263 12.5099 60.4426 14.8022 60.3892C15.9757 60.3619 17.1324 60.6683 18.1349 61.2721C20.0931 62.4516 22.5533 62.4516 24.5115 61.2721C25.514 60.6683 26.6707 60.3619 27.8442 60.3892C30.1365 60.4426 32.2671 59.2263 33.3665 57.2367C33.9293 56.2182 34.7761 55.381 35.8062 54.8245C37.8184 53.7375 39.0485 51.6308 38.9945 49.3643C38.9669 48.204 39.2768 47.0603 39.8875 46.0691C41.0804 44.1329 41.0804 41.7003 39.8875 39.7642L39.3896 38.9561C39.0989 38.4842 38.8609 37.9823 38.68 37.4594Z" fill="black"/>
<path fill-rule="evenodd" clip-rule="evenodd" d="M37.2792 33.5814C37.3055 33.5677 37.3381 33.5805 37.3477 33.6084L38.68 37.4594C38.8609 37.9823 39.0989 38.4842 39.3896 38.9561L39.8875 39.7642C41.0804 41.7003 41.0804 44.1329 39.8875 46.0691C39.2768 47.0603 38.9669 48.204 38.9945 49.3643C39.0485 51.6308 37.8184 53.7375 35.8062 54.8245C34.7761 55.381 33.9293 56.2182 33.3665 57.2367C32.2671 59.2263 30.1365 60.4426 27.8442 60.3892C26.6707 60.3619 25.514 60.6683 24.5115 61.2721C22.5533 62.4516 20.0931 62.4516 18.1349 61.2721C17.1324 60.6683 15.9757 60.3619 14.8022 60.3892C12.5099 60.4426 10.3793 59.2263 9.27988 57.2367C8.71708 56.2182 7.8703 55.381 6.84022 54.8245C4.82804 53.7375 3.5979 51.6308 3.65189 49.3643C3.67953 48.204 3.36959 47.0603 2.75891 46.0691C1.56601 44.1329 1.56601 41.7003 2.75891 39.7642C3.36959 38.773 3.67953 37.6293 3.65189 36.469C3.5979 34.2025 4.82804 32.0958 6.84022 31.0088C7.8703 30.4523 8.71708 29.6151 9.27988 28.5966C10.3793 26.607 12.5099 25.3907 14.8022 25.4441C15.9757 25.4714 17.1324 25.165 18.1349 24.5612C20.0931 23.3817 22.5534 23.3817 24.5115 24.5612L26.0152 25.4669C26.034 25.4782 26.0432 25.5004 26.0378 25.5215C25.3937 28.041 27.295 30.334 29.6949 30.4686L29.7238 30.4701C30.1701 30.4919 30.6334 30.439 31.1004 30.2991L31.5118 30.1759C31.5429 30.1666 31.5737 30.1911 31.5712 30.2231C31.568 30.2638 31.5654 30.3042 31.5635 30.3445C31.5351 30.9388 31.6481 31.4932 31.868 31.9853L31.8719 31.994C32.5378 33.4737 34.171 34.3872 35.83 34.1217C36.2142 34.0602 36.5998 33.9355 36.975 33.7399L37.2792 33.5814ZM10.1378 41.0734C10.1378 44.1274 11.8071 46.6032 13.8663 46.6032C15.9254 46.6032 17.5947 44.1274 17.5947 41.0734C17.5947 38.0193 15.9254 35.5436 13.8663 35.5436C11.8071 35.5436 10.1378 38.0193 10.1378 41.0734ZM28.7801 46.6032C26.721 46.6032 25.0517 44.1274 25.0517 41.0734C25.0517 38.0193 26.721 35.5436 28.7801 35.5436C30.8393 35.5436 32.5086 38.0193 32.5086 41.0734C32.5086 44.1274 30.8393 46.6032 28.7801 46.6032ZM16.8761 50.3783C16.5729 49.9669 16.6644 49.3904 17.0805 49.0907C17.4965 48.7909 18.0796 48.8814 18.3827 49.2928C19.0152 50.1509 20.2148 50.6451 21.5626 50.6366C22.9085 50.628 24.1775 50.1168 24.8885 49.2535C25.2136 48.8588 25.8007 48.7995 26.1999 49.1209C26.599 49.4423 26.6591 50.0229 26.334 50.4175C25.1854 51.812 23.3242 52.4687 21.5745 52.4798C19.8267 52.4908 17.9652 51.8561 16.8761 50.3783Z" fill="#F7B779"/>
<path d="M25.1606 14.0064L26.2119 14.6066C26.4531 14.1934 26.4241 13.678 26.1377 13.2941L25.1606 14.0064ZM44.7851 25.2092L44.9204 24.0163C44.4409 23.9631 43.9751 24.1959 43.7338 24.6091L44.7851 25.2092ZM46.3672 12.0972C46.032 12.6713 46.2309 13.4054 46.8115 13.7369C47.3921 14.0683 48.1346 13.8716 48.4698 13.2975L46.3672 12.0972ZM33.7514 4.89542C33.4162 5.46951 33.6151 6.20361 34.1957 6.53506C34.7764 6.86652 35.5188 6.66981 35.854 6.09572L33.7514 4.89542ZM36.3274 1.28401C31.8759 -1.25714 26.1839 0.250885 23.6138 4.65228L25.7165 5.85258C27.5625 2.69107 31.5879 1.54928 34.8331 3.21128C34.9273 3.25949 35.0207 3.31005 35.1135 3.36299L36.3274 1.28401ZM49.131 11.365C49.2238 11.4179 49.3148 11.4727 49.4041 11.5292C52.4824 13.477 53.495 17.4948 51.6489 20.6563L53.7516 21.8566C56.3216 17.4552 54.7964 11.8271 50.345 9.28601L49.131 11.365ZM33.7833 31.2474L25.3728 26.4462L24.1588 28.5252L32.5693 33.3264L33.7833 31.2474ZM25.3728 26.4462C24.0215 25.6748 23.115 25.1544 22.4905 24.6779C21.8939 24.2226 21.7038 23.916 21.6266 23.6311L19.2814 24.2523C19.5513 25.2481 20.1955 25.9591 21.0072 26.5784C21.791 27.1765 22.8669 27.7877 24.1588 28.5252L25.3728 26.4462ZM21.3447 18.1408C20.5988 19.4181 19.9761 20.4795 19.5997 21.3849C19.21 22.3225 19.0115 23.2567 19.2814 24.2523L21.6266 23.6311C21.5493 23.3462 21.5589 22.9867 21.8454 22.2974C22.0599 21.7814 22.3879 21.1747 22.8429 20.382C23.024 20.0665 23.2252 19.7215 23.4473 19.3411L21.3447 18.1408ZM40.9692 29.3436C40.7471 29.724 40.5455 30.0688 40.3597 30.3816C39.8929 31.1675 39.5255 31.7518 39.1809 32.1935C38.7203 32.7834 38.4102 32.9714 38.1221 33.0477L38.7505 35.3664C39.7575 35.0997 40.4765 34.4627 41.1029 33.6601C41.7078 32.8851 42.326 31.8212 43.0719 30.5439L40.9692 29.3436ZM32.5693 33.3264C33.8612 34.0638 34.9346 34.6796 35.8503 35.0517C36.7987 35.4371 37.7435 35.6333 38.7505 35.3664L38.1221 33.0477C37.834 33.124 37.4704 33.1146 36.7732 32.8313C36.0437 32.5348 35.1346 32.0188 33.7833 31.2474L32.5693 33.3264ZM35.1135 3.36299C35.413 3.53399 35.6941 3.72345 35.9562 3.92893L37.4645 2.0478C37.1096 1.76959 36.7302 1.51394 36.3274 1.28401L35.1135 3.36299ZM45.7641 1.12705C42.5253 -0.721825 38.5702 -0.222243 35.9097 2.08616L37.511 3.89056C39.4134 2.23998 42.2395 1.88698 44.5501 3.20603L45.7641 1.12705ZM35.9097 2.08616C35.5208 2.42351 35.1599 2.79921 34.8331 3.21128C34.5872 3.52135 34.3607 3.85202 34.156 4.20243L36.2587 5.40273C36.6009 4.81667 37.0264 4.31107 37.511 3.89056L35.9097 2.08616ZM50.345 9.28601C49.9422 9.05612 49.5286 8.85904 49.1075 8.69424L48.214 10.9264C48.5249 11.048 48.8315 11.194 49.131 11.365L50.345 9.28601ZM44.5501 3.20603C46.8608 4.52508 47.9647 7.12152 47.4702 9.5758L49.8512 10.0448C50.5429 6.61241 49.0029 2.97591 45.7641 1.12705L44.5501 3.20603ZM47.4702 9.5758C47.3441 10.201 47.1141 10.8182 46.7718 11.4042L48.8745 12.6045C49.0791 12.2541 49.2554 11.8948 49.4041 11.5292C49.6016 11.0433 49.7502 10.5464 49.8512 10.0448L47.4702 9.5758ZM23.4473 19.3411L24.0543 18.3016L26.2119 14.6066L24.1093 13.4063L21.3447 18.1408L23.4473 19.3411ZM26.1377 13.2941C24.5628 11.1818 24.307 8.26642 25.7165 5.85258L23.6138 4.65228C21.7047 7.92183 22.0566 11.866 24.1835 14.7186L26.1377 13.2941ZM43.7338 24.6091L41.5762 28.3041L40.9692 29.3436L43.0719 30.5439L45.8364 25.8094L43.7338 24.6091ZM51.6489 20.6563C50.2394 23.0701 47.558 24.3088 44.9204 24.0163L44.6499 26.402C48.2119 26.7969 51.8424 25.1261 53.7516 21.8566L51.6489 20.6563ZM46.7718 11.4042L46.3672 12.0972L48.4698 13.2975L48.8745 12.6045L46.7718 11.4042ZM34.156 4.20243L33.7514 4.89542L35.854 6.09572L36.2587 5.40273L34.156 4.20243Z" fill="black"/>
<path fill-rule="evenodd" clip-rule="evenodd" d="M21.3447 18.1408C21.6799 17.5667 22.4223 17.37 23.003 17.7014L24.0543 18.3016L41.5762 28.3041L42.6275 28.9043C43.2082 29.2357 43.4071 29.9698 43.0719 30.5439C42.7366 31.118 41.9942 31.3147 41.4136 30.9832L40.3597 30.3816L22.8429 20.382L21.789 19.7804C21.2084 19.449 21.0094 18.7149 21.3447 18.1408Z" fill="black"/>
<path d="M25.3728 26.4462L33.7833 31.2474C35.1346 32.0188 36.0437 32.5348 36.7732 32.8313C37.4704 33.1146 37.834 33.124 38.1221 33.0477C38.4102 32.9714 38.7203 32.7834 39.1809 32.1935C39.5255 31.7518 39.8929 31.1675 40.3597 30.3816L22.8429 20.382C22.3879 21.1747 22.0599 21.7814 21.8454 22.2974C21.5589 22.9867 21.5493 23.3462 21.6266 23.6311C21.7038 23.916 21.8939 24.2226 22.4905 24.6779C23.115 25.1544 24.0215 25.6748 25.3728 26.4462Z" fill="white"/>
<path d="M26.1377 13.2941C26.4241 13.678 26.4531 14.1934 26.2119 14.6066L24.0543 18.3016L41.5762 28.3041L43.7338 24.6091C43.9751 24.1959 44.4409 23.9631 44.9204 24.0163C47.558 24.3088 50.2394 23.0701 51.6489 20.6563C53.495 17.4948 52.4824 13.477 49.4041 11.5292C49.2554 11.8948 49.0791 12.2541 48.8745 12.6045L48.4698 13.2975C48.1346 13.8716 47.3921 14.0683 46.8115 13.7369C46.2309 13.4054 46.032 12.6713 46.3672 12.0972L46.7718 11.4042C47.1141 10.8182 47.3441 10.201 47.4702 9.5758C47.9647 7.12152 46.8608 4.52508 44.5501 3.20603C42.2395 1.88698 39.4134 2.23998 37.511 3.89056C37.0264 4.31107 36.6009 4.81667 36.2587 5.40273L35.854 6.09572C35.5188 6.66981 34.7764 6.86652 34.1957 6.53506C33.6151 6.20361 33.4162 5.46951 33.7514 4.89542L34.156 4.20243C34.3607 3.85202 34.5872 3.52135 34.8331 3.21128C31.5879 1.54928 27.5625 2.69107 25.7165 5.85258C24.307 8.26642 24.5628 11.1818 26.1377 13.2941Z" fill="white"/>
</svg>
