<svg width="100" height="100" viewBox="0 0 100 100" fill="none" xmlns="http://www.w3.org/2000/svg">
<path d="M23.7717 45.6286C23.7717 52.8714 27.686 58.7428 32.5145 58.7428C37.343 58.7428 41.2572 52.8714 41.2572 45.6286C41.2572 38.3859 37.343 32.5145 32.5145 32.5145C27.686 32.5145 23.7717 38.3859 23.7717 45.6286Z" fill="#4C956C"/>
<path d="M67.4855 58.7428C62.657 58.7428 58.7428 52.8714 58.7428 45.6286C58.7428 38.3859 62.657 32.5145 67.4855 32.5145C72.314 32.5145 76.2283 38.3859 76.2283 45.6286C76.2283 52.8714 72.314 58.7428 67.4855 58.7428Z" fill="#4C956C"/>
<path fill-rule="evenodd" clip-rule="evenodd" d="M63.2764 4.88403L59.7504 2.73607C53.762 -0.912022 46.238 -0.912024 40.2496 2.73607C38.614 3.73242 36.7268 4.23812 34.8122 4.19302C27.802 4.0279 21.286 7.78989 17.9239 13.9434C17.0057 15.6241 15.6241 17.0057 13.9434 17.9239C7.78989 21.286 4.0279 27.802 4.19302 34.8121C4.23812 36.7267 3.73242 38.614 2.73607 40.2496C-0.912023 46.238 -0.912023 53.762 2.73607 59.7504C3.73242 61.386 4.23812 63.2732 4.19302 65.1879C4.0279 72.198 7.78989 78.714 13.9434 82.0761C15.6241 82.9943 17.0057 84.3759 17.9239 86.0565C21.286 92.2101 27.802 95.9721 34.8122 95.807C36.7268 95.7619 38.614 96.2676 40.2496 97.2639C46.238 100.912 53.762 100.912 59.7504 97.2639C61.386 96.2676 63.2732 95.7619 65.1879 95.807C72.198 95.9721 78.714 92.2101 82.0761 86.0565C82.9943 84.3759 84.3759 82.9943 86.0565 82.0761C92.2101 78.714 95.9721 72.198 95.807 65.1879C95.7619 63.2732 96.2676 61.386 97.2639 59.7504C100.912 53.762 100.912 46.238 97.2639 40.2496L96.0965 38.3333C95.5798 37.485 95.157 36.583 94.8355 35.6433L91.7114 26.5103C90.8201 23.9045 87.8128 22.71 85.3765 23.994L84.6633 24.3699C81.6749 25.9449 78.1232 23.6072 78.3881 20.2396C78.6353 17.095 75.6419 14.6866 72.6232 15.6012L71.6587 15.8935C67.896 17.0336 64.3296 13.6297 65.2931 9.818C65.7757 7.90904 64.9579 5.90842 63.2764 4.88403ZM90.6994 37.0581L87.5753 27.9251C87.5527 27.8589 87.4764 27.8286 87.4146 27.8612L86.7014 28.2371C85.8215 28.7008 84.9174 28.9966 84.0166 29.1424C80.1264 29.772 76.2967 27.6057 74.7352 24.0966L74.7261 24.0759C74.2105 22.9089 73.9455 21.5941 74.012 20.1848C74.0165 20.0892 74.0226 19.9933 74.0301 19.8969C74.0361 19.8209 73.9638 19.7627 73.8908 19.7848L72.9263 20.0771C71.8311 20.4089 70.7448 20.5343 69.6982 20.4826L69.6306 20.479C64.0031 20.1597 59.5447 14.7219 61.0551 8.74672C61.0677 8.69662 61.0463 8.64412 61.0021 8.61723L57.4762 6.46927C52.8845 3.67208 47.1155 3.67208 42.5238 6.46927C40.1732 7.90122 37.4609 8.628 34.7092 8.56318C29.3341 8.43658 24.338 11.3211 21.7601 16.0394C20.4404 18.4548 18.4548 20.4404 16.0394 21.7601C11.3211 24.338 8.43658 29.3341 8.56319 34.7092C8.628 37.4608 7.90122 40.1732 6.46927 42.5238C3.67208 47.1155 3.67208 52.8845 6.46927 57.4762C7.90122 59.8268 8.628 62.5391 8.56319 65.2908C8.43658 70.6659 11.3211 75.662 16.0394 78.2399C18.4548 79.5596 20.4404 81.5452 21.7601 83.9606C24.338 88.6789 29.3341 91.5634 34.7092 91.4368C37.4609 91.372 40.1732 92.0988 42.5238 93.5307C47.1155 96.3279 52.8845 96.3279 57.4762 93.5307C59.8268 92.0988 62.5391 91.372 65.2908 91.4368C70.6659 91.5634 75.662 88.6789 78.2399 83.9606C79.5596 81.5452 81.5452 79.5596 83.9606 78.2399C88.6789 75.662 91.5634 70.6659 91.4368 65.2908C91.372 62.5391 92.0988 59.8268 93.5307 57.4762C96.3279 52.8845 96.3279 47.1155 93.5307 42.5238L92.3633 40.6075C91.6815 39.4882 91.1236 38.2981 90.6994 37.0581Z" fill="#4C956C"/>
<path d="M62.0109 70.5549C62.7218 71.5305 62.5073 72.8976 61.5317 73.6085C60.5561 74.3194 59.1889 74.1049 58.478 73.1293C56.995 71.0941 54.1821 69.9222 51.0217 69.9424C47.8657 69.9626 44.8902 71.1751 43.2229 73.2223C42.4606 74.1583 41.0838 74.2991 40.1479 73.5368C39.2119 72.7745 39.0711 71.3978 39.8334 70.4618C42.5267 67.1548 46.8909 65.5974 50.9937 65.5711C55.0921 65.5449 59.4571 67.0502 62.0109 70.5549Z" fill="#4C956C"/>
</svg>
