<svg width="203" height="203" viewBox="0 0 203 203" fill="none" xmlns="http://www.w3.org/2000/svg">
<path fill-rule="evenodd" clip-rule="evenodd" d="M134.81 23.4717L134.761 23.7578C132.817 35.2044 133.215 42.8724 136.769 47.471C138.234 49.3665 140.02 50.7342 143.141 51.8091C149.783 54.0969 158.27 52.3388 168.708 47.7595L173.529 58.7485C162.659 63.5172 150.456 67.0204 139.233 63.155C134.096 61.3855 130.294 58.7152 127.275 54.8097C120.235 45.7015 121.003 33.0971 122.931 21.7478L122.979 21.4617C123.014 21.2557 122.92 21.0491 122.742 20.9404L116.037 16.8559C107.109 11.4169 95.8909 11.4169 86.9625 16.8559C82.3919 19.6403 77.1178 21.0535 71.7673 20.9275C61.3156 20.6813 51.6007 26.2901 46.5881 35.4647L36.0574 29.7111C43.2227 16.5965 57.1097 8.57888 72.0499 8.93079C75.1026 9.00269 78.1117 8.1964 80.7195 6.60778C93.4821 -1.16709 109.517 -1.16709 122.28 6.60778L128.985 10.6923C133.36 13.3576 135.668 18.4212 134.81 23.4717ZM35.4644 46.5883C40.1611 44.0223 44.022 40.1613 46.5881 35.4647L36.0574 29.7111C34.5933 32.3907 32.3905 34.5936 29.7108 36.0576L35.4644 46.5883ZM35.4644 156.412C40.1611 158.978 44.022 162.839 46.5881 167.535C51.6007 176.71 61.3156 182.319 71.7673 182.073C77.1178 181.947 82.3919 183.36 86.9625 186.144C95.8909 191.583 107.109 191.583 116.037 186.144C120.608 183.36 125.882 181.947 131.232 182.073C141.684 182.319 151.399 176.71 156.411 167.535C158.977 162.839 162.838 158.978 167.535 156.412C176.71 151.399 182.318 141.684 182.072 131.232C181.946 125.882 183.359 120.608 186.144 116.037C191.583 107.109 191.583 95.8911 186.144 86.9628L183.874 83.2366C182.548 81.0602 181.463 78.746 180.638 76.3348L174.816 59.3139C174.635 58.7851 174.041 58.5239 173.529 58.7485L168.708 47.7595C175.652 44.7132 183.716 48.2555 186.17 55.4301L191.993 72.451C192.535 74.038 193.249 75.5611 194.122 76.9935L196.392 80.7197C204.167 93.4824 204.167 109.518 196.392 122.28C194.803 124.888 193.997 127.897 194.069 130.95C194.421 145.89 186.403 159.777 173.289 166.942C170.609 168.406 168.406 170.609 166.942 173.289C159.777 186.404 145.89 194.421 130.95 194.069C127.897 193.997 124.888 194.804 122.28 196.392C109.517 204.167 93.4821 204.167 80.7195 196.392C78.1117 194.804 75.1026 193.997 72.0499 194.069C57.1097 194.421 43.2227 186.404 36.0574 173.289C34.5933 170.609 32.3905 168.406 29.7108 166.942L35.4644 156.412ZM35.4644 156.412C26.2899 151.399 20.681 141.684 20.9272 131.232C21.0532 125.882 19.64 120.608 16.8557 116.037C11.4166 107.109 11.4166 95.8911 16.8557 86.9628C19.64 82.3921 21.0532 77.118 20.9272 71.7676C20.681 61.3159 26.2899 51.601 35.4644 46.5883L29.7108 36.0576C16.5962 43.223 8.57862 57.1099 8.93053 72.0501C9.00243 75.1028 8.19614 78.112 6.60752 80.7197C-1.16735 93.4824 -1.16735 109.518 6.60752 122.28C8.19614 124.888 9.00243 127.897 8.93053 130.95C8.57862 145.89 16.5963 159.777 29.7108 166.942L35.4644 156.412Z" fill="black" fill-opacity="0.5"/>
<path d="M84.9315 157.917C79.4828 164.157 67.216 162.362 57.5328 153.907C47.8496 145.452 44.4167 133.539 49.8654 127.299C55.314 121.059 67.5808 122.854 77.2641 131.309C86.9473 139.764 90.3801 151.676 84.9315 157.917Z" fill="black" fill-opacity="0.5"/>
<path d="M151.617 100.45C158.462 105.117 158.14 117.51 150.899 128.131C143.657 138.752 132.238 143.579 125.393 138.913C118.549 134.246 118.87 121.852 126.112 111.231C133.353 100.61 144.772 95.7831 151.617 100.45Z" fill="black" fill-opacity="0.5"/>
<path d="M86.1255 45.2406C93.8878 48.1348 96.5827 60.1297 92.1448 72.0318C87.7069 83.9339 77.8167 91.2361 70.0545 88.3419C62.2923 85.4476 59.5974 73.4527 64.0353 61.5506C68.4731 49.6486 78.3633 42.3463 86.1255 45.2406Z" fill="black" fill-opacity="0.5"/>
</svg>
