<svg width="20" height="20" viewBox="0 0 20 20" fill="none" xmlns="http://www.w3.org/2000/svg">
<path d="M4.75435 9.12572C4.75435 10.5743 5.5372 11.7486 6.5029 11.7486C7.4686 11.7486 8.25145 10.5743 8.25145 9.12572C8.25145 7.67718 7.4686 6.5029 6.5029 6.5029C5.5372 6.5029 4.75435 7.67718 4.75435 9.12572Z" fill="black"/>
<path d="M13.4971 11.7486C12.5314 11.7486 11.7486 10.5743 11.7486 9.12572C11.7486 7.67718 12.5314 6.5029 13.4971 6.5029C14.4628 6.5029 15.2457 7.67718 15.2457 9.12572C15.2457 10.5743 14.4628 11.7486 13.4971 11.7486Z" fill="black"/>
<path d="M7.91442 13.5391C7.77224 13.344 7.81515 13.0706 8.01027 12.9284C8.20539 12.7862 8.47882 12.8291 8.621 13.0242C8.91761 13.4313 9.48018 13.6657 10.1123 13.6616C10.7435 13.6576 11.3386 13.4151 11.672 13.0056C11.8245 12.8184 12.0998 12.7903 12.287 12.9427C12.4742 13.0952 12.5024 13.3705 12.3499 13.5577C11.8113 14.2191 10.9384 14.5306 10.1179 14.5359C9.29819 14.5411 8.42519 14.2401 7.91442 13.5391Z" fill="black"/>
<path fill-rule="evenodd" clip-rule="evenodd" d="M12.6553 0.976805L11.9501 0.547214C10.7524 -0.182404 9.2476 -0.182405 8.04992 0.547213C7.72281 0.746485 7.34535 0.847624 6.96243 0.838604C5.56039 0.80558 4.2572 1.55798 3.58478 2.78869C3.40113 3.12482 3.12482 3.40113 2.78869 3.58478C1.55798 4.2572 0.80558 5.56039 0.838604 6.96243C0.847624 7.34535 0.746485 7.72281 0.547214 8.04992C-0.182405 9.2476 -0.182405 10.7524 0.547214 11.9501C0.746485 12.2772 0.847624 12.6546 0.838604 13.0376C0.80558 14.4396 1.55798 15.7428 2.78869 16.4152C3.12482 16.5989 3.40113 16.8752 3.58478 17.2113C4.2572 18.442 5.56039 19.1944 6.96243 19.1614C7.34535 19.1524 7.72281 19.2535 8.04992 19.4528C9.2476 20.1824 10.7524 20.1824 11.9501 19.4528C12.2772 19.2535 12.6546 19.1524 13.0376 19.1614C14.4396 19.1944 15.7428 18.442 16.4152 17.2113C16.5989 16.8752 16.8752 16.5989 17.2113 16.4152C18.442 15.7428 19.1944 14.4396 19.1614 13.0376C19.1524 12.6546 19.2535 12.2772 19.4528 11.9501C20.1824 10.7524 20.1824 9.2476 19.4528 8.04992L19.2193 7.66665C19.116 7.497 19.0314 7.31661 18.9671 7.12865L18.3423 5.30205C18.164 4.7809 17.5626 4.54201 17.0753 4.79881L16.9327 4.87398C16.335 5.18898 15.6246 4.72144 15.6776 4.04791C15.7271 3.419 15.1284 2.93732 14.5246 3.12025L14.3317 3.1787C13.5792 3.40672 12.8659 2.72594 13.0586 1.9636C13.1551 1.58181 12.9916 1.18168 12.6553 0.976805ZM18.1399 7.41161L17.5151 5.58501C17.5105 5.57179 17.4953 5.56573 17.4829 5.57224L17.3403 5.64742C17.1643 5.74017 16.9835 5.79932 16.8033 5.82848C16.0253 5.95441 15.2593 5.52114 14.947 4.81932L14.9452 4.81518C14.8421 4.58177 14.7891 4.31882 14.8024 4.03695C14.8033 4.01785 14.8045 3.99865 14.806 3.97938C14.8072 3.96418 14.7928 3.95254 14.7782 3.95696L14.5853 4.01541C14.3662 4.08178 14.149 4.10686 13.9396 4.09652L13.9261 4.0958C12.8006 4.03194 11.9089 2.94438 12.211 1.74934C12.2135 1.73932 12.2093 1.72882 12.2004 1.72345L11.4952 1.29385C10.5769 0.734416 9.4231 0.734415 8.50476 1.29385C8.03464 1.58024 7.49217 1.7256 6.94184 1.71264C5.86682 1.68732 4.86759 2.26422 4.35201 3.20788C4.08807 3.69096 3.69096 4.08807 3.20788 4.35201C2.26422 4.86759 1.68732 5.86682 1.71264 6.94184C1.7256 7.49217 1.58024 8.03464 1.29385 8.50476C0.734416 9.4231 0.734415 10.5769 1.29385 11.4952C1.58024 11.9654 1.7256 12.5078 1.71264 13.0582C1.68732 14.1332 2.26422 15.1324 3.20788 15.648C3.69096 15.9119 4.08807 16.309 4.35201 16.7921C4.86759 17.7358 5.86682 18.3127 6.94184 18.2874C7.49217 18.2744 8.03464 18.4198 8.50476 18.7061C9.4231 19.2656 10.5769 19.2656 11.4952 18.7061C11.9654 18.4198 12.5078 18.2744 13.0582 18.2874C14.1332 18.3127 15.1324 17.7358 15.648 16.7921C15.9119 16.309 16.309 15.9119 16.7921 15.648C17.7358 15.1324 18.3127 14.1332 18.2874 13.0582C18.2744 12.5078 18.4198 11.9654 18.7061 11.4952C19.2656 10.5769 19.2656 9.4231 18.7061 8.50476L18.4727 8.1215C18.3363 7.89765 18.2247 7.65962 18.1399 7.41161Z" fill="black"/>
</svg>
