<svg width="24" height="23" viewBox="0 0 24 23" fill="none" xmlns="http://www.w3.org/2000/svg">
<path d="M6.23797 10.438C6.23797 12.0948 7.1334 13.438 8.23797 13.438C9.34254 13.438 10.238 12.0948 10.238 10.438C10.238 8.78113 9.34254 7.43798 8.23797 7.43798C7.1334 7.43798 6.23797 8.78113 6.23797 10.438Z" fill="white"/>
<path d="M16.238 13.438C15.1334 13.438 14.238 12.0948 14.238 10.438C14.238 8.78113 15.1334 7.43798 16.238 7.43798C17.3425 7.43798 18.238 8.78113 18.238 10.438C18.238 12.0948 17.3425 13.438 16.238 13.438Z" fill="white"/>
<path d="M9.85247 15.486C9.68985 15.2629 9.73893 14.9501 9.96211 14.7875C10.1853 14.6249 10.498 14.6739 10.6607 14.8971C10.9999 15.3627 11.6434 15.6308 12.3664 15.6262C13.0883 15.6215 13.769 15.3442 14.1505 14.8758C14.3248 14.6617 14.6398 14.6295 14.8539 14.8039C15.068 14.9783 15.1002 15.2932 14.9258 15.5073C14.3097 16.2639 13.3113 16.6201 12.3728 16.6261C11.4352 16.6321 10.4367 16.2878 9.85247 15.486Z" fill="white"/>
<path fill-rule="evenodd" clip-rule="evenodd" d="M15.2751 1.11721L14.4685 0.625844C13.0986 -0.208696 11.3774 -0.208696 10.0075 0.625844C9.63331 0.853772 9.20157 0.969455 8.76359 0.959138C7.15993 0.921365 5.66933 1.78196 4.90022 3.18965C4.69016 3.57412 4.37411 3.89017 3.98964 4.10023C2.58195 4.86935 1.72135 6.35994 1.75913 7.9636C1.76944 8.40158 1.65376 8.83332 1.42583 9.20747C0.591292 10.5774 0.591292 12.2986 1.42583 13.6685C1.65376 14.0426 1.76944 14.4744 1.75913 14.9124C1.72135 16.516 2.58195 18.0066 3.98964 18.7757C4.37411 18.9858 4.69016 19.3018 4.90022 19.6863C5.66933 21.094 7.15993 21.9546 8.76359 21.9168C9.20157 21.9065 9.63331 22.0222 10.0075 22.2501C11.3774 23.0847 13.0986 23.0847 14.4685 22.2501C14.8426 22.0222 15.2744 21.9065 15.7124 21.9168C17.316 21.9546 18.8066 21.094 19.5757 19.6863C19.7858 19.3018 20.1018 18.9858 20.4863 18.7757C21.894 18.0066 22.7546 16.516 22.7168 14.9124C22.7065 14.4744 22.8222 14.0426 23.0501 13.6685C23.8846 12.2986 23.8847 10.5774 23.0501 9.20747L22.7831 8.76909C22.6648 8.57505 22.5681 8.36871 22.4946 8.15372L21.7799 6.06445C21.576 5.46836 20.8881 5.19511 20.3307 5.48884L20.1676 5.57482C19.4839 5.93512 18.6715 5.40035 18.732 4.62996C18.7886 3.91061 18.1038 3.35966 17.4133 3.56889L17.1926 3.63575C16.3319 3.89656 15.516 3.11789 15.7364 2.24591C15.8468 1.80922 15.6598 1.35155 15.2751 1.11721ZM21.5484 8.47738L20.8337 6.3881C20.8286 6.37298 20.8111 6.36604 20.797 6.3735L20.6338 6.45948C20.4325 6.56557 20.2257 6.63322 20.0196 6.66658C19.1297 6.81062 18.2536 6.31504 17.8964 5.51229L17.8943 5.50756C17.7764 5.24059 17.7158 4.93982 17.731 4.61742C17.732 4.59557 17.7334 4.57362 17.7351 4.55157C17.7365 4.53418 17.7199 4.52087 17.7033 4.52593L17.4826 4.59278C17.2321 4.66869 16.9836 4.69738 16.7441 4.68556L16.7287 4.68474C15.4413 4.61169 14.4214 3.36774 14.7669 2.00085C14.7698 1.98939 14.7649 1.97737 14.7548 1.97122L13.9482 1.47986C12.8978 0.839967 11.5781 0.839967 10.5277 1.47986C9.98999 1.80743 9.3695 1.97369 8.74004 1.95886C7.51042 1.9299 6.3675 2.58976 5.77778 3.66912C5.47588 4.22167 5.02166 4.6759 4.46911 4.97779C3.38975 5.56751 2.72989 6.71044 2.75885 7.94005C2.77368 8.56952 2.60742 9.19 2.27984 9.72772C1.63995 10.7781 1.63995 12.0978 2.27984 13.1482C2.60742 13.686 2.77368 14.3064 2.75885 14.9359C2.72989 16.1655 3.38975 17.3085 4.46911 17.8982C5.02166 18.2001 5.47588 18.6543 5.77778 19.2068C6.3675 20.2862 7.51042 20.9461 8.74004 20.9171C9.3695 20.9023 9.98999 21.0685 10.5277 21.3961C11.5781 22.036 12.8978 22.036 13.9482 21.3961C14.486 21.0685 15.1064 20.9023 15.7359 20.9171C16.9655 20.9461 18.1084 20.2862 18.6982 19.2068C19.0001 18.6543 19.4543 18.2001 20.0068 17.8982C21.0862 17.3085 21.7461 16.1655 21.7171 14.9359C21.7023 14.3064 21.8685 13.686 22.1961 13.1482C22.836 12.0979 22.836 10.7781 22.1961 9.72772L21.929 9.28934C21.7731 9.03331 21.6454 8.76105 21.5484 8.47738Z" fill="white"/>
</svg>
