<svg width="71" height="70" viewBox="0 0 71 70" fill="none" xmlns="http://www.w3.org/2000/svg">
<g filter="url(#filter0_i_90_734)">
<path d="M29.7268 3.27071C33.0736 1.23185 37.2787 1.23185 40.6255 3.27071L43.1955 4.83634C43.2277 4.85594 43.2434 4.89421 43.2341 4.93073C41.9244 10.1121 46.7722 14.7391 51.887 13.1893L52.59 12.9763C52.6432 12.9602 52.6959 13.0026 52.6916 13.058C52.3018 18.0146 57.5292 21.4552 61.9276 19.1371L62.4474 18.8632C62.4925 18.8394 62.5481 18.8615 62.5646 18.9097L64.8965 25.7267C65.1692 26.5242 65.528 27.2896 65.9665 28.0094L66.9054 29.5506C68.9443 32.8975 68.9443 37.1025 66.9054 40.4494C65.8617 42.1627 65.332 44.1397 65.3792 46.1454C65.4715 50.0632 63.369 53.7049 59.9298 55.5839C58.1693 56.5458 56.722 57.9931 55.7601 59.7537C53.8811 63.1928 50.2394 65.2953 46.3215 65.203C44.3159 65.1558 42.3388 65.6855 40.6255 66.7293C37.2787 68.7681 33.0736 68.7681 29.7268 66.7293C28.0135 65.6855 26.0364 65.1558 24.0308 65.203C20.1129 65.2953 16.4712 63.1928 14.5922 59.7537C13.6303 57.9931 12.183 56.5458 10.4225 55.5839C6.98333 53.7049 4.88081 50.0632 4.9731 46.1454C5.02034 44.1397 4.49059 42.1627 3.44686 40.4494C1.408 37.1025 1.408 32.8975 3.44686 29.5506C4.49059 27.8373 5.02034 25.8603 4.9731 23.8546C4.88081 19.9368 6.98333 16.2951 10.4225 14.4161C12.183 13.4542 13.6303 12.0069 14.5922 10.2463C16.4712 6.80718 20.1129 4.70467 24.0308 4.79695C26.0364 4.84419 28.0135 4.31445 29.7268 3.27071Z" fill="#F7B779"/>
<path fill-rule="evenodd" clip-rule="evenodd" d="M61.1156 17.5965L61.6355 17.3225C62.6266 16.8001 63.8499 17.2861 64.2124 18.3461L66.5443 25.1631C66.7761 25.8409 67.0811 26.4915 67.4538 27.1033L68.3928 28.6446C70.7706 32.5479 70.7706 37.4521 68.3928 41.3554C67.5226 42.7839 67.0809 44.4322 67.1203 46.1044C67.2279 50.6737 64.7758 54.9208 60.7649 57.1122C59.297 57.9142 58.0904 59.1209 57.2884 60.5887C55.097 64.5997 50.8498 67.0518 46.2805 66.9441C44.6083 66.9047 42.96 67.3464 41.5316 68.2166C37.6282 70.5945 32.724 70.5945 28.8207 68.2166C27.3923 67.3464 25.744 66.9047 24.0718 66.9441C19.5025 67.0518 15.2553 64.5997 13.0639 60.5887C12.2619 59.1209 11.0553 57.9142 9.58743 57.1122C5.57649 54.9208 3.12439 50.6737 3.23201 46.1044C3.2714 44.4322 2.82974 42.7839 1.95954 41.3554C-0.418317 37.4521 -0.418317 32.5479 1.95954 28.6446C2.82974 27.2161 3.2714 25.5678 3.23201 23.8956C3.12439 19.3263 5.57649 15.0792 9.58743 12.8877C11.0553 12.0858 12.2619 10.8791 13.0639 9.41128C15.2553 5.40034 19.5025 2.94824 24.0718 3.05587C25.744 3.09525 27.3923 2.65359 28.8207 1.78339C32.724 -0.594464 37.6282 -0.594465 41.5316 1.78339L44.1016 3.34903C44.7861 3.76601 45.119 4.5804 44.9226 5.35753C43.9449 9.22544 47.5638 12.6795 51.382 11.5226L52.085 11.3096C53.3117 10.9379 54.5283 11.9166 54.4278 13.1945C54.1456 16.7836 57.9307 19.275 61.1156 17.5965ZM52.7771 14.7394C53.4596 18.411 57.3184 20.7646 60.9454 19.5571C60.9462 19.5569 60.9469 19.5566 60.9476 19.5564C61.277 19.4466 61.6045 19.3074 61.9276 19.1371L62.4474 18.8632C62.4925 18.8394 62.5481 18.8615 62.5646 18.9097L64.8965 25.7267C65.1692 26.5242 65.528 27.2896 65.9665 28.0094L66.9054 29.5506C68.9443 32.8975 68.9443 37.1025 66.9054 40.4494C65.8617 42.1627 65.332 44.1397 65.3792 46.1454C65.4715 50.0632 63.369 53.7049 59.9298 55.5839C58.1693 56.5458 56.722 57.9931 55.7601 59.7537C53.8811 63.1928 50.2394 65.2953 46.3215 65.203C44.3159 65.1558 42.3388 65.6855 40.6255 66.7293C37.2787 68.7681 33.0736 68.7681 29.7268 66.7293C28.0135 65.6855 26.0364 65.1558 24.0308 65.203C20.1129 65.2953 16.4712 63.1928 14.5922 59.7537C13.6303 57.9931 12.183 56.5458 10.4225 55.5839C6.98333 53.7049 4.88081 50.0632 4.9731 46.1454C5.02034 44.1397 4.49059 42.1627 3.44686 40.4494C1.408 37.1025 1.408 32.8975 3.44686 29.5506C4.49059 27.8373 5.02034 25.8603 4.9731 23.8546C4.88081 19.9368 6.98333 16.2951 10.4225 14.4161C12.183 13.4542 13.6303 12.0069 14.5922 10.2463C16.4712 6.80718 20.1129 4.70467 24.0308 4.79695C26.0364 4.84419 28.0135 4.31445 29.7268 3.27071C33.0736 1.23185 37.2787 1.23185 40.6255 3.27071L43.1955 4.83634C43.2277 4.85594 43.2434 4.89421 43.2341 4.93073C42.0064 9.78775 46.1894 14.1576 50.931 13.4091C50.9493 13.4063 50.9675 13.4033 50.9858 13.4003C51.2845 13.3507 51.5852 13.2808 51.887 13.1893L52.59 12.9763C52.6432 12.9602 52.6959 13.0026 52.6916 13.058C52.6861 13.1283 52.6817 13.1982 52.6784 13.2679C52.6549 13.7655 52.6881 14.2469 52.7713 14.7078C52.7732 14.7183 52.7751 14.7289 52.7771 14.7394Z" fill="black"/>
</g>
<path d="M51.0679 4.81284C51.0679 5.25368 50.7105 5.61106 50.2697 5.61106C49.8289 5.61106 49.4715 5.25368 49.4715 4.81284C49.4715 4.372 49.8289 4.01462 50.2697 4.01462C50.7105 4.01462 51.0679 4.372 51.0679 4.81284Z" fill="#F7B779"/>
<path d="M60.6465 4.30488C60.6465 5.02626 60.0617 5.61106 59.3404 5.61106C58.619 5.61106 58.0342 5.02626 58.0342 4.30488C58.0342 3.58351 58.619 2.99871 59.3404 2.99871C60.0617 2.99871 60.6465 3.58351 60.6465 4.30488Z" fill="#F7B779"/>
<path d="M58.905 15.3348C58.905 15.7356 58.5801 16.0604 58.1793 16.0604C57.7785 16.0604 57.4537 15.7356 57.4537 15.3348C57.4537 14.934 57.7785 14.6091 58.1793 14.6091C58.5801 14.6091 58.905 14.934 58.905 15.3348Z" fill="#F7B779"/>
<path fill-rule="evenodd" clip-rule="evenodd" d="M51.9387 4.81284C51.9387 5.7346 51.1915 6.48184 50.2697 6.48184C49.3479 6.48184 48.6007 5.7346 48.6007 4.81284C48.6007 3.89108 49.3479 3.14384 50.2697 3.14384C51.1915 3.14384 51.9387 3.89108 51.9387 4.81284ZM61.5173 4.30488C61.5173 5.50718 60.5427 6.48184 59.3404 6.48184C58.1381 6.48184 57.1634 5.50718 57.1634 4.30488C57.1634 3.10259 58.1381 2.12793 59.3404 2.12793C60.5427 2.12793 61.5173 3.10259 61.5173 4.30488ZM59.7757 15.3348C59.7757 16.2165 59.061 16.9312 58.1793 16.9312C57.2976 16.9312 56.5829 16.2165 56.5829 15.3348C56.5829 14.4531 57.2976 13.7384 58.1793 13.7384C59.061 13.7384 59.7757 14.4531 59.7757 15.3348ZM60.6465 4.30488C60.6465 5.02626 60.0617 5.61106 59.3404 5.61106C58.619 5.61106 58.0342 5.02626 58.0342 4.30488C58.0342 3.58351 58.619 2.99871 59.3404 2.99871C60.0617 2.99871 60.6465 3.58351 60.6465 4.30488ZM51.0679 4.81284C51.0679 5.25368 50.7105 5.61106 50.2697 5.61106C49.8289 5.61106 49.4715 5.25368 49.4715 4.81284C49.4715 4.372 49.8289 4.01462 50.2697 4.01462C50.7105 4.01462 51.0679 4.372 51.0679 4.81284ZM58.1793 16.0604C58.5801 16.0604 58.905 15.7356 58.905 15.3348C58.905 14.934 58.5801 14.6091 58.1793 14.6091C57.7785 14.6091 57.4537 14.934 57.4537 15.3348C57.4537 15.7356 57.7785 16.0604 58.1793 16.0604Z" fill="black"/>
<path d="M12.1934 28.2198C12.4631 29.2263 11.3951 30.387 9.80791 30.8123C8.22075 31.2375 6.71549 30.7664 6.4458 29.7599C6.17611 28.7534 7.24413 27.5927 8.83128 27.1675C10.4184 26.7422 11.9237 27.2133 12.1934 28.2198Z" fill="#644D3A"/>
<path d="M29.042 13.35C28.7412 14.4726 27.0851 15.0042 25.3431 14.5375C23.6012 14.0707 22.4328 12.7823 22.7336 11.6596C23.0344 10.537 24.6905 10.0053 26.4325 10.4721C28.1745 10.9389 29.3428 12.2273 29.042 13.35Z" fill="#644D3A"/>
<path d="M63.8394 36.7416C63.8394 37.7435 62.5723 38.5557 61.0094 38.5557C59.4464 38.5557 58.1793 37.7435 58.1793 36.7416C58.1793 35.7396 59.4464 34.9274 61.0094 34.9274C62.5723 34.9274 63.8394 35.7396 63.8394 36.7416Z" fill="#644D3A"/>
<path d="M49.4245 56.0052C48.3019 55.7044 47.7703 54.0484 48.237 52.3064C48.7038 50.5644 49.9922 49.3961 51.1149 49.6969C52.2375 49.9977 52.7692 51.6537 52.3024 53.3957C51.8356 55.1377 50.5472 56.306 49.4245 56.0052Z" fill="#8B6B54"/>
<path d="M35.2487 57.4226C35.2487 58.7852 33.5593 59.8898 31.4753 59.8898C29.3913 59.8898 27.7019 58.7852 27.7019 57.4226C27.7019 56.06 29.3913 54.9554 31.4753 54.9554C33.5593 54.9554 35.2487 56.06 35.2487 57.4226Z" fill="#644D3A"/>
<path d="M13.0048 51.7056C11.9983 52.2867 10.4514 51.4917 9.54964 49.9299C8.64792 48.368 8.73287 46.6308 9.73938 46.0497C10.7459 45.4686 12.2928 46.2636 13.1946 47.8255C14.0963 49.3873 14.0113 51.1245 13.0048 51.7056Z" fill="#8B6B54"/>
<path d="M47.1494 17.6569C47.1494 18.5386 46.0448 19.2534 44.6822 19.2534C43.3196 19.2534 42.215 18.5386 42.215 17.6569C42.215 16.7752 43.3196 16.0605 44.6822 16.0605C46.0448 16.0605 47.1494 16.7752 47.1494 17.6569Z" fill="#8B6B54"/>
<path fill-rule="evenodd" clip-rule="evenodd" d="M12.9785 30.9133C12.2908 31.6607 11.3216 32.2097 10.2587 32.4945C9.19567 32.7793 8.08187 32.7884 7.11256 32.485C6.16743 32.1892 5.10674 31.4914 4.76358 30.2106C4.42041 28.9299 4.99007 27.7952 5.66066 27.0665C6.3484 26.3191 7.31755 25.7701 8.38053 25.4852C9.44352 25.2004 10.5573 25.1913 11.5266 25.4947C12.4718 25.7905 13.5324 26.4884 13.8756 27.7691C14.2188 29.0498 13.6491 30.1845 12.9785 30.9133ZM28.2654 16.1979C27.2327 16.5295 26.038 16.5267 24.8924 16.2197C23.7468 15.9127 22.7108 15.3179 21.9822 14.5144C21.2681 13.7268 20.6962 12.5347 21.0514 11.2089C21.4067 9.88313 22.4981 9.13663 23.5102 8.81166C24.543 8.4801 25.7376 8.48294 26.8832 8.78989C28.0288 9.09685 29.0648 9.69173 29.7934 10.4952C30.5075 11.2828 31.0794 12.4749 30.7242 13.8007C30.369 15.1265 29.2776 15.873 28.2654 16.1979ZM63.9504 39.4905C63.1179 40.0242 62.0733 40.2973 61.0094 40.2973C59.9454 40.2973 58.9008 40.0242 58.0684 39.4905C57.2551 38.9692 56.4377 38.0384 56.4377 36.7416C56.4377 35.4447 57.2551 34.5139 58.0684 33.9926C58.9008 33.459 59.9454 33.1859 61.0094 33.1859C62.0733 33.1859 63.1179 33.459 63.9504 33.9926C64.7636 34.5139 65.581 35.4447 65.581 36.7416C65.581 38.0384 64.7636 38.9692 63.9504 39.4905ZM46.5766 55.2286C46.245 54.1959 46.2478 53.0012 46.5548 51.8556C46.8618 50.71 47.4566 49.674 48.2601 48.9454C49.0477 48.2313 50.2398 47.6594 51.5656 48.0146C52.8914 48.3699 53.6379 49.4613 53.9628 50.4734C54.2944 51.5062 54.2916 52.7009 53.9846 53.8464C53.6777 54.992 53.0828 56.028 52.2793 56.7566C51.4918 57.4707 50.2996 58.0426 48.9738 57.6874C47.648 57.3322 46.9015 56.2408 46.5766 55.2286ZM35.0966 60.6249C34.0917 61.2819 32.8065 61.6314 31.4753 61.6314C30.1442 61.6314 28.8589 61.2819 27.8541 60.6249C26.8646 59.9779 25.9604 58.8833 25.9604 57.4226C25.9604 55.9619 26.8646 54.8673 27.8541 54.2204C28.8589 53.5634 30.1442 53.2138 31.4753 53.2138C32.8065 53.2138 34.0917 53.5634 35.0966 54.2204C36.086 54.8673 36.9903 55.9619 36.9903 57.4226C36.9903 58.8833 36.086 59.9779 35.0966 60.6249ZM10.4419 53.1703C9.47716 52.6745 8.63439 51.8277 8.0414 50.8006C7.44841 49.7736 7.13646 48.6203 7.18944 47.537C7.24136 46.4752 7.67995 45.2277 8.8686 44.5415C10.0572 43.8552 11.3568 44.0991 12.3023 44.585C13.267 45.0808 14.1098 45.9276 14.7028 46.9547C15.2958 47.9818 15.6077 49.135 15.5548 50.2184C15.5028 51.2802 15.0642 52.5276 13.8756 53.2138C12.6869 53.9001 11.3874 53.6562 10.4419 53.1703ZM47.3729 20.2479C46.6053 20.7446 45.6491 20.9949 44.6822 20.9949C43.7153 20.9949 42.7591 20.7446 41.9915 20.2479C41.2412 19.7625 40.4734 18.8858 40.4734 17.6569C40.4734 16.428 41.2412 15.5514 41.9915 15.0659C42.7591 14.5692 43.7153 14.3189 44.6822 14.3189C45.6491 14.3189 46.6053 14.5692 47.3729 15.0659C48.1231 15.5514 48.891 16.428 48.891 17.6569C48.891 18.8858 48.1231 19.7625 47.3729 20.2479ZM29.042 13.35C28.7412 14.4726 27.0851 15.0042 25.3431 14.5375C23.6012 14.0707 22.4328 12.7823 22.7336 11.6596C23.0344 10.537 24.6905 10.0053 26.4325 10.4721C28.1745 10.9389 29.3428 12.2273 29.042 13.35ZM12.1934 28.2198C12.4631 29.2263 11.3951 30.387 9.80791 30.8123C8.22075 31.2375 6.71549 30.7664 6.4458 29.7599C6.17611 28.7534 7.24413 27.5927 8.83128 27.1675C10.4184 26.7422 11.9237 27.2133 12.1934 28.2198ZM61.0094 38.5557C62.5723 38.5557 63.8394 37.7435 63.8394 36.7416C63.8394 35.7396 62.5723 34.9274 61.0094 34.9274C59.4464 34.9274 58.1793 35.7396 58.1793 36.7416C58.1793 37.7435 59.4464 38.5557 61.0094 38.5557ZM49.4245 56.0052C48.3019 55.7044 47.7703 54.0484 48.237 52.3064C48.7038 50.5644 49.9922 49.3961 51.1149 49.6969C52.2375 49.9977 52.7692 51.6537 52.3024 53.3957C51.8356 55.1377 50.5472 56.306 49.4245 56.0052ZM31.4753 59.8898C33.5593 59.8898 35.2487 58.7852 35.2487 57.4226C35.2487 56.06 33.5593 54.9554 31.4753 54.9554C29.3913 54.9554 27.7019 56.06 27.7019 57.4226C27.7019 58.7852 29.3913 59.8898 31.4753 59.8898ZM13.0048 51.7056C11.9983 52.2867 10.4514 51.4917 9.54964 49.9299C8.64792 48.368 8.73287 46.6308 9.73938 46.0497C10.7459 45.4686 12.2928 46.2636 13.1946 47.8255C14.0963 49.3873 14.0113 51.1245 13.0048 51.7056ZM44.6822 19.2534C46.0448 19.2534 47.1494 18.5386 47.1494 17.6569C47.1494 16.7752 46.0448 16.0605 44.6822 16.0605C43.3196 16.0605 42.215 16.7752 42.215 17.6569C42.215 18.5386 43.3196 19.2534 44.6822 19.2534Z" fill="black"/>
<path d="M28.9922 45.133L21.9956 35.7889H19.4911V45.133H17.0264V24.7748H19.4911V33.602H20.5644L28.7139 24.7748H31.6557L23.4267 33.7213L31.934 45.133H28.9922Z" fill="#8B6B54"/>
<path d="M39.2182 45.133V24.7748H46.3341C47.752 24.7748 48.9214 25.02 49.8424 25.5104C50.7633 25.9942 51.4491 26.647 51.8996 27.4687C52.3501 28.2838 52.5754 29.1884 52.5754 30.1825C52.5754 31.0572 52.4197 31.7796 52.1083 32.3495C51.8035 32.9194 51.3994 33.3701 50.8958 33.7014C50.3989 34.0328 49.8589 34.278 49.2759 34.437V34.6358C49.8987 34.6756 50.5248 34.8943 51.1542 35.2919C51.7837 35.6895 52.3104 36.2594 52.7344 37.0017C53.1585 37.7439 53.3705 38.6518 53.3705 39.7254C53.3705 40.7459 53.1386 41.6638 52.6748 42.4789C52.211 43.294 51.4789 43.9401 50.4784 44.4173C49.4779 44.8944 48.176 45.133 46.5726 45.133H39.2182ZM41.6829 42.9461H46.5726C48.1826 42.9461 49.3256 42.6346 50.0014 42.0117C50.6838 41.3821 51.025 40.62 51.025 39.7254C51.025 39.0362 50.8494 38.4 50.4983 37.8168C50.1471 37.227 49.6469 36.7565 48.9976 36.4052C48.3483 36.0474 47.5797 35.8685 46.6919 35.8685H41.6829V42.9461ZM41.6829 33.7213H46.2546C46.9967 33.7213 47.6658 33.5755 48.2621 33.2839C48.8651 32.9923 49.3421 32.5815 49.6933 32.0513C50.0511 31.5211 50.2299 30.8982 50.2299 30.1825C50.2299 29.2878 49.9185 28.529 49.2957 27.9061C48.6729 27.2765 47.6857 26.9618 46.3341 26.9618H41.6829V33.7213Z" fill="#8B6B54"/>
<path fill-rule="evenodd" clip-rule="evenodd" d="M28.1716 46.7726L21.175 37.4285H21.1307V46.7726H15.3868V23.1353H21.1307V30.5716L27.9961 23.1353H35.3915L25.5535 33.831L35.2013 46.7726H28.1716ZM23.4267 33.7213L31.6557 24.7748H28.7139L20.5644 33.602H19.4911V24.7748H17.0264V45.133H19.4911V35.7889H21.9956L28.9922 45.133H31.934L23.4267 33.7213ZM37.5786 46.7726V23.1353H46.3341C47.9268 23.1353 49.3817 23.4087 50.6087 24.061C51.7797 24.6769 52.7143 25.5454 53.3359 26.678C53.9288 27.7516 54.215 28.9312 54.215 30.1825C54.215 31.238 54.029 32.2506 53.5506 33.1293C53.3056 33.586 53.0074 33.9993 52.6553 34.3616C53.2555 34.863 53.7538 35.4807 54.1581 36.1883C54.7555 37.234 55.0101 38.4385 55.0101 39.7254C55.0101 41.0044 54.7165 42.206 54.0998 43.2897C53.4419 44.4461 52.4308 45.3027 51.1842 45.8972C49.8874 46.5156 48.3193 46.7726 46.5726 46.7726H37.5786ZM50.8958 33.7014C51.0066 33.6285 51.1125 33.5499 51.2137 33.4655C51.5724 33.1661 51.8706 32.7941 52.1083 32.3495C52.4197 31.7796 52.5754 31.0572 52.5754 30.1825C52.5754 29.1884 52.3501 28.2838 51.8996 27.4687C51.4491 26.647 50.7633 25.9942 49.8424 25.5104C48.9214 25.02 47.752 24.7748 46.3341 24.7748H39.2182V45.133H46.5726C48.176 45.133 49.4779 44.8944 50.4784 44.4173C51.4789 43.9401 52.211 43.294 52.6748 42.4789C53.1386 41.6638 53.3705 40.7459 53.3705 39.7254C53.3705 38.6518 53.1585 37.7439 52.7344 37.0017C52.3408 36.3126 51.8586 35.772 51.2879 35.38C51.2439 35.3497 51.1993 35.3204 51.1542 35.2919C50.5434 34.9061 49.9357 34.6887 49.3312 34.6398C49.3127 34.6383 49.2943 34.637 49.2759 34.6358V34.437C49.2802 34.4358 49.2845 34.4347 49.2888 34.4335C49.4662 34.3846 49.6396 34.3278 49.809 34.263C50.1917 34.1166 50.554 33.9294 50.8958 33.7014ZM47.6363 33.5285C47.8531 33.4634 48.0618 33.3819 48.2621 33.2839C48.4787 33.1792 48.679 33.0591 48.863 32.9236C48.9153 32.8851 48.9663 32.8454 49.016 32.8044C49.2783 32.588 49.5041 32.337 49.6933 32.0513C50.0511 31.5211 50.2299 30.8982 50.2299 30.1825C50.2299 29.2878 49.9185 28.529 49.2957 27.9061C48.6729 27.2765 47.6857 26.9618 46.3341 26.9618H41.6829V33.7213H46.2546C46.7473 33.7213 47.2078 33.657 47.6363 33.5285ZM43.3225 32.0817H46.2546C46.7767 32.0817 47.1951 31.9806 47.5419 31.811L47.5451 31.8094L47.5483 31.8079C47.901 31.6373 48.1465 31.4174 48.3264 31.1459L48.3303 31.14L48.3342 31.1341C48.4878 30.9065 48.5904 30.6117 48.5904 30.1825C48.5904 29.715 48.4463 29.3754 48.1363 29.0653L48.1332 29.0623L48.1301 29.0592C47.9446 28.8716 47.4743 28.6013 46.3341 28.6013H43.3225V32.0817ZM48.6587 36.2393C48.3429 36.1031 48.0021 36.0044 47.6363 35.9432C47.3381 35.8934 47.0233 35.8685 46.6919 35.8685H41.6829V42.9461H46.5726C48.1826 42.9461 49.3256 42.6346 50.0014 42.0117C50.6838 41.3821 51.025 40.62 51.025 39.7254C51.025 39.0362 50.8494 38.4 50.4983 37.8168C50.1471 37.227 49.6469 36.7565 48.9976 36.4052C48.888 36.3448 48.775 36.2895 48.6587 36.2393ZM48.8901 40.8061C49.2501 40.4738 49.3854 40.1428 49.3854 39.7254C49.3854 39.3303 49.2891 38.9871 49.0937 38.6626L49.0916 38.6591L49.0895 38.6556C48.9011 38.3391 48.627 38.0689 48.2175 37.8474L48.2118 37.8443L48.2062 37.8412C47.8429 37.641 47.3575 37.508 46.6919 37.508H43.3225V41.3065H46.5726C48.0534 41.3065 48.6749 41.0044 48.89 40.8063" fill="black"/>
<defs>
<filter id="filter0_i_90_734" x="0.176147" y="0" width="70" height="70" filterUnits="userSpaceOnUse" color-interpolation-filters="sRGB">
<feFlood flood-opacity="0" result="BackgroundImageFix"/>
<feBlend mode="normal" in="SourceGraphic" in2="BackgroundImageFix" result="shape"/>
<feColorMatrix in="SourceAlpha" type="matrix" values="0 0 0 0 0 0 0 0 0 0 0 0 0 0 0 0 0 0 127 0" result="hardAlpha"/>
<feOffset dx="7"/>
<feComposite in2="hardAlpha" operator="arithmetic" k2="-1" k3="1"/>
<feColorMatrix type="matrix" values="0 0 0 0 0 0 0 0 0 0 0 0 0 0 0 0 0 0 0.2 0"/>
<feBlend mode="normal" in2="shape" result="effect1_innerShadow_90_734"/>
</filter>
</defs>
</svg>
