<svg width="84" height="84" viewBox="0 0 84 84" fill="none" xmlns="http://www.w3.org/2000/svg">
<g filter="url(#filter0_i_125_1664)">
<path d="M35.7148 4.2115C39.6832 1.794 44.6691 1.79399 48.6375 4.2115L51.6849 6.06789C51.723 6.09113 51.7415 6.13651 51.7306 6.17981C50.1776 12.3234 55.9258 17.8097 61.9904 15.9722L62.824 15.7196C62.8871 15.7005 62.9496 15.7508 62.9444 15.8164C62.4823 21.6935 68.6804 25.7731 73.8957 23.0246L74.5121 22.6997C74.5655 22.6715 74.6315 22.6977 74.651 22.7549L77.4159 30.8379C77.7394 31.7835 78.1648 32.691 78.6847 33.5445L79.798 35.372C82.2155 39.3404 82.2155 44.3264 79.798 48.2948C78.5604 50.3263 77.9323 52.6705 77.9883 55.0486C78.0978 59.6941 75.6048 64.012 71.527 66.24C69.4394 67.3806 67.7234 69.0966 66.5828 71.1842C64.3548 75.262 60.0368 77.755 55.3914 77.6456C53.0132 77.5895 50.669 78.2177 48.6375 79.4552C44.6691 81.8727 39.6832 81.8727 35.7148 79.4552C33.6833 78.2177 31.3391 77.5895 28.9609 77.6456C24.3154 77.755 19.9975 75.262 17.7695 71.1842C16.6289 69.0966 14.9129 67.3806 12.8253 66.24C8.74752 64.012 6.25454 59.6941 6.36396 55.0486C6.41997 52.6705 5.79185 50.3263 4.55427 48.2948C2.13677 44.3264 2.13677 39.3404 4.55427 35.372C5.79185 33.3405 6.41997 30.9963 6.36396 28.6182C6.25454 23.9727 8.74752 19.6547 12.8253 17.4267C14.9129 16.2862 16.6289 14.5701 17.7695 12.4826C19.9975 8.40474 24.3154 5.91176 28.9609 6.02118C31.3391 6.0772 33.6833 5.44908 35.7148 4.2115Z" fill="#F7B779"/>
<path fill-rule="evenodd" clip-rule="evenodd" d="M72.9329 21.1977L73.5493 20.8729C74.7245 20.2536 76.175 20.8297 76.6049 22.0865L79.3698 30.1696C79.6447 30.9733 80.0063 31.7447 80.4483 32.4702L81.5616 34.2977C84.381 38.9259 84.381 44.7409 81.5615 49.3691C80.5297 51.0628 80.0061 53.0172 80.0528 55C80.1804 60.4178 77.2729 65.4538 72.5171 68.0522C70.7766 69.0031 69.3459 70.4338 68.395 72.1743C65.7965 76.9301 60.7606 79.8376 55.3427 79.71C53.36 79.6633 51.4056 80.187 49.7118 81.2188C45.0836 84.0382 39.2687 84.0382 34.6404 81.2188C32.9467 80.187 30.9923 79.6633 29.0096 79.71C23.5917 79.8376 18.5558 76.9301 15.9573 72.1743C15.0064 70.4338 13.5757 69.0031 11.8352 68.0522C7.0794 65.4538 4.17192 60.4178 4.29953 55C4.34623 53.0172 3.82255 51.0628 2.79074 49.3691C-0.0287175 44.7409 -0.0287173 38.9259 2.79074 34.2977C3.82255 32.6039 4.34623 30.6495 4.29953 28.6668C4.17192 23.2489 7.0794 18.213 11.8352 15.6146C13.5757 14.6636 15.0064 13.2329 15.9573 11.4925C18.5558 6.73663 23.5917 3.82914 29.0096 3.95676C30.9923 4.00346 32.9467 3.47977 34.6404 2.44797C39.2687 -0.37149 45.0836 -0.371491 49.7118 2.44797L52.7592 4.30436C53.5708 4.79879 53.9655 5.76442 53.7326 6.68587C52.5733 11.2721 56.8644 15.3676 61.3916 13.9959L62.2252 13.7433C63.6798 13.3026 65.1222 14.4631 65.0031 15.9783C64.6684 20.2339 69.1566 23.188 72.9329 21.1977ZM63.0458 17.8101C63.8551 22.1635 68.4305 24.9543 72.7311 23.5225C72.732 23.5222 72.7329 23.522 72.7337 23.5217C73.1243 23.3915 73.5127 23.2264 73.8957 23.0246L74.5121 22.6997C74.5655 22.6715 74.6315 22.6977 74.651 22.7549L77.4159 30.8379C77.7394 31.7835 78.1648 32.691 78.6847 33.5445L79.798 35.372C82.2155 39.3404 82.2155 44.3264 79.798 48.2948C78.5604 50.3263 77.9323 52.6705 77.9883 55.0486C78.0978 59.6941 75.6048 64.012 71.527 66.24C69.4394 67.3806 67.7234 69.0966 66.5828 71.1842C64.3548 75.262 60.0368 77.755 55.3914 77.6456C53.0132 77.5895 50.669 78.2177 48.6375 79.4552C44.6691 81.8727 39.6832 81.8727 35.7148 79.4552C33.6833 78.2177 31.3391 77.5895 28.9609 77.6456C24.3154 77.755 19.9975 75.262 17.7695 71.1842C16.6289 69.0966 14.9129 67.3806 12.8253 66.24C8.74752 64.012 6.25454 59.6941 6.36396 55.0486C6.41997 52.6705 5.79185 50.3263 4.55427 48.2948C2.13677 44.3264 2.13677 39.3404 4.55427 35.372C5.79185 33.3405 6.41997 30.9963 6.36396 28.6182C6.25454 23.9727 8.74752 19.6547 12.8253 17.4267C14.9129 16.2862 16.6289 14.5701 17.7695 12.4826C19.9975 8.40474 24.3154 5.91176 28.9609 6.02118C31.3391 6.0772 33.6833 5.44908 35.7148 4.2115C39.6832 1.794 44.6691 1.79399 48.6375 4.2115L51.6849 6.06789C51.723 6.09113 51.7415 6.13651 51.7306 6.17981C50.2749 11.9389 55.2348 17.1203 60.8569 16.2328C60.8786 16.2294 60.9002 16.2259 60.9219 16.2223C61.276 16.1635 61.6327 16.0806 61.9904 15.9722L62.824 15.7196C62.8871 15.7005 62.9496 15.7508 62.9444 15.8164C62.9379 15.8997 62.9327 15.9827 62.9288 16.0653C62.9009 16.6553 62.9403 17.2262 63.039 17.7726C63.0412 17.7851 63.0435 17.7976 63.0458 17.8101Z" fill="black"/>
</g>
<path d="M61.0193 6.04011C61.0193 6.56282 60.5955 6.98656 60.0728 6.98656C59.5501 6.98656 59.1264 6.56282 59.1264 6.04011C59.1264 5.51739 59.5501 5.09365 60.0728 5.09365C60.5955 5.09365 61.0193 5.51739 61.0193 6.04011Z" fill="#F7B779"/>
<path d="M72.3768 5.43781C72.3768 6.29316 71.6834 6.98656 70.828 6.98656C69.9727 6.98656 69.2793 6.29316 69.2793 5.43781C69.2793 4.58246 69.9727 3.88907 70.828 3.88907C71.6834 3.88907 72.3768 4.58246 72.3768 5.43781Z" fill="#F7B779"/>
<path d="M70.3118 18.5161C70.3118 18.9913 69.9266 19.3765 69.4514 19.3765C68.9762 19.3765 68.5909 18.9913 68.5909 18.5161C68.5909 18.0409 68.9762 17.6557 69.4514 17.6557C69.9266 17.6557 70.3118 18.0409 70.3118 18.5161Z" fill="#F7B779"/>
<path fill-rule="evenodd" clip-rule="evenodd" d="M62.0518 6.04011C62.0518 7.13305 61.1658 8.01906 60.0728 8.01906C58.9799 8.01906 58.0939 7.13305 58.0939 6.04011C58.0939 4.94716 58.9799 4.06115 60.0728 4.06115C61.1658 4.06115 62.0518 4.94716 62.0518 6.04011ZM73.4093 5.43781C73.4093 6.8634 72.2536 8.01906 70.828 8.01906C69.4024 8.01906 68.2468 6.8634 68.2468 5.43781C68.2468 4.01223 69.4024 2.85657 70.828 2.85657C72.2536 2.85657 73.4093 4.01223 73.4093 5.43781ZM71.3443 18.5161C71.3443 19.5616 70.4968 20.409 69.4514 20.409C68.4059 20.409 67.5584 19.5616 67.5584 18.5161C67.5584 17.4707 68.4059 16.6232 69.4514 16.6232C70.4968 16.6232 71.3443 17.4707 71.3443 18.5161ZM72.3768 5.43781C72.3768 6.29316 71.6834 6.98656 70.828 6.98656C69.9727 6.98656 69.2793 6.29316 69.2793 5.43781C69.2793 4.58246 69.9727 3.88907 70.828 3.88907C71.6834 3.88907 72.3768 4.58246 72.3768 5.43781ZM61.0193 6.04011C61.0193 6.56282 60.5955 6.98656 60.0728 6.98656C59.5501 6.98656 59.1264 6.56282 59.1264 6.04011C59.1264 5.51739 59.5501 5.09365 60.0728 5.09365C60.5955 5.09365 61.0193 5.51739 61.0193 6.04011ZM69.4514 19.3765C69.9266 19.3765 70.3118 18.9913 70.3118 18.5161C70.3118 18.0409 69.9266 17.6557 69.4514 17.6557C68.9762 17.6557 68.5909 18.0409 68.5909 18.5161C68.5909 18.9913 68.9762 19.3765 69.4514 19.3765Z" fill="black"/>
<path d="M18.9108 32.0581C19.2306 33.2515 17.9642 34.6277 16.0823 35.132C14.2004 35.6362 12.4156 35.0775 12.0958 33.8841C11.776 32.6907 13.0424 31.3145 14.9243 30.8103C16.8062 30.306 18.591 30.8647 18.9108 32.0581Z" fill="#644D3A"/>
<path d="M34.9028 16.1626C34.5461 17.4937 32.5825 18.1241 30.517 17.5707C28.4515 17.0172 27.0662 15.4895 27.4229 14.1584C27.7796 12.8273 29.7431 12.1969 31.8086 12.7503C33.8741 13.3038 35.2594 14.8315 34.9028 16.1626Z" fill="#644D3A"/>
<path d="M76.1626 43.8984C76.1626 45.0864 74.6602 46.0494 72.8069 46.0494C70.9537 46.0494 69.4513 45.0864 69.4513 43.8984C69.4513 42.7104 70.9537 41.7473 72.8069 41.7473C74.6602 41.7473 76.1626 42.7104 76.1626 43.8984Z" fill="#644D3A"/>
<path d="M59.0707 66.7395C57.7396 66.3829 57.1092 64.4193 57.6626 62.3538C58.2161 60.2883 59.7438 58.903 61.0749 59.2597C62.406 59.6163 63.0364 61.5799 62.483 63.6454C61.9295 65.7109 60.4018 67.0962 59.0707 66.7395Z" fill="#8B6B54"/>
<path d="M42.2622 68.4202C42.2622 70.0359 40.259 71.3456 37.788 71.3456C35.317 71.3456 33.3139 70.0359 33.3139 68.4202C33.3139 66.8046 35.317 65.4948 37.788 65.4948C40.259 65.4948 42.2622 66.8046 42.2622 68.4202Z" fill="#644D3A"/>
<path d="M21.7413 60.3298C20.5478 61.0189 18.7136 60.0762 17.6444 58.2243C16.5752 56.3724 16.676 54.3126 17.8694 53.6236C19.0629 52.9345 20.8971 53.8772 21.9663 55.7291C23.0354 57.581 22.9347 59.6408 21.7413 60.3298Z" fill="#8B6B54"/>
<path d="M56.373 21.2695C56.373 22.3149 55.0633 23.1624 53.4476 23.1624C51.8319 23.1624 50.5222 22.3149 50.5222 21.2695C50.5222 20.224 51.8319 19.3765 53.4476 19.3765C55.0633 19.3765 56.373 20.224 56.373 21.2695Z" fill="#8B6B54"/>
<path fill-rule="evenodd" clip-rule="evenodd" d="M19.8417 35.2517C19.0263 36.1379 17.8771 36.7889 16.6167 37.1266C15.3564 37.4643 14.0357 37.4751 12.8864 37.1154C11.7657 36.7646 10.5081 35.9372 10.1012 34.4186C9.69426 32.9 10.3697 31.5546 11.1648 30.6905C11.9803 29.8043 13.1294 29.1533 14.3898 28.8156C15.6502 28.4779 16.9709 28.4671 18.1202 28.8268C19.2409 29.1776 20.4985 30.005 20.9054 31.5236C21.3123 33.0422 20.6369 34.3876 19.8417 35.2517ZM33.982 19.5395C32.7574 19.9327 31.3409 19.9293 29.9826 19.5653C28.6242 19.2014 27.3958 18.496 26.5319 17.5433C25.6852 16.6095 25.007 15.1959 25.4283 13.6239C25.8495 12.052 27.1435 11.1668 28.3437 10.7815C29.5682 10.3884 30.9848 10.3917 32.3431 10.7557C33.7014 11.1196 34.9299 11.825 35.7938 12.7777C36.6405 13.7115 37.3186 15.1251 36.8974 16.6971C36.4762 18.2691 35.1821 19.1542 33.982 19.5395ZM76.2941 47.1579C75.3071 47.7906 74.0685 48.1144 72.8069 48.1144C71.5454 48.1144 70.3068 47.7906 69.3198 47.1579C68.3554 46.5397 67.3863 45.436 67.3863 43.8984C67.3863 42.3607 68.3554 41.257 69.3198 40.6389C70.3068 40.0062 71.5454 39.6823 72.8069 39.6823C74.0685 39.6823 75.3071 40.0062 76.2941 40.6389C77.2585 41.257 78.2276 42.3607 78.2276 43.8984C78.2276 45.436 77.2585 46.5397 76.2941 47.1579ZM55.6938 65.8187C55.3006 64.5942 55.304 63.1777 55.668 61.8193C56.0319 60.461 56.7373 59.2326 57.69 58.3687C58.6238 57.522 60.0374 56.8438 61.6094 57.265C63.1814 57.6862 64.0665 58.9803 64.4518 60.1805C64.8449 61.405 64.8416 62.8216 64.4776 64.1799C64.1137 65.5382 63.4083 66.7666 62.4556 67.6305C61.5218 68.4772 60.1082 69.1554 58.5362 68.7342C56.9642 68.313 56.0791 67.0189 55.6938 65.8187ZM42.0818 72.2171C40.8903 72.9962 39.3664 73.4106 37.788 73.4106C36.2097 73.4106 34.6857 72.9962 33.4943 72.2171C32.3211 71.4501 31.2489 70.1522 31.2489 68.4202C31.2489 66.6882 32.3211 65.3904 33.4943 64.6233C34.6857 63.8443 36.2097 63.4298 37.788 63.4298C39.3664 63.4298 40.8903 63.8443 42.0818 64.6233C43.255 65.3904 44.3272 66.6882 44.3272 68.4202C44.3272 70.1522 43.255 71.4501 42.0818 72.2171ZM18.7023 62.0665C17.5585 61.4787 16.5592 60.4746 15.8561 59.2568C15.153 58.039 14.7831 56.6716 14.8459 55.387C14.9075 54.128 15.4275 52.6489 16.8369 51.8352C18.2463 51.0215 19.7873 51.3107 20.9084 51.8868C22.0522 52.4747 23.0515 53.4788 23.7546 54.6966C24.4577 55.9144 24.8276 57.2818 24.7648 58.5664C24.7032 59.8254 24.1832 61.3045 22.7738 62.1182C21.3644 62.9319 19.8234 62.6427 18.7023 62.0665ZM56.638 24.3417C55.7278 24.9306 54.5941 25.2274 53.4476 25.2274C52.3011 25.2274 51.1674 24.9306 50.2572 24.3417C49.3676 23.766 48.4572 22.7266 48.4572 21.2695C48.4572 19.8123 49.3676 18.7729 50.2572 18.1973C51.1674 17.6083 52.3011 17.3115 53.4476 17.3115C54.5941 17.3115 55.7278 17.6083 56.638 18.1973C57.5276 18.7729 58.438 19.8123 58.438 21.2695C58.438 22.7266 57.5276 23.766 56.638 24.3417ZM34.9028 16.1626C34.5461 17.4937 32.5825 18.1241 30.517 17.5707C28.4515 17.0172 27.0662 15.4895 27.4229 14.1584C27.7796 12.8273 29.7431 12.1969 31.8086 12.7503C33.8741 13.3038 35.2594 14.8315 34.9028 16.1626ZM18.9108 32.0581C19.2306 33.2515 17.9642 34.6277 16.0823 35.132C14.2004 35.6362 12.4156 35.0775 12.0958 33.8841C11.776 32.6907 13.0424 31.3145 14.9243 30.8103C16.8062 30.306 18.591 30.8647 18.9108 32.0581ZM72.8069 46.0494C74.6602 46.0494 76.1626 45.0864 76.1626 43.8984C76.1626 42.7104 74.6602 41.7473 72.8069 41.7473C70.9537 41.7473 69.4513 42.7104 69.4513 43.8984C69.4513 45.0864 70.9537 46.0494 72.8069 46.0494ZM59.0707 66.7395C57.7396 66.3829 57.1092 64.4193 57.6626 62.3538C58.2161 60.2883 59.7438 58.903 61.0749 59.2597C62.406 59.6163 63.0364 61.5799 62.483 63.6454C61.9295 65.7109 60.4018 67.0962 59.0707 66.7395ZM37.788 71.3456C40.259 71.3456 42.2622 70.0359 42.2622 68.4202C42.2622 66.8046 40.259 65.4948 37.788 65.4948C35.317 65.4948 33.3139 66.8046 33.3139 68.4202C33.3139 70.0359 35.317 71.3456 37.788 71.3456ZM21.7413 60.3298C20.5478 61.0189 18.7136 60.0762 17.6444 58.2243C16.5752 56.3724 16.676 54.3126 17.8694 53.6236C19.0629 52.9345 20.8971 53.8772 21.9663 55.7291C23.0354 57.581 22.9347 59.6408 21.7413 60.3298ZM53.4476 23.1624C55.0633 23.1624 56.373 22.3149 56.373 21.2695C56.373 20.224 55.0633 19.3765 53.4476 19.3765C51.8319 19.3765 50.5222 20.224 50.5222 21.2695C50.5222 22.3149 51.8319 23.1624 53.4476 23.1624Z" fill="black"/>
<path fill-rule="evenodd" clip-rule="evenodd" d="M29.7002 34.606C30.2704 34.606 30.7327 35.0682 30.7327 35.6385V40.1987C30.7327 40.7689 30.2704 41.2312 29.7002 41.2312C29.1299 41.2312 28.6677 40.7689 28.6677 40.1987V35.6385C28.6677 35.0682 29.1299 34.606 29.7002 34.606ZM54.4801 34.606C55.0504 34.606 55.5126 35.0682 55.5126 35.6385V40.1987C55.5126 40.7689 55.0504 41.2312 54.4801 41.2312C53.9099 41.2312 53.4476 40.7689 53.4476 40.1987V35.6385C53.4476 35.0682 53.9099 34.606 54.4801 34.606ZM47.7588 40.4733C48.0822 40.9429 47.9638 41.5859 47.4942 41.9094C45.6615 43.1718 44.0448 43.9666 42.3105 43.9842C40.5686 44.0019 38.9205 43.235 37.0232 41.9044C36.5563 41.577 36.4432 40.9331 36.7706 40.4662C37.0981 39.9994 37.7419 39.8863 38.2088 40.2137C39.992 41.4643 41.2001 41.9304 42.2895 41.9193C43.3863 41.9082 44.5756 41.4123 46.3228 40.2088C46.7923 39.8853 47.4353 40.0038 47.7588 40.4733Z" fill="black"/>
<defs>
<filter id="filter0_i_125_1664" x="0.676147" y="0.333374" width="83" height="83" filterUnits="userSpaceOnUse" color-interpolation-filters="sRGB">
<feFlood flood-opacity="0" result="BackgroundImageFix"/>
<feBlend mode="normal" in="SourceGraphic" in2="BackgroundImageFix" result="shape"/>
<feColorMatrix in="SourceAlpha" type="matrix" values="0 0 0 0 0 0 0 0 0 0 0 0 0 0 0 0 0 0 127 0" result="hardAlpha"/>
<feOffset dx="8"/>
<feComposite in2="hardAlpha" operator="arithmetic" k2="-1" k3="1"/>
<feColorMatrix type="matrix" values="0 0 0 0 0 0 0 0 0 0 0 0 0 0 0 0 0 0 0.2 0"/>
<feBlend mode="normal" in2="shape" result="effect1_innerShadow_125_1664"/>
</filter>
</defs>
</svg>
