<svg width="80" height="87" viewBox="0 0 80 87" fill="none" xmlns="http://www.w3.org/2000/svg">
<path fill-rule="evenodd" clip-rule="evenodd" d="M40 4C38.6187 3.99997 37.2375 4.35723 35.9998 5.0718L22.4628 12.8874L40 43.2625L5.99962 23.6277C5.30773 24.8246 4.92578 26.2007 4.92578 27.6312V43.2624L40 43.2625L5.99962 62.8971C6.69015 64.0917 7.6894 65.108 8.92578 65.8218L22.4628 73.6374L40 43.2625V82.5248C41.3811 82.5248 42.7623 82.1675 43.9998 81.453L57.5368 73.6374L40 43.2625L74 62.8971C74.6919 61.7001 75.0738 60.3241 75.0738 58.8936V43.2625H40L74 23.6277C73.3095 22.433 72.3102 21.4168 71.0738 20.703L57.5368 12.8874L40 43.2625V4Z" fill="#F1F1F1"/>
<path d="M57.5368 73.6374L71.0738 65.8218C72.3102 65.108 73.3095 64.0918 74 62.8971L40 43.2625L57.5368 73.6374Z" fill="#D9D9D9"/>
<path d="M75.0738 43.2625V27.6312C75.0738 26.2007 74.6919 24.8246 74 23.6277L40 43.2625H75.0738Z" fill="#D9D9D9"/>
<path d="M43.9998 5.0718C42.7623 4.3573 41.3811 4.00003 40 4V43.2625L57.5368 12.8874L43.9998 5.0718Z" fill="#D9D9D9"/>
<path d="M22.4628 12.8874L8.92578 20.703C7.6894 21.4168 6.69015 22.433 5.99962 23.6277L40 43.2625L22.4628 12.8874Z" fill="#D9D9D9"/>
<path d="M4.92578 43.2624V58.8936C4.92578 60.3241 5.30773 61.7001 5.99962 62.8971L40 43.2625L4.92578 43.2624Z" fill="#D9D9D9"/>
<path d="M35.9998 81.453C37.2375 82.1676 38.6187 82.5248 40 82.5248V43.2625L22.4628 73.6374L35.9998 81.453Z" fill="#D9D9D9"/>
<path fill-rule="evenodd" clip-rule="evenodd" d="M45.9998 1.60769L73.0738 17.2389C76.7867 19.3825 79.0738 23.344 79.0738 27.6312V58.8936C79.0738 63.1808 76.7867 67.1423 73.0738 69.2859L45.9998 84.9171C42.287 87.0607 37.7126 87.0607 33.9998 84.9171L6.92578 69.2859C3.21297 67.1423 0.925781 63.1808 0.925781 58.8936V27.6312C0.925781 23.344 3.21297 19.3825 6.92578 17.2389L33.9998 1.60769C37.7126 -0.535898 42.287 -0.535898 45.9998 1.60769ZM43.9998 5.0718C41.5246 3.64273 38.475 3.64273 35.9998 5.0718L8.92578 20.703C6.45057 22.1321 4.92578 24.7731 4.92578 27.6312V58.8936C4.92578 61.7517 6.45057 64.3927 8.92578 65.8218L35.9998 81.453C38.475 82.8821 41.5246 82.8821 43.9998 81.453L71.0738 65.8218C73.549 64.3927 75.0738 61.7517 75.0738 58.8936V27.6312C75.0738 24.7731 73.549 22.1321 71.0738 20.703L43.9998 5.0718Z" fill="white"/>
<g filter="url(#filter0_d_175_4392)">
<path fill-rule="evenodd" clip-rule="evenodd" d="M20.9258 32.1557C20.9258 28.7336 23.7089 26 27.0924 26H51.7591C55.1426 26 57.9258 28.7336 57.9258 32.1557V49.3255C57.9258 52.7475 55.1426 55.4811 51.7591 55.4811H49.8886L45.9423 60.5265C45.7083 60.8256 45.3524 61 44.9758 61C44.5992 61 44.2432 60.8256 44.0093 60.5265L40.063 55.4811H27.0924C23.7089 55.4811 20.9258 52.7475 20.9258 49.3255V32.1557ZM27.0924 28.5C25.0267 28.5 23.3924 30.159 23.3924 32.1557V49.3255C23.3924 51.3221 25.0267 52.9811 27.0924 52.9811H40.6591C41.0357 52.9811 41.3917 53.1555 41.6256 53.4546L44.9758 57.7378L48.326 53.4546C48.5599 53.1555 48.9159 52.9811 49.2924 52.9811H51.7591C53.8248 52.9811 55.4591 51.3221 55.4591 49.3255V32.1557C55.4591 30.159 53.8248 28.5 51.7591 28.5H27.0924ZM27.0924 34.6085C27.0924 33.9181 27.6446 33.3585 28.3258 33.3585H40.6591C41.3403 33.3585 41.8924 33.9181 41.8924 34.6085C41.8924 35.2988 41.3403 35.8585 40.6591 35.8585H28.3258C27.6446 35.8585 27.0924 35.2988 27.0924 34.6085ZM44.3591 34.6085C44.3591 33.9181 44.9113 33.3585 45.5924 33.3585H50.5258C51.2069 33.3585 51.7591 33.9181 51.7591 34.6085C51.7591 35.2988 51.2069 35.8585 50.5258 35.8585H45.5924C44.9113 35.8585 44.3591 35.2988 44.3591 34.6085ZM27.0924 40.7406C27.0924 40.0502 27.6446 39.4906 28.3258 39.4906H50.5258C51.2069 39.4906 51.7591 40.0502 51.7591 40.7406C51.7591 41.4309 51.2069 41.9906 50.5258 41.9906H28.3258C27.6446 41.9906 27.0924 41.4309 27.0924 40.7406ZM27.0924 46.8726C27.0924 46.1823 27.6446 45.6226 28.3258 45.6226H33.2591C33.9403 45.6226 34.4924 46.1823 34.4924 46.8726C34.4924 47.563 33.9403 48.1226 33.2591 48.1226H28.3258C27.6446 48.1226 27.0924 47.563 27.0924 46.8726ZM36.9591 46.8726C36.9591 46.1823 37.5113 45.6226 38.1924 45.6226H50.5258C51.2069 45.6226 51.7591 46.1823 51.7591 46.8726C51.7591 47.563 51.2069 48.1226 50.5258 48.1226H38.1924C37.5113 48.1226 36.9591 47.563 36.9591 46.8726Z" fill="white"/>
<path fill-rule="evenodd" clip-rule="evenodd" d="M23.3924 32.1557C23.3924 30.159 25.0267 28.5 27.0924 28.5H51.7591C53.8248 28.5 55.4591 30.159 55.4591 32.1557V49.3255C55.4591 51.3221 53.8248 52.9811 51.7591 52.9811H49.2924C48.9159 52.9811 48.5599 53.1555 48.326 53.4546L44.9758 57.7378L41.6256 53.4546C41.3917 53.1555 41.0357 52.9811 40.6591 52.9811H27.0924C25.0267 52.9811 23.3924 51.3221 23.3924 49.3255V32.1557ZM27.0924 34.6085C27.0924 33.9181 27.6446 33.3585 28.3258 33.3585H40.6591C41.3403 33.3585 41.8924 33.9181 41.8924 34.6085C41.8924 35.2988 41.3403 35.8585 40.6591 35.8585H28.3258C27.6446 35.8585 27.0924 35.2988 27.0924 34.6085ZM44.3591 34.6085C44.3591 33.9181 44.9113 33.3585 45.5924 33.3585H50.5258C51.2069 33.3585 51.7591 33.9181 51.7591 34.6085C51.7591 35.2988 51.2069 35.8585 50.5258 35.8585H45.5924C44.9113 35.8585 44.3591 35.2988 44.3591 34.6085ZM27.0924 40.7406C27.0924 40.0502 27.6446 39.4906 28.3258 39.4906H50.5258C51.2069 39.4906 51.7591 40.0502 51.7591 40.7406C51.7591 41.4309 51.2069 41.9906 50.5258 41.9906H28.3258C27.6446 41.9906 27.0924 41.4309 27.0924 40.7406ZM27.0924 46.8726C27.0924 46.1823 27.6446 45.6226 28.3258 45.6226H33.2591C33.9403 45.6226 34.4924 46.1823 34.4924 46.8726C34.4924 47.563 33.9403 48.1226 33.2591 48.1226H28.3258C27.6446 48.1226 27.0924 47.563 27.0924 46.8726ZM36.9591 46.8726C36.9591 46.1823 37.5113 45.6226 38.1924 45.6226H50.5258C51.2069 45.6226 51.7591 46.1823 51.7591 46.8726C51.7591 47.563 51.2069 48.1226 50.5258 48.1226H38.1924C37.5113 48.1226 36.9591 47.563 36.9591 46.8726Z" fill="#D9D9D9"/>
</g>
<defs>
<filter id="filter0_d_175_4392" x="16.9258" y="22" width="45" height="43" filterUnits="userSpaceOnUse" color-interpolation-filters="sRGB">
<feFlood flood-opacity="0" result="BackgroundImageFix"/>
<feColorMatrix in="SourceAlpha" type="matrix" values="0 0 0 0 0 0 0 0 0 0 0 0 0 0 0 0 0 0 127 0" result="hardAlpha"/>
<feOffset/>
<feGaussianBlur stdDeviation="2"/>
<feComposite in2="hardAlpha" operator="out"/>
<feColorMatrix type="matrix" values="0 0 0 0 0 0 0 0 0 0 0 0 0 0 0 0 0 0 0.25 0"/>
<feBlend mode="normal" in2="BackgroundImageFix" result="effect1_dropShadow_175_4392"/>
<feBlend mode="normal" in="SourceGraphic" in2="effect1_dropShadow_175_4392" result="shape"/>
</filter>
</defs>
</svg>
