<svg width="21" height="21" viewBox="0 0 21 21" fill="none" xmlns="http://www.w3.org/2000/svg">
<rect x="1" y="1" width="19" height="19" rx="3" fill="white" stroke="black" stroke-width="2"/>
<path d="M15.4467 7.77283C15.2935 8.03905 15.112 8.32961 14.9288 8.61144C14.8671 8.70624 14.8058 8.79919 14.746 8.88892L14.7094 8.85296L14.0475 9.89983C14.0446 9.90443 14.0409 9.91014 14.0365 9.91691C13.9771 10.0082 13.7923 10.2924 13.7631 10.6467C13.7255 11.103 13.9364 11.4451 14.0976 11.6522C14.1793 11.761 14.2765 11.8625 14.3481 11.9351C14.4272 12.0152 14.518 12.1025 14.6021 12.1835L14.6141 12.195C14.8023 12.3762 14.9711 12.5401 15.0987 12.6879L15.1065 12.6969L15.1145 12.7058C15.2855 12.8945 15.438 13.0681 15.5705 13.2266H15.2313C15.2203 13.2165 15.2072 13.204 15.1917 13.1888C15.121 13.1192 15.0441 13.0352 14.9292 12.9098C14.8997 12.8776 14.8678 12.8428 14.8328 12.8047C14.6713 12.629 14.4708 12.4144 14.2166 12.1647L14.2099 12.1581L14.2031 12.1516C13.6582 11.6362 13.2132 11.3041 12.7994 11.1324C13.0097 10.9956 13.1779 10.8292 13.3104 10.6981C13.3169 10.6917 13.3233 10.6853 13.3297 10.679L13.3481 10.6608L13.3656 10.6417C13.9501 10.0011 14.4253 9.2168 14.7445 8.62429C14.9072 8.32212 15.0363 8.05696 15.1252 7.86611C15.1407 7.83274 15.1551 7.80159 15.1682 7.77283H15.4467ZM10.7583 9.99771C10.7583 10.348 10.9016 10.9126 11.3294 11.2036C11.2363 11.2648 11.1451 11.3436 11.062 11.4451C10.8931 11.651 10.8253 11.872 10.7943 12.0289C10.7636 12.1842 10.7577 12.3368 10.7577 12.4616V13.2272C9.66591 13.2264 8.31991 12.559 7.31087 11.1365L7.31092 11.1364L7.30424 11.1273C6.48225 9.99592 5.96828 9.01537 5.66309 8.29163C5.58177 8.09878 5.51579 7.92541 5.46299 7.77345H5.89504C6.25665 8.7727 6.72808 9.70736 7.1844 10.4154C7.42109 10.7827 7.67149 11.1168 7.91964 11.3721C8.04277 11.4988 8.18792 11.6297 8.35143 11.7354C8.49716 11.8296 8.76195 11.9729 9.10159 11.9729C9.20852 11.9729 9.40681 11.9632 9.62265 11.8676C9.86681 11.7594 10.0507 11.579 10.1696 11.368C10.3548 11.0392 10.3611 10.6616 10.3611 10.4493V8.42754V8.39985L10.3596 8.3722C10.3472 8.14739 10.315 7.94909 10.269 7.77283H10.7583V9.99771ZM10.7573 13.708C10.7572 13.7079 10.7573 13.7057 10.7576 13.7017C10.7575 13.7061 10.7573 13.7081 10.7573 13.708ZM11.1416 13.2014C11.1438 13.2008 11.145 13.2005 11.145 13.2005C11.145 13.2005 11.1439 13.2008 11.1416 13.2014ZM4.75333 7.77389C4.75329 7.77385 4.75456 7.77373 4.75724 7.77363L4.75333 7.77389ZM14.8927 10.4342L14.1922 11.1479C14.3318 11.2045 14.4723 11.2373 14.6082 11.2533L14.8927 10.4342ZM16.558 13.2265C16.5644 13.2257 16.568 13.2256 16.5681 13.2258C16.5683 13.2259 16.5651 13.2263 16.558 13.2265ZM16.3614 7.77295C16.3667 7.7731 16.3691 7.77335 16.369 7.77343C16.3689 7.77352 16.3663 7.77344 16.3614 7.77295Z" fill="black" stroke="black" stroke-width="2"/>
</svg>
