<svg width="106" height="14" viewBox="0 0 106 14" fill="none" xmlns="http://www.w3.org/2000/svg">
<path d="M105.613 6.33018C106.129 6.62788 106.129 7.37212 105.613 7.66982L94.8188 13.8952C94.3026 14.1929 93.6574 13.8208 93.6574 13.2254L93.6574 10.0357C93.6574 9.60852 93.3108 9.26224 92.8832 9.26224L13.1168 9.26223C12.6892 9.26223 12.3426 9.60851 12.3426 10.0357L12.3426 13.2254C12.3426 13.8208 11.6974 14.1929 11.1812 13.8952L0.38713 7.66982C-0.129044 7.37212 -0.129044 6.62787 0.38713 6.33018L11.1812 0.104773C11.6974 -0.192926 12.3426 0.179197 12.3426 0.774594L12.3426 4.12111C12.3426 4.54827 12.6892 4.89455 13.1168 4.89455L92.8832 4.89456C93.3108 4.89456 93.6574 4.54827 93.6574 4.12111L93.6574 0.774598C93.6574 0.179201 94.3026 -0.192924 94.8188 0.104775L105.613 6.33018Z" fill="#D8D8D8"/>
</svg>
