<svg width="44" height="25" viewBox="0 0 44 25" fill="none" xmlns="http://www.w3.org/2000/svg">
<path d="M43.5939 7.3564L22.9605 24.2984C21.9173 25.3209 20.7771 25.2258 19.5398 24.0131L0.434891 7.1424C-0.220135 6.50038 -0.135223 5.31147 0.689625 3.57566C1.12631 2.48186 1.81773 1.62584 2.76388 1.0076C3.58873 0.389369 4.24375 0.0564734 4.72896 0.00891685C5.23842 -0.0386397 5.60233 0.10403 5.82067 0.436926L21.5413 15.4172L38.2445 0.65093C38.4628 0.318034 38.8146 0.175365 39.2998 0.222921C39.8093 0.270478 40.4764 0.603373 41.3013 1.22161C42.1746 1.83984 42.8661 2.69586 43.3755 3.78966C44.1276 5.47792 44.2004 6.66683 43.5939 7.3564Z" fill="#4C956C"/>
</svg>
