<svg width="40" height="68" viewBox="0 0 40 68" fill="none" xmlns="http://www.w3.org/2000/svg">
<path d="M28.024 0.627675L1.59447 32.5156C-0.000576019 34.1278 0.1478 35.8899 2.0396 37.8021L28.3579 67.3279C29.3594 68.3402 31.2141 68.209 33.922 66.9342C35.6283 66.2593 36.9637 65.1908 37.9281 63.7286C38.8926 62.4538 39.4119 61.4415 39.4861 60.6916C39.5603 59.9043 39.3377 59.3419 38.8184 59.0044L15.4491 34.7089L38.4845 8.8949C39.0039 8.55746 39.2264 8.01381 39.1522 7.26395C39.0781 6.4766 38.5587 5.44554 37.5943 4.17077C36.6298 2.82102 35.2945 1.75247 33.5881 0.965112C30.9544 -0.197174 29.0997 -0.309653 28.024 0.627675Z" fill="#4C956C"/>
</svg>
