<svg width="68" height="99" viewBox="0 0 68 99" fill="none" xmlns="http://www.w3.org/2000/svg">
<path fill-rule="evenodd" clip-rule="evenodd" d="M67.1777 49.5L21.8389 94.8388C16.9573 99.7204 9.04278 99.7204 4.16122 94.8388C-0.720329 89.9573 -0.720329 82.0427 4.16122 77.1612L31.8224 49.5L4.16123 21.8388C-0.720326 16.9573 -0.720326 9.04272 4.16123 4.16116C9.04278 -0.720391 16.9573 -0.720391 21.8389 4.16116L67.1777 49.5Z" fill="white" fill-opacity="0.75"/>
<path fill-rule="evenodd" clip-rule="evenodd" d="M56.571 49.5L16.5355 89.5355C14.5829 91.4882 11.4171 91.4882 9.46444 89.5355C7.51182 87.5829 7.51182 84.4171 9.46444 82.4645L42.4289 49.5L9.46444 16.5355C7.51182 14.5829 7.51182 11.4171 9.46444 9.46446C11.4171 7.51184 14.5829 7.51184 16.5355 9.46446L56.571 49.5Z" fill="#F7B779" fill-opacity="0.75"/>
</svg>
