<svg width="14" height="106" viewBox="0 0 14 106" fill="none" xmlns="http://www.w3.org/2000/svg">
<path d="M6.33018 0.38713C6.62788 -0.129042 7.37212 -0.129044 7.66982 0.387128L13.8952 11.1812C14.1929 11.6974 13.8208 12.3426 13.2254 12.3426H10.0357C9.60852 12.3426 9.26224 12.6892 9.26224 13.1168V92.8832C9.26224 93.3108 9.60852 93.6574 10.0357 93.6574H13.2254C13.8208 93.6574 14.1929 94.3026 13.8952 94.8188L7.66982 105.613C7.37212 106.129 6.62788 106.129 6.33018 105.613L0.104777 94.8188C-0.192922 94.3026 0.179201 93.6574 0.774599 93.6574H4.12111C4.54827 93.6574 4.89456 93.3108 4.89456 92.8832V13.1168C4.89456 12.6892 4.54827 12.3426 4.12111 12.3426H0.774598C0.179201 12.3426 -0.192923 11.6974 0.104775 11.1812L6.33018 0.38713Z" fill="#D8D8D8"/>
</svg>
