<svg width="20" height="20" viewBox="0 0 20 20" fill="none" xmlns="http://www.w3.org/2000/svg">
<path d="M9.47922 0.906825C9.64776 0.364393 10.3522 0.364391 10.5208 0.906825L12.1619 6.18876C12.3637 6.83821 12.9516 7.29888 13.6376 7.29888H18.9484C19.2014 7.29888 19.3927 7.45956 19.4691 7.7057C19.546 7.9532 19.483 8.21921 19.2628 8.38645L14.9664 11.6509C14.4254 12.0619 14.2092 12.7783 14.4101 13.4246L16.0512 18.7065C16.141 18.9957 16.031 19.2458 15.8449 19.3873C15.662 19.5262 15.4279 19.5483 15.2159 19.3873L10.9194 16.1229C10.3728 15.7075 9.62722 15.7075 9.08055 16.1229L4.78409 19.3873C4.57209 19.5483 4.33801 19.5262 4.15514 19.3873C3.96896 19.2458 3.85897 18.9957 3.94884 18.7065L5.58994 13.4246C5.79075 12.7783 5.57456 12.0619 5.03364 11.6509L0.737176 8.38645L0.434687 8.78458L0.737176 8.38645C0.517051 8.21921 0.453972 7.9532 0.530869 7.7057C0.607345 7.45956 0.798643 7.29888 1.05165 7.29888H6.36237C7.04836 7.29888 7.63633 6.83821 7.83812 6.18876L9.47922 0.906825Z" stroke="black"/>
</svg>
