<svg width="32" height="32" viewBox="0 0 32 32" fill="none" xmlns="http://www.w3.org/2000/svg">
<path d="M0 7.44C0 3.331 3.331 0 7.44 0H24.56C28.669 0 32 3.331 32 7.44V24.56C32 28.669 28.669 32 24.56 32H7.44C3.331 32 0 28.669 0 24.56V7.44Z" fill="#571F69"/>
<path d="M18.4482 0H24.56C28.669 0 32 3.331 32 7.44V12.7108C30.7576 13.2569 29.3842 13.56 27.94 13.56C22.3619 13.56 17.84 9.03808 17.84 3.46C17.84 2.24457 18.0547 1.07929 18.4482 0Z" fill="#CC2127"/>
<path d="M21.1904 7.16H4.8V24.84H9.36191V19.0881H18.1034L22.0919 24.84H27.2L22.802 19.0616C24.168 18.8496 25.1513 18.3459 25.7523 17.5507C26.3532 16.7556 26.6538 15.4832 26.6538 13.7868V12.4614C26.6538 11.4541 26.5446 10.659 26.3533 10.0493C26.162 9.4397 25.8342 8.90949 25.3698 8.4324C24.8781 7.98179 24.3319 7.66372 23.6762 7.45173C23.0206 7.26622 22.201 7.16 21.1904 7.16ZM20.4529 15.1918H9.36191V11.0565H20.4529C21.081 11.0565 21.5181 11.1624 21.7366 11.3481C21.9552 11.5336 22.0919 11.8781 22.0919 12.3819V13.8662C22.0919 14.3963 21.9552 14.7408 21.7366 14.9264C21.5181 15.1119 21.0811 15.1915 20.4529 15.1915V15.1918Z" fill="white"/>
</svg>
