<svg width="32" height="32" viewBox="0 0 32 32" fill="none" xmlns="http://www.w3.org/2000/svg">
<path fill-rule="evenodd" clip-rule="evenodd" d="M12.696 20.2414L12.695 11.0535L21.341 15.6633L12.696 20.2414ZM31.68 9.46135C31.68 9.46135 31.367 7.20805 30.408 6.21578C29.191 4.91286 27.827 4.90671 27.202 4.83109C22.724 4.5 16.007 4.5 16.007 4.5H15.993C15.993 4.5 9.276 4.5 4.798 4.83109C4.172 4.90671 2.809 4.91286 1.591 6.21578C0.632003 7.20805 0.319997 9.46135 0.319997 9.46135C0.319997 9.46135 0 12.1081 0 14.7538V17.235C0 19.8817 0.319997 22.5274 0.319997 22.5274C0.319997 22.5274 0.632003 24.7807 1.591 25.773C2.809 27.0759 4.408 27.035 5.12 27.171C7.68 27.4223 16 27.5 16 27.5C16 27.5 22.724 27.4898 27.202 27.1587C27.827 27.082 29.191 27.0759 30.408 25.773C31.367 24.7807 31.68 22.5274 31.68 22.5274C31.68 22.5274 32 19.8817 32 17.235V14.7538C32 12.1081 31.68 9.46135 31.68 9.46135Z" fill="#F01D1C"/>
<path d="M12.696 20.2414L12.695 11.0535L21.341 15.6633L12.696 20.2414Z" fill="white"/>
</svg>
